<?xml version="1.0" encoding="UTF-8" standalone="no"?>
<!DOCTYPE svg PUBLIC "-//W3C//DTD SVG 1.1//EN" "http://www.w3.org/Graphics/SVG/1.1/DTD/svg11.dtd">
<svg width="100%" height="100%" viewBox="0 0 304 304" version="1.1" xmlns="http://www.w3.org/2000/svg" xmlns:xlink="http://www.w3.org/1999/xlink" xml:space="preserve" xmlns:serif="http://www.serif.com/" style="fill-rule:evenodd;clip-rule:evenodd;stroke-linejoin:round;stroke-miterlimit:2;">
    <rect x="0" y="0" width="304" height="304" style="fill:white;"/>
    <g transform="matrix(1,0,0,1,0.82,1.15)">
        <g transform="matrix(1,0,0,1,16,106)">
            <path d="M115.75,47.18C115.75,59.95 105.76,69.36 93.5,69.36C81.24,69.36 71.25,59.95 71.25,47.18C71.25,34.32 81.24,25 93.5,25C105.76,25 115.75,34.32 115.75,47.18ZM106.01,47.18C106.01,39.2 100.22,33.74 93.5,33.74C86.78,33.74 80.99,39.2 80.99,47.18C80.99,55.08 86.78,60.62 93.5,60.62C100.22,60.62 106.01,55.07 106.01,47.18Z" style="fill:rgb(234,67,53);fill-rule:nonzero;"/>
        </g>
        <g transform="matrix(1,0,0,1,16,106)">
            <path d="M163.75,47.18C163.75,59.95 153.76,69.36 141.5,69.36C129.24,69.36 119.25,59.95 119.25,47.18C119.25,34.33 129.24,25 141.5,25C153.76,25 163.75,34.32 163.75,47.18ZM154.01,47.18C154.01,39.2 148.22,33.74 141.5,33.74C134.78,33.74 128.99,39.2 128.99,47.18C128.99,55.08 134.78,60.62 141.5,60.62C148.22,60.62 154.01,55.07 154.01,47.18Z" style="fill:rgb(251,188,5);fill-rule:nonzero;"/>
        </g>
        <g transform="matrix(1,0,0,1,16,106)">
            <path d="M209.75,26.34L209.75,66.16C209.75,82.54 200.09,89.23 188.67,89.23C177.92,89.23 171.45,82.04 169.01,76.16L177.49,72.63C179,76.24 182.7,80.5 188.66,80.5C195.97,80.5 200.5,75.99 200.5,67.5L200.5,64.31L200.16,64.31C197.98,67 193.78,69.35 188.48,69.35C177.39,69.35 167.23,59.69 167.23,47.26C167.23,34.74 177.39,25 188.48,25C193.77,25 197.97,27.35 200.16,29.96L200.5,29.96L200.5,26.35L209.75,26.35L209.75,26.34ZM201.19,47.26C201.19,39.45 195.98,33.74 189.35,33.74C182.63,33.74 177,39.45 177,47.26C177,54.99 182.63,60.62 189.35,60.62C195.98,60.62 201.19,54.99 201.19,47.26Z" style="fill:rgb(66,133,244);fill-rule:nonzero;"/>
        </g>
        <g transform="matrix(1,0,0,1,16,106)">
            <rect x="215.5" y="3" width="9.5" height="65" style="fill:rgb(52,168,83);fill-rule:nonzero;"/>
        </g>
        <g transform="matrix(1,0,0,1,16,106)">
            <path d="M262.02,54.48L269.58,59.52C267.14,63.13 261.26,69.35 251.1,69.35C238.5,69.35 229.09,59.61 229.09,47.17C229.09,33.98 238.58,24.99 250.01,24.99C261.52,24.99 267.15,34.15 268.99,39.1L270,41.62L240.35,53.9C242.62,58.35 246.15,60.62 251.1,60.62C256.06,60.62 259.5,58.18 262.02,54.48ZM238.75,46.5L258.57,38.27C257.48,35.5 254.2,33.57 250.34,33.57C245.39,33.57 238.5,37.94 238.75,46.5Z" style="fill:rgb(234,67,53);fill-rule:nonzero;"/>
        </g>
        <g transform="matrix(1,0,0,1,16,106)">
            <path d="M35.29,41.41L35.29,32L67,32C67.31,33.64 67.47,35.58 67.47,37.68C67.47,44.74 65.54,53.47 59.32,59.69C53.27,65.99 45.54,69.35 35.3,69.35C16.32,69.35 0.36,53.89 0.36,34.91C0.36,15.93 16.32,0.47 35.3,0.47C45.8,0.47 53.28,4.59 58.9,9.96L52.26,16.6C48.23,12.82 42.77,9.88 35.29,9.88C21.43,9.88 10.59,21.05 10.59,34.91C10.59,48.77 21.43,59.94 35.29,59.94C44.28,59.94 49.4,56.33 52.68,53.05C55.34,50.39 57.09,46.59 57.78,41.4L35.29,41.41Z" style="fill:rgb(66,133,244);fill-rule:nonzero;"/>
        </g>
    </g>
</svg>
