<?xml version="1.0" encoding="UTF-8" standalone="no"?>
<!DOCTYPE svg PUBLIC "-//W3C//DTD SVG 1.1//EN" "http://www.w3.org/Graphics/SVG/1.1/DTD/svg11.dtd">
<svg width="100%" height="100%" viewBox="0 0 383 383" version="1.1" xmlns="http://www.w3.org/2000/svg" xmlns:xlink="http://www.w3.org/1999/xlink" xml:space="preserve" xmlns:serif="http://www.serif.com/" style="fill-rule:evenodd;clip-rule:evenodd;stroke-linejoin:round;stroke-miterlimit:2;">
    <rect x="0" y="0" width="383" height="383" style="fill:white;"/>
    <g>
        <g id="path17" transform="matrix(1,0,0,1,15.77,62.1075)">
            <path d="M349.007,250.597C349.007,254.368 346.238,256.899 342.96,256.899L342.96,256.876C339.589,256.899 336.871,254.368 336.871,250.598C336.871,246.829 339.589,244.305 342.96,244.305C346.239,244.304 349.007,246.828 349.007,250.597ZM351.46,250.597C351.46,245.422 347.44,242.418 342.96,242.418C338.449,242.418 334.429,245.422 334.429,250.597C334.429,255.769 338.45,258.785 342.96,258.785C347.441,258.785 351.46,255.769 351.46,250.597M341.55,251.289L342.46,251.289L344.569,254.992L346.885,254.992L344.549,251.133C345.756,251.047 346.749,250.472 346.749,248.847C346.749,246.828 345.357,246.179 342.999,246.179L339.588,246.179L339.588,254.992L341.549,254.992L341.549,251.289M341.55,249.797L341.55,247.675L342.914,247.675C343.656,247.675 344.667,247.735 344.667,248.64C344.667,249.625 344.144,249.797 343.269,249.797L341.55,249.797" style="fill-rule:nonzero;"/>
        </g>
        <g id="path19" transform="matrix(1,0,0,1,15.77,62.1075)">
            <path d="M294.218,205.515L304.816,234.508L283.292,234.508L294.218,205.515ZM282.868,194.226L258.445,256.106L275.691,256.106L279.554,245.172L308.457,245.172L312.113,256.106L330.835,256.106L306.23,194.218L282.868,194.226ZM233.835,256.129L251.332,256.129L251.332,194.207L233.832,194.203L233.835,256.129ZM112.368,194.203L97.77,243.281L83.786,194.207L64.907,194.203L84.879,256.129L110.086,256.129L130.219,194.203L112.368,194.203ZM183.093,207.687L190.613,207.687C201.523,207.687 208.579,212.585 208.579,225.296C208.579,238.01 201.523,242.909 190.613,242.909L183.093,242.909L183.093,207.687ZM165.743,194.203L165.743,256.129L194.109,256.129C209.222,256.129 214.157,253.617 219.493,247.981C223.262,244.024 225.7,235.34 225.7,225.847C225.7,217.14 223.637,209.379 220.04,204.543C213.559,195.894 204.223,194.203 190.29,194.203L165.743,194.203ZM0,194.117L0,256.129L17.645,256.129L17.645,209.043L31.317,209.047C35.844,209.047 39.071,210.175 41.251,212.504C44.016,215.449 45.145,220.203 45.145,228.899L45.145,256.129L62.243,256.129L62.243,221.867C62.243,197.414 46.657,194.117 31.407,194.117L0,194.117ZM137.583,194.203L137.59,256.129L155.079,256.129L155.079,194.203L137.583,194.203Z" style="fill-rule:nonzero;"/>
        </g>
    </g>
    <g id="path21" transform="matrix(1,0,0,1,45.4575,62.1075)">
        <path d="M47.023,70.902C47.023,70.902 69.527,37.699 114.46,34.264L114.46,22.218C64.691,26.215 21.593,68.367 21.593,68.367C21.593,68.367 46.003,138.932 114.46,145.393L114.46,132.589C64.223,126.269 47.023,70.902 47.023,70.902ZM114.46,107.125L114.46,118.851C76.492,112.082 65.953,72.614 65.953,72.614C65.953,72.614 84.183,52.419 114.46,49.144L114.46,62.011C114.437,62.011 114.421,62.004 114.402,62.004C98.511,60.097 86.097,74.942 86.097,74.942C86.097,74.942 93.055,99.933 114.46,107.125M114.46,0L114.46,22.218C115.921,22.106 117.382,22.011 118.851,21.961C175.433,20.054 212.3,68.367 212.3,68.367C212.3,68.367 169.957,119.855 125.843,119.855C121.8,119.855 118.015,119.48 114.46,118.85L114.46,132.589C117.5,132.975 120.652,133.202 123.941,133.202C164.992,133.202 194.679,112.237 223.425,87.424C228.191,91.241 247.703,100.527 251.714,104.592C224.382,127.475 160.683,145.921 124.57,145.921C121.089,145.921 117.746,145.71 114.46,145.393L114.46,164.699L270.492,164.699L270.492,0L114.46,0ZM114.46,49.144L114.46,34.265C115.906,34.164 117.363,34.086 118.851,34.039C159.539,32.761 186.233,69.004 186.233,69.004C186.233,69.004 157.401,109.047 126.487,109.047C122.038,109.047 118.049,108.332 114.459,107.125L114.459,62.011C130.299,63.925 133.487,70.922 143.01,86.797L164.19,68.938C164.19,68.938 148.729,48.661 122.666,48.661C119.833,48.66 117.122,48.859 114.46,49.144" style="fill:rgb(119,185,0);fill-rule:nonzero;"/>
    </g>
</svg>
