<?xml version="1.0" encoding="UTF-8" standalone="no"?><!DOCTYPE svg PUBLIC "-//W3C//DTD SVG 1.1//EN" "http://www.w3.org/Graphics/SVG/1.1/DTD/svg11.dtd"><svg width="100%" height="100%" viewBox="0 0 1501 1501" version="1.1" xmlns="http://www.w3.org/2000/svg" xmlns:xlink="http://www.w3.org/1999/xlink" xml:space="preserve" xmlns:serif="http://www.serif.com/" style="fill-rule:evenodd;clip-rule:evenodd;stroke-linejoin:round;stroke-miterlimit:2;"><rect id="Artboard1" x="0" y="0" width="1500" height="1500" style="fill:none;"/><rect x="0" y="0" width="1500" height="1500" style="fill:#7000e0;"/><g transform="matrix(0.838165,0,0,0.838165,12.7496,551.708)"><g transform="matrix(315.506,0,0,321.817,26,332)"><path d="M0.273,-0.568c-0.143,0 -0.226,0.075 -0.226,0.177c-0,0.101 0.082,0.137 0.17,0.162c0.072,0.02 0.112,0.031 0.112,0.065c0,0.03 -0.032,0.048 -0.088,0.048c-0.081,0 -0.144,-0.031 -0.191,-0.069l-0,0.147c0.049,0.032 0.118,0.052 0.198,0.052c0.15,0 0.236,-0.07 0.236,-0.179c-0,-0.117 -0.097,-0.148 -0.188,-0.17c-0.063,-0.017 -0.095,-0.029 -0.095,-0.059c-0,-0.027 0.028,-0.044 0.078,-0.044c0.063,0 0.13,0.022 0.169,0.049l-0,-0.136c-0.043,-0.027 -0.11,-0.043 -0.175,-0.043Z" style="fill:#f2f2f2;fill-rule:nonzero;"/></g><g transform="matrix(315.506,0,0,321.817,188.801,332)"><path d="M0.255,-0.682l-0.154,0l0,0.128l-0.079,0l-0,0.132l0.078,0l0,0.209c0,0.138 0.079,0.225 0.226,0.225c0.039,0 0.064,-0.004 0.087,-0.009l0,-0.134c-0.018,0.003 -0.035,0.005 -0.05,0.005c-0.062,0 -0.108,-0.027 -0.108,-0.097l-0,-0.199l0.148,0l0,-0.132l-0.148,0l0,-0.128Z" style="fill:#f2f2f2;fill-rule:nonzero;"/></g><g transform="matrix(315.506,0,0,321.817,326.993,332)"><path d="M0.283,0.014c0.083,0 0.146,-0.041 0.182,-0.099l0.016,0.085l0.135,-0l-0,-0.554l-0.135,0l-0.016,0.085c-0.036,-0.057 -0.099,-0.099 -0.182,-0.099c-0.125,0 -0.246,0.116 -0.246,0.293c-0,0.173 0.121,0.289 0.246,0.289Zm0.047,-0.144c-0.076,0 -0.132,-0.062 -0.132,-0.147c-0,-0.084 0.056,-0.147 0.132,-0.147c0.074,0 0.129,0.061 0.129,0.147c-0,0.086 -0.055,0.147 -0.129,0.147Z" style="fill:#f2f2f2;fill-rule:nonzero;"/></g><g transform="matrix(315.506,0,0,321.817,542.169,332)"><path d="M0.227,-0.803l-0.16,0l0,0.803l0.134,-0l0.016,-0.085c0.036,0.058 0.1,0.099 0.18,0.099c0.129,0 0.249,-0.114 0.249,-0.291c0,-0.177 -0.114,-0.291 -0.243,-0.291c-0.072,-0 -0.142,0.038 -0.176,0.095l-0,-0.33Zm0.126,0.379c0.076,-0 0.131,0.063 0.131,0.148c-0,0.085 -0.055,0.146 -0.13,0.146c-0.075,-0 -0.129,-0.06 -0.129,-0.147c-0,-0.086 0.054,-0.147 0.128,-0.147Z" style="fill:#f2f2f2;fill-rule:nonzero;"/></g><g transform="matrix(315.506,0,0,321.817,757.66,332)"><path d="M0.148,-0.63c0.048,0 0.087,-0.038 0.087,-0.087c0,-0.048 -0.039,-0.086 -0.087,-0.086c-0.05,-0 -0.088,0.038 -0.088,0.086c0,0.049 0.038,0.087 0.088,0.087Zm-0.08,0.63l0.16,-0l0,-0.554l-0.16,0l0,0.554Z" style="fill:#f2f2f2;fill-rule:nonzero;"/></g><g transform="matrix(315.506,0,0,321.817,850.734,332)"><rect x="0.068" y="-0.803" width="0.16" height="0.803" style="fill:#f2f2f2;fill-rule:nonzero;"/></g><g transform="matrix(315.506,0,0,321.817,943.808,332)"><path d="M0.148,-0.63c0.048,0 0.087,-0.038 0.087,-0.087c0,-0.048 -0.039,-0.086 -0.087,-0.086c-0.05,-0 -0.088,0.038 -0.088,0.086c0,0.049 0.038,0.087 0.088,0.087Zm-0.08,0.63l0.16,-0l0,-0.554l-0.16,0l0,0.554Z" style="fill:#f2f2f2;fill-rule:nonzero;"/></g><g transform="matrix(315.506,0,0,321.817,1036.88,332)"><path d="M0.255,-0.682l-0.154,0l0,0.128l-0.079,0l-0,0.132l0.078,0l0,0.209c0,0.138 0.079,0.225 0.226,0.225c0.039,0 0.064,-0.004 0.087,-0.009l0,-0.134c-0.018,0.003 -0.035,0.005 -0.05,0.005c-0.062,0 -0.108,-0.027 -0.108,-0.097l-0,-0.199l0.148,0l0,-0.132l-0.148,0l0,-0.128Z" style="fill:#f2f2f2;fill-rule:nonzero;"/></g><g transform="matrix(315.506,0,0,321.817,1175.71,332)"><path d="M0.587,-0.554l-0.164,0l-0.119,0.365l-0.004,0l-0.119,-0.365l-0.171,0l0.209,0.539l-0.094,0.225l0.159,0l0.303,-0.764Z" style="fill:#f2f2f2;fill-rule:nonzero;"/></g><g transform="matrix(315.506,0,0,321.817,1341.35,332)"><path d="M0.137,0.007c0.05,0 0.09,-0.04 0.09,-0.09c0,-0.051 -0.04,-0.09 -0.09,-0.09c-0.05,-0 -0.09,0.039 -0.09,0.09c-0,0.05 0.04,0.09 0.09,0.09Z" style="fill:#e80000;fill-rule:nonzero;"/></g><g transform="matrix(315.506,0,0,321.817,1429.06,332)"><path d="M0.283,0.014c0.083,0 0.146,-0.041 0.182,-0.099l0.016,0.085l0.135,-0l-0,-0.554l-0.135,0l-0.016,0.085c-0.036,-0.057 -0.099,-0.099 -0.182,-0.099c-0.125,0 -0.246,0.116 -0.246,0.293c-0,0.173 0.121,0.289 0.246,0.289Zm0.047,-0.144c-0.076,0 -0.132,-0.062 -0.132,-0.147c-0,-0.084 0.056,-0.147 0.132,-0.147c0.074,0 0.129,0.061 0.129,0.147c-0,0.086 -0.055,0.147 -0.129,0.147Z" style="fill:#f2f2f2;fill-rule:nonzero;"/></g><g transform="matrix(315.506,0,0,321.817,1644.23,332)"><path d="M0.148,-0.63c0.048,0 0.087,-0.038 0.087,-0.087c0,-0.048 -0.039,-0.086 -0.087,-0.086c-0.05,-0 -0.088,0.038 -0.088,0.086c0,0.049 0.038,0.087 0.088,0.087Zm-0.08,0.63l0.16,-0l0,-0.554l-0.16,0l0,0.554Z" style="fill:#f2f2f2;fill-rule:nonzero;"/></g></g></svg>