<?xml version="1.0" encoding="UTF-8" standalone="no"?><!DOCTYPE svg PUBLIC "-//W3C//DTD SVG 1.1//EN" "http://www.w3.org/Graphics/SVG/1.1/DTD/svg11.dtd"><svg width="100%" height="100%" viewBox="0 0 6255 6255" version="1.1" xmlns="http://www.w3.org/2000/svg" xmlns:xlink="http://www.w3.org/1999/xlink" xml:space="preserve" xmlns:serif="http://www.serif.com/" style="fill-rule:evenodd;clip-rule:evenodd;stroke-linejoin:round;stroke-miterlimit:2;"><rect x="-0" y="0" width="6254.17" height="6254.17" style="fill:#fff;"/><g><g><path d="M2199.59,902.82c-1071.59,-0 -1693.56,573.264 -1693.56,1352.9c0,771.996 614.478,1047.16 1273.92,1238.25c539.541,152.87 839.286,236.949 839.286,496.829c0,229.305 -239.796,366.889 -659.439,366.889c-606.983,-0 -1079.08,-236.949 -1431.28,-527.403l0,1123.6c367.188,244.592 884.248,397.463 1483.74,397.463c1124.04,-0 1768.5,-535.046 1768.5,-1368.19c-0,-894.291 -726.882,-1131.24 -1408.8,-1299.4c-472.099,-129.939 -711.895,-221.662 -711.895,-450.967c0,-206.375 209.822,-336.315 584.503,-336.315c472.098,0 974.171,168.157 1266.42,374.532l0,-1039.52c-322.225,-206.375 -824.298,-328.671 -1311.38,-328.671Z" style="fill:#7000e0;fill-rule:nonzero;"/></g><g><path d="M5145.57,5260.65c334.76,0 602.568,-273.165 602.568,-614.621c0,-348.285 -267.808,-614.621 -602.568,-614.621c-334.76,-0 -602.568,266.336 -602.568,614.621c0,341.456 267.808,614.621 602.568,614.621Z" style="fill:#e80000;fill-rule:nonzero;"/></g></g></svg>