<?xml version="1.0" encoding="UTF-8" standalone="no"?>
<!DOCTYPE svg PUBLIC "-//W3C//DTD SVG 1.1//EN" "http://www.w3.org/Graphics/SVG/1.1/DTD/svg11.dtd">
<svg width="100%" height="100%" viewBox="0 0 444 444" version="1.1" xmlns="http://www.w3.org/2000/svg" xmlns:xlink="http://www.w3.org/1999/xlink" xml:space="preserve" xmlns:serif="http://www.serif.com/" style="fill-rule:evenodd;clip-rule:evenodd;stroke-linejoin:round;stroke-miterlimit:2;">
    <g transform="matrix(1,0,0,0.997669,0,-2.04281e-14)">
        <rect x="0" y="0" width="444" height="429" style="fill:white;"/>
    </g>
    <g id="Vordergrund" transform="matrix(1,0,0,1,16,23.5)">
        <path d="M217.816,37.979C219.711,37.957 223.877,37.643 227.215,41.043C230.555,44.444 230.742,48.666 230.742,50.745C230.742,56.54 225.982,60.88 219.871,60.88C217.349,60.88 214.56,60.451 213.642,59.899C213.332,59.713 213.209,59.468 213.209,59.162L213.209,39.084C213.209,38.716 213.396,38.472 213.701,38.349C214.318,38.163 215.975,38 217.816,37.979ZM394.562,38.628L402.29,38.752C408.177,38.875 409.646,40.287 409.831,42.13L409.893,42.807C409.956,43.665 410.081,43.851 410.398,43.851C410.648,43.851 410.836,43.606 410.836,43.052C410.836,42.376 411.025,38.137 411.025,36.294C411.025,35.926 411.025,35.558 410.711,35.558C410.461,35.558 409.895,35.742 408.975,35.865C407.996,36.05 406.582,36.173 404.621,36.173L381.6,36.173C380.865,36.173 378.531,36.05 376.748,35.865C375.09,35.742 374.473,35.128 374.045,35.128C373.797,35.128 373.553,35.927 373.43,36.295C373.307,36.786 372.078,42.069 372.078,42.685C372.078,43.053 372.201,43.238 372.385,43.238C372.631,43.238 372.816,43.115 373,42.623C373.184,42.193 373.369,41.763 374.045,40.719C375.027,39.244 376.502,38.815 380.311,38.753L389.404,38.629L389.404,64.615C389.404,70.512 389.404,75.365 389.096,77.946C388.85,79.728 388.543,81.08 387.314,81.325C386.762,81.448 386.025,81.57 385.471,81.57C385.102,81.57 384.98,81.756 384.98,81.939C384.98,82.308 385.289,82.431 385.963,82.431C387.805,82.431 391.676,82.244 391.984,82.244C392.291,82.244 396.158,82.431 399.531,82.431C400.207,82.431 400.51,82.244 400.51,81.939C400.51,81.754 400.389,81.57 400.023,81.57C399.469,81.57 398.121,81.448 397.26,81.325C395.42,81.08 395.053,79.728 394.869,77.946C394.562,75.366 394.562,70.512 394.562,64.615L394.562,38.628ZM318.855,38.628L326.58,38.752C332.467,38.875 333.939,40.287 334.123,42.13L334.184,42.807C334.248,43.665 334.373,43.851 334.689,43.851C334.939,43.851 335.127,43.606 335.127,43.052C335.127,42.376 335.315,38.137 335.315,36.294C335.315,35.926 335.315,35.558 335.001,35.558C334.751,35.558 334.185,35.742 333.265,35.865C332.286,36.05 330.874,36.173 328.911,36.173L305.89,36.173C305.155,36.173 302.821,36.05 301.038,35.865C299.38,35.742 298.765,35.128 298.335,35.128C298.089,35.128 297.844,35.927 297.721,36.295C297.598,36.786 296.368,42.069 296.368,42.685C296.368,43.053 296.491,43.238 296.676,43.238C296.921,43.238 297.108,43.115 297.29,42.623C297.477,42.193 297.659,41.763 298.335,40.719C299.317,39.244 300.792,38.815 304.601,38.753L313.694,38.629L313.694,64.615C313.694,70.512 313.694,75.365 313.386,77.946C313.14,79.728 312.833,81.08 311.606,81.325C311.052,81.448 310.315,81.57 309.761,81.57C309.392,81.57 309.272,81.756 309.272,81.939C309.272,82.308 309.579,82.431 310.253,82.431C312.097,82.431 315.966,82.244 316.274,82.244C316.581,82.244 320.448,82.431 323.821,82.431C324.497,82.431 324.8,82.244 324.8,81.939C324.8,81.754 324.679,81.57 324.313,81.57C323.759,81.57 322.411,81.448 321.552,81.325C319.712,81.08 319.343,79.728 319.159,77.946C318.854,75.366 318.854,70.512 318.854,64.615L318.854,38.628L318.855,38.628ZM287.139,53.802C287.139,44.218 287.139,42.498 287.262,40.532C287.384,38.382 287.876,37.338 289.534,37.031C290.27,36.907 290.639,36.846 291.069,36.846C291.315,36.846 291.561,36.723 291.561,36.478C291.561,36.108 291.251,35.986 290.577,35.986C288.735,35.986 284.866,36.171 284.557,36.171C284.249,36.171 280.378,35.986 278.354,35.986C277.678,35.986 277.37,36.109 277.37,36.478C277.37,36.723 277.616,36.846 277.862,36.846C278.292,36.846 279.091,36.907 279.766,37.091C281.118,37.4 281.731,38.444 281.854,40.531C281.977,42.497 281.977,44.217 281.977,53.801L281.977,64.613C281.977,70.511 281.977,75.363 281.669,77.944C281.423,79.726 281.116,81.078 279.887,81.323C279.335,81.446 278.598,81.568 278.044,81.568C277.678,81.568 277.555,81.754 277.555,81.937C277.555,82.306 277.862,82.429 278.536,82.429C280.378,82.429 284.249,82.242 284.557,82.242C284.866,82.242 288.735,82.429 292.114,82.429C292.79,82.429 293.096,82.242 293.096,81.937C293.096,81.752 292.973,81.568 292.604,81.568C292.05,81.568 290.702,81.446 289.839,81.323C287.995,81.078 287.628,79.726 287.443,77.944C287.136,75.364 287.136,70.511 287.136,64.613L287.139,53.802ZM255.164,83.29C258.48,83.29 261.797,82.553 264.439,80.71C268.676,77.699 269.66,73.031 269.66,70.514C269.66,65.599 267.939,61.79 260.691,56.076L258.97,54.724C253.074,50.117 251.476,47.904 251.476,44.403C251.476,39.919 254.793,37.277 259.033,37.277C264.685,37.277 266.344,39.857 266.713,40.532C267.08,41.208 267.449,42.866 267.513,43.604C267.574,44.094 267.635,44.402 268.002,44.402C268.312,44.402 268.435,43.972 268.435,42.988C268.435,38.811 268.678,36.783 268.678,36.477C268.678,36.168 268.556,36.045 268.064,36.045C267.574,36.045 267.082,35.983 265.916,35.738C264.379,35.369 262.599,35.124 260.203,35.124C252.4,35.124 247.486,39.608 247.486,46.183C247.486,50.361 248.961,54.168 255.472,59.514L258.236,61.786C263.519,66.147 265.299,68.604 265.299,72.843C265.299,76.776 262.412,81.015 256.515,81.015C252.4,81.015 248.344,79.293 247.422,74.748C247.238,73.888 247.238,73.027 247.238,72.476C247.238,71.984 247.175,71.799 246.808,71.799C246.498,71.799 246.375,72.108 246.316,72.781C246.254,73.764 246.008,76.22 246.008,79.293C246.008,80.952 246.071,81.198 246.931,81.628C249.449,82.86 252.275,83.29 255.164,83.29ZM175.229,64.615C175.229,70.513 175.229,75.365 174.921,77.946C174.675,79.728 174.368,81.08 173.14,81.325C172.586,81.448 171.85,81.57 171.296,81.57C170.929,81.57 170.806,81.756 170.806,81.939C170.806,82.308 171.113,82.431 171.787,82.431C172.708,82.431 174.122,82.308 175.35,82.308C176.641,82.245 177.685,82.245 177.808,82.245C178.729,82.245 180.204,82.308 182.6,82.432C184.996,82.494 188.373,82.616 192.981,82.616C195.377,82.616 195.869,82.616 196.297,81.019C196.606,79.729 197.096,75.551 197.096,75.059C197.096,74.629 197.096,74.137 196.728,74.137C196.419,74.137 196.297,74.382 196.174,75.059C195.744,77.579 195.007,78.807 193.41,79.483C191.813,80.159 189.11,80.159 187.514,80.159C181.493,80.159 180.572,79.361 180.387,75.122C180.325,73.832 180.387,66.705 180.387,64.617L180.387,59.21C180.387,58.964 180.511,58.78 180.817,58.78C181.861,58.78 187.943,58.903 189.602,59.087C191.998,59.333 192.55,60.377 192.796,61.237C193.041,62.036 193.041,62.65 193.041,63.264C193.041,63.571 193.164,63.817 193.473,63.817C193.902,63.817 193.902,63.141 193.902,62.65C193.902,62.219 194.025,59.947 194.148,58.718C194.333,56.691 194.64,55.647 194.64,55.279C194.64,54.91 194.517,54.787 194.331,54.787C194.085,54.787 193.84,55.095 193.41,55.586C192.857,56.201 191.997,56.324 190.523,56.446C189.11,56.569 181.554,56.569 180.754,56.569C180.446,56.569 180.386,56.383 180.386,55.955L180.386,38.998C180.386,38.568 180.51,38.383 180.754,38.383C181.431,38.383 188.126,38.445 189.17,38.569C192.487,38.937 193.102,39.674 193.531,40.657C193.839,41.395 193.9,42.439 193.9,42.868C193.9,43.36 194.023,43.666 194.392,43.666C194.638,43.666 194.76,43.298 194.821,42.99C194.944,42.253 195.068,39.55 195.129,38.936C195.315,37.215 195.62,36.479 195.62,36.048C195.62,35.741 195.559,35.495 195.374,35.495C195.067,35.495 194.821,35.741 194.515,35.802C194.023,35.925 193.039,36.048 191.872,36.11C190.459,36.172 178.234,36.172 177.805,36.172L175.285,36.049C173.933,35.987 172.275,35.987 170.861,35.987C170.185,35.987 169.879,36.11 169.879,36.479C169.879,36.724 170.125,36.847 170.37,36.847C170.923,36.847 171.968,36.908 172.458,37.032C174.486,37.461 174.978,38.445 175.101,40.533C175.224,42.499 175.224,44.219 175.224,53.803L175.224,64.616L175.229,64.616L175.229,64.615ZM132.678,43.482C131.756,41.086 131.019,39.181 131.019,38.382C131.019,37.952 131.142,37.46 131.818,37.154C132.371,36.907 133.477,36.846 134.153,36.846C134.582,36.846 134.767,36.723 134.767,36.415C134.767,36.107 134.213,35.985 133.109,35.985C130.774,35.985 128.009,36.17 127.396,36.17C126.659,36.17 123.157,35.985 120.208,35.985C119.226,35.985 118.61,36.047 118.61,36.415C118.61,36.661 118.733,36.846 119.101,36.846C119.471,36.846 120.515,36.846 121.436,37.091C123.584,37.705 124.507,38.381 125.858,41.821L140.909,79.479C142.076,82.428 142.383,83.288 143.12,83.288C143.734,83.288 143.98,82.307 145.7,78.619C147.114,75.608 149.878,68.974 153.626,60.005C156.759,52.449 159.831,45.077 160.506,43.359C162.164,39.181 163.086,38.137 163.884,37.584C165.051,36.848 166.404,36.848 166.833,36.848C167.324,36.848 167.57,36.725 167.57,36.417C167.57,36.109 167.202,35.987 166.526,35.987C164.745,35.987 162.103,36.172 161.734,36.172C160.997,36.172 158.171,35.987 155.713,35.987C154.731,35.987 154.361,36.11 154.361,36.479C154.361,36.785 154.668,36.847 155.037,36.847C155.713,36.847 156.634,36.847 157.371,37.092C157.986,37.401 158.17,38.014 158.17,38.505C158.17,39.059 157.924,39.919 157.617,40.84C156.266,45.264 148.034,66.702 144.471,74.936L132.678,43.482ZM339.006,75.673C337.9,78.744 336.672,81.079 333.844,81.447C333.355,81.509 332.494,81.569 332.064,81.569C331.756,81.569 331.51,81.693 331.51,81.938C331.51,82.307 331.879,82.43 332.678,82.43C335.566,82.43 338.945,82.243 339.619,82.243C340.293,82.243 342.937,82.43 344.41,82.43C344.965,82.43 345.332,82.307 345.332,81.938C345.332,81.693 345.148,81.569 344.719,81.569L344.104,81.569C343.059,81.569 341.77,81.017 341.77,79.789C341.77,78.684 342.078,77.209 342.631,75.673L346.318,64.799C346.441,64.491 346.625,64.308 346.93,64.308L360.139,64.308C360.447,64.308 360.57,64.432 360.691,64.677L366.406,79.789C366.772,80.771 366.406,81.324 366.037,81.447C365.791,81.509 365.607,81.632 365.607,81.877C365.607,82.245 366.283,82.245 367.449,82.309C371.688,82.432 376.174,82.432 377.095,82.432C377.769,82.432 378.324,82.309 378.324,81.94C378.324,81.632 378.078,81.571 377.709,81.571C377.096,81.571 376.174,81.509 375.252,81.204C373.961,80.835 372.18,79.851 369.969,74.384C366.221,65.047 356.576,39.676 355.656,37.341C354.92,35.438 354.676,35.13 354.303,35.13C353.936,35.13 353.691,35.499 352.953,37.526L339.006,75.673ZM347.605,62.096C347.42,62.096 347.297,61.973 347.42,61.664L352.826,45.078C353.133,44.157 353.439,44.157 353.746,45.078L359.582,61.664C359.645,61.911 359.645,62.096 359.338,62.096L347.605,62.096ZM362.519,41.695C364.179,41.695 365.222,40.466 365.222,38.869C365.222,37.334 364.056,36.412 362.581,36.412C360.677,36.412 359.938,37.947 359.938,39.053C359.939,40.221 360.677,41.695 362.519,41.695ZM346.76,41.695C348.418,41.695 349.463,40.466 349.463,38.869C349.463,37.334 348.295,36.412 346.82,36.412C344.916,36.412 344.178,37.947 344.178,39.053C344.179,40.221 344.916,41.695 346.76,41.695ZM111.325,53.802C111.325,44.218 111.325,42.498 111.449,40.532C111.572,38.382 112.063,37.338 113.721,37.031C114.458,36.907 114.826,36.846 115.257,36.846C115.503,36.846 115.748,36.723 115.748,36.478C115.748,36.108 115.44,35.986 114.766,35.986C112.922,35.986 109.054,36.171 108.745,36.171C108.438,36.171 104.567,35.986 102.541,35.986C101.865,35.986 101.559,36.109 101.559,36.478C101.559,36.723 101.805,36.846 102.049,36.846C102.48,36.846 103.278,36.907 103.954,37.091C105.307,37.4 105.919,38.444 106.042,40.531C106.165,42.497 106.165,44.217 106.165,53.801L106.165,64.613C106.165,70.511 106.165,75.363 105.859,77.944C105.613,79.726 105.306,81.078 104.077,81.323C103.524,81.446 102.787,81.568 102.234,81.568C101.865,81.568 101.743,81.754 101.743,81.937C101.743,82.306 102.05,82.429 102.725,82.429C104.568,82.429 108.438,82.242 108.746,82.242C109.055,82.242 112.923,82.429 116.303,82.429C116.979,82.429 117.284,82.242 117.284,81.937C117.284,81.752 117.161,81.568 116.793,81.568C116.24,81.568 114.89,81.446 114.029,81.323C112.186,81.078 111.818,79.726 111.633,77.944C111.326,75.364 111.326,70.511 111.326,64.613L111.326,53.802L111.325,53.802ZM55.488,44.649C57.454,46.86 64.384,54.601 71.498,62.28C78,69.284 86.831,78.314 87.505,78.929C90.77,82.185 91.513,82.861 92.007,82.861C92.442,82.861 92.566,82.552 92.566,78.499L92.688,42.5C92.688,38.814 92.934,37.462 94.96,37.033C95.697,36.848 96.127,36.848 96.436,36.848C96.865,36.848 97.112,36.662 97.112,36.417C97.112,36.048 96.682,35.987 96.006,35.987C93.487,35.987 91.451,36.172 90.771,36.172C90.088,36.172 87.139,35.987 84.378,35.987C83.643,35.987 83.152,36.049 83.152,36.417C83.152,36.663 83.213,36.848 83.642,36.848C84.132,36.848 85.542,36.909 86.647,37.156C88.547,37.647 88.977,38.999 89.039,42.991L89.717,74.199C87.751,72.172 81.067,64.678 74.994,58.165C65.549,48.028 56.411,38.139 55.488,37.094C54.868,36.481 53.816,35.128 53.321,35.128C52.826,35.128 52.64,35.804 52.64,38.2L52.578,73.4C52.578,78.991 52.271,80.772 50.734,81.203C49.813,81.51 48.707,81.57 48.214,81.57C47.907,81.57 47.724,81.694 47.724,81.939C47.724,82.37 48.091,82.431 48.706,82.431C51.472,82.431 54.062,82.244 54.619,82.244C55.176,82.244 57.637,82.431 61.132,82.431C61.868,82.431 62.236,82.308 62.236,81.939C62.236,81.694 62.051,81.57 61.746,81.57C61.194,81.57 59.846,81.508 58.681,81.203C57.025,80.711 56.41,79.114 56.288,74.077L55.488,44.649ZM5.344,62.772C5.344,71.74 7.679,76.041 10.689,78.929C15.049,83.043 21.254,83.289 23.344,83.289C26.969,83.289 31.575,82.676 35.998,78.743C40.913,74.381 41.649,67.01 41.649,60.375L41.649,53.802C41.649,44.218 41.649,42.498 41.772,40.532C41.895,38.382 42.387,37.4 44.044,37.031C44.781,36.907 45.15,36.846 45.58,36.846C45.827,36.846 46.072,36.723 46.072,36.478C46.072,36.108 45.764,35.986 45.089,35.986C43.246,35.986 40.36,36.171 39.93,36.171C39.561,36.171 36.182,35.986 33.417,35.986C32.741,35.986 32.436,36.109 32.436,36.478C32.436,36.723 32.682,36.846 32.927,36.846C33.48,36.846 34.524,36.907 35.015,37.031C37.042,37.46 37.534,38.444 37.657,40.532C37.78,42.498 37.78,44.218 37.78,53.802L37.78,61.482C37.78,67.81 37.043,73.031 34.217,76.532C32.006,79.174 28.321,80.956 24.572,80.956C21.071,80.956 18.306,80.402 15.296,77.577C12.654,75.057 10.69,71.249 10.69,62.403L10.69,53.802C10.69,44.218 10.69,42.498 10.813,40.532C10.936,38.382 11.426,37.277 13.085,37.031C13.822,36.907 14.191,36.846 14.62,36.846C14.866,36.846 15.112,36.723 15.112,36.478C15.112,36.108 14.804,35.986 14.129,35.986C12.286,35.986 8.602,36.171 8.047,36.171C7.493,36.171 3.746,35.986 0.983,35.986C0.306,35.987 0,36.11 0,36.479C0,36.724 0.246,36.847 0.491,36.847C1.044,36.847 2.088,36.908 2.579,37.032C4.607,37.461 5.099,38.445 5.222,40.533C5.345,42.499 5.345,44.219 5.345,53.803L5.345,62.772L5.344,62.772ZM224.932,61.463C231.341,59.705 235.659,54.355 235.659,47.092C235.659,43.753 233.895,40.918 232.509,39.595C231.501,38.651 228.665,36.004 220.792,36.004C217.895,36.004 212.548,36.198 210.88,36.198C210.157,36.198 206.704,36.014 203.942,36.014C203.267,36.014 202.96,36.137 202.96,36.505C202.96,36.751 203.206,36.873 203.451,36.873C204.004,36.873 205.047,36.935 205.538,37.059C207.565,37.488 208.057,38.471 208.18,40.558C208.303,42.523 208.303,44.242 208.303,53.821L208.303,64.627C208.303,70.523 208.303,75.373 207.995,77.95C207.749,79.732 207.44,81.083 206.213,81.328C205.66,81.451 204.924,81.574 204.371,81.574C204.003,81.574 203.88,81.758 203.88,81.941C203.88,82.311 204.188,82.433 204.862,82.433C206.703,82.433 210.573,82.247 210.633,82.247C210.941,82.247 214.81,82.433 218.187,82.433C218.863,82.433 219.168,82.247 219.168,81.941C219.168,81.756 219.045,81.574 218.676,81.574C218.123,81.574 216.775,81.451 215.914,81.328C214.072,81.083 213.703,79.732 213.519,77.95C213.209,75.373 213.209,70.522 213.209,64.627L213.209,63.153C213.209,62.846 213.332,62.662 213.642,62.662L219.599,62.755C219.967,62.755 220.291,62.9 220.41,63.153C221.345,65.193 222.636,68.638 224.49,72.443C227.025,77.641 227.465,79.945 230.105,81.357C231.701,82.216 233.375,82.433 236.812,82.433L239.771,82.433C240.875,82.433 241.246,82.311 241.246,81.941C241.246,81.756 241,81.565 240.693,81.574C240.086,81.59 239.068,81.419 237.904,81.213C236.908,81.037 234.002,80.332 232.209,76.97C229.965,72.763 227.381,66.645 224.932,61.463ZM107.712,98.126C107.712,96.472 106.486,95.431 104.894,95.431C103.362,95.431 102.443,96.594 102.443,98.066C102.443,99.964 103.975,100.7 105.078,100.7C106.242,100.698 107.712,99.964 107.712,98.126ZM107.712,110.441C107.712,108.786 106.486,107.745 104.894,107.745C103.362,107.745 102.443,108.909 102.443,110.38C102.443,112.279 103.975,113.016 105.078,113.016C106.242,113.015 107.712,112.279 107.712,110.441ZM85.81,121.268C85.81,130.212 88.139,134.501 91.141,137.38C95.491,141.485 101.68,141.732 103.763,141.732C107.377,141.732 111.973,141.12 116.384,137.198C121.286,132.848 122.022,125.495 122.022,118.878L122.022,112.323C122.022,102.763 122.022,101.049 122.145,99.087C122.267,96.942 122.757,95.963 124.412,95.597C125.147,95.474 125.516,95.411 125.943,95.411C126.189,95.411 126.434,95.289 126.434,95.044C126.434,94.676 126.126,94.553 125.454,94.553C123.616,94.553 120.736,94.739 120.308,94.739C119.94,94.739 116.57,94.553 113.813,94.553C113.139,94.553 112.833,94.676 112.833,95.044C112.833,95.289 113.078,95.411 113.323,95.411C113.875,95.411 114.916,95.473 115.406,95.597C117.427,96.025 117.918,97.005 118.041,99.087C118.164,101.049 118.164,102.765 118.164,112.323L118.164,119.981C118.164,126.292 117.43,131.501 114.61,134.993C112.404,137.628 108.728,139.404 104.99,139.404C101.498,139.404 98.74,138.853 95.738,136.034C93.103,133.522 91.143,129.723 91.143,120.9L91.143,112.323C91.143,102.763 91.143,101.049 91.265,99.087C91.388,96.942 91.877,95.841 93.533,95.597C94.268,95.474 94.636,95.411 95.064,95.411C95.309,95.411 95.555,95.289 95.555,95.044C95.555,94.676 95.247,94.553 94.575,94.553C92.737,94.553 89.061,94.739 88.509,94.739C87.957,94.739 84.219,94.553 81.462,94.553C80.788,94.553 80.483,94.676 80.483,95.044C80.483,95.289 80.728,95.411 80.973,95.411C81.525,95.411 82.566,95.473 83.056,95.597C85.077,96.025 85.568,97.005 85.691,99.087C85.814,101.049 85.814,102.765 85.814,112.323L85.814,121.268L85.81,121.268ZM60.017,97.193L67.723,97.315C73.595,97.438 75.062,98.847 75.244,100.685L75.306,101.36C75.368,102.216 75.494,102.401 75.807,102.401C76.057,102.401 76.245,102.156 76.245,101.604C76.245,100.93 76.433,96.702 76.433,94.864C76.433,94.498 76.433,94.13 76.12,94.13C75.87,94.13 75.307,94.315 74.389,94.437C73.41,94.621 72.003,94.744 70.046,94.744L47.088,94.744C46.354,94.744 44.026,94.621 42.248,94.437C40.595,94.315 39.981,93.703 39.554,93.703C39.308,93.703 39.063,94.5 38.941,94.866C38.818,95.356 37.592,100.626 37.592,101.239C37.592,101.606 37.715,101.791 37.9,101.791C38.145,101.791 38.329,101.668 38.512,101.178C38.696,100.75 38.88,100.322 39.554,99.281C40.533,97.81 42.004,97.381 45.802,97.319L54.871,97.197L54.871,123.114C54.871,128.998 54.871,133.838 54.564,136.41C54.319,138.188 54.013,139.536 52.787,139.781C52.237,139.903 51.501,140.026 50.949,140.026C50.581,140.026 50.459,140.21 50.459,140.393C50.459,140.76 50.767,140.883 51.439,140.883C53.277,140.883 57.137,140.697 57.443,140.697C57.749,140.697 61.606,140.883 64.97,140.883C65.643,140.883 65.949,140.697 65.949,140.393C65.949,140.208 65.826,140.026 65.46,140.026C64.909,140.026 63.564,139.903 62.707,139.781C60.872,139.536 60.505,138.188 60.322,136.41C60.016,133.838 60.016,128.998 60.016,123.114L60.017,97.193ZM331.896,103.198C333.857,105.403 340.768,113.124 347.865,120.782C354.348,127.767 363.156,136.775 363.83,137.386C367.086,140.634 367.826,141.309 368.32,141.309C368.754,141.309 368.877,141.002 368.877,136.957L369,101.052C369,97.376 369.244,96.029 371.268,95.601C372.002,95.415 372.432,95.415 372.74,95.415C373.168,95.415 373.412,95.231 373.412,94.986C373.412,94.618 372.984,94.556 372.309,94.556C369.797,94.556 367.766,94.741 367.086,94.741C366.406,94.741 363.463,94.556 360.711,94.556C359.977,94.556 359.488,94.618 359.488,94.986C359.488,95.231 359.549,95.415 359.975,95.415C360.465,95.415 361.871,95.477 362.971,95.723C364.867,96.212 365.295,97.561 365.359,101.542L366.035,132.668C364.076,130.647 357.406,123.172 351.35,116.677C341.93,106.568 332.818,96.701 331.896,95.66C331.279,95.048 330.228,93.7 329.734,93.7C329.242,93.7 329.055,94.374 329.055,96.763L328.993,131.87C328.993,137.446 328.686,139.224 327.155,139.651C326.235,139.958 325.134,140.019 324.64,140.019C324.335,140.019 324.151,140.141 324.151,140.386C324.151,140.815 324.52,140.876 325.132,140.876C327.888,140.876 330.474,140.69 331.028,140.69C331.585,140.69 334.038,140.876 337.524,140.876C338.257,140.876 338.624,140.753 338.624,140.386C338.624,140.141 338.442,140.019 338.136,140.019C337.585,140.019 336.241,139.957 335.077,139.651C333.427,139.162 332.815,137.568 332.692,132.545L331.896,103.198ZM296.123,123.11C296.123,128.994 296.123,133.834 295.816,136.406C295.572,138.184 295.265,139.532 294.039,139.777C293.488,139.899 292.752,140.022 292.201,140.022C291.834,140.022 291.711,140.206 291.711,140.389C291.711,140.756 292.019,140.879 292.691,140.879C293.609,140.879 295.019,140.756 296.244,140.756C297.531,140.694 298.574,140.694 298.697,140.694C299.615,140.694 301.086,140.756 303.475,140.88C305.865,140.941 309.234,141.064 313.829,141.064C316.218,141.064 316.71,141.064 317.138,139.469C317.446,138.185 317.935,134.018 317.935,133.528C317.935,133.099 317.935,132.608 317.569,132.608C317.261,132.608 317.138,132.853 317.015,133.528C316.587,136.04 315.851,137.265 314.259,137.94C312.665,138.614 309.97,138.614 308.376,138.614C302.372,138.614 301.452,137.817 301.269,133.59C301.208,132.303 301.269,125.194 301.269,123.111L301.269,117.718C301.269,117.474 301.392,117.289 301.698,117.289C302.741,117.289 308.806,117.411 310.462,117.597C312.851,117.841 313.403,118.882 313.649,119.742C313.894,120.539 313.894,121.151 313.894,121.763C313.894,122.071 314.015,122.316 314.323,122.316C314.751,122.316 314.751,121.641 314.751,121.152C314.751,120.723 314.874,118.456 314.997,117.23C315.181,115.209 315.487,114.167 315.487,113.798C315.487,113.431 315.366,113.308 315.179,113.308C314.935,113.308 314.69,113.616 314.261,114.105C313.708,114.718 312.851,114.84 311.38,114.962C309.972,115.085 302.435,115.085 301.638,115.085C301.331,115.085 301.271,114.9 301.271,114.474L301.271,97.561C301.271,97.131 301.394,96.949 301.638,96.949C302.315,96.949 308.992,97.011 310.034,97.133C313.343,97.5 313.956,98.237 314.384,99.216C314.692,99.952 314.751,100.993 314.751,101.421C314.751,101.912 314.874,102.219 315.243,102.219C315.487,102.219 315.61,101.852 315.671,101.544C315.794,100.81 315.917,98.112 315.978,97.5C316.163,95.785 316.468,95.05 316.468,94.62C316.468,94.314 316.407,94.069 316.222,94.069C315.917,94.069 315.671,94.314 315.368,94.376C314.876,94.499 313.896,94.62 312.732,94.683C311.323,94.745 299.128,94.745 298.702,94.745L296.188,94.622C294.839,94.56 293.186,94.56 291.776,94.56C291.102,94.56 290.797,94.683 290.797,95.05C290.797,95.295 291.041,95.417 291.285,95.417C291.838,95.417 292.879,95.479 293.369,95.603C295.39,96.031 295.881,97.011 296.004,99.094C296.127,101.054 296.127,102.771 296.127,112.328L296.127,123.11L296.123,123.11ZM276.943,135.668C276.943,136.709 276.513,137.383 275.717,137.814C274.123,138.733 270.939,139.1 268.734,139.1C263.097,139.1 257.521,137.261 252.681,132.543C250.535,130.459 246.185,124.21 246.185,115.57C246.185,108.402 248.697,102.826 252.25,100.007C256.906,96.331 261.502,95.964 265.361,95.964C273.265,95.964 278.228,98.599 279.76,100.927C280.679,102.399 280.986,104.114 281.045,104.972C281.107,105.523 281.168,105.891 281.476,105.891C281.904,105.891 282.027,105.583 282.027,104.604C282.027,98.477 282.457,96.761 282.457,95.904C282.457,95.658 282.334,95.414 281.722,95.351C280.191,95.29 278.045,95.044 276.758,94.74C275.594,94.495 271.244,93.698 267.383,93.698C262.666,93.698 256.601,94.128 251.086,97.558C245.633,100.99 240.855,107.912 240.855,117.715C240.855,125.374 244.408,131.931 248.146,135.177C254.947,141.12 263.648,141.735 268.303,141.735C271.859,141.735 277.371,141.061 281.293,138.978C282.027,138.547 282.088,138.424 282.088,135.668L282.088,128.806C282.088,126.233 282.088,124.395 282.211,122.434C282.334,120.289 282.824,119.246 284.48,118.942C285.213,118.82 285.584,118.756 286.01,118.756C286.254,118.756 286.5,118.634 286.5,118.39C286.5,118.023 286.195,117.9 285.521,117.9C283.683,117.9 279.824,118.084 279.517,118.084C279.209,118.084 275.351,117.9 272.592,117.9C271.918,117.9 271.613,118.023 271.613,118.39C271.613,118.634 271.859,118.756 272.103,118.756C272.654,118.756 273.697,118.819 274.187,118.942C276.635,119.616 276.943,120.291 276.943,125.254L276.943,135.668ZM195.758,103.198C197.719,105.403 204.631,113.124 211.727,120.782C218.21,127.767 227.02,136.775 227.692,137.386C230.948,140.634 231.69,141.309 232.182,141.309C232.616,141.309 232.739,141.002 232.739,136.957L232.862,101.052C232.862,97.376 233.106,96.029 235.13,95.601C235.864,95.415 236.294,95.415 236.602,95.415C237.03,95.415 237.276,95.231 237.276,94.986C237.276,94.618 236.846,94.556 236.172,94.556C233.66,94.556 231.629,94.741 230.949,94.741C230.269,94.741 227.326,94.556 224.574,94.556C223.84,94.556 223.351,94.618 223.351,94.986C223.351,95.231 223.412,95.415 223.838,95.415C224.328,95.415 225.734,95.477 226.836,95.723C228.732,96.212 229.16,97.561 229.224,101.542L229.898,132.668C227.939,130.647 221.271,123.172 215.213,116.677C205.794,106.568 196.679,96.701 195.758,95.66C195.141,95.048 194.09,93.7 193.596,93.7C193.104,93.7 192.918,94.374 192.918,96.763L192.856,131.87C192.856,137.446 192.548,139.224 191.017,139.651C190.098,139.958 188.996,140.019 188.504,140.019C188.198,140.019 188.015,140.141 188.015,140.386C188.015,140.815 188.381,140.876 188.994,140.876C191.751,140.876 194.336,140.69 194.891,140.69C195.446,140.69 197.9,140.876 201.387,140.876C202.12,140.876 202.488,140.753 202.488,140.386C202.488,140.141 202.304,140.019 201.999,140.019C201.448,140.019 200.103,139.957 198.941,139.651C197.289,139.162 196.676,137.568 196.555,132.545L195.758,103.198ZM177.203,112.327C177.203,102.768 177.203,101.053 177.327,99.093C177.45,96.948 177.939,95.906 179.593,95.602C180.329,95.479 180.697,95.416 181.125,95.416C181.37,95.416 181.615,95.294 181.615,95.049C181.615,94.682 181.308,94.559 180.634,94.559C178.796,94.559 174.938,94.744 174.63,94.744C174.323,94.744 170.463,94.559 168.442,94.559C167.768,94.559 167.462,94.682 167.462,95.049C167.462,95.294 167.707,95.416 167.952,95.416C168.381,95.416 169.179,95.478 169.851,95.661C171.2,95.968 171.812,97.01 171.934,99.093C172.057,101.053 172.057,102.77 172.057,112.327L172.057,123.11C172.057,128.994 172.057,133.834 171.75,136.406C171.505,138.184 171.199,139.532 169.974,139.777C169.421,139.899 168.688,140.022 168.136,140.022C167.768,140.022 167.646,140.206 167.646,140.389C167.646,140.756 167.952,140.879 168.625,140.879C170.463,140.879 174.324,140.693 174.63,140.693C174.937,140.693 178.796,140.879 182.166,140.879C182.84,140.879 183.146,140.693 183.146,140.389C183.146,140.204 183.023,140.022 182.656,140.022C182.104,140.022 180.757,139.899 179.899,139.777C178.061,139.532 177.693,138.184 177.508,136.406C177.201,133.834 177.201,128.994 177.201,123.11L177.203,112.327ZM136.264,123.11C136.264,128.994 136.264,133.834 135.957,136.406C135.712,138.184 135.405,139.532 134.181,139.777C133.628,139.899 132.894,140.022 132.342,140.022C131.976,140.022 131.853,140.206 131.853,140.389C131.853,140.756 132.159,140.879 132.832,140.879C133.751,140.879 135.161,140.756 136.386,140.756C137.673,140.694 138.714,140.694 138.837,140.694C139.082,140.694 140.797,140.756 142.575,140.88C144.351,140.941 146.312,141.064 146.986,141.064C157.464,141.064 162.611,134.263 162.611,127.707C162.611,120.539 156.545,116.189 152.011,114.778C154.89,111.777 157.771,108.774 157.771,103.75C157.771,100.688 155.565,94.56 145.516,94.56C142.698,94.56 140.308,94.745 138.837,94.745C138.53,94.745 134.67,94.56 131.913,94.56C131.239,94.56 130.934,94.683 130.934,95.05C130.934,95.295 131.179,95.417 131.423,95.417C131.976,95.417 133.017,95.479 133.506,95.603C135.528,96.031 136.019,97.011 136.142,99.094C136.265,101.054 136.265,102.771 136.265,112.328L136.265,123.111L136.264,123.111L136.264,123.11ZM141.166,97.254C141.166,96.888 141.351,96.702 141.902,96.58C142.881,96.335 144.169,96.273 144.841,96.273C150.847,96.273 153.113,101.727 153.113,106.813C153.113,109.325 152.194,111.531 150.907,113.001C149.62,114.473 148.762,114.594 145.331,114.594C143.063,114.594 141.96,114.409 141.593,114.35C141.286,114.227 141.164,114.104 141.164,113.675L141.166,97.254ZM141.166,116.677C141.166,116.37 141.289,116.247 141.534,116.247C142.453,116.247 145.516,116.247 146.312,116.37C147.783,116.556 149.315,116.737 151.398,118.147C156.115,121.394 157.34,126.725 157.34,130.401C157.34,137.326 152.009,139.101 148.7,139.101C147.597,139.101 144.963,138.979 143.308,138.183C141.408,137.263 141.408,136.405 141.225,133.403C141.163,132.484 141.163,124.887 141.163,120.168L141.163,116.677L141.166,116.677ZM112.614,14.705C112.614,17.646 112.614,20.066 112.461,21.353C112.339,22.242 112.186,22.915 111.572,23.038C111.296,23.1 110.929,23.161 110.653,23.161C110.469,23.161 110.408,23.253 110.408,23.345C110.408,23.531 110.561,23.591 110.898,23.591C111.357,23.591 112.063,23.53 112.674,23.53C113.319,23.499 113.839,23.499 113.901,23.499C114.36,23.499 115.096,23.53 116.291,23.591C117.486,23.621 119.17,23.684 121.468,23.684C122.663,23.684 122.908,23.684 123.122,22.886C123.275,22.243 123.52,20.16 123.52,19.914C123.52,19.7 123.52,19.455 123.335,19.455C123.182,19.455 123.12,19.578 123.06,19.914C122.845,21.17 122.478,21.783 121.681,22.12C120.884,22.457 119.536,22.457 118.74,22.457C115.738,22.457 115.278,22.06 115.186,19.945C115.155,19.3 115.186,15.747 115.186,14.706L115.186,12.01C115.186,11.888 115.248,11.796 115.4,11.796C115.921,11.796 118.954,11.858 119.781,11.949C120.976,12.072 121.252,12.592 121.374,13.021C121.497,13.418 121.497,13.726 121.497,14.032C121.497,14.185 121.559,14.308 121.711,14.308C121.925,14.308 121.925,13.971 121.925,13.726C121.925,13.51 121.987,12.377 122.048,11.766C122.141,10.754 122.293,10.234 122.293,10.049C122.293,9.865 122.232,9.804 122.141,9.804C122.019,9.804 121.896,9.956 121.682,10.201C121.407,10.508 120.978,10.569 120.243,10.63C119.538,10.692 115.77,10.692 115.372,10.692C115.219,10.692 115.188,10.6 115.188,10.385L115.188,1.93C115.188,1.715 115.25,1.622 115.372,1.622C115.709,1.622 119.048,1.653 119.569,1.714C121.223,1.899 121.529,2.266 121.744,2.756C121.897,3.124 121.928,3.646 121.928,3.86C121.928,4.106 121.99,4.257 122.174,4.257C122.296,4.257 122.359,4.073 122.389,3.92C122.45,3.552 122.511,2.204 122.541,1.899C122.633,1.041 122.786,0.673 122.786,0.459C122.786,0.307 122.755,0.184 122.663,0.184C122.51,0.184 122.387,0.307 122.234,0.336C121.988,0.398 121.499,0.459 120.917,0.489C120.212,0.52 114.116,0.52 113.901,0.52L112.645,0.458C111.971,0.427 111.144,0.427 110.439,0.427C110.102,0.427 109.949,0.489 109.949,0.673C109.949,0.796 110.072,0.858 110.194,0.858C110.469,0.858 110.99,0.888 111.236,0.95C112.247,1.164 112.492,1.654 112.552,2.696C112.614,3.675 112.614,4.534 112.614,9.314L112.614,14.705ZM76.181,14.705C76.181,17.646 76.181,20.066 76.028,21.353C75.905,22.242 75.752,22.915 75.139,23.038C74.863,23.1 74.494,23.161 74.22,23.161C74.035,23.161 73.975,23.253 73.975,23.345C73.975,23.531 74.127,23.591 74.464,23.591C74.923,23.591 75.629,23.53 76.241,23.53C76.886,23.499 77.406,23.499 77.467,23.499C77.926,23.499 78.662,23.53 79.858,23.591C81.053,23.621 82.738,23.684 85.035,23.684C86.23,23.684 86.475,23.684 86.689,22.886C86.841,22.243 87.086,20.16 87.086,19.914C87.086,19.7 87.086,19.455 86.902,19.455C86.749,19.455 86.687,19.578 86.626,19.914C86.411,21.17 86.044,21.783 85.248,22.12C84.451,22.457 83.103,22.457 82.308,22.457C79.306,22.457 78.846,22.06 78.753,19.945C78.724,19.3 78.753,15.747 78.753,14.706L78.753,12.01C78.753,11.888 78.815,11.796 78.967,11.796C79.488,11.796 82.522,11.858 83.349,11.949C84.543,12.072 84.82,12.592 84.942,13.021C85.064,13.418 85.064,13.726 85.064,14.032C85.064,14.185 85.126,14.308 85.279,14.308C85.493,14.308 85.493,13.971 85.493,13.726C85.493,13.51 85.555,12.377 85.616,11.766C85.708,10.754 85.862,10.234 85.862,10.049C85.862,9.865 85.8,9.804 85.709,9.804C85.586,9.804 85.464,9.956 85.25,10.201C84.975,10.508 84.545,10.569 83.811,10.63C83.106,10.692 79.337,10.692 78.94,10.692C78.787,10.692 78.755,10.6 78.755,10.385L78.755,1.93C78.755,1.715 78.817,1.622 78.94,1.622C79.277,1.622 82.616,1.653 83.136,1.714C84.79,1.899 85.097,2.266 85.312,2.756C85.464,3.124 85.496,3.646 85.496,3.86C85.496,4.106 85.558,4.257 85.742,4.257C85.865,4.257 85.926,4.073 85.956,3.92C86.018,3.552 86.079,2.204 86.109,1.899C86.201,1.041 86.354,0.673 86.354,0.459C86.354,0.307 86.324,0.184 86.231,0.184C86.078,0.184 85.955,0.307 85.801,0.336C85.557,0.398 85.067,0.459 84.485,0.489C83.779,0.52 77.683,0.52 77.468,0.52L76.212,0.458C75.538,0.427 74.711,0.427 74.006,0.427C73.669,0.427 73.517,0.489 73.517,0.673C73.517,0.796 73.639,0.858 73.762,0.858C74.037,0.858 74.559,0.888 74.804,0.95C75.815,1.164 76.06,1.654 76.12,2.696C76.182,3.675 76.182,4.534 76.182,9.314L76.181,14.705ZM93.633,14.705C93.633,17.646 93.633,20.066 93.481,21.353C93.358,22.242 93.205,22.915 92.591,23.038C92.316,23.1 91.948,23.161 91.672,23.161C91.488,23.161 91.427,23.253 91.427,23.345C91.427,23.531 91.579,23.591 91.917,23.591C92.376,23.591 93.082,23.53 93.694,23.53C94.338,23.499 94.858,23.499 94.92,23.499C95.043,23.499 95.9,23.53 96.789,23.591C97.679,23.621 98.658,23.684 98.995,23.684C104.234,23.684 106.808,20.284 106.808,17.004C106.808,13.42 103.775,11.245 101.507,10.54C102.947,9.039 104.388,7.538 104.388,5.026C104.388,3.494 103.284,0.43 98.259,0.43C96.851,0.43 95.655,0.522 94.92,0.522C94.768,0.522 92.837,0.43 91.458,0.43C91.121,0.43 90.969,0.492 90.969,0.675C90.969,0.798 91.091,0.86 91.213,0.86C91.489,0.86 92.009,0.89 92.255,0.952C93.267,1.166 93.512,1.656 93.572,2.698C93.633,3.677 93.633,4.536 93.633,9.316L93.633,14.705ZM96.084,1.777C96.084,1.592 96.176,1.501 96.452,1.44C96.942,1.317 97.586,1.287 97.922,1.287C100.924,1.287 102.059,4.015 102.059,6.558C102.059,7.814 101.6,8.916 100.955,9.652C100.311,10.386 99.883,10.449 98.167,10.449C97.033,10.449 96.481,10.357 96.298,10.326C96.146,10.264 96.084,10.203 96.084,9.989L96.084,1.777ZM96.084,11.489C96.084,11.336 96.146,11.274 96.269,11.274C96.728,11.274 98.259,11.274 98.658,11.336C99.393,11.428 100.159,11.521 101.201,12.226C103.56,13.85 104.173,16.515 104.173,18.353C104.173,21.815 101.507,22.703 99.854,22.703C99.302,22.703 97.985,22.642 97.158,22.244C96.208,21.785 96.208,21.355 96.116,19.854C96.085,19.395 96.085,15.596 96.085,13.236L96.084,11.489ZM166.892,9.313C166.892,4.534 166.892,3.675 166.953,2.695C167.015,1.623 167.26,1.102 168.087,0.949C168.455,0.887 168.64,0.857 168.854,0.857C168.977,0.857 169.1,0.795 169.1,0.672C169.1,0.488 168.947,0.426 168.61,0.426C167.691,0.426 165.759,0.519 165.608,0.519C165.455,0.519 163.525,0.426 162.146,0.426C161.809,0.426 161.656,0.488 161.656,0.672C161.656,0.795 161.779,0.857 161.901,0.857C162.176,0.857 162.698,0.887 162.943,0.949C163.954,1.163 164.199,1.653 164.259,2.695C164.321,3.674 164.321,4.533 164.321,9.313L164.321,9.956C164.321,10.109 164.229,10.141 164.137,10.141L151.148,10.141C151.056,10.141 150.963,10.11 150.963,9.956L150.963,9.313C150.963,4.534 150.963,3.675 151.025,2.695C151.086,1.623 151.331,1.102 152.158,0.949C152.526,0.887 152.709,0.857 152.924,0.857C153.047,0.857 153.169,0.795 153.169,0.672C153.169,0.488 153.016,0.426 152.679,0.426C151.759,0.426 149.829,0.519 149.676,0.519C149.524,0.519 147.593,0.426 146.214,0.426C145.877,0.426 145.725,0.488 145.725,0.672C145.725,0.795 145.847,0.857 145.969,0.857C146.245,0.857 146.766,0.887 147.012,0.949C148.023,1.163 148.268,1.653 148.328,2.695C148.39,3.674 148.39,4.533 148.39,9.313L148.39,14.705C148.39,17.646 148.39,20.066 148.237,21.353C148.115,22.242 147.961,22.915 147.348,23.038C147.073,23.1 146.704,23.161 146.429,23.161C146.244,23.161 146.184,23.253 146.184,23.345C146.184,23.531 146.336,23.591 146.673,23.591C147.592,23.591 149.523,23.499 149.675,23.499C149.828,23.499 151.758,23.591 153.444,23.591C153.781,23.591 153.934,23.499 153.934,23.345C153.934,23.254 153.872,23.161 153.689,23.161C153.413,23.161 152.74,23.1 152.311,23.038C151.392,22.916 151.207,22.242 151.116,21.353C150.963,20.066 150.963,17.646 150.963,14.705L150.963,11.489C150.963,11.336 151.056,11.305 151.148,11.305L164.136,11.305C164.229,11.305 164.321,11.367 164.321,11.489L164.321,14.705C164.321,17.646 164.321,20.066 164.168,21.353C164.045,22.242 163.894,22.915 163.28,23.038C163.004,23.1 162.635,23.161 162.361,23.161C162.176,23.161 162.116,23.253 162.116,23.345C162.116,23.531 162.269,23.591 162.606,23.591C163.525,23.591 165.455,23.499 165.608,23.499C165.76,23.499 167.691,23.591 169.377,23.591C169.713,23.591 169.867,23.499 169.867,23.345C169.867,23.254 169.806,23.161 169.622,23.161C169.347,23.161 168.672,23.1 168.244,23.038C167.325,22.916 167.141,22.242 167.049,21.353C166.897,20.066 166.897,17.646 166.897,14.705L166.897,9.313L166.892,9.313ZM205.008,13.127C208.207,12.25 210.36,9.58 210.36,5.957C210.36,4.29 209.481,2.876 208.79,2.216C208.286,1.745 206.873,0.424 202.943,0.424C201.498,0.424 198.83,0.522 197.998,0.522C197.637,0.522 195.914,0.43 194.536,0.43C194.199,0.43 194.046,0.492 194.046,0.675C194.046,0.798 194.169,0.86 194.291,0.86C194.567,0.86 195.088,0.89 195.333,0.952C196.344,1.166 196.589,1.656 196.65,2.698C196.712,3.677 196.712,4.536 196.712,9.316L196.712,14.708C196.712,17.649 196.712,20.069 196.56,21.356C196.437,22.245 196.284,22.918 195.67,23.041C195.395,23.103 195.026,23.164 194.751,23.164C194.567,23.164 194.506,23.256 194.506,23.349C194.506,23.534 194.659,23.594 194.996,23.594C195.915,23.594 197.845,23.502 197.876,23.502C198.029,23.502 199.959,23.594 201.646,23.594C201.983,23.594 202.135,23.502 202.135,23.349C202.135,23.257 202.074,23.164 201.891,23.164C201.616,23.164 200.941,23.103 200.512,23.041C199.593,22.919 199.409,22.245 199.318,21.356C199.165,20.069 199.165,17.649 199.165,14.708L199.165,13.971C199.165,13.819 199.227,13.727 199.379,13.727L202.353,13.773C202.537,13.773 202.699,13.844 202.756,13.971C203.221,14.99 203.865,16.708 204.792,18.607C206.058,21.201 206.276,22.351 207.594,23.054C208.39,23.484 209.226,23.591 210.943,23.591L212.42,23.591C212.971,23.591 213.154,23.53 213.154,23.345C213.154,23.254 213.031,23.157 212.879,23.161C212.576,23.169 212.068,23.084 211.486,22.981C210.99,22.893 209.541,22.541 208.644,20.863C207.52,18.765 206.231,15.712 205.008,13.127ZM201.458,1.409C202.403,1.398 204.482,1.241 206.148,2.938C207.815,4.635 207.908,6.742 207.908,7.779C207.908,10.671 205.533,12.836 202.485,12.836C201.226,12.836 199.835,12.622 199.375,12.347C199.223,12.254 199.161,12.132 199.161,11.979L199.161,1.961C199.161,1.777 199.253,1.654 199.407,1.593C199.712,1.501 200.539,1.419 201.458,1.409ZM219.215,8.823C219.215,6.464 219.215,3.339 219.246,2.298C219.246,1.961 219.338,1.809 219.613,1.686C219.859,1.563 220.992,1.472 221.605,1.472C225.25,1.472 228.742,1.901 231.623,4.933C232.879,6.249 234.564,8.763 234.564,12.654C234.564,15.472 233.705,18.413 232.113,19.976C230.304,21.784 227.67,22.825 224.822,22.825C221.207,22.825 220.011,22.182 219.613,21.6C219.369,21.263 219.306,20.037 219.277,19.271C219.246,18.689 219.214,15.871 219.214,12.623L219.215,8.823ZM216.643,14.705C216.643,17.646 216.643,20.066 216.489,21.353C216.368,22.242 216.214,22.915 215.6,23.038C215.325,23.1 214.956,23.161 214.682,23.161C214.497,23.161 214.436,23.253 214.436,23.345C214.436,23.531 214.589,23.591 214.925,23.591C215.384,23.591 216.089,23.53 216.702,23.53C217.346,23.499 217.866,23.499 217.928,23.499C218.081,23.499 219.122,23.591 220.471,23.684C221.788,23.776 223.411,23.868 224.731,23.868C229.938,23.868 232.696,21.723 234.012,20.345C235.727,18.537 237.321,15.567 237.321,11.706C237.321,8.06 235.882,5.518 234.35,3.924C230.704,0.156 225.098,0.432 222.065,0.432C220.227,0.432 218.296,0.524 217.928,0.524C217.776,0.524 215.844,0.432 214.466,0.432C214.128,0.432 213.977,0.494 213.977,0.677C213.977,0.8 214.1,0.862 214.221,0.862C214.497,0.862 215.018,0.892 215.264,0.954C216.274,1.168 216.52,1.658 216.579,2.7C216.642,3.679 216.642,4.538 216.642,9.318L216.642,14.705L216.643,14.705ZM137.104,13.127C140.301,12.25 142.456,9.58 142.456,5.957C142.456,4.29 141.576,2.876 140.885,2.216C140.382,1.745 138.968,0.424 135.038,0.424C133.592,0.424 130.924,0.522 130.093,0.522C129.733,0.522 128.01,0.43 126.631,0.43C126.294,0.43 126.142,0.492 126.142,0.675C126.142,0.798 126.265,0.86 126.387,0.86C126.661,0.86 127.183,0.89 127.429,0.952C128.44,1.166 128.685,1.656 128.745,2.698C128.807,3.677 128.807,4.536 128.807,9.316L128.807,14.708C128.807,17.649 128.807,20.069 128.654,21.356C128.531,22.245 128.378,22.918 127.765,23.041C127.489,23.103 127.121,23.164 126.846,23.164C126.661,23.164 126.601,23.256 126.601,23.349C126.601,23.534 126.753,23.594 127.09,23.594C128.009,23.594 129.94,23.502 129.971,23.502C130.123,23.502 132.054,23.594 133.739,23.594C134.076,23.594 134.229,23.502 134.229,23.349C134.229,23.257 134.167,23.164 133.984,23.164C133.708,23.164 133.034,23.103 132.605,23.041C131.686,22.919 131.501,22.245 131.41,21.356C131.257,20.069 131.257,17.649 131.257,14.708L131.257,13.971C131.257,13.819 131.319,13.727 131.472,13.727L134.445,13.773C134.629,13.773 134.791,13.844 134.849,13.971C135.314,14.99 135.957,16.708 136.884,18.607C138.151,21.201 138.368,22.351 139.687,23.054C140.483,23.484 141.318,23.591 143.034,23.591L144.512,23.591C145.063,23.591 145.246,23.53 145.246,23.345C145.246,23.254 145.123,23.157 144.971,23.161C144.667,23.169 144.159,23.084 143.578,22.981C143.081,22.893 141.631,22.541 140.736,20.863C139.615,18.765 138.326,15.712 137.104,13.127ZM133.553,1.409C134.498,1.398 136.577,1.241 138.242,2.938C139.909,4.635 140.002,6.742 140.002,7.779C140.002,10.671 137.627,12.836 134.578,12.836C133.319,12.836 131.929,12.622 131.47,12.347C131.317,12.254 131.255,12.132 131.255,11.979L131.255,1.961C131.255,1.777 131.348,1.654 131.5,1.593C131.808,1.501 132.634,1.419 133.553,1.409ZM178.475,13.449C178.382,13.449 178.322,13.387 178.382,13.234L181.078,4.963C181.231,4.504 181.384,4.504 181.537,4.963L184.447,13.234C184.478,13.357 184.478,13.449 184.324,13.449L178.475,13.449ZM174.186,20.219C173.633,21.751 173.022,22.915 171.612,23.1C171.367,23.13 170.938,23.161 170.723,23.161C170.57,23.161 170.448,23.223 170.448,23.345C170.448,23.531 170.632,23.591 171.03,23.591C172.47,23.591 174.155,23.499 174.492,23.499C174.829,23.499 176.146,23.591 176.882,23.591C177.158,23.591 177.341,23.53 177.341,23.345C177.341,23.223 177.249,23.161 177.035,23.161L176.728,23.161C176.207,23.161 175.564,22.885 175.564,22.273C175.564,21.721 175.716,20.986 175.993,20.219L177.831,14.797C177.893,14.645 177.984,14.551 178.138,14.551L184.724,14.551C184.877,14.551 184.939,14.613 184.999,14.736L187.85,22.273C188.034,22.763 187.85,23.039 187.665,23.1C187.543,23.13 187.451,23.192 187.451,23.314C187.451,23.498 187.788,23.498 188.37,23.529C190.484,23.59 192.721,23.59 193.181,23.59C193.518,23.59 193.793,23.529 193.793,23.344C193.793,23.192 193.671,23.16 193.487,23.16C193.18,23.16 192.72,23.13 192.261,22.976C191.617,22.791 190.729,22.301 189.625,19.575C187.756,14.919 182.947,2.266 182.487,1.102C182.121,0.153 181.998,0 181.814,0C181.629,0 181.507,0.185 181.14,1.195L174.186,20.219ZM272.764,13.449C272.671,13.449 272.612,13.387 272.671,13.234L275.368,4.963C275.52,4.503 275.675,4.503 275.827,4.963L278.737,13.234C278.768,13.357 278.768,13.449 278.614,13.449L272.764,13.449ZM271.172,23.59C271.447,23.59 271.631,23.528 271.631,23.344C271.631,23.222 271.539,23.16 271.324,23.16L271.017,23.16C270.496,23.16 269.853,22.884 269.853,22.272C269.853,21.719 270.006,20.985 270.283,20.218L272.121,14.796C272.184,14.644 272.273,14.55 272.429,14.55L279.015,14.55C279.168,14.55 279.23,14.612 279.289,14.735L282.14,22.272C282.324,22.762 282.14,23.038 281.955,23.099C281.834,23.129 281.74,23.191 281.74,23.313C281.74,23.497 282.078,23.497 282.66,23.527C284.773,23.589 287.011,23.589 287.47,23.589C287.808,23.589 288.082,23.527 288.082,23.343C288.082,23.191 287.959,23.159 287.777,23.159C287.468,23.159 287.008,23.129 286.549,22.975C285.904,22.79 285.017,22.3 283.914,19.574C282.045,14.918 277.236,2.265 276.775,1.1C276.41,0.153 276.287,0 276.104,0C275.92,0 275.796,0.185 275.43,1.195L268.477,20.219C268.018,21.49 267.518,22.508 266.557,22.923C265.757,22.654 264.962,22.047 263.952,20.912C261.649,18.325 256.864,12.218 255.727,10.662C256.372,9.895 261.737,4.656 262.501,3.921C263.88,2.605 264.555,1.838 265.813,1.286C266.423,1.012 267.069,0.857 267.528,0.857C267.772,0.857 267.835,0.795 267.835,0.643C267.835,0.49 267.712,0.428 267.374,0.428C266.608,0.428 264.587,0.52 264.436,0.52C263.7,0.52 262.749,0.428 262.136,0.428C261.923,0.428 261.77,0.49 261.77,0.643C261.77,0.765 261.891,0.827 262.044,0.888C262.29,0.98 262.442,1.163 262.442,1.532C262.442,2.053 261.645,2.849 260.788,3.738C259.684,4.933 254.141,10.57 253.62,11.152L253.497,9.314C253.497,4.535 253.497,3.676 253.559,2.696C253.621,1.624 253.866,1.103 254.692,0.95C255.061,0.888 255.245,0.858 255.46,0.858C255.583,0.858 255.704,0.796 255.704,0.673C255.704,0.489 255.552,0.428 255.214,0.428C254.296,0.428 252.52,0.52 252.243,0.52C252.059,0.52 250.251,0.428 248.872,0.428C248.536,0.428 248.382,0.49 248.382,0.673C248.382,0.796 248.505,0.858 248.628,0.858C248.903,0.858 249.425,0.888 249.669,0.95C250.682,1.164 250.925,1.655 250.987,2.696C251.048,3.675 251.048,4.534 251.048,9.314L251.048,14.706C251.048,17.647 251.048,20.067 250.897,21.354C250.774,22.243 250.622,22.916 250.005,23.039C249.731,23.101 249.362,23.162 249.087,23.162C248.903,23.162 248.843,23.254 248.843,23.347C248.843,23.531 248.995,23.592 249.333,23.592C250.251,23.592 252.028,23.5 252.274,23.5C252.518,23.5 254.295,23.592 255.795,23.592C256.133,23.592 256.285,23.5 256.285,23.347C256.285,23.255 256.224,23.162 256.041,23.162C255.767,23.162 255.273,23.101 254.846,23.039C253.928,22.916 253.744,22.243 253.652,21.354C253.5,20.067 253.5,17.647 253.5,14.706L253.517,11.727C254.205,12.682 257.039,16.461 258.914,18.833C260.543,20.896 261.762,22.357 263.07,23.076C263.627,23.382 263.914,23.597 265.336,23.597C265.336,23.597 267.351,23.493 268.422,23.493C269.438,23.493 270.436,23.59 271.172,23.59ZM330.256,24.019C331.91,24.019 333.566,23.652 334.883,22.732C336.996,21.231 337.487,18.903 337.487,17.647C337.487,15.196 336.63,13.296 333.013,10.448L332.157,9.774C329.216,7.477 328.419,6.373 328.419,4.627C328.419,2.392 330.073,1.074 332.19,1.074C335.007,1.074 335.835,2.36 336.017,2.697C336.202,3.034 336.384,3.861 336.415,4.229C336.446,4.474 336.478,4.626 336.661,4.626C336.813,4.626 336.874,4.412 336.874,3.921C336.874,1.838 336.997,0.827 336.997,0.674C336.997,0.522 336.935,0.459 336.69,0.459C336.446,0.459 336.2,0.429 335.618,0.307C334.851,0.123 333.963,0 332.767,0C328.876,0 326.425,2.236 326.425,5.516C326.425,7.599 327.161,9.497 330.409,12.163L331.788,13.297C334.421,15.473 335.309,16.697 335.309,18.812C335.309,20.772 333.871,22.885 330.928,22.885C328.875,22.885 326.855,22.029 326.396,19.76C326.303,19.331 326.303,18.904 326.303,18.627C326.303,18.381 326.273,18.29 326.088,18.29C325.936,18.29 325.873,18.444 325.842,18.78C325.814,19.27 325.691,20.495 325.691,22.028C325.691,22.855 325.721,22.978 326.15,23.192C327.406,23.804 328.816,24.019 330.256,24.019ZM314.66,9.313C314.66,4.534 314.66,3.675 314.722,2.695C314.784,1.623 315.028,1.102 315.915,0.949C316.284,0.887 316.712,0.857 316.927,0.857C317.05,0.857 317.171,0.795 317.171,0.672C317.171,0.488 317.019,0.426 316.683,0.426C315.763,0.426 313.528,0.519 313.372,0.519C313.22,0.519 311.288,0.426 309.911,0.426C309.573,0.426 309.421,0.488 309.421,0.672C309.421,0.795 309.542,0.857 309.665,0.857C309.942,0.857 310.462,0.887 310.708,0.949C311.718,1.163 311.964,1.653 312.024,2.695C312.086,3.674 312.086,4.533 312.086,9.313L312.086,14.705C312.086,17.646 312.086,20.066 311.932,21.353C311.811,22.242 311.658,22.915 311.043,23.038C310.768,23.1 310.4,23.161 310.125,23.161C309.941,23.161 309.879,23.253 309.879,23.345C309.879,23.531 310.033,23.591 310.369,23.591C310.828,23.591 311.504,23.561 312.115,23.53C312.727,23.53 313.25,23.499 313.371,23.499C314.26,23.499 315.211,23.53 316.496,23.591C317.783,23.621 319.377,23.684 321.582,23.684C323.205,23.684 323.299,23.561 323.512,22.857C323.758,21.967 323.971,20.129 323.971,19.793C323.971,19.457 323.943,19.334 323.787,19.334C323.603,19.334 323.543,19.487 323.512,19.732C323.42,20.314 323.115,21.08 322.715,21.57C321.982,22.459 320.633,22.489 319.008,22.489C316.619,22.489 315.822,22.275 315.332,21.784C314.781,21.232 314.658,19.272 314.658,14.768L314.658,9.313L314.66,9.313ZM299.541,13.127C302.738,12.25 304.893,9.58 304.893,5.957C304.893,4.29 304.012,2.876 303.322,2.216C302.82,1.745 301.404,0.424 297.476,0.424C296.029,0.424 293.363,0.522 292.531,0.522C292.17,0.522 290.447,0.43 289.068,0.43C288.732,0.43 288.578,0.492 288.578,0.675C288.578,0.798 288.701,0.86 288.824,0.86C289.099,0.86 289.621,0.89 289.865,0.952C290.877,1.166 291.121,1.656 291.183,2.698C291.244,3.677 291.244,4.536 291.244,9.316L291.244,14.708C291.244,17.649 291.244,20.069 291.092,21.356C290.969,22.245 290.816,22.918 290.203,23.041C289.926,23.103 289.558,23.164 289.283,23.164C289.099,23.164 289.037,23.256 289.037,23.349C289.037,23.534 289.191,23.594 289.529,23.594C290.447,23.594 292.377,23.502 292.408,23.502C292.56,23.502 294.49,23.594 296.176,23.594C296.514,23.594 296.666,23.502 296.666,23.349C296.666,23.257 296.605,23.164 296.422,23.164C296.146,23.164 295.471,23.103 295.043,23.041C294.123,22.919 293.939,22.245 293.848,21.356C293.697,20.069 293.697,17.649 293.697,14.708L293.697,13.971C293.697,13.819 293.758,13.727 293.91,13.727L296.885,13.773C297.07,13.773 297.232,13.844 297.289,13.971C297.754,14.99 298.397,16.708 299.324,18.607C300.59,21.201 300.807,22.351 302.125,23.054C302.922,23.484 303.756,23.591 305.473,23.591L306.951,23.591C307.502,23.591 307.686,23.53 307.686,23.345C307.686,23.254 307.563,23.157 307.41,23.161C307.106,23.169 306.598,23.084 306.018,22.981C305.52,22.893 304.072,22.541 303.176,20.863C302.051,18.765 300.763,15.712 299.541,13.127ZM295.99,1.409C296.935,1.398 299.012,1.241 300.678,2.938C302.346,4.635 302.439,6.742 302.439,7.779C302.439,10.671 300.066,12.836 297.017,12.836C295.756,12.836 294.367,12.622 293.906,12.347C293.754,12.254 293.693,12.132 293.693,11.979L293.693,1.961C293.693,1.777 293.785,1.654 293.937,1.593C294.244,1.501 295.07,1.419 295.99,1.409Z" style="fill:rgb(165,30,55);fill-rule:nonzero;"/>
    </g>
    <g transform="matrix(1.69775,0,0,1.69775,-127.398,-267.403)">
        <path d="M238.966,307.887C240.61,304.865 240.944,302.963 240.944,299.283C240.944,295.685 240.028,293.494 237.954,290.554C238.575,289.582 239.104,288.969 239.075,287.82C238.971,283.638 237.263,281.331 234.881,278.841C233.081,276.964 231.485,276.356 228.943,275.82C225.834,271.361 222.061,269.299 216.625,269.299C210.813,269.299 205.125,272.391 202.739,277.904C200.175,272.301 195.849,269.299 190.608,269.299C185.091,269.299 177.543,273.487 176.125,280.483C172.636,283.879 170.082,289.212 170.082,293.4C170.082,298.408 170.608,303.334 173,307.608C172.039,310.403 171.864,312.218 172.271,315.15C172.708,318.319 173.696,321.491 175.396,322.733C176.067,323.22 180.221,322.825 181.788,321.583C182.021,322.816 182.29,323.515 182.94,324.587C183.971,326.285 184.919,327.149 186.704,328.017C186.7,327.541 186.708,327.085 186.741,326.65C186.741,326.65 188.088,330.612 193.12,330.546C192.291,328.835 192.641,327.542 193.708,326.473C194.892,325.292 198.905,324.512 198.905,327.042L198.905,349.195C198.905,353.025 198.745,353.57 197.848,355.228C196.538,357.647 193.703,358.358 186.708,360.332C181.553,361.789 176.314,364.945 174.98,368.687C174.98,368.687 177.317,366.833 179.501,366.314C181.355,365.871 183.063,365.896 184.876,366.105C183.954,367.062 183.438,367.595 182.167,368.209C180.105,369.209 178.566,368.537 176.479,371.162C178.67,370.31 180.186,370.896 180.186,370.896C178.853,372.89 176.983,372.664 175.23,373.703C173.319,374.838 172.626,376.727 172.731,378.75C174.917,375.979 176.54,376.506 179.188,375.354C181.478,374.356 183.126,373.25 184.292,370.5C184.522,375.521 181.006,376.371 179.146,378.123C176.138,380.963 174.543,382.646 174.874,387.834C176.008,381.082 182.274,381.375 186.34,378.522C188.898,376.72 189.482,374.731 189.876,371.331C193.276,380.393 185.15,380.022 180.564,384.979C177.89,387.868 177.584,393.747 181.814,394.856C180.649,393.2 180.412,391.655 181.025,389.723C181.783,387.338 183.516,385.936 186.004,385.682C184.249,386.875 183.427,388.191 183.108,390.287C182.735,392.732 183.374,394.586 185.173,396.283C184.718,393.658 184.791,391.847 186.13,389.516C187.776,386.641 191.351,385.667 194.706,383.345C196.27,382.263 197.582,380.101 198.465,377.098C198.467,379.652 198.175,381.248 196.88,383.451C195.211,386.287 191.149,387.074 189.456,389.826C188.039,392.133 187.894,393.938 188.102,396.638C188.647,394.619 189.867,392.261 192.27,391.159C196.666,389.14 199.249,387.305 200.666,383.327C200.937,385.54 201.079,386.906 200.186,388.889C198.79,391.985 194.998,391.995 193.024,393.827C192.064,394.716 191.836,395.509 191.295,396.702C192.452,396.235 193.274,395.985 194.422,395.997C196.249,396.018 197.234,396.852 199.138,396.852C202.514,396.852 204.417,393.7 204.064,388.87C205.752,393.183 209.398,396.852 213.312,396.852C215.275,396.852 217.71,396.553 219.4,395.387C217.379,395.64 215.278,394.729 213.088,393.349C208.442,390.422 207.419,385.37 206.873,380.722C208.373,384.993 210.311,387.594 213.811,390.196C218.726,393.844 226.188,395.326 230.748,392.553C228.977,392.741 227.938,392.699 226.188,392.385C223.522,391.906 221.518,391.262 219.772,389.719C223.71,391.198 226.684,390.904 230.522,389.201C233.394,387.93 234.704,386.097 235.418,382.597C233.032,385.065 229.939,386.045 227.586,386.597C222.687,387.743 216.523,384.824 213.814,379.743C214.543,379.79 214.953,379.847 215.668,379.989C218.356,380.538 218.651,382.538 221.98,383.114C221.98,383.114 221.624,383.762 220.959,384.118C223.202,384.597 224.647,384.854 226.841,384.108C230.112,382.993 232.121,381.883 234.209,379.888C232.726,380.46 231.8,380.651 230.209,380.698C228.324,380.753 227.204,380.556 225.454,379.868C227.168,377.99 228.612,377.18 231.038,376.514C232.6,376.078 235.518,375.809 237.494,376.743C236.684,374.705 234.075,373.412 232.225,373.39C226.305,373.325 225.844,376.567 222.121,376.325C219.326,376.143 216.746,373.743 212.559,374.768C212.661,373.93 212.604,373.414 212.33,372.618C211.955,371.534 211.436,370.789 210.563,370.265C213.167,370.661 214.192,372.952 217.412,373.518C224.751,374.808 226.311,372.325 230.167,371.01C231.433,370.578 232.858,370.629 234.211,371.198C234.211,371.198 233.295,368.844 231.899,367.929C231.239,368.663 230.733,369.013 229.811,369.367C228.582,369.841 227.458,369.779 226.44,369.535C226.481,368.722 226.628,367.364 227.211,366.597C227.907,365.667 228.929,364.897 230.338,364.741C229.203,364.522 228.357,364.366 227.379,364.637C225.775,365.079 224.006,367.825 220.9,368.384C217.861,368.931 215.629,367.89 213.396,365.863C215.128,366.488 216.253,366.624 218.084,366.428C221.313,366.079 223.334,364.548 225.34,362.344C220.793,362.945 215.358,360.032 212.922,355.279C212.313,354.093 212.127,352.97 212.127,351.283L212.127,328.874C212.127,326.624 213.495,324.187 215.87,324.52C215.87,324.52 215.564,328.01 216.62,329.812C217.932,332.041 219.682,333.319 222.288,333.27C222.342,333.933 222.163,335.063 221.633,335.881C224.538,335.937 230.454,332.187 234.971,324.506C238.598,317.985 236.375,312.826 236.659,311.777C236.984,310.577 238.287,310.657 239.471,310.266C239.501,309.703 239.469,309.37 239.325,308.826C239.224,308.45 239.144,308.238 238.966,307.887ZM192.254,380.04C195.149,377.212 195.983,373.817 194.739,369.966C193.973,367.599 192.971,366.261 190.921,364.862C191.511,364.214 191.864,363.866 192.526,363.292C193.088,362.808 193.414,362.548 194.016,362.122L194.739,364.065C195.668,366.545 197.075,368.081 197.141,370.422C197.264,374.622 194.651,378.153 192.254,380.04ZM205.226,305.293C205.226,307.322 205.267,309.088 205.312,310.806L203.193,310.025C202.937,309.315 202.672,308.666 202.39,308.074C202.482,307.514 202.588,307.095 202.786,306.468C203.081,305.531 203.307,305.013 203.78,304.156L205.206,304.076C205.219,304.469 205.226,304.877 205.226,305.293ZM184.406,308.053C184.427,308.966 184.487,309.525 184.677,310.359C184.515,310.564 184.359,310.775 184.206,310.992L182.702,309.133L181.212,308.492C181.43,307.941 181.931,306.945 182.265,306.566C181.65,306.295 180.888,304.692 180.603,303.864C181.4,303.993 181.87,304.008 182.673,303.926C183.212,303.873 183.517,303.82 184.034,303.67L182.604,298.625C183.891,299.01 184.604,299.335 185.739,300.055C186.683,300.658 187.526,300.829 187.97,301.86C188.086,302.13 188.147,302.322 188.184,302.568C186.536,303.325 185.205,304.545 184.512,306.205C184.412,306.918 184.392,307.33 184.406,308.053ZM177.078,309.483C176.64,309.768 176.357,309.962 175.999,310.227C176.1,309.041 176.328,308.206 176.867,306.998C176.867,305.696 177.181,304.294 177.674,302.955L179.719,306.436L178.852,308.418C178.145,308.809 177.756,309.043 177.078,309.483ZM179.362,315.829C179.05,316.055 178.859,316.166 178.509,316.329C178.064,316.536 177.69,316.669 177.305,316.744C176.473,315.336 176.021,313.708 175.954,311.88C176.789,312.371 177.307,312.821 177.993,313.63C178.652,314.398 178.966,314.901 179.362,315.829ZM184.121,283.821C184.309,284.412 184.444,284.916 184.555,285.42L186.544,287.348L187.164,288.298C185.619,288.842 184.197,289.639 182.925,290.61C182.555,290.048 181.938,289.131 181.862,288.796C181.789,288.462 181.32,287.629 180.884,287.234L180.863,287.221C181.907,285.9 182.985,284.767 184.121,283.821ZM181.149,281.076C183.013,279.979 184.847,279.292 186.239,279.249C184.51,280.715 183.126,282.168 181.933,283.65C181.903,283.295 181.857,282.99 181.773,282.56C181.718,282.279 181.407,281.631 181.149,281.076ZM189.27,296.746C189.346,296.278 189.53,294.705 189.711,293.775C191.307,293.695 192.93,293.882 194.482,294.378C194.181,293.982 193.8,293.58 193.36,293.219L193.382,291.669C193.51,291.14 193.57,290.839 193.671,290.304C193.755,289.849 193.803,289.552 193.856,289.158L194.056,289.189C194.535,289.261 195.005,289.357 195.452,289.461C195.767,290.179 196.339,291.42 196.657,291.795C196.923,292.105 197.075,292.272 197.362,292.551C197.362,292.551 196.702,293.736 196.591,294.268C196.362,295.36 196.482,296.383 196.91,297.196L194.808,295.7C194.625,296.295 194.436,296.888 194.498,297.196C194.743,298.398 194.861,299.107 194.769,300.33C194.724,300.919 194.667,301.309 194.547,301.799C192.482,301.466 190.367,301.67 188.579,302.388C188.479,301.742 188.486,301.256 188.583,300.526C188.688,299.672 189.067,299.255 189.188,298.405C189.298,297.76 189.172,297.383 189.27,296.746ZM189.469,289.13C190.072,289.045 190.69,288.997 191.318,288.988L192.408,290.079C192.588,290.777 192.588,291.227 192.408,291.925C192.355,292.133 192.304,292.301 192.239,292.459C191.759,292.198 191.235,291.997 190.7,291.889C190.307,291.813 189.929,291.749 189.554,291.706C189.646,291.282 189.664,290.898 189.648,290.367C189.626,289.872 189.577,289.52 189.469,289.13ZM192.104,287.497C191.135,287.479 190.198,287.56 189.293,287.728L190.772,285.177L191.542,284.198C192.249,284.76 192.618,285.132 193.187,285.839C193.721,286.509 194.026,286.977 194.358,287.656C193.637,287.565 192.888,287.511 192.104,287.497ZM188.449,291.631C185.853,291.572 183.761,292.388 181.92,293.439C183.344,291.356 185.633,289.96 188.303,289.346C188.449,289.716 188.51,290.034 188.533,290.496C188.563,290.946 188.544,291.264 188.449,291.631ZM188.115,293.945C187.9,295.329 187.767,296.231 187.554,297.725L187.297,299.572L186.349,299.476C185.802,299.123 185.501,298.914 184.984,298.527C183.903,297.712 183.268,297.153 182.426,296.256C184.073,295.08 186.046,294.286 188.115,293.945ZM181.177,290.111C181.448,290.631 181.658,290.926 182.041,291.326C179.77,293.293 178.026,295.805 176.937,298.342C176.974,294.237 177.8,291.466 180.01,288.356L180.628,288.553C180.753,289.185 180.878,289.541 181.177,290.111ZM179.172,302.528C178.675,302.498 178.33,302.424 177.945,302.252C178.772,300.265 179.943,298.484 180.973,297.471C181.119,298.256 181.242,298.833 181.481,299.737C181.768,300.813 181.974,301.412 182.412,302.432C181.756,302.305 181.365,302.28 180.693,302.304C180.095,302.329 179.77,302.565 179.172,302.528ZM185.77,305.203C186.093,304.97 186.42,304.752 186.754,304.552C186.976,304.865 187.108,305.098 187.298,305.487C187.702,306.325 187.892,306.925 187.969,307.741C187.154,308.098 186.424,308.593 185.776,309.179C185.572,308.723 185.481,308.365 185.415,307.798C185.289,306.77 185.385,306.04 185.77,305.203ZM187.224,304.285C188.87,303.401 190.679,302.971 192.834,303.285L193.01,303.312C192.557,304.083 192.176,304.613 191.523,305.383C191.038,305.959 190.742,306.272 190.19,306.78C189.605,306.249 189.269,305.955 188.665,305.447C188.1,304.977 187.734,304.679 187.224,304.285ZM194.285,303.596C195.867,304.051 197.328,304.864 198.596,305.998C198.43,306.739 198.278,307.511 198.192,308.181C198.056,309.234 197.997,309.953 197.989,310.831C196.551,309.091 194.901,307.795 192.977,307.289L194.285,303.596ZM197.93,302.9C197.381,302.602 196.819,302.374 196.242,302.193C196.053,301.534 195.949,301.04 195.846,300.261C195.739,299.481 195.706,299.031 195.717,298.24C196.17,298.466 196.413,298.616 196.822,298.914C197.134,299.14 197.301,299.279 197.578,299.541C198.217,299.27 198.64,299.197 199.328,299.252C199.865,299.295 200.182,299.381 200.662,299.62C199.891,300.217 199.491,300.616 198.894,301.387C198.462,301.949 198.219,302.323 197.93,302.9ZM200.006,294.047C199.69,293.631 199.402,293.439 198.899,293.291C198.837,292.711 198.837,292.376 198.899,291.797C198.939,291.419 198.983,291.148 199.058,290.854C201.079,292.01 202.596,293.708 203.619,296C203.502,296.331 203.316,296.638 203.043,296.973C202.855,297.21 202.727,297.333 202.481,297.519L200.409,295.707C200.522,295.047 200.407,294.575 200.006,294.047ZM200.856,301.227C201.571,300.623 201.99,300.299 202.752,299.761C202.611,301.144 202.505,301.917 202.254,303.282C202.018,304.553 201.846,305.331 201.534,306.479C200.641,305.023 199.666,304.022 198.623,303.319C199.412,302.488 199.936,302.002 200.856,301.227ZM204.027,287.066C204.932,289.37 205.081,291.909 204.549,294.054C202.15,290.688 199.408,288.727 195.859,287.92L197.305,282.62C198.508,283.559 199.116,284.227 199.94,285.512C200.491,286.37 201.408,288.328 202.092,290.045C202.209,289.672 202.37,289.303 202.606,288.87C203.034,288.072 203.405,287.594 204.027,287.066ZM203.305,285.563C203.184,285.75 203.056,285.921 202.881,286.149C202.63,286.467 202.477,286.646 202.19,286.937C201.868,286.72 201.7,286.574 201.452,286.277C200.88,285.587 199.798,283.164 199.363,282.465C199.112,282.065 198.934,281.738 198.782,281.4C200.813,282.335 202.307,283.829 203.305,285.563ZM201.011,279.924C199.601,279.15 198.34,278.553 197.098,278.114L198.86,275.301C199.77,276.559 200.417,278.114 201.011,279.924ZM190.797,272.99L190.943,271.636C193.642,271.803 195.559,272.419 196.994,273.437L197.159,274.813C197.159,274.813 196.448,276.625 195.913,277.742C195.101,277.513 194.277,277.347 193.409,277.239C193.214,276.737 192.989,276.231 192.69,275.916C192.01,275.2 191.533,274.854 190.641,274.428L190.797,272.99ZM193.74,280.369C194.825,280.369 195.826,280.487 196.743,280.703L196.764,281.323C196.608,282.344 196.436,282.921 196.008,283.861C195.696,284.54 195.483,284.91 195.041,285.511C194.683,285.199 191.193,282.594 190.725,282.588C190.396,283.576 189.028,287.018 188.366,287.934L188.116,287.996C187.858,287.036 187.54,286.46 186.854,285.689C186.286,285.047 185.876,284.739 185.117,284.356L185.374,283.6L185.519,282.777C187.891,281.195 190.563,280.369 193.74,280.369ZM189.392,271.609C189.174,272.744 188.668,274.463 188.436,275.004C188.573,275.148 189.229,276.301 189.407,277.046C188.345,277.066 187.38,277.117 186.468,277.223C185.452,276.464 183.437,274.97 182.516,274.289C184.428,272.762 186.745,271.72 189.392,271.609ZM181.538,275.135C182.213,275.486 182.683,275.812 183.345,276.37C183.849,276.797 184.156,277.098 184.526,277.541C182.516,277.979 180.689,278.737 178.588,279.947C178.575,279.81 178.561,279.672 178.526,279.501L178.447,279.148C179.251,277.715 180.287,276.325 181.538,275.135ZM179.289,282.301C179.337,282.535 179.395,282.774 179.487,283.063C179.633,283.505 180.258,284.65 180.652,285.345C179.864,286.459 179.15,287.598 178.45,288.782C177.848,288.205 177.433,287.816 176.761,287.192C176.515,286.963 175.723,286.402 175.296,286.066C176.411,284.674 177.818,283.38 179.289,282.301ZM173.989,287.96C174.115,287.738 174.25,287.521 174.394,287.297C174.609,287.832 174.837,288.221 175.234,288.762C175.593,289.253 176.785,289.964 177.507,290.456C176.726,291.935 176.155,293.284 175.725,294.678L172.506,295.491C172.116,292.995 172.529,290.525 173.989,287.96ZM172.727,296.589C173.057,296.453 173.348,296.375 173.773,296.296C174.372,296.189 174.795,296.156 175.303,296.21C174.959,297.638 174.713,299.171 174.487,300.973C173.682,299.482 173.076,298.028 172.727,296.589ZM177.21,321.597C176.588,321.605 176.231,321.576 175.616,321.486C175.617,321.485 174.123,319.762 174.095,317.581C175.283,318.488 176.009,318.946 177.338,319.639C178.536,320.266 179.251,320.574 180.532,321.005C179.297,321.45 178.527,321.588 177.21,321.597ZM181.635,320.689C180.096,319.879 178.863,318.877 177.945,317.686C178.373,317.569 178.725,317.452 179.232,317.262C179.949,317 180.345,316.831 181.031,316.494C180.927,315.435 180.74,314.82 180.236,313.883C179.908,313.278 179.438,313.091 179.204,312.444C179.056,312.02 179.011,311.755 179.016,311.299C179.617,311.207 179.989,311.237 180.569,311.408C181.075,311.56 181.317,311.762 181.766,312.039C182.317,312.378 182.646,312.616 183.085,313.001C181.955,315.5 181.511,318.356 181.635,320.689ZM185.702,325.703C184.806,324.948 184.13,323.787 183.715,322.44L186.714,321.896C186.064,323.042 185.721,324.338 185.702,325.703ZM187.814,320.404L183.376,320.966C183.069,319.049 183.25,316.944 183.989,315.149C185.559,315.31 186.539,315.588 188.03,316.295C189.315,316.9 190.056,317.38 191.043,318.264C190.907,318.313 190.781,318.364 190.66,318.412C189.525,318.92 188.572,319.597 187.814,320.404ZM190.012,327.755C188.45,326.487 188.023,324.526 188.908,322.722L190.231,323.081L191.543,324.087C190.572,325.049 190.132,326.213 190.012,327.755ZM192.323,323.441L191.488,321.749L189.878,321.55C191.601,320.204 194.567,320.281 195.91,322.054C194.517,322.114 193.11,322.889 192.323,323.441ZM197.991,319.151C197.574,317.731 196.943,316.13 196.72,315.687C196.363,314.986 195.969,314.604 195.471,314.144C194.845,314.478 194.427,314.687 193.887,315.228C193.527,315.583 192.646,316.326 192.408,316.777C192.122,316.215 191.932,315.914 191.556,315.411C190.787,314.389 190.242,313.868 189.178,313.162C188.857,313.451 188.71,313.691 188.601,314.11C188.519,314.422 188.511,314.623 188.569,314.943C187.777,314.881 187.318,314.754 186.607,314.398C185.938,314.062 185.509,313.752 185.087,313.271C185.446,312.817 185.864,312.41 186.345,312.066C193.723,306.733 199.857,313.774 199.679,320.545C199.189,319.986 198.615,319.525 197.991,319.151ZM199.34,312.678L198.885,312.008C199.113,311.32 199.239,310.741 199.364,309.885C199.537,308.705 199.572,307.923 199.476,306.882C201.048,308.636 202.224,310.984 202.812,313.857C202.324,313.423 201.839,313.171 201.114,312.941C200.438,312.719 199.932,312.638 199.34,312.678ZM200.254,393.917C199.027,394.579 197.942,394.429 196.688,394.036C197.871,393.77 198.54,393.464 199.512,392.741C200.908,391.704 201.576,390.782 202.14,389.136C202.337,391.093 202.016,392.962 200.254,393.917ZM203.145,320.244C202.34,318.306 201.452,316.328 200.441,314.512L202.901,314.324C203.219,316.106 203.315,318.085 203.145,320.244ZM205.403,319.889C204.983,316.827 204.471,314.293 203.882,312.195L205.35,312.299C205.408,314.619 205.454,316.969 205.403,319.889ZM232.948,280.828C236.001,283.495 237.68,287.406 236.514,291.071C235.026,289.485 233.534,288.245 231.951,287.318C231.492,286.532 231.322,285.879 231.292,284.882C231.239,283.175 231.755,281.901 232.948,280.828ZM224.572,311.869C225.068,311.718 226.695,311.191 227.238,311.006C227.517,311.759 228.263,314.172 228.306,315.124C228.886,314.812 228.91,314.797 229.566,314.75C229.945,314.723 230.634,314.795 231.009,314.861C230.782,315.344 230.736,315.941 230.489,316.421C230.057,317.276 229.677,317.76 228.944,318.381C228.696,318.592 228.514,318.717 228.262,318.837L228.17,318.448C227.399,315.463 225.441,314.052 222.645,313.454C222.745,312.098 222.704,311.261 222.475,309.872C222.26,308.537 222.038,307.735 221.559,306.567C222.485,306.357 223.479,306.26 224.545,306.303C226.445,306.379 228.477,307.24 230.077,308.502C230.168,309.063 230.271,309.459 230.043,310.231C229.772,311.122 229.609,311.783 229.084,312.71C228.704,311.487 228.118,309.614 227.818,309.605C227.38,309.584 225.148,310.409 224.308,310.543C224.385,310.949 224.467,311.367 224.572,311.869ZM210.194,284.472C210.301,285.32 210.979,285.646 211.018,286.493C211.039,286.972 210.997,287.261 210.842,287.716L206.497,286.561C206.972,284.749 207.852,283.098 209.261,281.916C210.798,280.621 212.64,279.493 214.683,278.66C214.693,279.556 214.787,280.167 215.037,281.115C215.199,281.718 215.38,282.032 215.57,282.625C215.841,283.458 215.978,283.937 216.195,284.783C214.845,284.304 214.06,284.087 212.66,283.804C211.705,283.615 211.16,283.532 210.191,283.428C210.143,283.832 210.143,284.069 210.194,284.472ZM211.807,284.834C212.725,284.708 213.309,284.784 214.161,285.146C214.89,285.452 215.328,285.754 215.794,286.302C214.464,286.786 213.232,287.423 212.099,288.221C211.651,286.645 211.446,285 211.807,284.834ZM213.592,291.66C214.051,291.753 214.424,291.868 214.949,292.069C215.742,292.37 216.178,292.592 216.885,293.07C216.916,292.37 216.91,291.967 216.862,291.272C216.819,290.67 216.774,290.284 216.68,289.777C217.528,289.343 218.378,288.986 219.242,288.698C219.638,288.882 219.974,289.088 220.42,289.403C221.072,289.868 221.414,290.186 221.932,290.799L223.036,287.927L223.442,287.905C223.546,289.176 223.51,289.988 223.309,291.317C223.165,292.255 223.043,292.788 222.756,293.696L219.022,290.985L218.309,294.736C217.356,294.507 216.811,294.4 215.842,294.249C214.85,294.095 214.281,294.031 213.281,293.961C213.297,294.637 213.312,295.023 213.369,295.693C213.43,296.362 213.473,296.739 213.574,297.403C212.704,297.905 212.178,298.136 211.22,298.448C210.392,298.715 209.904,298.823 209.037,298.935C208.858,299.331 209.378,299.538 209.975,299.936C210.395,300.212 210.479,300.582 210.754,301.026C210.729,301.278 210.801,301.542 210.568,301.651C209.726,302.047 209.324,302.217 208.527,302.581L206.662,303.416C206.703,303.039 206.756,302.657 206.808,302.272C207.228,299.215 210.325,294.146 213.592,291.66ZM217.141,284.525C217.073,283.171 216.971,282.41 216.676,281.088C217.586,281.63 218.074,281.985 218.879,282.679C219.905,283.574 220.508,284.207 221.213,285.198C219.772,285.302 218.426,285.524 217.16,285.867C217.175,285.431 217.167,285.056 217.141,284.525ZM224.353,291.228C224.789,291.687 225.015,291.966 225.371,292.495C225.807,293.131 226.473,294.751 226.527,295.096C227.152,294.447 227.501,294.074 228.109,293.408C228.705,292.756 229.039,292.385 229.619,291.72C230.285,292.205 231.412,293.62 231.794,294.35C232.278,295.286 233.21,298.954 233.356,299.514L232.835,299.115C232.031,298.511 231.231,298.011 230.414,297.613C230.369,296.987 230.26,296.491 230.018,295.789C229.768,295.06 229.573,294.658 229.149,294.013C228.936,294.784 228.805,295.211 228.551,295.966L228.264,296.789C225.422,296.001 222.465,296.334 219.249,297.585C216.676,298.587 214.701,300.19 213.23,302.001C212.722,301.704 212.421,301.462 211.988,301.012C211.426,300.425 211.15,300.027 210.814,299.283C211.683,298.957 212.203,298.826 213.121,298.702C213.812,298.608 214.213,298.59 214.904,298.614C214.851,298.034 214.828,297.707 214.797,297.126C214.76,296.529 214.74,296.189 214.725,295.593C215.577,295.557 216.065,295.587 216.905,295.726C217.649,295.849 218.067,295.958 218.776,296.213C218.997,295.721 219.464,292.901 219.505,292.528C219.901,292.844 222.876,295.257 223.443,295.416C223.439,294.815 223.464,294.476 223.554,293.884C223.715,292.806 223.896,292.205 224.353,291.228ZM224.03,287.886C225.766,287.865 227.604,288.121 229.598,288.692L230.172,288.867L230.947,289.556C230.092,290.085 229.633,290.444 228.9,291.138C228.15,291.861 227.767,292.32 227.191,293.18C226.453,292.094 226.054,291.467 225.388,290.336C224.824,289.379 224.483,288.764 224.03,287.886ZM208.058,305.314L209.55,304.668L208.745,303.423C209.444,302.981 209.878,302.771 210.653,302.488C211.319,302.251 211.715,301.95 212.416,302.045C212.676,302.081 212.848,302.126 213.051,302.218C212.313,303.162 211.701,304.156 211.217,305.151C210.682,306.233 210.203,307.356 209.779,308.463L207.39,306.559L208.058,305.314ZM214.805,303.205L218.836,305.641C216.508,306.854 214.418,308.787 212.717,311.167L211.022,309.667C211.989,307.164 213.28,304.98 214.805,303.205ZM215.796,302.139C217.308,300.651 219.005,299.533 220.814,298.861C221.277,299.089 221.623,299.335 222.085,299.74C222.7,300.285 223.011,300.664 223.413,301.383C223.725,300.728 223.888,300.349 224.149,299.674C224.387,299.07 224.536,298.656 224.71,298.136C225.142,298.133 225.573,298.157 226.013,298.202C226.575,299.383 227.269,301.088 227.269,301.088L228.572,305.19C228.131,304.967 227.666,304.791 227.181,304.66C225.029,304.078 222.923,304.166 220.947,304.778C220.388,304.055 218.976,303.412 218.976,303.412C218.434,303.119 216.737,302.445 215.796,302.139ZM229.96,306.042C229.765,305.898 229.564,305.761 229.36,305.632C229.34,304.681 229.323,303.773 229.108,302.82C228.703,301.019 228.296,299.919 227.458,298.452C227.894,298.556 228.323,298.681 228.763,298.841C230.824,299.58 232.534,300.989 233.722,302.721C233.493,303.102 233.257,303.404 232.89,303.798C231.973,304.795 231.198,305.369 229.96,306.042ZM233.035,293.136C232.482,291.835 232.255,290.982 232.121,289.671C234.148,290.71 235.676,292.193 236.857,294.047C236.65,294.459 236.412,294.859 236.15,295.231C235.576,296.042 235.16,296.458 234.347,297.029C234.382,296.298 234.029,295.636 233.822,294.938C233.571,294.075 233.389,293.962 233.035,293.136ZM228.866,278.377C230.016,278.815 231.096,279.41 232.069,280.127C231.235,280.898 230.651,281.378 229.659,282.115C229.22,282.445 228.966,282.625 228.507,282.934C227.577,281.747 227.164,280.953 226.732,279.511C226.509,278.778 226.404,278.287 226.339,277.614C227.182,277.803 228.026,278.056 228.866,278.377ZM228.016,283.707C228.571,284.523 228.827,285.089 229.037,285.996C227.629,285.527 226.119,285.257 224.475,285.164C224.487,284.594 224.485,284.22 224.471,283.604C224.446,282.623 224.409,282.069 224.317,281.088C225.077,281.261 225.505,281.442 226.166,281.858C227.027,282.402 227.439,282.865 228.016,283.707ZM223.326,278.715C222.701,279.357 222.462,279.82 222.037,280.611C221.693,281.251 221.529,281.632 221.305,282.321L219.95,281.32C218.903,280.548 218.274,280.161 217.262,279.341C216.714,278.903 216.366,278.611 215.91,278.203C218.758,277.248 221.924,276.873 225.156,277.388C224.46,277.7 223.953,278.075 223.326,278.715ZM216.514,271.463C219.635,271.537 221.643,272.359 223.926,274.485C221.897,274.462 220.276,274.587 218.697,274.942L216.468,274.376L214.704,271.505C215.294,271.461 215.897,271.448 216.514,271.463ZM213.026,271.736C213.512,272.093 214.038,272.757 214.319,273.041C214.985,273.703 215.411,274.254 215.395,275.192C215.389,275.537 215.342,275.825 215.243,276.088L214.37,276.481C213.968,275.921 213.558,275.566 212.888,275.141C212.407,274.838 210.407,273.668 209.594,273.196C210.593,272.463 211.747,271.999 213.026,271.736ZM207.031,276.377C207.453,276.199 207.865,276.128 208.424,276.12C209.1,276.11 210.444,275.949 210.778,275.811C211.277,275.608 211.675,275.824 212.13,276.12C212.565,276.405 212.776,276.688 212.936,277.179C210.272,278.552 208.647,279.882 206.528,282.342C206.424,280.483 206.101,278.45 207.031,276.377ZM207.528,290.985C207.506,290.499 207.483,290.225 207.438,289.74C207.36,288.869 207.295,288.379 207.151,287.512C208.247,287.794 208.868,287.945 209.973,288.176C210.651,288.322 211.077,288.406 211.684,288.523C209.764,289.961 208.112,291.877 206.663,294.303C206.336,293.159 206.132,291.892 206.086,290.591L207.528,290.985ZM207.035,316.583C206.859,315.082 206.705,313.645 206.597,312.229L208.544,312.026C207.934,313.913 207.453,315.547 207.035,316.583ZM208.107,310.469C207.573,311.008 207.172,311.303 206.551,311.596C206.449,310.165 206.403,308.752 206.424,307.321C207.112,307.549 207.528,307.8 208.086,308.321C208.481,308.689 208.68,308.937 208.945,309.406C208.673,309.854 208.48,310.094 208.107,310.469ZM210.617,310.783L212.31,311.755C210.956,313.782 209.873,316.107 209.152,318.556C209.317,315.758 209.824,313.144 210.617,310.783ZM211.323,323.534C210.821,322.592 210.344,322 210.452,320.938C210.518,320.294 210.651,319.571 210.854,318.792C211.032,318.97 211.204,319.104 211.461,319.271C211.869,319.539 212.188,319.685 212.592,319.784C211.949,321.186 211.606,322.583 211.323,323.534ZM211.614,318.295C211.395,318.19 211.26,318.107 211.092,317.969C211.547,316.5 212.231,314.912 213.154,313.439C215.006,310.49 217.263,308.055 220.285,306.95C220.555,307.993 221.529,310.57 221.529,310.57C221.488,311.033 221.456,312.444 221.47,313.284C218.491,313.083 216.345,314.873 214.199,317.262C213.833,317.673 213.511,318.116 213.232,318.574C212.669,318.659 212.196,318.574 211.614,318.295ZM221.221,315.319C220.879,315.706 220.629,316.112 220.35,316.687C220.157,317.086 220.067,317.33 219.948,317.756C219.634,317.257 219.378,317 218.88,316.687C218.543,316.47 218.252,316.333 217.942,316.248C218.977,315.661 220.096,315.325 221.221,315.319ZM212.925,324.034C213.167,321.858 214.14,319.815 215.509,318.255C216.224,318.45 216.767,318.734 217.47,319.247C217.984,319.622 218.31,319.917 218.644,320.337C216.319,320.744 214.009,322.192 212.925,324.034ZM222.363,330.844C220.162,330.7 218.65,329.961 218.009,328.11C217.472,326.557 217.826,323.214 219.773,321.989C219.789,322.441 219.886,322.807 220.037,323.13C219.841,323.7 219.742,324.192 219.666,324.906C219.523,326.241 219.604,327.048 219.988,328.333L220.748,326.705L220.818,324.171C221.525,324.871 222.394,325.483 222.761,326.776C223.077,327.913 222.94,329.356 222.363,330.844ZM222.891,321.132C222.5,320.821 222.051,320.583 221.541,320.441C221.25,320.359 220.947,320.296 220.645,320.261C220.688,319.029 220.838,318.231 221.245,316.974C221.462,316.318 221.636,315.87 221.891,315.359C222.145,315.384 222.399,315.431 222.651,315.501C224.174,315.897 225.229,317.105 225.852,318.696C224.932,319.121 224.338,319.558 223.555,320.369C223.274,320.654 223.085,320.871 222.891,321.132ZM224.448,323.371C225.202,322.992 225.661,322.533 226.112,321.733C226.255,321.489 226.357,321.273 226.435,321.059C226.783,323.761 226.242,326.875 224.923,329.08C225.223,327.228 225.116,325.082 224.448,323.371ZM225.26,332.796C226.783,330.48 227.434,328.948 228.031,326.235C228.301,325.036 228.467,323.887 228.531,322.81C229.136,323.267 229.482,323.78 229.751,324.581C230.022,325.394 229.773,325.922 229.814,326.777C229.84,327.294 229.862,327.676 229.891,328.086C228.278,330.07 226.555,331.741 225.26,332.796ZM234.486,319.497C234.039,321.718 232.845,324.012 231.392,326.102C231.204,325.206 230.83,323.792 230.119,322.492C229.652,321.636 229.044,321.214 228.549,320.937C228.528,320.517 228.487,320.108 228.43,319.708C229.501,318.864 230.362,318.485 231.776,318.201C232.897,317.977 233.626,317.958 234.678,318.139C234.641,318.584 234.577,319.036 234.486,319.497ZM234.594,312.261C233.856,310.531 232.5,308.214 230.586,306.548L234.565,304.182C235.778,306.741 235.936,309.725 234.594,312.261ZM235.872,302.094C235.893,301.336 235.977,300.63 236.149,299.696C236.386,298.406 237.093,296.783 237.67,295.486C238.051,296.238 238.391,297.039 238.693,297.882C240.006,301.494 240.257,303.925 238.019,307.713C237.654,305.418 236.997,303.648 235.872,302.094Z" style="fill:rgb(165,30,55);fill-rule:nonzero;"/>
    </g>
</svg>
