<?xml version="1.0" encoding="UTF-8" standalone="no"?><!DOCTYPE svg PUBLIC "-//W3C//DTD SVG 1.1//EN" "http://www.w3.org/Graphics/SVG/1.1/DTD/svg11.dtd"><svg width="100%" height="100%" viewBox="0 0 1167 1167" version="1.1" xmlns="http://www.w3.org/2000/svg" xmlns:xlink="http://www.w3.org/1999/xlink" xml:space="preserve" xmlns:serif="http://www.serif.com/" style="fill-rule:evenodd;clip-rule:evenodd;stroke-linejoin:round;stroke-miterlimit:2;"><rect id="Artboard1" x="-0" y="0" width="1166.67" height="1166.67" style="fill:none;"/><path d="M961.372,818.438l-32.448,100.944c-7.208,20.603 -12.878,48.932 -12.878,48.932l-1.545,-0c0,-0 -7.208,-28.329 -14.417,-48.932l-36.571,-100.944l-58.715,0l60.26,159.147c12.878,33.992 16.996,48.409 16.996,60.77c-0,18.542 -9.782,30.391 -32.959,30.391l-21.12,0l0,46.865l35.026,-0c45.32,-0 61.288,-18.025 78.284,-67.468l78.801,-229.194l-58.714,0l-0,-0.511Zm-674.186,129.273c0,29.874 -16.996,50.471 -44.808,50.471c-25.233,0 -41.201,-14.417 -41.201,-40.684l-0,-139.06l-54.596,0l-0,149.359c-0,48.927 27.812,80.863 77.772,80.863c31.419,-0 48.927,-11.85 63.867,-32.448l1.545,0l-0,26.267l52.534,0l-0,-224.041l-54.596,0l-0,129.273l-0.517,-0Zm203.955,-135.453c-30.386,-0 -50.989,12.872 -66.44,36.565l-1.028,0l-0,-30.385l-53.562,0l-0,223.524l54.59,0l-0,-126.699c-0,-30.385 19.058,-51.505 45.325,-51.505c24.722,-0 43.263,14.939 43.263,41.206l0,137.515l54.596,0l0,-146.274c0.511,-48.927 -30.391,-83.947 -76.744,-83.947Zm262.669,164.293l-0,-118.457l35.026,0l-0,-39.145l-35.026,0l-0,-70.041l-54.59,0l-0,69.53l-30.903,0l0,39.139l30.903,0l-0,131.335c-0,42.235 31.93,53.567 60.77,53.567c23.694,0 29.874,-1.034 29.874,-1.034l0,-43.263l-13.906,0c-12.878,0.517 -22.148,-5.146 -22.148,-21.631Zm-156.568,-158.113l54.59,0l0,223.524l-54.59,0l0,-223.524Zm0,-69.53l54.59,0l0,44.808l-54.59,0l0,-44.808Z" style="fill:#110b09;fill-rule:nonzero;"/><path d="M808.298,111.287l-235.047,61.017l-35.018,59.953l-70.562,-0.532l-172.438,167.662l172.438,167.663l70.562,-0.533l35.018,59.953l235.047,61.55l63.136,-228.68l-35.55,-59.42l35.55,-59.426l-63.136,-229.207Zm-264.225,445.148l-129.994,-128.929l206.923,-0l103.461,174.029l-180.39,-45.1Zm230.266,16.982l-103.461,-174.03l103.461,-174.029l49.876,174.029l-49.876,174.03Zm-230.266,-331.61l179.864,-45.1l-103.462,174.029l-206.923,0l130.521,-128.929Z" style="fill:#110b09;fill-rule:nonzero;"/></svg>