<?xml version="1.0" encoding="UTF-8" standalone="no"?><!DOCTYPE svg PUBLIC "-//W3C//DTD SVG 1.1//EN" "http://www.w3.org/Graphics/SVG/1.1/DTD/svg11.dtd"><svg width="100%" height="100%" viewBox="0 0 4863 4863" version="1.1" xmlns="http://www.w3.org/2000/svg" xmlns:xlink="http://www.w3.org/1999/xlink" xml:space="preserve" xmlns:serif="http://www.serif.com/" style="fill-rule:evenodd;clip-rule:evenodd;stroke-linejoin:round;stroke-miterlimit:2;"><rect id="Artboard1" x="0" y="0" width="4861.12" height="4861.12" style="fill:none;"/><rect x="0" y="0" width="4862.5" height="4862.5" style="fill:#fff;"/><path d="M4005.72,3410.16l-135.2,420.6c-30.034,85.846 -53.659,203.884 -53.659,203.884l-6.437,-0c-0,-0 -30.034,-118.038 -60.071,-203.884l-152.379,-420.6l-244.646,0l251.083,663.113c53.659,141.633 70.817,201.704 70.817,253.208c-0,77.259 -40.758,126.629 -137.329,126.629l-88,0l-0,195.271l145.941,0c188.834,0 255.367,-75.104 326.184,-281.116l328.337,-954.975l-244.641,-0l-0,-2.13Zm-2809.11,538.638c0,124.475 -70.816,210.296 -186.7,210.296c-105.137,-0 -171.671,-60.071 -171.671,-169.517l0,-579.417l-227.483,0l0,622.33c0,203.862 115.883,336.929 324.05,336.929c130.913,-0 203.863,-49.375 266.113,-135.2l6.437,-0l0,109.446l218.892,-0l-0,-933.505l-227.484,0l0,538.638l-2.154,-0Zm849.813,-564.388c-126.609,0 -212.454,53.634 -276.834,152.355l-4.283,-0l0,-126.605l-223.175,0l0,931.35l227.458,0l0,-527.912c0,-126.604 79.409,-214.604 188.855,-214.604c103.008,-0 180.262,62.246 180.262,171.691l0,572.98l227.483,-0l0,-609.475c2.13,-203.863 -126.629,-349.78 -319.766,-349.78Zm1094.45,684.555l-0,-493.571l145.942,-0l-0,-163.104l-145.942,-0l-0,-291.838l-227.458,0l-0,289.708l-128.763,0l0,163.08l128.763,-0l-0,547.229c-0,175.979 133.041,223.196 253.208,223.196c98.725,-0 124.475,-4.309 124.475,-4.309l-0,-180.262l-57.942,-0c-53.658,2.154 -92.283,-21.442 -92.283,-90.129Zm-652.367,-658.805l227.459,0l-0,931.35l-227.459,0l0,-931.35Zm0,-289.708l227.459,0l-0,186.7l-227.459,0l0,-186.7Z" style="fill:#110b09;fill-rule:nonzero;"/><path d="M3367.91,463.696l-979.362,254.237l-145.909,249.805l-294.008,-2.217l-718.491,698.592l718.491,698.595l294.009,-2.221l145.908,249.805l979.362,256.458l263.067,-952.833l-148.125,-247.584l148.125,-247.608l-263.067,-955.029Zm-1100.94,1854.78l-541.642,-537.204l862.179,0l431.088,725.121l-751.625,-187.917Zm959.442,70.758l-431.088,-725.124l431.088,-725.121l207.816,725.121l-207.816,725.125Zm-959.442,-1381.71l749.433,-187.917l-431.091,725.121l-862.18,0l543.838,-537.204Z" style="fill:#110b09;fill-rule:nonzero;"/><g id="Layer1"></g></svg>