<?xml version="1.0" encoding="UTF-8" standalone="no"?>
<!DOCTYPE svg PUBLIC "-//W3C//DTD SVG 1.1//EN" "http://www.w3.org/Graphics/SVG/1.1/DTD/svg11.dtd">
<svg width="100%" height="100%" viewBox="0 0 444 444" version="1.1" xmlns="http://www.w3.org/2000/svg" xmlns:xlink="http://www.w3.org/1999/xlink" xml:space="preserve" xmlns:serif="http://www.serif.com/" style="fill-rule:evenodd;clip-rule:evenodd;stroke-linejoin:round;stroke-miterlimit:2;">
    <rect x="0" y="0" width="444" height="444" style="fill:white;"/>
    <g transform="matrix(10.3523,0,0,10.7664,-992.754,-4029.22)">
        <g>
            <g transform="matrix(12,0,0,12,102.921,413.915)">
                <path d="M0.042,-0L0.313,-0.417L0.042,-0.417L0.042,-0.5L0.466,-0.5L0.195,-0.083L0.466,-0.083L0.466,-0L0.042,-0Z" style="fill:rgb(0,175,255);fill-rule:nonzero;"/>
            </g>
            <g transform="matrix(12,0,0,12,108.648,413.915)">
                <path d="M0.475,-0.25C0.475,-0.298 0.458,-0.339 0.423,-0.373C0.389,-0.408 0.347,-0.425 0.3,-0.425C0.252,-0.425 0.211,-0.408 0.176,-0.373C0.142,-0.339 0.125,-0.298 0.125,-0.25C0.125,-0.202 0.142,-0.161 0.176,-0.126C0.211,-0.092 0.252,-0.075 0.3,-0.075C0.347,-0.075 0.388,-0.092 0.423,-0.126C0.458,-0.161 0.475,-0.202 0.475,-0.25ZM0.475,-0L0.475,-0.075C0.426,-0.021 0.364,0.007 0.292,0.007C0.222,0.007 0.163,-0.018 0.114,-0.069C0.066,-0.12 0.042,-0.181 0.042,-0.25C0.042,-0.32 0.066,-0.38 0.114,-0.432C0.163,-0.483 0.222,-0.508 0.292,-0.508C0.364,-0.508 0.426,-0.48 0.475,-0.425L0.475,-0.5L0.558,-0.5L0.558,-0L0.475,-0Z" style="fill:rgb(0,175,255);fill-rule:nonzero;"/>
            </g>
            <g transform="matrix(12,0,0,12,116.347,413.915)">
                <path d="M0.433,-0L0.433,-0.292C0.433,-0.328 0.42,-0.36 0.394,-0.386C0.368,-0.412 0.337,-0.425 0.3,-0.425C0.264,-0.425 0.233,-0.412 0.206,-0.386C0.18,-0.36 0.167,-0.328 0.167,-0.292L0.167,-0L0.083,-0L0.083,-0.667L0.167,-0.667L0.167,-0.439C0.207,-0.485 0.257,-0.508 0.317,-0.508C0.374,-0.508 0.422,-0.486 0.461,-0.442C0.498,-0.399 0.516,-0.349 0.516,-0.292L0.516,-0L0.433,-0Z" style="fill:rgb(0,175,255);fill-rule:nonzero;"/>
            </g>
            <g transform="matrix(12,0,0,12,123.548,413.915)">
                <rect x="0.083" y="-0.667" width="0.083" height="0.667" style="fill:rgb(0,175,255);fill-rule:nonzero;"/>
            </g>
            <g transform="matrix(12,0,0,12,126.548,413.915)">
                <path d="M0.042,-0L0.313,-0.417L0.042,-0.417L0.042,-0.5L0.466,-0.5L0.195,-0.083L0.466,-0.083L0.466,-0L0.042,-0Z" style="fill:rgb(0,175,255);fill-rule:nonzero;"/>
            </g>
        </g>
    </g>
    <g transform="matrix(1.24678,0,0,1.24678,-110.082,-122.392)">
        <path d="M265.5,111C328.142,111 379,161.858 379,224.5C379,287.142 328.142,338 265.5,338C202.858,338 152,287.142 152,224.5C152,161.858 202.858,111 265.5,111ZM265.5,120.221C323.053,120.221 369.779,166.947 369.779,224.5C369.779,282.053 323.053,328.779 265.5,328.779C207.947,328.779 161.221,282.053 161.221,224.5C161.221,166.947 207.947,120.221 265.5,120.221Z" style="fill:rgb(0,175,255);"/>
    </g>
</svg>
