<svg width="50" height="50" viewBox="0 0 50 50" fill="none" xmlns="http://www.w3.org/2000/svg">
<rect width="50" height="50" fill="white"/>
<path d="M47.0714 7.10714H42.8929V2.92857C42.8929 2.41583 42.477 2 41.9643 2H41.0357C40.523 2 40.1071 2.41583 40.1071 2.92857V7.10714H35.9286C35.4158 7.10714 35 7.52297 35 8.03571V8.96429C35 9.47703 35.4158 9.89286 35.9286 9.89286H40.1071V14.0714C40.1071 14.5842 40.523 15 41.0357 15H41.9643C42.477 15 42.8929 14.5842 42.8929 14.0714V9.89286H47.0714C47.5842 9.89286 48 9.47703 48 8.96429V8.03571C48 7.52297 47.5842 7.10714 47.0714 7.10714Z" fill="#3D6B6B"/>
<path d="M22.975 13.2459C18.1215 14.1931 14.2103 18.0945 13.2533 22.9334C11.4467 32.0642 19.684 38.8709 25.89 37.9089C27.9017 37.5964 28.8881 35.2429 27.9652 33.4314C26.8373 31.2146 28.4486 28.6267 30.9389 28.6267H34.8305C36.5785 28.6267 37.9945 27.1814 37.9994 25.4382C37.975 17.7429 30.973 11.6882 22.975 13.2459ZM17.6869 28.6267C16.8226 28.6267 16.1244 27.9285 16.1244 27.0642C16.1244 26.2 16.8226 25.5017 17.6869 25.5017C18.5512 25.5017 19.2494 26.2 19.2494 27.0642C19.2494 27.9285 18.5512 28.6267 17.6869 28.6267ZM19.2494 22.3767C18.3851 22.3767 17.6869 21.6785 17.6869 20.8142C17.6869 19.95 18.3851 19.2517 19.2494 19.2517C20.1137 19.2517 20.8119 19.95 20.8119 20.8142C20.8119 21.6785 20.1137 22.3767 19.2494 22.3767ZM25.4994 19.2517C24.6351 19.2517 23.9369 18.5535 23.9369 17.6892C23.9369 16.825 24.6351 16.1267 25.4994 16.1267C26.3637 16.1267 27.0619 16.825 27.0619 17.6892C27.0619 18.5535 26.3637 19.2517 25.4994 19.2517ZM31.7494 22.3767C30.8851 22.3767 30.1869 21.6785 30.1869 20.8142C30.1869 19.95 30.8851 19.2517 31.7494 19.2517C32.6137 19.2517 33.3119 19.95 33.3119 20.8142C33.3119 21.6785 32.6137 22.3767 31.7494 22.3767Z" fill="#3D6B6B"/>
</svg>
