<svg width="50" height="50" viewBox="0 0 50 50" fill="none" xmlns="http://www.w3.org/2000/svg">
<rect width="50" height="50" fill="white"/>
<path d="M22.975 13.2459C18.1215 14.1931 14.2103 18.0945 13.2533 22.9334C11.4467 32.0642 19.684 38.8709 25.89 37.9089C27.9017 37.5964 28.8881 35.2429 27.9652 33.4314C26.8373 31.2146 28.4486 28.6267 30.9389 28.6267H34.8305C36.5785 28.6267 37.9945 27.1814 37.9994 25.4382C37.975 17.7429 30.973 11.6882 22.975 13.2459ZM17.6869 28.6267C16.8226 28.6267 16.1244 27.9285 16.1244 27.0642C16.1244 26.2 16.8226 25.5017 17.6869 25.5017C18.5512 25.5017 19.2494 26.2 19.2494 27.0642C19.2494 27.9285 18.5512 28.6267 17.6869 28.6267ZM19.2494 22.3767C18.3851 22.3767 17.6869 21.6785 17.6869 20.8142C17.6869 19.95 18.3851 19.2517 19.2494 19.2517C20.1137 19.2517 20.8119 19.95 20.8119 20.8142C20.8119 21.6785 20.1137 22.3767 19.2494 22.3767ZM25.4994 19.2517C24.6351 19.2517 23.9369 18.5535 23.9369 17.6892C23.9369 16.825 24.6351 16.1267 25.4994 16.1267C26.3637 16.1267 27.0619 16.825 27.0619 17.6892C27.0619 18.5535 26.3637 19.2517 25.4994 19.2517ZM31.7494 22.3767C30.8851 22.3767 30.1869 21.6785 30.1869 20.8142C30.1869 19.95 30.8851 19.2517 31.7494 19.2517C32.6137 19.2517 33.3119 19.95 33.3119 20.8142C33.3119 21.6785 32.6137 22.3767 31.7494 22.3767Z" fill="#3D6B6B"/>
<path d="M47.6551 10.4828L43.7159 8.5L47.6551 6.51717C47.9818 6.35271 48.0972 5.97422 47.9108 5.67834L47.3712 4.82163C47.1848 4.52576 46.7696 4.42811 46.4508 4.60523L42.608 6.74089L42.7042 2.62243C42.7122 2.28085 42.4123 2 42.0396 2H40.9604C40.5877 2 40.2878 2.28085 40.2958 2.62243L40.392 6.74089L36.5492 4.60526C36.2304 4.42813 35.8152 4.52578 35.6288 4.82166L35.0892 5.67837C34.9028 5.97424 35.0182 6.35274 35.345 6.5172L39.2841 8.5L35.3449 10.4828C35.0182 10.6473 34.9028 11.0258 35.0892 11.3217L35.6288 12.1784C35.8152 12.4742 36.2304 12.5719 36.5492 12.3948L40.392 10.2591L40.2958 14.3776C40.2878 14.7192 40.5877 15 40.9604 15H42.0396C42.4123 15 42.7122 14.7192 42.7043 14.3776L42.608 10.2591L46.4508 12.3947C46.7696 12.5719 47.1848 12.4742 47.3712 12.1783L47.9108 11.3216C48.0972 11.0258 47.9818 10.6473 47.6551 10.4828Z" fill="#3D6B6B"/>
</svg>
