<svg width="50" height="50" viewBox="0 0 50 50" fill="none" xmlns="http://www.w3.org/2000/svg">
<rect width="50" height="50" fill="white"/>
<path fill-rule="evenodd" clip-rule="evenodd" d="M18.6797 14.991L11.5399 9L9.26996 11.7052L15.9901 17.3441L18.4943 19.4454L20.7285 21.3201L29.7075 28.8543L41.6077 38.8398L43.8776 36.1346L34.9283 28.6252C36.631 28.5725 37.9946 27.1488 37.9994 25.4382C37.975 17.7429 30.9731 11.6882 22.975 13.2459C21.4254 13.5483 19.9718 14.1519 18.6797 14.991ZM13.2533 22.9334C13.4309 22.0356 13.7102 21.1701 14.0782 20.3497L27.6066 31.7014C27.5667 32.2692 27.6758 32.8625 27.9653 33.4314C28.8881 35.2429 27.9018 37.5964 25.8901 37.9089C19.684 38.8708 11.4467 32.0642 13.2533 22.9334ZM17.6869 28.6267C16.8227 28.6267 16.1244 27.9285 16.1244 27.0642C16.1244 26.2 16.8227 25.5017 17.6869 25.5017C18.5512 25.5017 19.2494 26.2 19.2494 27.0642C19.2494 27.9285 18.5512 28.6267 17.6869 28.6267ZM25.4994 19.2517C24.6352 19.2517 23.9369 18.5535 23.9369 17.6892C23.9369 16.825 24.6352 16.1267 25.4994 16.1267C26.3637 16.1267 27.0619 16.825 27.0619 17.6892C27.0619 18.5535 26.3637 19.2517 25.4994 19.2517ZM31.7494 22.3767C30.8852 22.3767 30.1869 21.6785 30.1869 20.8142C30.1869 19.95 30.8852 19.2517 31.7494 19.2517C32.6137 19.2517 33.3119 19.95 33.3119 20.8142C33.3119 21.6785 32.6137 22.3767 31.7494 22.3767Z" fill="#3D6B6B"/>
</svg>
