<svg width="50" height="50" viewBox="0 0 50 50" fill="none" xmlns="http://www.w3.org/2000/svg">
<rect width="50" height="50" fill="white"/>
<path fill-rule="evenodd" clip-rule="evenodd" d="M28.0779 13H27.8279V13.625C27.8279 13.8313 27.6592 14 27.4529 14H26.2029C25.9967 14 25.8279 13.8313 25.8279 13.625V13H15.8279V13.625C15.8279 13.8313 15.6592 14 15.4529 14H14.2029C13.9967 14 13.8279 13.8313 13.8279 13.625V13H13.5779C13.1623 13 12.8279 13.3344 12.8279 13.75V24.25C12.8279 24.6656 13.1623 25 13.5779 25H13.8279V24.375C13.8279 24.1687 13.9967 24 14.2029 24H15.4529C15.6592 24 15.8279 24.1687 15.8279 24.375V25H22.156C22.0908 25.2612 22.0456 25.5283 22.0212 25.7989C21.9767 26.2925 22.0024 26.7885 22.096 27.2708H9.85C9.38064 27.2708 9 27.644 9 28.1041V36.4375C9 36.8976 9.38064 37.2708 9.85 37.2708H14.1058C14.775 37.2708 15.3816 36.8862 15.656 36.288L16.3929 34.6828C16.6025 34.226 17.0312 33.9375 17.5 33.9375C17.9688 33.9375 18.3975 34.226 18.6071 34.6828L19.344 36.288C19.6184 36.8862 20.2253 37.2708 20.8942 37.2708H25.15C25.6194 37.2708 26 36.8976 26 36.4375V31.2081C26.7245 31.33 27.4666 31.2737 28.1681 31.0426C28.9154 30.7964 29.5934 30.3595 30.1416 29.7708H32.8584C33.4065 30.3595 34.0844 30.7963 34.8317 31.0425C35.579 31.2888 36.3725 31.3366 37.1416 31.182C37.9108 31.0273 38.6316 30.6748 39.2401 30.1559C39.8485 29.6371 40.3257 28.9679 40.629 28.208C40.9324 27.448 41.0526 26.6209 40.9789 25.8003C40.9052 24.9796 40.64 24.1909 40.2067 23.5043C39.7734 22.8176 39.1856 22.2544 38.4956 21.8647C37.8056 21.4751 37.0348 21.271 36.2517 21.2708H28.8279V13.75C28.8279 13.3344 28.4935 13 28.0779 13ZM22.796 23.5C23.1915 22.8745 23.7154 22.3517 24.3279 21.9696V20.125C24.3279 19.9188 24.1592 19.75 23.9529 19.75H17.7029C17.4967 19.75 17.3279 19.9188 17.3279 20.125V23.125C17.3279 23.3313 17.4967 23.5 17.7029 23.5H22.796ZM26.7503 21.2708H27.8131C27.7676 21.1148 27.623 21 27.4529 21H26.2029C25.9997 21 25.8329 21.1638 25.828 21.3658C26.1307 21.3028 26.4396 21.2707 26.7503 21.2708ZM15.8279 22.625C15.8279 22.8313 15.6592 23 15.4529 23H14.2029C13.9967 23 13.8279 22.8313 13.8279 22.625V21.375C13.8279 21.1687 13.9967 21 14.2029 21H15.4529C15.6592 21 15.8279 21.1687 15.8279 21.375V22.625ZM15.8279 19.625C15.8279 19.8313 15.6592 20 15.4529 20H14.2029C13.9967 20 13.8279 19.8313 13.8279 19.625V18.375C13.8279 18.1688 13.9967 18 14.2029 18H15.4529C15.6592 18 15.8279 18.1688 15.8279 18.375V19.625ZM15.8279 16.625C15.8279 16.8313 15.6592 17 15.4529 17H14.2029C13.9967 17 13.8279 16.8313 13.8279 16.625V15.375C13.8279 15.1688 13.9967 15 14.2029 15H15.4529C15.6592 15 15.8279 15.1688 15.8279 15.375V16.625ZM24.3279 17.875C24.3279 18.0813 24.1592 18.25 23.9529 18.25H17.7029C17.4967 18.25 17.3279 18.0813 17.3279 17.875V14.875C17.3279 14.6688 17.4967 14.5 17.7029 14.5H23.9529C24.1592 14.5 24.3279 14.6688 24.3279 14.875V17.875ZM27.8279 19.625C27.8279 19.8313 27.6592 20 27.4529 20H26.2029C25.9967 20 25.8279 19.8313 25.8279 19.625V18.375C25.8279 18.1688 25.9967 18 26.2029 18H27.4529C27.6592 18 27.8279 18.1688 27.8279 18.375V19.625ZM27.8279 16.625C27.8279 16.8313 27.6592 17 27.4529 17H26.2029C25.9967 17 25.8279 16.8313 25.8279 16.625V15.375C25.8279 15.1688 25.9967 15 26.2029 15H27.4529C27.6592 15 27.8279 15.1688 27.8279 15.375V16.625ZM29.3627 26.6458C29.3627 26.7452 29.3251 26.8406 29.2583 26.911C29.1915 26.9813 29.1009 27.0208 29.0064 27.0208H27.4628V28.6458C27.4628 28.7452 27.4253 28.8406 27.3585 28.911C27.2916 28.9813 27.201 29.0208 27.1066 29.0208H26.3941C26.2996 29.0208 26.209 28.9813 26.1422 28.911C26.0754 28.8406 26.0379 28.7452 26.0379 28.6458V27.0208H24.4943C24.3998 27.0208 24.3092 26.9813 24.2424 26.911C24.1756 26.8406 24.138 26.7452 24.138 26.6458V25.8958C24.138 25.7963 24.1756 25.7009 24.2424 25.6306C24.3092 25.5603 24.3998 25.5208 24.4943 25.5208H26.0379V23.8958C26.0379 23.7963 26.0754 23.7009 26.1422 23.6306C26.209 23.5603 26.2996 23.5208 26.3941 23.5208H27.1066C27.201 23.5208 27.2916 23.5603 27.3585 23.6306C27.4253 23.7009 27.4628 23.7963 27.4628 23.8958V25.5208H29.0064C29.1009 25.5208 29.1915 25.5603 29.2583 25.6306C29.3251 25.7009 29.3627 25.7963 29.3627 25.8958V26.6458ZM35.7747 29.0208C35.5398 29.0208 35.3103 28.9475 35.115 28.8101C34.9197 28.6728 34.7675 28.4775 34.6777 28.2491C34.5878 28.0207 34.5643 27.7694 34.6101 27.5269C34.6559 27.2844 34.769 27.0617 34.9351 26.8869C35.1011 26.7121 35.3127 26.593 35.543 26.5448C35.7734 26.4966 36.0121 26.5213 36.2291 26.6159C36.4461 26.7105 36.6315 26.8708 36.762 27.0763C36.8925 27.2819 36.9621 27.5236 36.9621 27.7708C36.9621 28.1023 36.837 28.4202 36.6143 28.6547C36.3916 28.8891 36.0896 29.0208 35.7747 29.0208ZM37.6746 26.0208C37.4397 26.0208 37.2101 25.9475 37.0149 25.8101C36.8196 25.6728 36.6674 25.4775 36.5775 25.2491C36.4877 25.0207 36.4641 24.7694 36.51 24.5269C36.5558 24.2844 36.6689 24.0617 36.8349 23.8869C37.001 23.7121 37.2126 23.593 37.4429 23.5448C37.6732 23.4966 37.912 23.5213 38.129 23.6159C38.3459 23.7105 38.5314 23.8708 38.6619 24.0763C38.7923 24.2819 38.862 24.5236 38.862 24.7708C38.862 25.1023 38.7369 25.4202 38.5142 25.6547C38.2915 25.8891 37.9895 26.0208 37.6746 26.0208ZM11.55 31.8541C11.55 32.7747 12.311 33.5208 13.25 33.5208C14.189 33.5208 14.95 32.7747 14.95 31.8541C14.95 30.9335 14.189 30.1875 13.25 30.1875C12.311 30.1875 11.55 30.9335 11.55 31.8541ZM20.05 31.8541C20.05 32.7747 20.811 33.5208 21.75 33.5208C22.689 33.5208 23.45 32.7747 23.45 31.8541C23.45 30.9335 22.689 30.1875 21.75 30.1875C20.811 30.1875 20.05 30.9335 20.05 31.8541Z" fill="#045FAE"/>
</svg>
