<svg width="50" height="50" viewBox="0 0 50 50" fill="none" xmlns="http://www.w3.org/2000/svg">
<rect width="50" height="50" fill="white"/>
<path fill-rule="evenodd" clip-rule="evenodd" d="M16.3069 13L11.5399 9L9.26993 11.7052L12.8279 14.6907L13.8279 15.5298L15.561 16.984L18.8573 19.75L22.9889 23.2168L25.7347 25.5208L27.5223 27.0208L30.7997 29.7708L41.6076 38.8398L43.8776 36.1346L37.7685 31.0085C38.3016 30.8192 38.8002 30.531 39.2401 30.1559C39.8485 29.6371 40.3257 28.9679 40.629 28.208C40.9324 27.448 41.0526 26.6209 40.9789 25.8003C40.9052 24.9796 40.64 24.1909 40.2067 23.5043C39.7734 22.8176 39.1856 22.2544 38.4956 21.8647C37.8056 21.4751 37.0348 21.271 36.2517 21.2708H28.8279V13.75C28.8279 13.3344 28.4935 13 28.0779 13H27.8279V13.625C27.8279 13.8313 27.6592 14 27.4529 14H26.2029C25.9967 14 25.8279 13.8313 25.8279 13.625V13H16.3069ZM22.5636 18.25L18.0945 14.5H23.9529C24.1592 14.5 24.3279 14.6688 24.3279 14.875V17.875C24.3279 18.0813 24.1592 18.25 23.9529 18.25H22.5636ZM26.2032 21.304L25.9541 21.095C26.0204 21.036 26.1077 21 26.2029 21H27.4529C27.623 21 27.7676 21.1148 27.8131 21.2708H26.7503C26.567 21.2708 26.3843 21.2819 26.2032 21.304ZM35.2403 28.8871L34.8602 28.5681C34.785 28.4725 34.7233 28.3651 34.6777 28.2491C34.5878 28.0207 34.5643 27.7694 34.6101 27.5269C34.6559 27.2844 34.769 27.0617 34.9351 26.8869C35.1011 26.7121 35.3127 26.593 35.543 26.5448C35.7734 26.4966 36.0121 26.5213 36.2291 26.6159C36.4461 26.7105 36.6315 26.8708 36.762 27.0763C36.8925 27.2819 36.9621 27.5236 36.9621 27.7708C36.9621 28.1023 36.837 28.4202 36.6143 28.6547C36.3916 28.8891 36.0896 29.0208 35.7747 29.0208C35.5884 29.0208 35.4055 28.9747 35.2403 28.8871ZM12.8279 24.25V19.3006L14.8532 21H14.2029C13.9967 21 13.8279 21.1688 13.8279 21.375V22.625C13.8279 22.8312 13.9967 23 14.2029 23H15.4529C15.6592 23 15.8279 22.8312 15.8279 22.625V21.8179L17.3279 23.0765V23.125C17.3279 23.3312 17.4967 23.5 17.7029 23.5H17.8326L19.6202 25H15.8279V24.375C15.8279 24.1688 15.6592 24 15.4529 24H14.2029C13.9967 24 13.8279 24.1688 13.8279 24.375V25H13.5779C13.1623 25 12.8279 24.6656 12.8279 24.25ZM22.0573 27.045L27.0791 31.2587C26.7198 31.285 26.3577 31.2683 26 31.2081V36.4375C26 36.8976 25.6194 37.2708 25.15 37.2708H20.8942C20.2253 37.2708 19.6184 36.8862 19.344 36.288L18.6071 34.6828C18.3975 34.226 17.9688 33.9375 17.5 33.9375C17.0312 33.9375 16.6025 34.226 16.3929 34.6828L15.656 36.288C15.3816 36.8862 14.775 37.2708 14.1058 37.2708H9.85C9.38064 37.2708 9 36.8976 9 36.4375V28.1041C9 27.644 9.38064 27.2708 9.85 27.2708H22.096C22.0814 27.1958 22.0685 27.1205 22.0573 27.045ZM27.8279 19.625C27.8279 19.8313 27.6592 20 27.4529 20H26.2029C25.9967 20 25.8279 19.8313 25.8279 19.625V18.375C25.8279 18.1688 25.9967 18 26.2029 18H27.4529C27.6592 18 27.8279 18.1688 27.8279 18.375V19.625ZM27.8279 16.625C27.8279 16.8312 27.6592 17 27.4529 17H26.2029C25.9967 17 25.8279 16.8312 25.8279 16.625V15.375C25.8279 15.1688 25.9967 15 26.2029 15H27.4529C27.6592 15 27.8279 15.1688 27.8279 15.375V16.625ZM37.6746 26.0208C37.4397 26.0208 37.2101 25.9475 37.0149 25.8101C36.8196 25.6728 36.6674 25.4775 36.5775 25.2491C36.4877 25.0207 36.4641 24.7694 36.51 24.5269C36.5558 24.2844 36.6689 24.0617 36.8349 23.8869C37.001 23.7121 37.2126 23.593 37.4429 23.5448C37.6732 23.4966 37.912 23.5213 38.129 23.6159C38.3459 23.7105 38.5314 23.8708 38.6619 24.0763C38.7923 24.2819 38.862 24.5236 38.862 24.7708C38.862 25.1023 38.7369 25.4202 38.5142 25.6547C38.2915 25.8891 37.9895 26.0208 37.6746 26.0208ZM11.55 31.8541C11.55 32.7747 12.311 33.5208 13.25 33.5208C14.189 33.5208 14.95 32.7747 14.95 31.8541C14.95 30.9335 14.189 30.1875 13.25 30.1875C12.311 30.1875 11.55 30.9335 11.55 31.8541ZM20.05 31.8541C20.05 32.7747 20.811 33.5208 21.75 33.5208C22.689 33.5208 23.45 32.7747 23.45 31.8541C23.45 30.9335 22.689 30.1875 21.75 30.1875C20.811 30.1875 20.05 30.9335 20.05 31.8541Z" fill="#045FAE"/>
</svg>
