<svg width="50" height="50" viewBox="0 0 50 50" fill="none" xmlns="http://www.w3.org/2000/svg">
<rect width="50" height="50" fill="white"/>
<path fill-rule="evenodd" clip-rule="evenodd" d="M41 31.1579H40.9728C40.4856 22.7042 33.5206 16 25 16C16.4794 16 9.51439 22.7042 9.02722 31.1579H9.00001V32.0834L9 32.1053L9.00001 32.1271V34H41V31.1579ZM37.1646 31.1579C37.1951 30.9019 37.297 30.6296 37.403 30.3463C37.5429 29.9724 37.69 29.5793 37.69 29.179C37.69 28.3369 37.0132 26.8211 35.998 27.1579C35.1859 27.4274 34.1368 26.2597 33.7984 25.4737C33.46 24.9684 33.257 24.0926 33.1216 23.2842C32.9524 22.2737 31.4296 21.4316 30.2452 20.9263C29.0608 20.4211 26.8612 20.5895 25.3384 21.0948C23.8156 21.6 23.3345 21.5301 21.616 20.9263C19.847 20.3048 18.7948 21.0542 17.6465 21.8719C17.6162 21.8935 17.5857 21.9152 17.5552 21.9369C16.4304 22.7366 16.4939 23.8333 16.534 24.5252C16.5361 24.5618 16.5382 24.5973 16.54 24.6316C16.5854 25.4892 16.0324 26.1474 14.848 26.1474C13.6636 26.1474 13.3252 26.4842 13.156 27.3263C13.0848 27.6809 13.1635 28.0056 13.2533 28.3759C13.3768 28.885 13.5211 29.4803 13.3252 30.3579C13.2455 30.7148 13.1346 30.9734 13.0105 31.1579H37.1646Z" fill="#3D6B6B"/>
<path d="M47.6551 10.4828L43.7159 8.5L47.6551 6.51717C47.9818 6.35271 48.0972 5.97422 47.9108 5.67834L47.3712 4.82163C47.1848 4.52576 46.7696 4.42811 46.4508 4.60523L42.608 6.74089L42.7042 2.62243C42.7122 2.28085 42.4123 2 42.0396 2H40.9604C40.5877 2 40.2878 2.28085 40.2958 2.62243L40.392 6.74089L36.5492 4.60526C36.2304 4.42813 35.8152 4.52578 35.6288 4.82166L35.0892 5.67837C34.9028 5.97424 35.0182 6.35274 35.345 6.5172L39.2841 8.5L35.3449 10.4828C35.0182 10.6473 34.9028 11.0258 35.0892 11.3217L35.6288 12.1784C35.8152 12.4742 36.2304 12.5719 36.5492 12.3948L40.392 10.2591L40.2958 14.3776C40.2878 14.7192 40.5877 15 40.9604 15H42.0396C42.4123 15 42.7122 14.7192 42.7043 14.3776L42.608 10.2591L46.4508 12.3947C46.7696 12.5719 47.1848 12.4742 47.3712 12.1783L47.9108 11.3216C48.0972 11.0258 47.9818 10.6473 47.6551 10.4828Z" fill="#3D6B6B"/>
</svg>
