<svg width="50" height="50" viewBox="0 0 50 50" fill="none" xmlns="http://www.w3.org/2000/svg">
<rect width="50" height="50" fill="white"/>
<path fill-rule="evenodd" clip-rule="evenodd" d="M19.7482 15.8876L11.5399 9L9.26993 11.7052L16.2883 17.5943L19.1171 19.968L31.261 30.1579L34.6481 33L41.6076 38.8398L43.8776 36.1346L40.1419 33H41V30.1579H40.9728C40.4856 21.7042 33.5206 15 25 15C23.1604 15 21.3933 15.3125 19.7482 15.8876ZM24.9192 20.2266L36.7549 30.1579H37.1646C37.1951 29.9019 37.297 29.6296 37.403 29.3463C37.5429 28.9724 37.69 28.5793 37.69 28.179C37.69 27.3369 37.0132 25.8211 35.998 26.1579C35.1859 26.4274 34.1368 25.2597 33.7984 24.4737C33.46 23.9684 33.257 23.0926 33.1216 22.2842C32.9524 21.2737 31.4296 20.4316 30.2452 19.9263C29.0608 19.4211 26.8612 19.5895 25.3384 20.0948C25.1894 20.1442 25.0504 20.1881 24.9192 20.2266ZM9.02722 30.1579C9.25699 26.1708 10.9277 22.5728 13.523 19.8839L16.57 22.4405C16.4943 22.8405 16.5164 23.2218 16.534 23.5252C16.5361 23.5618 16.5382 23.5973 16.54 23.6316C16.5854 24.4892 16.0324 25.1474 14.848 25.1474C13.6636 25.1474 13.3252 25.4842 13.156 26.3263C13.0848 26.6809 13.1635 27.0056 13.2533 27.3759C13.3768 27.885 13.5211 28.4803 13.3252 29.3579C13.2455 29.7148 13.1346 29.9734 13.0105 30.1579H25.7671L29.1542 33H9.00001V31.1271L9 31.1053L9.00001 31.0834V30.1579H9.02722Z" fill="#3D6B6B"/>
</svg>
