<svg width="50" height="50" viewBox="0 0 50 50" fill="none" xmlns="http://www.w3.org/2000/svg">
<rect width="50" height="50" fill="white"/>
<path d="M25.5261 18C8.23707 18 11.5586 33 19.3363 33C20.8949 33 22.3625 32.1918 23.298 30.818L24.3031 29.3418C24.9148 28.4438 26.1378 28.4438 26.7496 29.3418L27.7546 30.818C28.6898 32.1918 30.1574 33 31.716 33C39.1324 33 43.0687 18 25.5261 18ZM20.1875 27.5453C18.5836 27.5453 17.5406 26.543 17.0593 25.9418C16.855 25.6867 16.855 25.3133 17.0593 25.0578C17.5406 24.4562 18.5832 23.4543 20.1875 23.4543C21.7918 23.4543 22.8343 24.4566 23.3156 25.0578C23.5199 25.3129 23.5199 25.6863 23.3156 25.9418C22.8343 26.5434 21.7914 27.5453 20.1875 27.5453ZM30.8125 27.5453C29.2086 27.5453 28.1656 26.543 27.6843 25.9418C27.48 25.6867 27.48 25.3133 27.6843 25.0578C28.1656 24.4562 29.2082 23.4543 30.8125 23.4543C32.4168 23.4543 33.4593 24.4566 33.9406 25.0578C34.1449 25.3129 34.1449 25.6863 33.9406 25.9418C33.4593 26.5434 32.4164 27.5453 30.8125 27.5453Z" fill="#C52A3A"/>
</svg>
