<svg width="50" height="50" viewBox="0 0 50 50" fill="none" xmlns="http://www.w3.org/2000/svg">
<rect width="50" height="50" fill="white"/>
<path fill-rule="evenodd" clip-rule="evenodd" d="M22.4734 18.1743L11.5399 9L9.26993 11.7052L18.2337 19.2267L34.0349 32.4854L41.6076 38.8398L43.8776 36.1346L36.7286 30.1358C39.654 25.7823 38.1619 18 25.5261 18C24.4266 18 23.4104 18.0607 22.4734 18.1743ZM32.8865 26.912L29.2043 23.8222C29.6565 23.6039 30.1925 23.4543 30.8125 23.4543C32.4168 23.4543 33.4593 24.4566 33.9406 25.0578C34.1449 25.3129 34.1449 25.6863 33.9406 25.9418C33.7139 26.2252 33.3625 26.5975 32.8865 26.912ZM19.3363 33C13.8836 33 10.6211 25.6275 15.1152 21.2198L18.3559 23.9391C17.7552 24.2785 17.323 24.7282 17.0593 25.0578C16.855 25.3133 16.855 25.6867 17.0593 25.9418C17.5406 26.543 18.5836 27.5453 20.1875 27.5453C20.9292 27.5453 21.551 27.331 22.0527 27.0411L24.5046 29.0985C24.4321 29.1705 24.3645 29.2516 24.3031 29.3418L23.298 30.818C22.3625 32.1918 20.8949 33 19.3363 33Z" fill="#C52A3A"/>
</svg>
