<svg width="50" height="50" viewBox="0 0 50 50" fill="none" xmlns="http://www.w3.org/2000/svg">
<rect width="50" height="50" fill="white"/>
<path d="M25.5261 18C8.23707 18 11.5586 33 19.3363 33C20.8949 33 22.3625 32.1918 23.298 30.818L24.3031 29.3418C24.9148 28.4438 26.1378 28.4438 26.7496 29.3418L27.7546 30.818C28.6898 32.1918 30.1574 33 31.716 33C39.1324 33 43.0687 18 25.5261 18ZM20.1875 27.5453C18.5836 27.5453 17.5406 26.543 17.0593 25.9418C16.855 25.6867 16.855 25.3133 17.0593 25.0578C17.5406 24.4562 18.5832 23.4543 20.1875 23.4543C21.7918 23.4543 22.8343 24.4566 23.3156 25.0578C23.5199 25.3129 23.5199 25.6863 23.3156 25.9418C22.8343 26.5434 21.7914 27.5453 20.1875 27.5453ZM30.8125 27.5453C29.2086 27.5453 28.1656 26.543 27.6843 25.9418C27.48 25.6867 27.48 25.3133 27.6843 25.0578C28.1656 24.4562 29.2082 23.4543 30.8125 23.4543C32.4168 23.4543 33.4593 24.4566 33.9406 25.0578C34.1449 25.3129 34.1449 25.6863 33.9406 25.9418C33.4593 26.5434 32.4164 27.5453 30.8125 27.5453Z" fill="#C52A3A"/>
<path d="M47.6551 10.4828L43.7159 8.5L47.6551 6.51717C47.9818 6.35271 48.0972 5.97422 47.9108 5.67834L47.3712 4.82163C47.1848 4.52576 46.7696 4.42811 46.4508 4.60523L42.608 6.74089L42.7042 2.62243C42.7122 2.28085 42.4123 2 42.0396 2H40.9604C40.5877 2 40.2878 2.28085 40.2958 2.62243L40.392 6.74089L36.5492 4.60526C36.2304 4.42813 35.8152 4.52578 35.6288 4.82166L35.0892 5.67837C34.9028 5.97424 35.0182 6.35274 35.345 6.5172L39.2841 8.5L35.3449 10.4828C35.0182 10.6473 34.9028 11.0258 35.0892 11.3217L35.6288 12.1784C35.8152 12.4742 36.2304 12.5719 36.5492 12.3948L40.392 10.2591L40.2958 14.3776C40.2878 14.7192 40.5877 15 40.9604 15H42.0396C42.4123 15 42.7122 14.7192 42.7043 14.3776L42.608 10.2591L46.4508 12.3947C46.7696 12.5719 47.1848 12.4742 47.3712 12.1783L47.9108 11.3216C48.0972 11.0258 47.9818 10.6473 47.6551 10.4828Z" fill="#C52A3A"/>
</svg>
