<svg width="50" height="50" viewBox="0 0 50 50" fill="none" xmlns="http://www.w3.org/2000/svg">
<rect width="50" height="50" fill="white"/>
<path fill-rule="evenodd" clip-rule="evenodd" d="M21.7155 17.5384L11.5399 9L9.26993 11.7052L18.1557 19.1612L20.7169 21.3103L24.084 24.1357L28.6902 28.0008L30.2934 29.346L32.8571 31.4972L41.6076 38.8398L43.8776 36.1346L35.601 29.1897C36.4847 28.232 37.2433 27.1484 37.8489 25.9666C37.9482 25.7702 38 25.5532 38 25.3331C38 25.113 37.9482 24.8961 37.8489 24.6997C35.4952 20.1072 30.8355 17 25.5 17C24.1898 17 22.9202 17.1875 21.7155 17.5384ZM23.8281 19.3111L26.0876 21.207C26.7475 21.2996 27.3786 21.5501 27.9256 21.9407C28.6333 22.446 29.1647 23.1606 29.445 23.9838C29.4513 24.0024 29.4576 24.0211 29.4636 24.0398L31.7213 25.9342C31.7405 25.7349 31.7501 25.5343 31.75 25.3333C31.75 24.0972 31.3834 22.8888 30.6967 21.861C30.0099 20.8332 29.0338 20.0321 27.8917 19.5591C26.7497 19.086 25.493 18.9623 24.2807 19.2034C24.1282 19.2338 23.9772 19.2697 23.8281 19.3111ZM13.151 24.7001C13.7589 23.5139 14.5209 22.4266 15.4088 21.4662L19.2806 24.7151C19.1791 25.7366 19.3305 26.7709 19.7257 27.7251C20.1988 28.8671 20.9999 29.8433 22.0277 30.53C23.0555 31.2168 24.2638 31.5833 25.5 31.5833C26.0723 31.5836 26.6407 31.5053 27.1895 31.3514L29.3012 33.1234C28.0916 33.4774 26.8163 33.6667 25.5 33.6667C20.1645 33.6667 15.5047 30.5595 13.151 25.967C13.0517 25.7706 13 25.5536 13 25.3335C13 25.1135 13.0517 24.8965 13.151 24.7001ZM21.6154 26.7782C21.5971 26.7292 21.5797 26.68 21.5634 26.6305L24.9082 29.4371C24.2976 29.3478 23.7114 29.1232 23.1938 28.776C22.4717 28.2916 21.9196 27.5928 21.6154 26.7782Z" fill="#045FAE"/>
</svg>
