<svg width="50" height="50" viewBox="0 0 50 50" fill="none" xmlns="http://www.w3.org/2000/svg">
<rect width="50" height="50" fill="white"/>
<path d="M37.8489 24.6997C35.4952 20.1072 30.8355 17 25.5 17C20.1645 17 15.5034 20.1094 13.151 24.7001C13.0517 24.8965 13 25.1135 13 25.3336C13 25.5536 13.0517 25.7706 13.151 25.967C15.5048 30.5595 20.1645 33.6667 25.5 33.6667C30.8355 33.6667 35.4965 30.5573 37.8489 25.9666C37.9482 25.7702 38 25.5532 38 25.3331C38 25.113 37.9482 24.8961 37.8489 24.6997ZM25.5 31.5833C24.2638 31.5833 23.0555 31.2168 22.0277 30.53C20.9999 29.8433 20.1988 28.8671 19.7257 27.7251C19.2527 26.5831 19.1289 25.3264 19.3701 24.114C19.6112 22.9016 20.2065 21.788 21.0806 20.9139C21.9546 20.0398 23.0683 19.4446 24.2807 19.2034C25.493 18.9623 26.7497 19.086 27.8917 19.5591C29.0338 20.0321 30.0099 20.8332 30.6967 21.861C31.3834 22.8888 31.75 24.0972 31.75 25.3333C31.7504 26.1542 31.589 26.9671 31.275 27.7256C30.9611 28.484 30.5007 29.1732 29.9203 29.7536C29.3398 30.3341 28.6507 30.7944 27.8922 31.1084C27.1338 31.4223 26.3208 31.5837 25.5 31.5833ZM25.5 21.1667C25.1281 21.1719 24.7586 21.2272 24.4015 21.3312C24.6958 21.7312 24.8371 22.2235 24.7996 22.7187C24.7621 23.214 24.5484 23.6794 24.1972 24.0306C23.846 24.3818 23.3806 24.5955 22.8854 24.633C22.3901 24.6704 21.8978 24.5292 21.4978 24.2348C21.27 25.074 21.3111 25.9636 21.6154 26.7782C21.9196 27.5928 22.4717 28.2916 23.1938 28.776C23.916 29.2605 24.7719 29.5063 25.641 29.4788C26.5102 29.4514 27.3489 29.152 28.039 28.623C28.7291 28.0939 29.236 27.3617 29.4882 26.5295C29.7404 25.6973 29.7253 24.8069 29.445 23.9838C29.1647 23.1606 28.6333 22.446 27.9256 21.9407C27.2179 21.4353 26.3696 21.1646 25.5 21.1667Z" fill="#045FAE"/>
<path d="M47.0714 7.10714H42.8929V2.92857C42.8929 2.41583 42.477 2 41.9643 2H41.0357C40.523 2 40.1071 2.41583 40.1071 2.92857V7.10714H35.9286C35.4158 7.10714 35 7.52297 35 8.03571V8.96429C35 9.47703 35.4158 9.89286 35.9286 9.89286H40.1071V14.0714C40.1071 14.5842 40.523 15 41.0357 15H41.9643C42.477 15 42.8929 14.5842 42.8929 14.0714V9.89286H47.0714C47.5842 9.89286 48 9.47703 48 8.96429V8.03571C48 7.52297 47.5842 7.10714 47.0714 7.10714Z" fill="#045FAE"/>
</svg>
