<svg width="50" height="50" viewBox="0 0 50 50" fill="none" xmlns="http://www.w3.org/2000/svg">
<rect width="50" height="50" fill="white"/>
<path d="M38 19.4688V33.5312C38 34.8252 36.9502 35.875 35.6562 35.875H15.3438C14.0498 35.875 13 34.8252 13 33.5312V19.4688C13 18.1748 14.0498 17.125 15.3438 17.125H19.6406L20.2412 15.5186C20.583 14.6055 21.457 14 22.4336 14H28.5615C29.5381 14 30.4121 14.6055 30.7539 15.5186L31.3594 17.125H35.6562C36.9502 17.125 38 18.1748 38 19.4688ZM31.3594 26.5C31.3594 23.2676 28.7324 20.6406 25.5 20.6406C22.2676 20.6406 19.6406 23.2676 19.6406 26.5C19.6406 29.7324 22.2676 32.3594 25.5 32.3594C28.7324 32.3594 31.3594 29.7324 31.3594 26.5ZM29.7969 26.5C29.7969 28.8682 27.8682 30.7969 25.5 30.7969C23.1318 30.7969 21.2031 28.8682 21.2031 26.5C21.2031 24.1318 23.1318 22.2031 25.5 22.2031C27.8682 22.2031 29.7969 24.1318 29.7969 26.5Z" fill="#3D6B6B"/>
</svg>
