<svg width="50" height="50" viewBox="0 0 50 50" fill="none" xmlns="http://www.w3.org/2000/svg">
<rect width="50" height="50" fill="white"/>
<path fill-rule="evenodd" clip-rule="evenodd" d="M20.2577 15.476L12.5399 9L10.27 11.7052L16.729 17.125L22.1633 21.6849L23.4215 22.7406L29.5642 27.895L30.8225 28.9508L37.6835 34.7079L42.6077 38.8398L44.8776 36.1346L38 30.3636V19.4688C38 18.1748 36.9502 17.125 35.6563 17.125H31.3594L30.7539 15.5186C30.4121 14.6055 29.5381 14 28.5616 14H22.4336C21.4723 14 20.6104 14.5867 20.2577 15.476ZM26.518 20.729L31.0066 24.4954C30.2992 22.5566 28.5959 21.094 26.518 20.729ZM13 19.4688C13 19.2036 13.0441 18.9487 13.1253 18.711L19.9994 24.4791C19.7674 25.1092 19.6407 25.79 19.6407 26.5C19.6407 29.7324 22.2676 32.3594 25.5 32.3594C26.5728 32.3594 27.5789 32.07 28.4444 31.5652L33.5805 35.875H15.3438C14.0498 35.875 13 34.8252 13 33.5312V19.4688ZM21.2032 26.5C21.2032 26.1821 21.2379 25.8721 21.3038 25.5736L27.1404 30.4711C26.6347 30.681 26.0806 30.7969 25.5 30.7969C23.1319 30.7969 21.2032 28.8682 21.2032 26.5Z" fill="#3D6B6B"/>
</svg>
