<svg width="50" height="50" viewBox="0 0 50 50" fill="none" xmlns="http://www.w3.org/2000/svg">
<rect width="50" height="50" fill="white"/>
<path d="M38 19.4688V33.5312C38 34.8252 36.9502 35.875 35.6562 35.875H15.3438C14.0498 35.875 13 34.8252 13 33.5312V19.4688C13 18.1748 14.0498 17.125 15.3438 17.125H19.6406L20.2412 15.5186C20.583 14.6055 21.457 14 22.4336 14H28.5615C29.5381 14 30.4121 14.6055 30.7539 15.5186L31.3594 17.125H35.6562C36.9502 17.125 38 18.1748 38 19.4688ZM31.3594 26.5C31.3594 23.2676 28.7324 20.6406 25.5 20.6406C22.2676 20.6406 19.6406 23.2676 19.6406 26.5C19.6406 29.7324 22.2676 32.3594 25.5 32.3594C28.7324 32.3594 31.3594 29.7324 31.3594 26.5ZM29.7969 26.5C29.7969 28.8682 27.8682 30.7969 25.5 30.7969C23.1318 30.7969 21.2031 28.8682 21.2031 26.5C21.2031 24.1318 23.1318 22.2031 25.5 22.2031C27.8682 22.2031 29.7969 24.1318 29.7969 26.5Z" fill="#3D6B6B"/>
<path d="M47.6551 10.4828L43.7159 8.5L47.6551 6.51717C47.9818 6.35271 48.0972 5.97422 47.9108 5.67834L47.3712 4.82163C47.1848 4.52576 46.7696 4.42811 46.4508 4.60523L42.608 6.74089L42.7042 2.62243C42.7122 2.28085 42.4123 2 42.0396 2H40.9604C40.5877 2 40.2878 2.28085 40.2958 2.62243L40.392 6.74089L36.5492 4.60526C36.2304 4.42813 35.8152 4.52578 35.6288 4.82166L35.0892 5.67837C34.9028 5.97424 35.0182 6.35274 35.345 6.5172L39.2841 8.5L35.3449 10.4828C35.0182 10.6473 34.9028 11.0258 35.0892 11.3217L35.6288 12.1784C35.8152 12.4742 36.2304 12.5719 36.5492 12.3948L40.392 10.2591L40.2958 14.3776C40.2878 14.7192 40.5877 15 40.9604 15H42.0396C42.4123 15 42.7122 14.7192 42.7043 14.3776L42.608 10.2591L46.4508 12.3947C46.7696 12.5719 47.1848 12.4742 47.3712 12.1783L47.9108 11.3216C48.0972 11.0258 47.9818 10.6473 47.6551 10.4828Z" fill="#3D6B6B"/>
</svg>
