<svg width="50" height="50" viewBox="0 0 50 50" fill="none" xmlns="http://www.w3.org/2000/svg">
<rect width="50" height="50" fill="white"/>
<path fill-rule="evenodd" clip-rule="evenodd" d="M18.3257 14.694L11.5399 9L9.26993 11.7052L16.4802 17.7554L19.1569 20.0013L20.4865 21.117L29.4301 28.6216L41.6076 38.8398L43.8776 36.1346L31.479 25.7309C32.5516 24.2987 33.1875 22.5214 33.1875 20.5938C33.1875 15.8384 29.3257 11.9854 24.5669 12C22.0269 12.0078 19.8497 13.0611 18.3257 14.694ZM20.7385 16.7186L21.9418 17.7282C22.6388 17.0827 23.571 16.6875 24.5937 16.6875C25.0254 16.6875 25.375 16.3379 25.375 15.9063C25.375 15.4747 25.0254 15.125 24.5937 15.125C23.091 15.125 21.7279 15.7342 20.7385 16.7186ZM18.1269 26.2471C17.1105 25.0874 16.4009 23.6527 16.1263 22.0683L26.4734 30.7505H20.6816L20.6789 30.7315L20.6763 30.7124C20.1953 29.0904 18.9336 27.1675 18.1269 26.2471ZM28.4994 32.4505L28.3349 32.3125H20.688L20.6904 34.1851C20.6909 34.4922 20.7817 34.793 20.9521 35.0489L21.7866 36.3033C21.9292 36.5177 22.1225 36.6936 22.3495 36.8152C22.5764 36.9369 22.8299 37.0005 23.0874 37.0005H26.1006C26.3581 37.0005 26.6116 36.9369 26.8385 36.8152C27.0655 36.6936 27.2588 36.5177 27.4014 36.3033L28.2358 35.0489C28.4062 34.793 28.4972 34.4925 28.4976 34.1851L28.4994 32.4505Z" fill="#045FAE"/>
</svg>
