<svg width="50" height="50" viewBox="0 0 50 50" fill="none" xmlns="http://www.w3.org/2000/svg">
<rect width="50" height="50" fill="white"/>
<path d="M20.6904 34.1851C20.6909 34.4922 20.7817 34.793 20.9521 35.0489L21.7866 36.3033C21.9292 36.5177 22.1225 36.6936 22.3495 36.8152C22.5764 36.9369 22.8299 37.0005 23.0874 37.0005H26.1006C26.3581 37.0005 26.6116 36.9369 26.8385 36.8152C27.0655 36.6936 27.2588 36.5177 27.4014 36.3033L28.2358 35.0489C28.4062 34.793 28.4972 34.4925 28.4976 34.1851L28.4995 32.3125H20.688L20.6904 34.1851ZM16 20.5938C16 22.7603 16.8032 24.7369 18.127 26.2471C18.9336 27.1675 20.1953 29.0904 20.6763 30.7124C20.6782 30.7251 20.6797 30.7378 20.6816 30.7505H28.5059C28.5078 30.7378 28.5093 30.7256 28.5112 30.7124C28.9922 29.0904 30.2539 27.1675 31.0605 26.2471C32.3843 24.7369 33.1875 22.7603 33.1875 20.5938C33.1875 15.8384 29.3257 11.9854 24.5669 12C19.5859 12.0152 16 16.0513 16 20.5938ZM24.5938 16.6875C22.4399 16.6875 20.6875 18.44 20.6875 20.5938C20.6875 21.0254 20.3379 21.375 19.9062 21.375C19.4746 21.375 19.125 21.0254 19.125 20.5938C19.125 17.5782 21.5781 15.125 24.5938 15.125C25.0254 15.125 25.375 15.4747 25.375 15.9063C25.375 16.3379 25.0254 16.6875 24.5938 16.6875Z" fill="#045FAE"/>
<path d="M47.0714 7.10714H42.8929V2.92857C42.8929 2.41583 42.477 2 41.9643 2H41.0357C40.523 2 40.1071 2.41583 40.1071 2.92857V7.10714H35.9286C35.4158 7.10714 35 7.52297 35 8.03571V8.96429C35 9.47703 35.4158 9.89286 35.9286 9.89286H40.1071V14.0714C40.1071 14.5842 40.523 15 41.0357 15H41.9643C42.477 15 42.8929 14.5842 42.8929 14.0714V9.89286H47.0714C47.5842 9.89286 48 9.47703 48 8.96429V8.03571C48 7.52297 47.5842 7.10714 47.0714 7.10714Z" fill="#045FAE"/>
</svg>
