<svg width="50" height="50" viewBox="0 0 50 50" fill="none" xmlns="http://www.w3.org/2000/svg">
<rect width="50" height="50" fill="white"/>
<path d="M38 28.6249V36.4374C38 37.3002 37.3003 37.9999 36.4375 37.9999H28.625C27.7622 37.9999 27.0625 37.3002 27.0625 36.4374V28.6249C27.0625 27.7621 27.7622 27.0624 28.625 27.0624H36.4375C37.3003 27.0624 38 27.7621 38 28.6249ZM19.25 25.4999C15.7983 25.4999 13 28.2982 13 31.7499C13 35.2015 15.7983 37.9999 19.25 37.9999C22.7017 37.9999 25.5 35.2015 25.5 31.7499C25.5 28.2982 22.7017 25.4999 19.25 25.4999ZM36.3901 23.9374C37.6274 23.9374 38.4009 22.6351 37.7822 21.5936L33.1421 13.7811C32.5234 12.7396 30.9766 12.7396 30.3579 13.7811L25.7178 21.5936C25.0991 22.6351 25.8726 23.9374 27.1099 23.9374H36.3901Z" fill="#3D6B6B"/>
<path d="M47.0714 7.10714H42.8929V2.92857C42.8929 2.41583 42.477 2 41.9643 2H41.0357C40.523 2 40.1071 2.41583 40.1071 2.92857V7.10714H35.9286C35.4158 7.10714 35 7.52297 35 8.03571V8.96429C35 9.47703 35.4158 9.89286 35.9286 9.89286H40.1071V14.0714C40.1071 14.5842 40.523 15 41.0357 15H41.9643C42.477 15 42.8929 14.5842 42.8929 14.0714V9.89286H47.0714C47.5842 9.89286 48 9.47703 48 8.96429V8.03571C48 7.52297 47.5842 7.10714 47.0714 7.10714Z" fill="#3D6B6B"/>
</svg>
