<svg width="50" height="50" viewBox="0 0 50 50" fill="none" xmlns="http://www.w3.org/2000/svg">
<rect width="50" height="50" fill="white"/>
<path fill-rule="evenodd" clip-rule="evenodd" d="M28.2988 23.0624L11.5399 9L9.26996 11.7052L26.0625 25.7958L35.7917 33.9596L41.6077 38.8398L43.8776 36.1346L37 30.3636V24.6249C37 23.7621 36.3003 23.0624 35.4375 23.0624H28.2988ZM26.0625 30.4057L30.3459 33.9999H27.625C26.7622 33.9999 26.0625 33.3002 26.0625 32.4374V30.4057ZM24.3767 28.9912L15.9633 21.9315C13.6427 22.8443 12 25.1053 12 27.7499C12 31.2015 14.7984 33.9999 18.25 33.9999C21.2767 33.9999 23.801 31.8482 24.3767 28.9912ZM35.3902 19.9374C36.6275 19.9374 37.4009 18.6351 36.7823 17.5936L32.1421 9.78113C31.5235 8.73962 29.9766 8.73962 29.3579 9.78113L24.7178 17.5936C24.0992 18.6351 24.8726 19.9374 26.1099 19.9374H35.3902Z" fill="#3D6B6B"/>
</svg>
