<svg width="50" height="50" viewBox="0 0 50 50" fill="none" xmlns="http://www.w3.org/2000/svg">
<rect width="50" height="50" fill="white"/>
<path d="M36.9625 28.2642C36.9719 28.1752 37 28.0908 37 28.0018C37 26.3474 35.6547 25.0023 34 25.0023C33.4094 25.0023 32.8656 25.1804 32.4016 25.471C31.5766 23.6526 29.7531 22.3779 27.625 22.3779C24.7281 22.3779 22.375 24.7258 22.375 27.6268C22.375 27.7674 22.4078 27.8987 22.4172 28.0346C20.0922 28.208 18.25 30.1295 18.25 32.5009C18.25 34.9848 20.2656 37 22.75 37H35.5C37.9844 37 40 34.9848 40 32.5009C40 30.5278 38.725 28.8735 36.9625 28.2642ZM16.7875 27.205C14.7391 25.157 14.7391 21.8295 16.7875 19.7862C18.8359 17.7381 22.1641 17.7381 24.2125 19.7862C24.6672 20.2408 25.0047 20.7657 25.2578 21.3187C25.7172 21.1453 26.2 21.0375 26.6969 20.9672L28.0938 16.8008C28.2812 16.2431 27.7516 15.7182 27.1937 15.901L23.0781 17.2742L21.1328 13.3937C20.875 12.8688 20.125 12.8688 19.8625 13.3937L17.9219 17.2742L13.8016 15.901C13.2484 15.7182 12.7188 16.2478 12.9016 16.8008L14.275 20.9156L10.3937 22.8606C9.86875 23.123 9.86875 23.8682 10.3937 24.1306L14.275 26.0709L12.9016 30.1857C12.7141 30.7434 13.2437 31.2683 13.8016 31.0855L17.3687 29.8998C17.6547 29.3187 18.025 28.7891 18.475 28.3298C17.8609 28.0767 17.2844 27.7018 16.7875 27.205ZM16.5625 23.4933C16.5625 25.4054 17.9359 26.9988 19.7453 27.3503C20.1203 27.1301 20.5094 26.9379 20.9266 26.802C21.1797 24.7258 22.3797 22.9356 24.0859 21.8811C23.4672 20.5173 22.0938 19.5612 20.5 19.5612C18.3297 19.5612 16.5625 21.3234 16.5625 23.4933Z" fill="#C52A3A"/>
</svg>
