<svg width="50" height="50" viewBox="0 0 50 50" fill="none" xmlns="http://www.w3.org/2000/svg">
<rect width="50" height="50" fill="white"/>
<path d="M36.9625 28.2672C36.9719 28.1781 37 28.0938 37 28.0047C37 26.35 35.6547 25.0047 34 25.0047C33.4094 25.0047 32.8656 25.1828 32.4016 25.4734C31.5766 23.6547 29.7531 22.3797 27.625 22.3797C24.7281 22.3797 22.375 24.7281 22.375 27.6297C22.375 27.7703 22.4078 27.9016 22.4172 28.0375C20.0922 28.2109 18.25 30.1328 18.25 32.5047C18.25 34.9891 20.2656 37.0047 22.75 37.0047H35.5C37.9844 37.0047 40 34.9891 40 32.5047C40 30.5313 38.725 28.8766 36.9625 28.2672ZM16.7875 27.2078C14.7391 25.1594 14.7391 21.8313 16.7875 19.7875C18.8359 17.7391 22.1641 17.7391 24.2125 19.7875C24.6672 20.2422 25.0047 20.7672 25.2578 21.3203C25.7172 21.1469 26.2 21.0391 26.6969 20.9688L28.0938 16.8016C28.2812 16.2438 27.7516 15.7188 27.1937 15.9016L23.0781 17.275L21.1328 13.3938C20.875 12.8687 20.125 12.8687 19.8625 13.3938L17.9219 17.275L13.8016 15.9016C13.2484 15.7188 12.7188 16.2484 12.9016 16.8016L14.275 20.9172L10.3937 22.8625C9.86875 23.125 9.86875 23.8703 10.3937 24.1328L14.275 26.0734L12.9016 30.1891C12.7141 30.7469 13.2437 31.2719 13.8016 31.0891L17.3687 29.9031C17.6547 29.3219 18.025 28.7922 18.475 28.3328C17.8609 28.0797 17.2844 27.7047 16.7875 27.2078ZM16.5625 23.4953C16.5625 25.4078 17.9359 27.0016 19.7453 27.3531C20.1203 27.1328 20.5094 26.9406 20.9266 26.8047C21.1797 24.7281 22.3797 22.9375 24.0859 21.8828C23.4672 20.5188 22.0938 19.5625 20.5 19.5625C18.3297 19.5625 16.5625 21.325 16.5625 23.4953Z" fill="#C52A3A"/>
<path d="M47.0714 7.10714H42.8929V2.92857C42.8929 2.41583 42.477 2 41.9643 2H41.0357C40.523 2 40.1071 2.41583 40.1071 2.92857V7.10714H35.9286C35.4158 7.10714 35 7.52297 35 8.03571V8.96429C35 9.47703 35.4158 9.89286 35.9286 9.89286H40.1071V14.0714C40.1071 14.5842 40.523 15 41.0357 15H41.9643C42.477 15 42.8929 14.5842 42.8929 14.0714V9.89286H47.0714C47.5842 9.89286 48 9.47703 48 8.96429V8.03571C48 7.52297 47.5842 7.10714 47.0714 7.10714Z" fill="#C52A3A"/>
</svg>
