<svg width="50" height="50" viewBox="0 0 50 50" fill="none" xmlns="http://www.w3.org/2000/svg">
<rect width="50" height="50" fill="white"/>
<path d="M24.5 14C21.4796 14 19.0312 16.4484 19.0312 19.4688C19.0312 21.9106 22.6055 26.3611 23.9748 27.9766C24.2522 28.3038 24.7483 28.3038 25.0252 27.9766C26.3945 26.3611 29.9688 21.9106 29.9688 19.4688C29.9688 16.4484 27.5204 14 24.5 14ZM24.5 21.2917C23.4931 21.2917 22.6771 20.4757 22.6771 19.4688C22.6771 18.4618 23.4931 17.6458 24.5 17.6458C25.5069 17.6458 26.3229 18.4618 26.3229 19.4688C26.3229 20.4757 25.5069 21.2917 24.5 21.2917ZM12.8733 23.3728C12.6155 23.4759 12.3946 23.6539 12.2389 23.8837C12.0833 24.1135 12.0001 24.3847 12 24.6623V35.5269C12 36.0182 12.4961 36.3542 12.9523 36.1719L18.9444 33.4444V23.3281C18.5608 22.6345 18.247 21.9592 18.0221 21.3134L12.8733 23.3728ZM24.5 29.6107C23.8893 29.6107 23.3116 29.3424 22.9154 28.8746C22.0621 27.8676 21.1545 26.7209 20.3333 25.5447V33.444L28.6667 36.2218V25.5451C27.8455 26.7209 26.9384 27.8681 26.0846 28.875C25.6884 29.3424 25.1107 29.6107 24.5 29.6107ZM36.0477 20.9948L30.0556 23.7222V36.2222L36.1267 33.7938C36.3845 33.6908 36.6055 33.5129 36.7611 33.283C36.9168 33.0532 37 32.7819 37 32.5043V21.6398C37 21.1484 36.5039 20.8125 36.0477 20.9948Z" fill="#C52A3A"/>
</svg>
