<svg width="50" height="50" viewBox="0 0 50 50" fill="none" xmlns="http://www.w3.org/2000/svg">
<rect width="50" height="50" fill="white"/>
<path fill-rule="evenodd" clip-rule="evenodd" d="M18.9502 15.218L11.5399 9L9.26993 11.7052L14.5791 16.1601L17.8928 18.9406L18.9903 19.8616L22.7216 22.9925L23.8713 23.9572L38.2744 36.0428L41.6076 38.8398L43.8776 36.1346L39.9852 32.8685C39.995 32.7472 40 32.6246 40 32.5009C40 30.5278 38.725 28.8735 36.9625 28.2642C36.9663 28.2283 36.9731 28.1931 36.9799 28.158C36.99 28.1063 37 28.0549 37 28.0018C37 26.3474 35.6547 25.0023 34 25.0023C33.4094 25.0023 32.8656 25.1804 32.4016 25.471C31.5766 23.6526 29.7531 22.3779 27.625 22.3779C27.5782 22.3779 27.5316 22.3785 27.4851 22.3797L25.9648 21.1039C26.2045 21.0467 26.4489 21.0023 26.6969 20.9672L28.0938 16.8008C28.2812 16.2431 27.7516 15.7182 27.1937 15.901L23.0781 17.2742L21.1328 13.3937C20.875 12.8688 20.125 12.8688 19.8625 13.3937L18.9502 15.218ZM14.275 20.9156L14.0892 20.3589L15.5948 21.6223C14.8813 23.4945 15.2789 25.6967 16.7875 27.205C17.2844 27.7018 17.8609 28.0767 18.475 28.3298C18.025 28.7891 17.6547 29.3187 17.3687 29.8998L13.8016 31.0855C13.2437 31.2683 12.7141 30.7434 12.9016 30.1857L14.275 26.0709L10.3937 24.1306C9.86875 23.8682 9.86875 23.123 10.3937 22.8606L14.275 20.9156ZM16.5625 23.4933C16.5625 23.1623 16.6036 22.8409 16.681 22.5337L21.0314 26.1841C20.9871 26.3869 20.952 26.593 20.9266 26.802C20.5094 26.9379 20.1203 27.1301 19.7453 27.3503C17.9359 26.9988 16.5625 25.4054 16.5625 23.4933ZM22.375 27.6268C22.375 27.5235 22.378 27.4209 22.3839 27.319L33.9212 37H22.75C20.2656 37 18.25 34.9848 18.25 32.5009C18.25 30.1295 20.0922 28.208 22.4172 28.0346C22.4133 27.9783 22.4054 27.9229 22.3975 27.8673L22.3975 27.8672C22.3863 27.7884 22.375 27.7092 22.375 27.6268Z" fill="#C52A3A"/>
</svg>
