<svg width="50" height="50" viewBox="0 0 50 50" fill="none" xmlns="http://www.w3.org/2000/svg">
<rect width="50" height="50" fill="white"/>
<path fill-rule="evenodd" clip-rule="evenodd" d="M20.1172 16.1973L11.5399 9L9.26993 11.7052L19.0683 19.927L26.4926 26.1567L27.5594 27.0519L28.6667 27.981L30.0556 29.1464L35.7661 33.9381L41.6076 38.8398L43.8776 36.1346L37 30.3636V21.6398C37 21.1484 36.5039 20.8125 36.0477 20.9948L30.0556 23.7222V24.5365L28.511 23.2405C29.3411 21.8681 29.9687 20.4921 29.9687 19.4688C29.9687 16.4484 27.5204 14 24.5 14C22.7064 14 21.1145 14.8634 20.1172 16.1973ZM25.6761 20.8617L22.9238 18.5523C23.2396 18.0101 23.8272 17.6458 24.5 17.6458C25.5069 17.6458 26.3229 18.4618 26.3229 19.4688C26.3229 20.0274 26.0717 20.5273 25.6761 20.8617ZM12.8733 23.3728L16.129 22.0706L18.9444 24.433V33.4444L12.9523 36.1719C12.4961 36.3542 12 36.0182 12 35.5269V24.6623C12.0001 24.3847 12.0833 24.1135 12.2389 23.8837C12.3946 23.6539 12.6155 23.4759 12.8733 23.3728ZM20.3333 33.444V25.5984L20.4249 25.6752C21.2216 26.8056 22.0937 27.9049 22.9154 28.8746C23.3116 29.3424 23.8893 29.6107 24.5 29.6107C24.6817 29.6107 24.8604 29.5869 25.0323 29.5413L28.6667 32.5909V36.2218L20.3333 33.444ZM30.0556 36.2222V33.7563L32.0457 35.4262L30.0556 36.2222Z" fill="#C52A3A"/>
</svg>
