<?xml version="1.0" encoding="UTF-8" standalone="no"?><!DOCTYPE svg PUBLIC "-//W3C//DTD SVG 1.1//EN" "http://www.w3.org/Graphics/SVG/1.1/DTD/svg11.dtd"><svg width="100%" height="100%" viewBox="0 0 1067 338" version="1.1" xmlns="http://www.w3.org/2000/svg" xmlns:xlink="http://www.w3.org/1999/xlink" xml:space="preserve" xmlns:serif="http://www.serif.com/" style="fill-rule:evenodd;clip-rule:evenodd;stroke-linejoin:round;stroke-miterlimit:2;"><g><path d="M132.792,122.242l-0,35.779l85.521,-0c-2.617,20.071 -9.309,34.762 -19.488,45.087c-12.508,12.509 -32,26.184 -66.033,26.184c-52.655,-0 -93.813,-42.471 -93.813,-95.125c0,-52.65 41.158,-95.121 93.813,-95.121c28.362,-0 49.158,11.2 64.433,25.6l25.163,-25.163c-21.238,-20.654 -49.746,-36.362 -89.596,-36.362c-72.142,-0 -132.792,58.758 -132.792,130.9c0,72.142 60.65,130.904 132.792,130.904c38.979,0 68.358,-12.8 91.337,-36.654c23.563,-23.563 30.984,-56.871 30.984,-83.629c-0,-8.292 -0.584,-16 -1.892,-22.4l-120.429,-0Z" style="fill:#fff;fill-rule:nonzero;"/><path d="M362.013,228.854c-25.596,0 -47.705,-21.091 -47.705,-51.196c0,-30.4 22.109,-51.2 47.705,-51.2c25.6,0 47.708,20.8 47.708,51.2c-0,30.105 -22.108,51.196 -47.708,51.196Zm-0,-135.704c-46.688,-0 -84.792,35.492 -84.792,84.508c-0,48.575 38.104,84.505 84.792,84.505c46.691,-0 84.8,-35.784 84.8,-84.505c-0,-49.016 -38.109,-84.508 -84.8,-84.508Z" style="fill:#fff;fill-rule:nonzero;"/><path d="M735.088,228.854c-25.601,0 -45.092,-21.817 -45.092,-51.196c-0,-29.816 19.491,-51.2 45.092,-51.2c25.304,0 45.087,21.817 45.087,51.488c0.146,29.525 -19.783,50.908 -45.087,50.908Zm42.612,-116.796l-1.308,0c-8.288,-9.887 -24.288,-18.908 -44.505,-18.908c-42.179,-0 -78.979,36.8 -78.979,84.508c0,47.413 36.8,84.505 78.979,84.505c20.217,-0 36.217,-9.021 44.505,-19.2l1.308,-0l-0,11.779c-0,32.291 -17.308,49.6 -45.088,49.6c-22.687,-0 -36.795,-16.292 -42.616,-30.109l-32.288,13.38c9.309,22.399 33.888,49.887 74.904,49.887c43.488,-0 80.288,-25.596 80.288,-87.992l-0,-151.991l-35.2,-0l-0,14.541Z" style="fill:#fff;fill-rule:nonzero;"/><path d="M551.096,228.854c-25.6,0 -47.704,-21.091 -47.704,-51.196c-0,-30.4 22.104,-51.2 47.704,-51.2c25.6,0 47.708,20.8 47.708,51.2c0,30.105 -22.108,51.196 -47.708,51.196Zm-0,-135.704c-46.688,-0 -84.796,35.492 -84.796,84.508c0,48.575 38.108,84.505 84.796,84.505c46.687,-0 84.796,-35.784 84.796,-84.505c-0,-49.016 -38.109,-84.508 -84.796,-84.508Z" style="fill:#fff;fill-rule:nonzero;"/><rect x="841.987" y="6.612" width="36.508" height="255.55" style="fill:#fff;fill-rule:nonzero;"/><path d="M988.6,124.858c14.979,0 27.779,7.709 31.996,18.617l-76.358,31.562c-0,-35.487 25.162,-50.179 44.362,-50.179Zm2.617,103.996c-18.909,0 -32.288,-8.583 -41.017,-25.6l113.013,-46.687l-3.78,-9.6c-6.983,-18.909 -28.508,-53.817 -72.287,-53.817c-43.492,-0 -79.704,34.183 -79.704,84.508c-0,47.413 35.779,84.505 83.775,84.505c38.687,-0 61.087,-23.709 70.396,-37.384l-28.801,-19.196c-9.595,13.963 -22.687,23.271 -41.595,23.271Z" style="fill:#fff;fill-rule:nonzero;"/></g></svg>