<?xml version="1.0" encoding="UTF-8" standalone="no"?>
<!DOCTYPE svg PUBLIC "-//W3C//DTD SVG 1.1//EN" "http://www.w3.org/Graphics/SVG/1.1/DTD/svg11.dtd">
<svg width="100%" height="100%" viewBox="0 0 553 142" version="1.1" xmlns="http://www.w3.org/2000/svg" xmlns:xlink="http://www.w3.org/1999/xlink" xml:space="preserve" xmlns:serif="http://www.serif.com/" style="fill-rule:evenodd;clip-rule:evenodd;stroke-linejoin:round;stroke-miterlimit:2;">
    <g id="Vordergrund">
        <path d="M217.817,37.979C219.712,37.957 223.878,37.643 227.214,41.041C230.556,44.442 230.741,48.664 230.741,50.743C230.741,56.538 225.981,60.878 219.87,60.878C217.349,60.878 214.559,60.449 213.641,59.899C213.329,59.711 213.206,59.466 213.206,59.162L213.206,39.084C213.206,38.716 213.394,38.474 213.698,38.351C214.319,38.163 215.975,38 217.817,37.979ZM394.562,38.628L402.29,38.752C408.177,38.875 409.646,40.287 409.831,42.13L409.893,42.809C409.956,43.665 410.081,43.853 410.4,43.853C410.65,43.853 410.838,43.608 410.838,43.052C410.838,42.376 411.027,38.138 411.027,36.294C411.027,35.926 411.027,35.56 410.713,35.56C410.463,35.56 409.898,35.744 408.977,35.867C407.998,36.052 406.584,36.175 404.623,36.175L381.6,36.175C380.867,36.175 378.533,36.052 376.748,35.867C375.09,35.744 374.473,35.13 374.045,35.13C373.797,35.13 373.553,35.929 373.43,36.297C373.307,36.788 372.078,42.071 372.078,42.689C372.078,43.056 372.201,43.242 372.385,43.242C372.631,43.242 372.818,43.119 373,42.627C373.184,42.197 373.369,41.769 374.045,40.724C375.027,39.248 376.502,38.821 380.312,38.757L389.406,38.633L389.406,64.619C389.406,70.515 389.406,75.369 389.096,77.95C388.85,79.732 388.543,81.084 387.316,81.329C386.762,81.452 386.027,81.574 385.471,81.574C385.103,81.574 384.982,81.76 384.982,81.943C384.982,82.312 385.291,82.435 385.963,82.435C387.805,82.435 391.676,82.247 391.984,82.247C392.291,82.247 396.158,82.435 399.531,82.435C400.207,82.435 400.51,82.247 400.51,81.943C400.51,81.756 400.389,81.574 400.025,81.574C399.469,81.574 398.123,81.452 397.26,81.329C395.42,81.084 395.053,79.732 394.869,77.95C394.562,75.37 394.562,70.515 394.562,64.619L394.562,38.628ZM318.855,38.628L326.58,38.752C332.467,38.875 333.939,40.287 334.123,42.13L334.184,42.809C334.248,43.665 334.373,43.853 334.691,43.853C334.941,43.853 335.129,43.608 335.129,43.052C335.129,42.376 335.317,38.138 335.317,36.294C335.317,35.926 335.317,35.56 335.003,35.56C334.753,35.56 334.187,35.744 333.267,35.867C332.288,36.052 330.876,36.175 328.913,36.175L305.89,36.175C305.157,36.175 302.823,36.052 301.038,35.867C299.38,35.744 298.765,35.13 298.335,35.13C298.089,35.13 297.846,35.929 297.723,36.297C297.6,36.788 296.369,42.071 296.369,42.689C296.369,43.056 296.492,43.242 296.678,43.242C296.922,43.242 297.111,43.119 297.291,42.627C297.479,42.197 297.66,41.769 298.336,40.724C299.318,39.248 300.793,38.821 304.602,38.757L313.697,38.633L313.697,64.619C313.697,70.515 313.697,75.369 313.387,77.95C313.141,79.732 312.834,81.084 311.609,81.329C311.053,81.452 310.318,81.574 309.762,81.574C309.393,81.574 309.275,81.76 309.275,81.943C309.275,82.312 309.582,82.435 310.254,82.435C312.098,82.435 315.967,82.247 316.275,82.247C316.582,82.247 320.449,82.435 323.822,82.435C324.498,82.435 324.801,82.247 324.801,81.943C324.801,81.756 324.68,81.574 324.315,81.574C323.76,81.574 322.414,81.452 321.553,81.329C319.713,81.084 319.344,79.732 319.16,77.95C318.854,75.37 318.854,70.515 318.854,64.619L318.855,38.628ZM287.139,53.802C287.139,44.218 287.139,42.498 287.262,40.532C287.382,38.382 287.874,37.338 289.533,37.031C290.269,36.907 290.638,36.846 291.068,36.846C291.314,36.846 291.56,36.723 291.56,36.478C291.56,36.108 291.248,35.986 290.576,35.986C288.734,35.986 284.865,36.171 284.556,36.171C284.246,36.171 280.375,35.986 278.353,35.986C277.676,35.986 277.369,36.109 277.369,36.478C277.369,36.723 277.615,36.846 277.861,36.846C278.291,36.846 279.09,36.907 279.765,37.089C281.117,37.4 281.73,38.443 281.853,40.529C281.976,42.495 281.976,44.215 281.976,53.799L281.976,64.611C281.976,70.507 281.976,75.361 281.666,77.942C281.42,79.724 281.113,81.076 279.884,81.321C279.332,81.444 278.597,81.566 278.041,81.566C277.675,81.566 277.554,81.752 277.554,81.935C277.554,82.304 277.861,82.426 278.533,82.426C280.375,82.426 284.246,82.238 284.554,82.238C284.862,82.238 288.732,82.426 292.111,82.426C292.787,82.426 293.091,82.238 293.091,81.935C293.091,81.748 292.97,81.566 292.601,81.566C292.045,81.566 290.699,81.444 289.834,81.321C287.99,81.076 287.623,79.724 287.438,77.942C287.129,75.362 287.129,70.507 287.129,64.611L287.139,53.802ZM255.165,83.29C258.481,83.29 261.798,82.553 264.44,80.71C268.678,77.699 269.661,73.031 269.661,70.516C269.661,65.601 267.94,61.79 260.692,56.078L258.971,54.726C253.075,50.119 251.477,47.906 251.477,44.405C251.477,39.921 254.792,37.279 259.034,37.279C264.686,37.279 266.346,39.859 266.714,40.534C267.081,41.21 267.45,42.868 267.516,43.606C267.577,44.094 267.636,44.404 268.003,44.404C268.315,44.404 268.438,43.974 268.438,42.99C268.438,38.813 268.682,36.785 268.682,36.479C268.682,36.168 268.559,36.045 268.067,36.045C267.577,36.045 267.085,35.983 265.919,35.738C264.382,35.369 262.604,35.124 260.206,35.124C252.403,35.124 247.489,39.608 247.489,46.185C247.489,50.363 248.964,54.168 255.475,59.516L258.239,61.787C263.522,66.148 265.301,68.605 265.301,72.844C265.301,76.779 262.414,81.018 256.519,81.018C252.404,81.018 248.349,79.294 247.424,74.749C247.24,73.891 247.24,73.028 247.24,72.478C247.24,71.986 247.177,71.799 246.81,71.799C246.498,71.799 246.375,72.11 246.318,72.781C246.256,73.764 246.008,76.219 246.008,79.293C246.008,80.952 246.071,81.198 246.933,81.628C249.45,82.86 252.276,83.29 255.165,83.29ZM175.229,64.615C175.229,70.513 175.229,75.365 174.919,77.946C174.673,79.728 174.366,81.08 173.14,81.325C172.584,81.448 171.85,81.57 171.294,81.57C170.929,81.57 170.806,81.756 170.806,81.939C170.806,82.308 171.113,82.431 171.785,82.431C172.706,82.431 174.12,82.308 175.348,82.308C176.639,82.245 177.683,82.245 177.806,82.245C178.727,82.245 180.202,82.308 182.598,82.433C184.994,82.495 188.369,82.617 192.979,82.617C195.375,82.617 195.867,82.617 196.293,81.02C196.604,79.73 197.094,75.55 197.094,75.06C197.094,74.628 197.094,74.137 196.726,74.137C196.415,74.137 196.293,74.381 196.17,75.06C195.74,77.58 195.003,78.808 193.406,79.484C191.809,80.16 189.106,80.16 187.51,80.16C181.489,80.16 180.568,79.362 180.383,75.123C180.321,73.833 180.383,66.706 180.383,64.618L180.383,59.21C180.383,58.964 180.506,58.78 180.813,58.78C181.857,58.78 187.939,58.903 189.598,59.087C191.994,59.333 192.544,60.377 192.79,61.237C193.035,62.036 193.035,62.65 193.035,63.264C193.035,63.571 193.158,63.817 193.469,63.817C193.898,63.817 193.898,63.141 193.898,62.65C193.898,62.217 194.021,59.947 194.144,58.716C194.329,56.691 194.636,55.647 194.636,55.278C194.636,54.909 194.513,54.786 194.325,54.786C194.079,54.786 193.834,55.094 193.404,55.585C192.851,56.2 191.991,56.323 190.517,56.445C189.104,56.568 181.547,56.568 180.746,56.568C180.438,56.568 180.379,56.38 180.379,55.954L180.379,38.998C180.379,38.568 180.502,38.383 180.746,38.383C181.425,38.383 188.118,38.445 189.162,38.571C192.479,38.939 193.096,39.675 193.523,40.659C193.831,41.397 193.892,42.441 193.892,42.87C193.892,43.362 194.015,43.668 194.384,43.668C194.629,43.668 194.75,43.3 194.813,42.992C194.936,42.255 195.06,39.552 195.121,38.938C195.309,37.215 195.612,36.481 195.612,36.048C195.612,35.741 195.551,35.495 195.366,35.495C195.059,35.495 194.813,35.741 194.509,35.802C194.017,35.925 193.031,36.048 191.864,36.112C190.451,36.174 178.226,36.174 177.799,36.174L175.278,36.051C173.926,35.989 172.268,35.989 170.854,35.989C170.178,35.989 169.872,36.112 169.872,36.481C169.872,36.726 170.118,36.849 170.363,36.849C170.916,36.849 171.961,36.91 172.451,37.034C174.479,37.463 174.972,38.447 175.096,40.535C175.219,42.501 175.219,44.221 175.219,53.806L175.219,64.618L175.229,64.615ZM132.678,43.482C131.754,41.086 131.019,39.181 131.019,38.38C131.019,37.95 131.142,37.458 131.818,37.152C132.371,36.905 133.477,36.843 134.153,36.843C134.582,36.843 134.767,36.721 134.767,36.411C134.767,36.103 134.211,35.981 133.109,35.981C130.774,35.981 128.007,36.166 127.396,36.166C126.659,36.166 123.157,35.981 120.208,35.981C119.228,35.981 118.61,36.043 118.61,36.411C118.61,36.657 118.733,36.843 119.101,36.843C119.471,36.843 120.515,36.843 121.436,37.087C123.582,37.701 124.505,38.377 125.858,41.817L140.909,79.475C142.076,82.422 142.383,83.284 143.12,83.284C143.734,83.284 143.98,82.305 145.7,78.615C147.114,75.604 149.878,68.97 153.626,60.001C156.759,52.445 159.831,45.073 160.506,43.355C162.164,39.177 163.086,38.132 163.884,37.58C165.051,36.846 166.405,36.846 166.833,36.846C167.324,36.846 167.57,36.723 167.57,36.413C167.57,36.105 167.202,35.983 166.526,35.983C164.745,35.983 162.103,36.168 161.734,36.168C160.997,36.168 158.171,35.983 155.713,35.983C154.733,35.983 154.361,36.106 154.361,36.475C154.361,36.781 154.668,36.842 155.037,36.842C155.713,36.842 156.634,36.842 157.371,37.086C157.986,37.397 158.17,38.01 158.17,38.499C158.17,39.055 157.924,39.913 157.617,40.834C156.266,45.259 148.034,66.696 144.471,74.932L132.678,43.482ZM339.006,75.673C337.902,78.744 336.672,81.079 333.844,81.447C333.357,81.509 332.494,81.569 332.066,81.569C331.756,81.569 331.51,81.693 331.51,81.938C331.51,82.307 331.879,82.43 332.678,82.43C335.568,82.43 338.947,82.242 339.619,82.242C340.291,82.242 342.937,82.43 344.41,82.43C344.965,82.43 345.332,82.307 345.332,81.938C345.332,81.693 345.148,81.569 344.719,81.569L344.106,81.569C343.059,81.569 341.77,81.017 341.77,79.789C341.77,78.685 342.08,77.209 342.631,75.673L346.319,64.799C346.442,64.491 346.626,64.31 346.929,64.31L360.138,64.31C360.448,64.31 360.571,64.434 360.692,64.677L366.407,79.789C366.773,80.771 366.407,81.324 366.038,81.447C365.792,81.509 365.608,81.632 365.608,81.877C365.608,82.245 366.284,82.245 367.45,82.311C371.689,82.434 376.175,82.434 377.096,82.434C377.772,82.434 378.325,82.311 378.325,81.942C378.325,81.632 378.079,81.573 377.71,81.573C377.097,81.573 376.175,81.511 375.253,81.206C373.962,80.837 372.181,79.853 369.97,74.386C366.222,65.049 356.577,39.678 355.658,37.343C354.922,35.442 354.678,35.132 354.304,35.132C353.939,35.132 353.694,35.501 352.954,37.528L339.006,75.673ZM347.605,62.096C347.418,62.096 347.295,61.973 347.418,61.662L352.824,45.076C353.131,44.155 353.437,44.155 353.744,45.076L359.58,61.662C359.642,61.909 359.642,62.096 359.336,62.096L347.605,62.096ZM362.517,41.695C364.177,41.695 365.22,40.466 365.22,38.869C365.22,37.334 364.054,36.412 362.579,36.412C360.675,36.412 359.936,37.947 359.936,39.053C359.939,40.221 360.677,41.695 362.517,41.695ZM346.76,41.695C348.418,41.695 349.463,40.466 349.463,38.869C349.463,37.334 348.295,36.412 346.82,36.412C344.916,36.412 344.176,37.947 344.176,39.053C344.177,40.221 344.916,41.695 346.76,41.695ZM111.326,53.802C111.326,44.218 111.326,42.498 111.45,40.532C111.573,38.382 112.064,37.338 113.722,37.031C114.457,36.907 114.826,36.846 115.256,36.846C115.502,36.846 115.747,36.723 115.747,36.478C115.747,36.108 115.439,35.986 114.767,35.986C112.921,35.986 109.055,36.171 108.746,36.171C108.439,36.171 104.568,35.986 102.542,35.986C101.866,35.986 101.562,36.109 101.562,36.478C101.562,36.723 101.808,36.846 102.05,36.846C102.483,36.846 103.279,36.907 103.955,37.089C105.309,37.4 105.92,38.443 106.043,40.529C106.166,42.495 106.166,44.215 106.166,53.799L106.166,64.611C106.166,70.507 106.166,75.361 105.86,77.942C105.614,79.724 105.307,81.076 104.078,81.321C103.525,81.444 102.788,81.566 102.235,81.566C101.866,81.566 101.744,81.752 101.744,81.935C101.744,82.304 102.051,82.426 102.726,82.426C104.569,82.426 108.439,82.238 108.747,82.238C109.058,82.238 112.924,82.426 116.306,82.426C116.982,82.426 117.285,82.238 117.285,81.935C117.285,81.748 117.162,81.566 116.794,81.566C116.241,81.566 114.893,81.444 114.03,81.321C112.187,81.076 111.819,79.724 111.634,77.942C111.327,75.362 111.327,70.507 111.327,64.611L111.326,53.802ZM55.489,44.649C57.455,46.86 64.385,54.601 71.499,62.28C78,69.284 86.831,78.314 87.506,78.929C90.773,82.185 91.516,82.861 92.008,82.861C92.445,82.861 92.569,82.55 92.569,78.499L92.689,42.5C92.689,38.814 92.935,37.462 94.96,37.033C95.697,36.848 96.127,36.848 96.438,36.848C96.867,36.848 97.114,36.66 97.114,36.415C97.114,36.046 96.684,35.985 96.008,35.985C93.489,35.985 91.453,36.17 90.775,36.17C90.09,36.17 87.143,35.985 84.38,35.985C83.647,35.985 83.154,36.047 83.154,36.415C83.154,36.661 83.215,36.848 83.644,36.848C84.132,36.848 85.542,36.909 86.649,37.156C88.547,37.647 88.979,38.999 89.041,42.991L89.719,74.199C87.753,72.172 81.071,64.678 74.996,58.165C65.55,48.028 56.412,38.138 55.489,37.093C54.869,36.482 53.817,35.127 53.322,35.127C52.827,35.127 52.641,35.803 52.641,38.199L52.579,73.399C52.579,78.99 52.272,80.771 50.735,81.202C49.814,81.509 48.708,81.569 48.214,81.569C47.907,81.569 47.726,81.693 47.726,81.938C47.726,82.369 48.091,82.43 48.706,82.43C51.474,82.43 54.062,82.242 54.619,82.242C55.179,82.242 57.639,82.43 61.132,82.43C61.868,82.43 62.236,82.307 62.236,81.938C62.236,81.693 62.051,81.569 61.746,81.569C61.194,81.569 59.848,81.507 58.683,81.202C57.027,80.71 56.412,79.113 56.288,74.076L55.489,44.649ZM5.344,62.772C5.344,71.74 7.679,76.041 10.689,78.929C15.047,83.041 21.252,83.287 23.344,83.287C26.969,83.287 31.573,82.674 35.996,78.741C40.911,74.379 41.647,67.008 41.647,60.373L41.647,53.8C41.647,44.216 41.647,42.496 41.77,40.53C41.893,38.38 42.385,37.398 44.041,37.029C44.778,36.905 45.147,36.843 45.577,36.843C45.824,36.843 46.069,36.721 46.069,36.476C46.069,36.106 45.761,35.984 45.086,35.984C43.243,35.984 40.357,36.169 39.929,36.169C39.56,36.169 36.181,35.984 33.414,35.984C32.738,35.984 32.435,36.107 32.435,36.476C32.435,36.721 32.681,36.843 32.924,36.843C33.479,36.843 34.523,36.905 35.014,37.029C37.039,37.458 37.533,38.442 37.656,40.53C37.779,42.496 37.779,44.216 37.779,53.8L37.779,61.482C37.779,67.81 37.042,73.031 34.216,76.532C32.005,79.174 28.32,80.956 24.571,80.956C21.07,80.956 18.305,80.402 15.295,77.577C12.653,75.057 10.691,71.249 10.691,62.403L10.691,53.8C10.691,44.216 10.691,42.496 10.814,40.53C10.937,38.38 11.425,37.275 13.085,37.029C13.822,36.905 14.191,36.844 14.62,36.844C14.866,36.844 15.112,36.721 15.112,36.476C15.112,36.106 14.804,35.984 14.129,35.984C12.286,35.984 8.604,36.169 8.047,36.169C7.493,36.169 3.746,35.984 0.985,35.984C0.307,35.987 0,36.11 0,36.479C0,36.724 0.246,36.847 0.491,36.847C1.044,36.847 2.088,36.908 2.579,37.032C4.607,37.461 5.1,38.445 5.224,40.533C5.347,42.499 5.347,44.219 5.347,53.803L5.344,62.772ZM224.932,61.463C231.339,59.705 235.659,54.357 235.659,47.092C235.659,43.753 233.895,40.918 232.509,39.595C231.501,38.653 228.665,36.004 220.792,36.004C217.896,36.004 212.548,36.198 210.88,36.198C210.157,36.198 206.704,36.014 203.942,36.014C203.267,36.014 202.96,36.137 202.96,36.503C202.96,36.749 203.206,36.871 203.451,36.871C204.004,36.871 205.047,36.933 205.538,37.059C207.565,37.488 208.059,38.471 208.182,40.558C208.305,42.523 208.305,44.242 208.305,53.821L208.305,64.627C208.305,70.523 208.305,75.373 207.995,77.95C207.749,79.732 207.44,81.083 206.213,81.328C205.66,81.451 204.924,81.574 204.371,81.574C204.003,81.574 203.88,81.758 203.88,81.941C203.88,82.311 204.19,82.433 204.862,82.433C206.703,82.433 210.573,82.245 210.633,82.245C210.943,82.245 214.812,82.433 218.189,82.433C218.865,82.433 219.168,82.245 219.168,81.941C219.168,81.754 219.045,81.574 218.676,81.574C218.123,81.574 216.777,81.451 215.914,81.328C214.072,81.083 213.703,79.732 213.519,77.95C213.207,75.373 213.207,70.522 213.207,64.627L213.207,63.153C213.207,62.846 213.33,62.662 213.642,62.662L219.599,62.755C219.965,62.755 220.289,62.901 220.41,63.153C221.347,65.193 222.638,68.638 224.49,72.443C227.025,77.641 227.465,79.945 230.105,81.357C231.701,82.214 233.375,82.433 236.812,82.433L239.771,82.433C240.875,82.433 241.246,82.311 241.246,81.941C241.246,81.754 241,81.565 240.693,81.574C240.086,81.59 239.068,81.419 237.904,81.213C236.908,81.037 234.002,80.332 232.209,76.97C229.965,72.763 227.381,66.645 224.932,61.463ZM107.713,98.126C107.713,96.474 106.487,95.433 104.897,95.433C103.365,95.433 102.446,96.594 102.446,98.068C102.446,99.964 103.978,100.702 105.081,100.702C106.242,100.698 107.713,99.964 107.713,98.126ZM107.713,110.441C107.713,108.786 106.487,107.745 104.897,107.745C103.365,107.745 102.446,108.909 102.446,110.38C102.446,112.279 103.978,113.018 105.081,113.018C106.242,113.015 107.713,112.279 107.713,110.441ZM85.81,121.268C85.81,130.21 88.139,134.499 91.141,137.378C95.491,141.483 101.68,141.732 103.763,141.732C107.375,141.732 111.973,141.12 116.382,137.198C121.284,132.848 122.022,125.495 122.022,118.878L122.022,112.323C122.022,102.763 122.022,101.049 122.145,99.087C122.267,96.942 122.755,95.963 124.412,95.599C125.147,95.476 125.516,95.411 125.943,95.411C126.189,95.411 126.434,95.289 126.434,95.044C126.434,94.676 126.124,94.555 125.454,94.555C123.616,94.555 120.736,94.741 120.308,94.741C119.94,94.741 116.57,94.555 113.813,94.555C113.139,94.555 112.833,94.676 112.833,95.044C112.833,95.289 113.078,95.411 113.323,95.411C113.875,95.411 114.916,95.473 115.406,95.599C117.427,96.027 117.918,97.005 118.041,99.087C118.164,101.049 118.164,102.767 118.164,112.323L118.164,119.981C118.164,126.292 117.432,131.501 114.61,134.993C112.404,137.628 108.728,139.404 104.99,139.404C101.498,139.404 98.74,138.853 95.738,136.034C93.103,133.522 91.143,129.723 91.143,120.9L91.143,112.323C91.143,102.763 91.143,101.049 91.265,99.087C91.388,96.942 91.875,95.841 93.533,95.599C94.268,95.476 94.636,95.411 95.064,95.411C95.309,95.411 95.555,95.289 95.555,95.044C95.555,94.676 95.245,94.555 94.575,94.555C92.737,94.555 89.061,94.741 88.509,94.741C87.957,94.741 84.219,94.555 81.462,94.555C80.788,94.555 80.483,94.676 80.483,95.044C80.483,95.289 80.728,95.411 80.973,95.411C81.525,95.411 82.566,95.473 83.056,95.599C85.077,96.027 85.568,97.005 85.691,99.087C85.814,101.049 85.814,102.767 85.814,112.323L85.814,121.268L85.81,121.268ZM60.018,97.193L67.724,97.315C73.596,97.438 75.063,98.847 75.245,100.685L75.307,101.36C75.369,102.214 75.495,102.401 75.808,102.401C76.058,102.401 76.246,102.156 76.246,101.604C76.246,100.93 76.434,96.702 76.434,94.864C76.434,94.498 76.434,94.13 76.121,94.13C75.871,94.13 75.309,94.317 74.392,94.439C73.413,94.623 72.004,94.746 70.047,94.746L47.087,94.746C46.355,94.746 44.025,94.623 42.247,94.439C40.594,94.317 39.98,93.705 39.555,93.705C39.309,93.705 39.064,94.502 38.942,94.868C38.819,95.358 37.591,100.628 37.591,101.241C37.591,101.608 37.714,101.793 37.901,101.793C38.146,101.793 38.33,101.67 38.513,101.182C38.697,100.752 38.879,100.326 39.555,99.285C40.534,97.814 42.003,97.385 45.801,97.323L54.87,97.201L54.87,123.118C54.87,129.002 54.87,133.842 54.563,136.414C54.318,138.192 54.012,139.54 52.786,139.785C52.236,139.907 51.5,140.03 50.948,140.03C50.58,140.03 50.458,140.214 50.458,140.397C50.458,140.762 50.768,140.885 51.438,140.885C53.276,140.885 57.134,140.699 57.442,140.699C57.748,140.699 61.605,140.885 64.967,140.885C65.642,140.885 65.946,140.699 65.946,140.397C65.946,140.21 65.823,140.03 65.457,140.03C64.906,140.03 63.561,139.907 62.704,139.785C60.869,139.54 60.502,138.192 60.319,136.414C60.013,133.842 60.013,129.002 60.013,123.118L60.013,97.193L60.018,97.193ZM331.896,103.198C333.857,105.403 340.766,113.124 347.865,120.782C354.346,127.767 363.156,136.775 363.83,137.386C367.086,140.634 367.826,141.311 368.32,141.311C368.754,141.311 368.877,141.002 368.877,136.957L369,101.052C369,97.376 369.244,96.031 371.268,95.603C372.002,95.415 372.432,95.415 372.742,95.415C373.17,95.415 373.414,95.231 373.414,94.986C373.414,94.618 372.986,94.556 372.31,94.556C369.798,94.556 367.767,94.741 367.087,94.741C366.407,94.741 363.464,94.556 360.712,94.556C359.978,94.556 359.489,94.618 359.489,94.986C359.489,95.231 359.55,95.415 359.974,95.415C360.464,95.415 361.87,95.477 362.97,95.725C364.866,96.212 365.294,97.563 365.36,101.542L366.036,132.668C364.077,130.647 357.407,123.172 351.349,116.677C341.929,106.57 332.819,96.701 331.897,95.66C331.28,95.048 330.227,93.7 329.735,93.7C329.243,93.7 329.054,94.374 329.054,96.763L328.992,131.868C328.992,137.444 328.683,139.222 327.154,139.649C326.234,139.956 325.133,140.017 324.637,140.017C324.332,140.017 324.15,140.139 324.15,140.382C324.15,140.813 324.517,140.872 325.129,140.872C327.885,140.872 330.471,140.686 331.025,140.686C331.582,140.686 334.035,140.872 337.521,140.872C338.252,140.872 338.621,140.749 338.621,140.382C338.621,140.139 338.439,140.017 338.133,140.017C337.582,140.017 336.238,139.955 335.074,139.649C333.424,139.16 332.812,137.566 332.689,132.543L331.896,103.198ZM296.123,123.11C296.123,128.994 296.123,133.834 295.816,136.406C295.572,138.184 295.265,139.532 294.039,139.777C293.488,139.899 292.752,140.022 292.201,140.022C291.834,140.022 291.711,140.206 291.711,140.389C291.711,140.754 292.021,140.877 292.691,140.877C293.609,140.877 295.019,140.754 296.244,140.754C297.531,140.692 298.574,140.692 298.697,140.692C299.615,140.692 301.086,140.754 303.473,140.878C305.865,140.94 309.234,141.064 313.827,141.064C316.216,141.064 316.708,141.064 317.136,139.467C317.446,138.185 317.933,134.018 317.933,133.528C317.933,133.099 317.933,132.608 317.569,132.608C317.259,132.608 317.136,132.853 317.013,133.528C316.585,136.04 315.849,137.265 314.257,137.94C312.663,138.614 309.968,138.614 308.374,138.614C302.37,138.614 301.45,137.817 301.267,133.59C301.206,132.305 301.267,125.194 301.267,123.111L301.267,117.716C301.267,117.474 301.39,117.287 301.698,117.287C302.741,117.287 308.804,117.409 310.462,117.597C312.851,117.839 313.403,118.88 313.65,119.742C313.893,120.539 313.893,121.151 313.893,121.763C313.893,122.071 314.014,122.316 314.324,122.316C314.752,122.316 314.752,121.641 314.752,121.152C314.752,120.723 314.875,118.456 314.998,117.23C315.182,115.209 315.488,114.167 315.488,113.796C315.488,113.431 315.367,113.308 315.178,113.308C314.934,113.308 314.69,113.616 314.26,114.105C313.707,114.716 312.85,114.838 311.379,114.96C309.971,115.083 302.434,115.083 301.637,115.083C301.33,115.083 301.27,114.898 301.27,114.474L301.27,97.561C301.27,97.129 301.393,96.949 301.637,96.949C302.315,96.949 308.991,97.011 310.033,97.133C313.342,97.5 313.955,98.237 314.383,99.216C314.693,99.952 314.75,100.993 314.75,101.421C314.75,101.912 314.873,102.219 315.242,102.219C315.486,102.219 315.609,101.854 315.67,101.544C315.793,100.812 315.916,98.112 315.977,97.5C316.164,95.785 316.467,95.05 316.467,94.62C316.467,94.314 316.406,94.069 316.221,94.069C315.916,94.069 315.67,94.314 315.367,94.376C314.875,94.499 313.893,94.62 312.731,94.685C311.322,94.747 299.127,94.747 298.701,94.747L296.187,94.624C294.836,94.562 293.185,94.562 291.775,94.562C291.101,94.562 290.796,94.685 290.796,95.05C290.796,95.295 291.04,95.417 291.284,95.417C291.837,95.417 292.878,95.479 293.368,95.605C295.389,96.033 295.88,97.011 296.003,99.094C296.126,101.054 296.126,102.773 296.126,112.328L296.126,123.11L296.123,123.11ZM276.944,135.668C276.944,136.709 276.514,137.383 275.716,137.814C274.122,138.733 270.94,139.1 268.735,139.1C263.098,139.1 257.522,137.259 252.682,132.541C250.536,130.457 246.186,124.208 246.186,115.568C246.186,108.4 248.698,102.824 252.249,100.005C256.905,96.329 261.501,95.962 265.36,95.962C273.264,95.962 278.227,98.599 279.76,100.925C280.678,102.399 280.985,104.113 281.042,104.972C281.104,105.523 281.165,105.891 281.475,105.891C281.903,105.891 282.026,105.581 282.026,104.604C282.026,98.477 282.456,96.759 282.456,95.904C282.456,95.658 282.333,95.414 281.723,95.351C280.192,95.289 278.044,95.042 276.758,94.74C275.597,94.495 271.244,93.698 267.383,93.698C262.666,93.698 256.603,94.128 251.086,97.558C245.633,100.99 240.857,107.912 240.857,117.713C240.857,125.372 244.41,131.931 248.148,135.175C254.949,141.118 263.65,141.735 268.306,141.735C271.861,141.735 277.371,141.061 281.293,138.978C282.027,138.545 282.088,138.422 282.088,135.666L282.088,128.806C282.088,126.233 282.088,124.395 282.211,122.434C282.334,120.288 282.824,119.246 284.482,118.942C285.213,118.82 285.586,118.754 286.013,118.754C286.254,118.754 286.5,118.632 286.5,118.39C286.5,118.023 286.195,117.9 285.521,117.9C283.683,117.9 279.824,118.084 279.517,118.084C279.207,118.084 275.351,117.9 272.592,117.9C271.917,117.9 271.613,118.023 271.613,118.39C271.613,118.632 271.859,118.754 272.103,118.754C272.654,118.754 273.697,118.817 274.187,118.942C276.636,119.616 276.943,120.291 276.943,125.254L276.944,135.668ZM195.759,103.198C197.723,105.403 204.632,113.124 211.73,120.782C218.211,127.767 227.023,136.775 227.695,137.386C230.951,140.634 231.693,141.311 232.185,141.311C232.619,141.311 232.742,141.002 232.742,136.957L232.865,101.052C232.865,97.376 233.109,96.031 235.133,95.603C235.867,95.415 236.297,95.415 236.607,95.415C237.035,95.415 237.281,95.231 237.281,94.986C237.281,94.618 236.851,94.556 236.177,94.556C233.665,94.556 231.634,94.741 230.954,94.741C230.274,94.741 227.331,94.556 224.579,94.556C223.845,94.556 223.356,94.618 223.356,94.986C223.356,95.231 223.417,95.415 223.841,95.415C224.331,95.415 225.737,95.477 226.839,95.725C228.735,96.212 229.163,97.563 229.229,101.542L229.903,132.668C227.944,130.647 221.276,123.172 215.216,116.677C205.797,106.57 196.685,96.701 195.761,95.66C195.146,95.048 194.093,93.7 193.602,93.7C193.109,93.7 192.921,94.374 192.921,96.763L192.859,131.868C192.859,137.444 192.549,139.222 191.02,139.649C190.101,139.956 188.999,140.017 188.505,140.017C188.199,140.017 188.018,140.139 188.018,140.382C188.018,140.813 188.382,140.872 188.997,140.872C191.754,140.872 194.339,140.686 194.894,140.686C195.449,140.686 197.903,140.872 201.39,140.872C202.121,140.872 202.491,140.749 202.491,140.382C202.491,140.139 202.307,140.017 202.002,140.017C201.451,140.017 200.106,139.955 198.944,139.649C197.292,139.16 196.677,137.566 196.558,132.543L195.759,103.198ZM177.204,112.327C177.204,102.768 177.204,101.053 177.328,99.093C177.451,96.948 177.94,95.906 179.594,95.604C180.33,95.481 180.698,95.416 181.126,95.416C181.371,95.416 181.616,95.294 181.616,95.049C181.616,94.684 181.309,94.561 180.635,94.561C178.797,94.561 174.941,94.746 174.631,94.746C174.324,94.746 170.464,94.561 168.443,94.561C167.769,94.561 167.463,94.684 167.463,95.049C167.463,95.294 167.708,95.416 167.953,95.416C168.382,95.416 169.182,95.478 169.852,95.661C171.201,95.968 171.813,97.01 171.935,99.093C172.058,101.053 172.058,102.772 172.058,112.327L172.058,123.11C172.058,128.994 172.058,133.834 171.749,136.406C171.504,138.184 171.198,139.532 169.975,139.777C169.42,139.899 168.689,140.022 168.137,140.022C167.769,140.022 167.647,140.206 167.647,140.389C167.647,140.754 167.953,140.877 168.626,140.877C170.464,140.877 174.325,140.691 174.631,140.691C174.94,140.691 178.797,140.877 182.167,140.877C182.841,140.877 183.147,140.691 183.147,140.389C183.147,140.202 183.024,140.022 182.657,140.022C182.105,140.022 180.758,139.899 179.9,139.777C178.062,139.532 177.694,138.184 177.507,136.406C177.2,133.834 177.2,128.994 177.2,123.11L177.204,112.327ZM136.265,123.11C136.265,128.994 136.265,133.834 135.956,136.406C135.711,138.184 135.404,139.532 134.182,139.777C133.627,139.899 132.895,140.022 132.342,140.022C131.977,140.022 131.854,140.206 131.854,140.389C131.854,140.754 132.16,140.877 132.833,140.877C133.752,140.877 135.162,140.754 136.389,140.754C137.674,140.692 138.715,140.692 138.838,140.692C139.083,140.692 140.798,140.754 142.576,140.878C144.352,140.94 146.313,141.064 146.987,141.064C157.465,141.064 162.612,134.263 162.612,127.707C162.612,120.539 156.546,116.189 152.012,114.778C154.891,111.777 157.772,108.774 157.772,103.75C157.772,100.688 155.566,94.562 145.517,94.562C142.699,94.562 140.309,94.747 138.836,94.747C138.529,94.747 134.669,94.562 131.912,94.562C131.238,94.562 130.933,94.685 130.933,95.05C130.933,95.295 131.178,95.417 131.42,95.417C131.975,95.417 133.016,95.479 133.503,95.605C135.525,96.033 136.018,97.011 136.141,99.094C136.264,101.056 136.264,102.773 136.264,112.328L136.264,123.11L136.265,123.11ZM141.167,97.254C141.167,96.89 141.354,96.702 141.903,96.58C142.882,96.335 144.17,96.273 144.841,96.273C150.849,96.273 153.113,101.727 153.113,106.813C153.113,109.325 152.194,111.531 150.907,113.001C149.62,114.475 148.762,114.594 145.331,114.594C143.063,114.594 141.96,114.409 141.596,114.352C141.286,114.229 141.164,114.106 141.164,113.675L141.167,97.254ZM141.167,116.677C141.167,116.37 141.29,116.247 141.535,116.247C142.454,116.247 145.517,116.247 146.313,116.37C147.784,116.558 149.316,116.737 151.399,118.147C156.116,121.394 157.339,126.725 157.339,130.401C157.339,137.326 152.011,139.101 148.699,139.101C147.596,139.101 144.962,138.979 143.307,138.183C141.407,137.263 141.407,136.405 141.224,133.403C141.162,132.484 141.162,124.887 141.162,120.168L141.162,116.677L141.167,116.677ZM112.615,14.705C112.615,17.646 112.615,20.066 112.462,21.353C112.34,22.242 112.189,22.915 111.573,23.038C111.297,23.1 110.93,23.161 110.654,23.161C110.47,23.161 110.409,23.253 110.409,23.345C110.409,23.533 110.562,23.591 110.899,23.591C111.358,23.591 112.064,23.53 112.673,23.53C113.319,23.499 113.838,23.499 113.902,23.499C114.361,23.499 115.097,23.53 116.292,23.591C117.487,23.621 119.171,23.686 121.469,23.686C122.664,23.686 122.909,23.686 123.123,22.886C123.276,22.243 123.521,20.16 123.521,19.914C123.521,19.7 123.521,19.455 123.334,19.455C123.183,19.455 123.119,19.578 123.061,19.914C122.846,21.17 122.479,21.783 121.682,22.12C120.886,22.457 119.536,22.457 118.741,22.457C115.739,22.457 115.279,22.061 115.187,19.945C115.156,19.299 115.187,15.747 115.187,14.706L115.187,12.01C115.187,11.89 115.249,11.796 115.401,11.796C115.922,11.796 118.955,11.858 119.782,11.949C120.977,12.072 121.253,12.592 121.375,13.021C121.498,13.417 121.498,13.726 121.498,14.032C121.498,14.185 121.56,14.308 121.712,14.308C121.926,14.308 121.926,13.971 121.926,13.726C121.926,13.508 121.988,12.375 122.049,11.766C122.144,10.752 122.294,10.234 122.294,10.047C122.294,9.863 122.233,9.804 122.144,9.804C122.022,9.804 121.899,9.954 121.685,10.2C121.41,10.507 120.981,10.568 120.246,10.629C119.541,10.691 115.773,10.691 115.375,10.691C115.224,10.691 115.191,10.599 115.191,10.382L115.191,1.93C115.191,1.713 115.253,1.62 115.375,1.62C115.712,1.62 119.051,1.651 119.572,1.712C121.226,1.899 121.532,2.266 121.747,2.754C121.9,3.122 121.934,3.646 121.934,3.858C121.934,4.104 121.995,4.254 122.177,4.254C122.299,4.254 122.364,4.07 122.394,3.917C122.455,3.549 122.516,2.201 122.544,1.896C122.636,1.038 122.789,0.668 122.789,0.456C122.789,0.306 122.758,0.183 122.666,0.183C122.514,0.183 122.393,0.306 122.237,0.333C121.991,0.395 121.502,0.456 120.92,0.486C120.215,0.517 114.119,0.517 113.904,0.517L112.648,0.455C111.974,0.424 111.147,0.424 110.442,0.424C110.105,0.424 109.952,0.486 109.952,0.67C109.952,0.793 110.075,0.857 110.197,0.857C110.473,0.857 110.993,0.887 111.239,0.949C112.25,1.163 112.495,1.653 112.556,2.695C112.617,3.674 112.617,4.533 112.617,9.313L112.615,14.705ZM76.182,14.705C76.182,17.646 76.182,20.066 76.029,21.353C75.906,22.242 75.753,22.915 75.14,23.038C74.864,23.1 74.494,23.161 74.221,23.161C74.034,23.161 73.976,23.253 73.976,23.345C73.976,23.533 74.126,23.591 74.463,23.591C74.922,23.591 75.628,23.53 76.24,23.53C76.886,23.499 77.405,23.499 77.466,23.499C77.928,23.499 78.661,23.53 79.859,23.591C81.054,23.621 82.739,23.686 85.036,23.686C86.231,23.686 86.476,23.686 86.69,22.886C86.84,22.243 87.086,20.16 87.086,19.914C87.086,19.7 87.086,19.455 86.902,19.455C86.749,19.455 86.687,19.578 86.626,19.914C86.411,21.17 86.044,21.783 85.248,22.12C84.451,22.457 83.103,22.457 82.31,22.457C79.308,22.457 78.848,22.061 78.753,19.945C78.726,19.299 78.753,15.747 78.753,14.706L78.753,12.01C78.753,11.89 78.815,11.796 78.967,11.796C79.488,11.796 82.524,11.858 83.351,11.949C84.543,12.072 84.822,12.592 84.944,13.021C85.066,13.417 85.066,13.726 85.066,14.032C85.066,14.185 85.128,14.308 85.281,14.308C85.495,14.308 85.495,13.971 85.495,13.726C85.495,13.508 85.557,12.375 85.618,11.766C85.71,10.752 85.864,10.234 85.864,10.047C85.864,9.863 85.802,9.804 85.711,9.804C85.588,9.804 85.466,9.954 85.252,10.2C84.979,10.507 84.547,10.568 83.814,10.629C83.109,10.691 79.338,10.691 78.943,10.691C78.79,10.691 78.756,10.599 78.756,10.382L78.756,1.93C78.756,1.713 78.818,1.62 78.943,1.62C79.28,1.62 82.619,1.651 83.14,1.712C84.791,1.899 85.1,2.266 85.315,2.754C85.465,3.122 85.499,3.646 85.499,3.858C85.499,4.104 85.561,4.254 85.745,4.254C85.868,4.254 85.93,4.07 85.959,3.917C86.021,3.549 86.082,2.201 86.112,1.896C86.204,1.038 86.357,0.668 86.357,0.456C86.357,0.306 86.327,0.183 86.234,0.183C86.081,0.183 85.958,0.306 85.802,0.333C85.56,0.395 85.07,0.456 84.488,0.486C83.78,0.52 77.684,0.52 77.469,0.52L76.211,0.458C75.537,0.427 74.71,0.427 74.005,0.427C73.668,0.427 73.518,0.489 73.518,0.673C73.518,0.796 73.64,0.86 73.763,0.86C74.036,0.86 74.56,0.89 74.805,0.952C75.816,1.166 76.061,1.656 76.119,2.698C76.181,3.677 76.181,4.536 76.181,9.316L76.181,14.705L76.182,14.705ZM93.634,14.705C93.634,17.646 93.634,20.066 93.484,21.353C93.361,22.242 93.208,22.915 92.592,23.038C92.319,23.1 91.949,23.161 91.673,23.161C91.489,23.161 91.431,23.253 91.431,23.345C91.431,23.533 91.58,23.591 91.918,23.591C92.377,23.591 93.083,23.53 93.695,23.53C94.339,23.499 94.859,23.499 94.921,23.499C95.044,23.499 95.901,23.53 96.79,23.591C97.682,23.621 98.659,23.686 98.996,23.686C104.235,23.686 106.809,20.286 106.809,17.004C106.809,13.42 103.776,11.245 101.506,10.54C102.946,9.039 104.389,7.538 104.389,5.026C104.389,3.494 103.285,0.43 98.261,0.43C96.852,0.43 95.657,0.522 94.919,0.522C94.769,0.522 92.836,0.43 91.457,0.43C91.12,0.43 90.97,0.492 90.97,0.673C90.97,0.796 91.09,0.86 91.212,0.86C91.488,0.86 92.011,0.89 92.254,0.952C93.268,1.166 93.513,1.656 93.571,2.698C93.632,3.677 93.632,4.536 93.632,9.316L93.634,14.705ZM96.085,1.777C96.085,1.59 96.177,1.501 96.453,1.44C96.943,1.317 97.587,1.287 97.923,1.287C100.925,1.287 102.062,4.016 102.062,6.558C102.062,7.814 101.603,8.914 100.958,9.652C100.314,10.384 99.886,10.449 98.17,10.449C97.036,10.449 96.484,10.357 96.301,10.326C96.151,10.264 96.087,10.203 96.087,9.989L96.085,1.777ZM96.085,11.489C96.085,11.336 96.147,11.274 96.272,11.274C96.731,11.274 98.26,11.274 98.661,11.336C99.396,11.428 100.162,11.523 101.204,12.228C103.563,13.852 104.176,16.517 104.176,18.355C104.176,21.817 101.51,22.705 99.859,22.705C99.307,22.705 97.99,22.644 97.163,22.246C96.213,21.787 96.213,21.357 96.121,19.856C96.09,19.397 96.09,15.598 96.09,13.238L96.085,11.489ZM166.893,9.313C166.893,4.534 166.893,3.673 166.954,2.695C167.016,1.623 167.264,1.102 168.088,0.949C168.456,0.887 168.643,0.857 168.857,0.857C168.98,0.857 169.103,0.795 169.103,0.67C169.103,0.486 168.95,0.424 168.613,0.424C167.694,0.424 165.76,0.519 165.611,0.519C165.458,0.519 163.528,0.424 162.149,0.424C161.812,0.424 161.659,0.486 161.659,0.67C161.659,0.793 161.782,0.857 161.904,0.857C162.177,0.857 162.701,0.887 162.946,0.949C163.957,1.163 164.202,1.653 164.26,2.695C164.322,3.674 164.322,4.533 164.322,9.313L164.322,9.956C164.322,10.109 164.23,10.143 164.138,10.143L151.149,10.143C151.057,10.143 150.962,10.112 150.962,9.956L150.962,9.313C150.962,4.534 150.962,3.673 151.024,2.695C151.085,1.623 151.33,1.102 152.157,0.949C152.525,0.887 152.708,0.857 152.923,0.857C153.046,0.857 153.168,0.795 153.168,0.67C153.168,0.486 153.017,0.424 152.68,0.424C151.758,0.424 149.828,0.519 149.676,0.519C149.525,0.519 147.595,0.424 146.213,0.424C145.876,0.424 145.726,0.486 145.726,0.67C145.726,0.793 145.848,0.857 145.971,0.857C146.244,0.857 146.767,0.887 147.013,0.949C148.024,1.163 148.269,1.653 148.327,2.695C148.389,3.674 148.389,4.533 148.389,9.313L148.389,14.705C148.389,17.646 148.389,20.066 148.236,21.353C148.114,22.242 147.96,22.915 147.347,23.038C147.072,23.1 146.701,23.161 146.428,23.161C146.241,23.161 146.183,23.253 146.183,23.345C146.183,23.533 146.333,23.591 146.67,23.591C147.589,23.591 149.522,23.499 149.672,23.499C149.825,23.499 151.755,23.591 153.443,23.591C153.78,23.591 153.933,23.499 153.933,23.345C153.933,23.254 153.871,23.161 153.688,23.161C153.412,23.161 152.739,23.1 152.31,23.038C151.391,22.916 151.206,22.242 151.115,21.353C150.962,20.066 150.962,17.646 150.962,14.705L150.962,11.489C150.962,11.336 151.057,11.305 151.149,11.305L164.138,11.305C164.23,11.305 164.322,11.367 164.322,11.489L164.322,14.705C164.322,17.646 164.322,20.066 164.169,21.353C164.046,22.242 163.897,22.915 163.281,23.038C163.005,23.1 162.635,23.161 162.362,23.161C162.175,23.161 162.117,23.253 162.117,23.345C162.117,23.533 162.27,23.591 162.607,23.591C163.526,23.591 165.456,23.499 165.609,23.499C165.76,23.499 167.692,23.591 169.378,23.591C169.714,23.591 169.868,23.499 169.868,23.345C169.868,23.254 169.807,23.161 169.623,23.161C169.35,23.161 168.673,23.1 168.245,23.038C167.326,22.916 167.142,22.242 167.05,21.353C166.9,20.066 166.9,17.646 166.9,14.705L166.9,9.313L166.893,9.313ZM205.009,13.127C208.208,12.25 210.363,9.58 210.363,5.957C210.363,4.29 209.484,2.876 208.793,2.216C208.289,1.745 206.876,0.424 202.946,0.424C201.501,0.424 198.833,0.524 198.001,0.524C197.643,0.524 195.917,0.432 194.539,0.432C194.202,0.432 194.049,0.494 194.049,0.675C194.049,0.798 194.172,0.862 194.294,0.862C194.57,0.862 195.091,0.892 195.336,0.954C196.349,1.168 196.592,1.658 196.653,2.7C196.715,3.679 196.715,4.538 196.715,9.318L196.715,14.71C196.715,17.651 196.715,20.071 196.565,21.358C196.442,22.247 196.289,22.92 195.673,23.043C195.4,23.105 195.029,23.166 194.754,23.166C194.57,23.166 194.509,23.258 194.509,23.353C194.509,23.538 194.662,23.596 194.999,23.596C195.918,23.596 197.85,23.504 197.879,23.504C198.032,23.504 199.962,23.596 201.65,23.596C201.987,23.596 202.139,23.504 202.139,23.353C202.139,23.259 202.077,23.166 201.895,23.166C201.62,23.166 200.945,23.105 200.517,23.043C199.595,22.921 199.413,22.247 199.322,21.358C199.169,20.071 199.169,17.651 199.169,14.71L199.169,13.975C199.169,13.823 199.231,13.731 199.383,13.731L202.359,13.777C202.543,13.777 202.705,13.846 202.76,13.975C203.228,14.994 203.869,16.71 204.796,18.611C206.064,21.205 206.28,22.355 207.6,23.058C208.396,23.488 209.232,23.593 210.949,23.593L212.426,23.593C212.979,23.593 213.16,23.532 213.16,23.348C213.16,23.256 213.037,23.16 212.885,23.163C212.582,23.171 212.074,23.086 211.492,22.983C210.996,22.895 209.547,22.543 208.65,20.865C207.52,18.765 206.231,15.712 205.009,13.127ZM201.458,1.409C202.403,1.398 204.482,1.241 206.148,2.938C207.815,4.633 207.908,6.742 207.908,7.779C207.908,10.671 205.533,12.836 202.485,12.836C201.226,12.836 199.835,12.622 199.375,12.349C199.225,12.254 199.161,12.132 199.161,11.981L199.161,1.961C199.161,1.777 199.253,1.654 199.407,1.593C199.713,1.501 200.54,1.419 201.458,1.409ZM219.215,8.823C219.215,6.464 219.215,3.339 219.246,2.298C219.246,1.961 219.338,1.811 219.613,1.688C219.859,1.565 220.992,1.474 221.605,1.474C225.25,1.474 228.742,1.903 231.623,4.935C232.879,6.249 234.564,8.765 234.564,12.656C234.564,15.474 233.705,18.415 232.113,19.978C230.304,21.786 227.67,22.827 224.822,22.827C221.207,22.827 220.011,22.184 219.613,21.602C219.369,21.265 219.306,20.039 219.277,19.273C219.246,18.691 219.214,15.873 219.214,12.625L219.215,8.823ZM216.643,14.705C216.643,17.646 216.643,20.066 216.489,21.353C216.368,22.242 216.214,22.915 215.6,23.038C215.325,23.1 214.954,23.161 214.682,23.161C214.495,23.161 214.436,23.253 214.436,23.345C214.436,23.533 214.587,23.591 214.923,23.591C215.382,23.591 216.087,23.53 216.7,23.53C217.346,23.499 217.864,23.499 217.926,23.499C218.079,23.499 219.12,23.591 220.471,23.686C221.786,23.778 223.409,23.87 224.731,23.87C229.938,23.87 232.696,21.725 234.012,20.348C235.727,18.539 237.321,15.571 237.321,11.708C237.321,8.062 235.882,5.52 234.35,3.926C230.704,0.158 225.098,0.436 222.065,0.436C220.227,0.436 218.294,0.528 217.928,0.528C217.776,0.528 215.842,0.436 214.464,0.436C214.126,0.436 213.977,0.498 213.977,0.679C213.977,0.802 214.1,0.866 214.221,0.866C214.495,0.866 215.018,0.896 215.264,0.958C216.274,1.172 216.52,1.662 216.577,2.704C216.64,3.683 216.64,4.542 216.64,9.322L216.643,14.705ZM137.104,13.127C140.299,12.25 142.456,9.58 142.456,5.957C142.456,4.29 141.576,2.876 140.885,2.216C140.382,1.745 138.968,0.424 135.038,0.424C133.592,0.424 130.924,0.524 130.093,0.524C129.735,0.524 128.01,0.432 126.631,0.432C126.294,0.432 126.144,0.494 126.144,0.675C126.144,0.798 126.267,0.862 126.389,0.862C126.661,0.862 127.185,0.892 127.431,0.954C128.442,1.168 128.687,1.658 128.745,2.7C128.807,3.679 128.807,4.538 128.807,9.318L128.807,14.71C128.807,17.651 128.807,20.071 128.654,21.358C128.531,22.247 128.378,22.92 127.765,23.043C127.489,23.105 127.119,23.166 126.846,23.166C126.659,23.166 126.601,23.258 126.601,23.353C126.601,23.538 126.751,23.596 127.088,23.596C128.007,23.596 129.94,23.504 129.971,23.504C130.121,23.504 132.054,23.596 133.739,23.596C134.076,23.596 134.229,23.504 134.229,23.353C134.229,23.259 134.167,23.166 133.984,23.166C133.708,23.166 133.034,23.105 132.605,23.043C131.686,22.921 131.501,22.247 131.41,21.358C131.257,20.071 131.257,17.651 131.257,14.71L131.257,13.975C131.257,13.823 131.319,13.731 131.474,13.731L134.447,13.777C134.631,13.777 134.793,13.846 134.851,13.975C135.316,14.994 135.957,16.71 136.884,18.611C138.153,21.205 138.368,22.355 139.689,23.058C140.485,23.488 141.32,23.593 143.036,23.593L144.515,23.593C145.066,23.593 145.247,23.532 145.247,23.348C145.247,23.256 145.124,23.16 144.974,23.163C144.668,23.171 144.162,23.086 143.579,22.983C143.082,22.895 141.632,22.543 140.737,20.865C139.616,18.765 138.327,15.712 137.104,13.127ZM133.554,1.409C134.497,1.398 136.576,1.241 138.242,2.938C139.909,4.633 140.002,6.742 140.002,7.779C140.002,10.671 137.627,12.836 134.578,12.836C133.319,12.836 131.931,12.622 131.472,12.349C131.319,12.254 131.255,12.132 131.255,11.981L131.255,1.961C131.255,1.777 131.35,1.654 131.5,1.593C131.808,1.501 132.635,1.419 133.554,1.409ZM178.475,13.449C178.38,13.449 178.322,13.387 178.38,13.234L181.076,4.963C181.229,4.504 181.382,4.504 181.535,4.963L184.445,13.234C184.476,13.357 184.476,13.449 184.322,13.449L178.475,13.449ZM174.187,20.219C173.632,21.751 173.023,22.915 171.613,23.102C171.368,23.13 170.939,23.163 170.724,23.163C170.571,23.163 170.449,23.225 170.449,23.348C170.449,23.535 170.633,23.593 171.031,23.593C172.471,23.593 174.156,23.501 174.493,23.501C174.83,23.501 176.147,23.593 176.883,23.593C177.159,23.593 177.342,23.532 177.342,23.348C177.342,23.227 177.25,23.163 177.036,23.163L176.729,23.163C176.208,23.163 175.565,22.887 175.565,22.275C175.565,21.723 175.715,20.988 175.994,20.219L177.832,14.797C177.894,14.647 177.985,14.551 178.141,14.551L184.727,14.551C184.878,14.551 184.942,14.613 185,14.738L187.853,22.275C188.037,22.765 187.853,23.041 187.666,23.102C187.544,23.13 187.452,23.194 187.452,23.316C187.452,23.5 187.789,23.5 188.371,23.531C190.485,23.592 192.724,23.592 193.183,23.592C193.52,23.592 193.793,23.531 193.793,23.346C193.793,23.196 193.671,23.162 193.487,23.162C193.18,23.162 192.72,23.132 192.261,22.978C191.615,22.791 190.729,22.301 189.623,19.577C187.754,14.921 182.945,2.268 182.485,1.104C182.121,0.153 181.999,0 181.814,0C181.627,0 181.505,0.187 181.14,1.195L174.187,20.219ZM272.764,13.449C272.669,13.449 272.612,13.387 272.669,13.234L275.366,4.963C275.518,4.503 275.673,4.503 275.825,4.963L278.735,13.234C278.766,13.357 278.766,13.449 278.612,13.449L272.764,13.449ZM271.172,23.59C271.447,23.59 271.631,23.528 271.631,23.344C271.631,23.224 271.539,23.16 271.324,23.16L271.017,23.16C270.496,23.16 269.853,22.884 269.853,22.272C269.853,21.717 270.004,20.985 270.283,20.216L272.121,14.794C272.184,14.644 272.273,14.548 272.431,14.548L279.016,14.548C279.167,14.548 279.231,14.61 279.288,14.735L282.141,22.272C282.325,22.762 282.141,23.038 281.954,23.099C281.833,23.127 281.739,23.191 281.739,23.313C281.739,23.497 282.077,23.497 282.659,23.527C284.772,23.589 287.009,23.589 287.468,23.589C287.809,23.589 288.081,23.527 288.081,23.343C288.081,23.193 287.958,23.159 287.776,23.159C287.464,23.159 287.005,23.129 286.547,22.975C285.902,22.788 285.017,22.298 283.912,19.574C282.043,14.918 277.234,2.265 276.774,1.1C276.411,0.153 276.288,0 276.104,0C275.917,0 275.794,0.187 275.43,1.195L268.477,20.217C268.018,21.488 267.518,22.506 266.557,22.921C265.755,22.652 264.96,22.045 263.952,20.91C261.649,18.323 256.864,12.216 255.727,10.66C256.372,9.893 261.737,4.654 262.499,3.919C263.878,2.605 264.553,1.836 265.811,1.284C266.419,1.012 267.067,0.855 267.526,0.855C267.77,0.855 267.833,0.793 267.833,0.641C267.833,0.488 267.71,0.424 267.372,0.424C266.606,0.424 264.585,0.518 264.434,0.518C263.698,0.518 262.746,0.424 262.132,0.424C261.919,0.424 261.768,0.486 261.768,0.641C261.768,0.763 261.889,0.825 262.04,0.886C262.286,0.978 262.438,1.159 262.438,1.53C262.438,2.051 261.641,2.847 260.784,3.736C259.68,4.931 254.138,10.568 253.616,11.15L253.493,9.312C253.493,4.533 253.493,3.672 253.555,2.694C253.617,1.622 253.862,1.101 254.688,0.948C255.057,0.886 255.241,0.856 255.456,0.856C255.579,0.856 255.7,0.794 255.7,0.669C255.7,0.485 255.548,0.424 255.21,0.424C254.292,0.424 252.518,0.518 252.239,0.518C252.055,0.518 250.247,0.424 248.868,0.424C248.532,0.424 248.378,0.486 248.378,0.669C248.378,0.792 248.501,0.856 248.624,0.856C248.899,0.856 249.421,0.886 249.665,0.948C250.68,1.162 250.921,1.653 250.983,2.694C251.044,3.673 251.044,4.532 251.044,9.312L251.044,14.704C251.044,17.645 251.044,20.065 250.895,21.352C250.772,22.241 250.62,22.914 250.001,23.037C249.729,23.099 249.358,23.16 249.083,23.16C248.899,23.16 248.839,23.252 248.839,23.347C248.839,23.531 248.991,23.59 249.329,23.59C250.247,23.59 252.024,23.498 252.27,23.498C252.514,23.498 254.291,23.59 255.791,23.59C256.129,23.59 256.281,23.498 256.281,23.347C256.281,23.253 256.22,23.16 256.037,23.16C255.765,23.16 255.269,23.099 254.844,23.037C253.924,22.914 253.74,22.241 253.65,21.352C253.498,20.065 253.498,17.645 253.498,14.704L253.517,11.725C254.205,12.68 257.038,16.457 258.913,18.829C260.542,20.892 261.762,22.353 263.069,23.072C263.626,23.378 263.913,23.593 265.335,23.593C265.335,23.593 267.352,23.489 268.421,23.489C269.438,23.493 270.436,23.59 271.172,23.59ZM330.256,24.019C331.91,24.019 333.568,23.652 334.883,22.732C336.996,21.231 337.487,18.903 337.487,17.647C337.487,15.196 336.63,13.294 333.011,10.448L332.157,9.774C329.216,7.477 328.419,6.373 328.419,4.627C328.419,2.394 330.073,1.074 332.19,1.074C335.005,1.074 335.835,2.36 336.015,2.697C336.202,3.034 336.382,3.861 336.413,4.229C336.444,4.474 336.475,4.625 336.659,4.625C336.811,4.625 336.872,4.411 336.872,3.92C336.872,1.837 336.995,0.826 336.995,0.673C336.995,0.523 336.933,0.458 336.688,0.458C336.443,0.458 336.198,0.43 335.616,0.308C334.849,0.123 333.963,0 332.765,0C328.874,0 326.423,2.236 326.423,5.518C326.423,7.601 327.159,9.497 330.407,12.164L331.786,13.298C334.419,15.476 335.307,16.698 335.307,18.815C335.307,20.775 333.869,22.886 330.926,22.886C328.873,22.886 326.855,22.032 326.394,19.761C326.301,19.332 326.301,18.907 326.301,18.628C326.301,18.382 326.273,18.291 326.086,18.291C325.934,18.291 325.871,18.445 325.84,18.781C325.814,19.271 325.691,20.496 325.691,22.029C325.691,22.856 325.719,22.979 326.15,23.193C327.406,23.804 328.816,24.019 330.256,24.019ZM314.66,9.313C314.66,4.534 314.66,3.673 314.722,2.695C314.784,1.623 315.03,1.102 315.915,0.949C316.284,0.887 316.712,0.857 316.927,0.857C317.05,0.857 317.171,0.795 317.171,0.67C317.171,0.486 317.019,0.424 316.683,0.424C315.763,0.424 313.53,0.519 313.372,0.519C313.22,0.519 311.288,0.424 309.911,0.424C309.573,0.424 309.421,0.486 309.421,0.67C309.421,0.793 309.542,0.857 309.665,0.857C309.942,0.857 310.462,0.887 310.708,0.949C311.718,1.163 311.964,1.653 312.024,2.695C312.086,3.674 312.086,4.533 312.086,9.313L312.086,14.705C312.086,17.646 312.086,20.066 311.932,21.353C311.811,22.242 311.66,22.915 311.043,23.038C310.768,23.1 310.4,23.161 310.125,23.161C309.941,23.161 309.879,23.253 309.879,23.345C309.879,23.533 310.033,23.591 310.369,23.591C310.828,23.591 311.504,23.563 312.115,23.53C312.725,23.53 313.25,23.499 313.371,23.499C314.26,23.499 315.211,23.53 316.496,23.591C317.783,23.621 319.377,23.686 321.582,23.686C323.205,23.686 323.299,23.563 323.512,22.859C323.758,21.967 323.971,20.13 323.971,19.795C323.971,19.46 323.945,19.336 323.787,19.336C323.603,19.336 323.543,19.489 323.512,19.734C323.42,20.316 323.116,21.082 322.715,21.572C321.984,22.461 320.633,22.491 319.008,22.491C316.619,22.491 315.822,22.277 315.332,21.786C314.781,21.234 314.658,19.274 314.658,14.77L314.658,9.313L314.66,9.313ZM299.541,13.127C302.738,12.25 304.893,9.58 304.893,5.957C304.893,4.29 304.012,2.876 303.324,2.216C302.822,1.745 301.406,0.424 297.478,0.424C296.031,0.424 293.365,0.524 292.533,0.524C292.172,0.524 290.449,0.432 289.07,0.432C288.734,0.432 288.58,0.494 288.58,0.675C288.58,0.798 288.703,0.862 288.826,0.862C289.101,0.862 289.623,0.892 289.867,0.954C290.879,1.168 291.123,1.658 291.185,2.7C291.246,3.679 291.246,4.538 291.246,9.318L291.246,14.71C291.246,17.651 291.246,20.071 291.094,21.358C290.971,22.247 290.82,22.92 290.205,23.043C289.928,23.105 289.56,23.166 289.285,23.166C289.101,23.166 289.039,23.258 289.039,23.353C289.039,23.538 289.193,23.596 289.531,23.596C290.449,23.596 292.379,23.504 292.41,23.504C292.562,23.504 294.492,23.596 296.178,23.596C296.517,23.596 296.668,23.504 296.668,23.353C296.668,23.259 296.607,23.166 296.424,23.166C296.15,23.166 295.473,23.105 295.045,23.043C294.125,22.921 293.941,22.247 293.851,21.358C293.701,20.071 293.701,17.651 293.701,14.71L293.701,13.975C293.701,13.823 293.762,13.731 293.914,13.731L296.889,13.777C297.076,13.777 297.238,13.846 297.293,13.975C297.758,14.994 298.399,16.71 299.328,18.611C300.594,21.205 300.809,22.355 302.129,23.058C302.926,23.488 303.76,23.593 305.477,23.593L306.956,23.593C307.507,23.593 307.689,23.532 307.689,23.348C307.689,23.256 307.566,23.16 307.415,23.163C307.11,23.171 306.603,23.086 306.021,22.983C305.523,22.895 304.077,22.543 303.179,20.865C302.051,18.765 300.761,15.712 299.541,13.127ZM295.99,1.409C296.935,1.398 299.011,1.241 300.678,2.938C302.346,4.633 302.441,6.742 302.441,7.779C302.441,10.671 300.068,12.836 297.019,12.836C295.756,12.836 294.369,12.622 293.908,12.349C293.756,12.254 293.695,12.132 293.695,11.981L293.695,1.961C293.695,1.777 293.787,1.654 293.939,1.593C294.244,1.501 295.07,1.419 295.99,1.409Z" style="fill:white;fill-rule:nonzero;"/>
        <path d="M550.777,45.675C552.421,42.652 552.755,40.751 552.755,37.071C552.755,33.473 551.839,31.282 549.765,28.342C550.386,27.37 550.915,26.757 550.886,25.607C550.782,21.426 549.074,19.118 546.691,16.628C544.892,14.751 543.295,14.142 540.753,13.607C537.644,9.148 533.871,7.086 528.435,7.086C522.623,7.086 516.935,10.178 514.549,15.691C511.984,10.089 507.659,7.086 502.418,7.086C496.901,7.086 489.353,11.274 487.935,18.269C484.445,21.666 481.892,26.999 481.892,31.186C481.892,36.194 482.418,41.12 484.81,45.394C483.849,48.189 483.674,50.005 484.08,52.936C484.517,56.105 485.505,59.277 487.205,60.519C487.876,61.007 492.03,60.611 493.597,59.369C493.83,60.602 494.099,61.301 494.749,62.373C495.78,64.071 496.728,64.935 498.513,65.803C498.509,65.327 498.517,64.871 498.55,64.435C498.55,64.435 499.897,68.397 504.929,68.331C504.1,66.62 504.45,65.327 505.517,64.258C506.7,63.077 510.714,62.297 510.714,64.827L510.714,86.98C510.714,90.81 510.554,91.355 509.657,93.013C508.348,95.432 505.513,96.143 498.518,98.117C493.362,99.574 488.124,102.73 486.79,106.472C486.79,106.472 489.127,104.619 491.311,104.099C493.165,103.656 494.873,103.681 496.686,103.89C495.764,104.847 495.248,105.381 493.977,105.994C491.914,106.994 490.376,106.322 488.289,108.947C490.481,108.095 491.996,108.681 491.996,108.681C490.663,110.676 488.793,110.449 487.04,111.488C485.129,112.623 484.436,114.512 484.541,116.535C486.727,113.764 488.35,114.291 490.998,113.139C493.288,112.141 494.936,111.035 496.102,108.285C496.332,113.306 492.815,114.156 490.956,115.908C487.948,118.748 486.354,120.431 486.684,125.619C487.817,118.867 494.084,119.16 498.149,116.307C500.707,114.506 501.291,112.516 501.686,109.116C505.086,118.178 496.96,117.807 492.374,122.764C489.7,125.653 489.394,131.532 493.624,132.641C492.459,130.985 492.222,129.44 492.835,127.509C493.593,125.124 495.326,123.721 497.814,123.468C496.06,124.661 495.237,125.976 494.918,128.073C494.545,130.518 495.184,132.372 496.983,134.069C496.528,131.444 496.602,129.634 497.94,127.303C499.586,124.428 503.161,123.454 506.517,121.132C508.081,120.05 509.393,117.887 510.275,114.885C510.277,117.438 509.985,119.035 508.69,121.237C507.022,124.073 502.959,124.86 501.267,127.612C499.85,129.919 499.705,131.724 499.913,134.424C500.458,132.405 501.678,130.047 504.081,128.945C508.478,126.927 511.06,125.091 512.478,121.113C512.749,123.326 512.891,124.692 511.997,126.675C510.601,129.77 506.809,129.781 504.835,131.613C503.875,132.502 503.646,133.295 503.106,134.488C504.264,134.021 505.085,133.771 506.233,133.783C508.061,133.804 509.045,134.638 510.949,134.638C514.325,134.638 516.229,131.486 515.875,126.656C517.563,130.97 521.209,134.638 525.123,134.638C527.086,134.638 529.521,134.34 531.211,133.174C529.189,133.427 527.089,132.515 524.899,131.136C520.253,128.209 519.231,123.157 518.685,118.509C520.185,122.78 522.123,125.381 525.623,127.982C530.538,131.631 538,133.112 542.56,130.34C540.789,130.527 539.75,130.486 538,130.172C535.334,129.693 533.33,129.049 531.584,127.506C535.522,128.985 538.496,128.69 542.334,126.988C545.206,125.717 546.516,123.884 547.23,120.384C544.845,122.851 541.751,123.832 539.398,124.384C534.499,125.53 528.335,122.61 525.626,117.53C526.355,117.577 526.765,117.634 527.48,117.776C530.169,118.325 530.464,120.325 533.792,120.901C533.792,120.901 533.436,121.55 532.771,121.905C535.015,122.384 536.459,122.641 538.653,121.895C541.924,120.78 543.933,119.671 546.021,117.676C544.538,118.248 543.612,118.438 542.021,118.485C540.137,118.54 539.017,118.344 537.267,117.655C538.98,115.777 540.425,114.968 542.851,114.301C544.413,113.865 547.331,113.596 549.307,114.53C548.497,112.492 545.888,111.199 544.038,111.178C538.118,111.112 537.657,114.354 533.934,114.112C531.139,113.93 528.559,111.53 524.371,112.555C524.473,111.718 524.416,111.201 524.142,110.405C523.767,109.321 523.248,108.576 522.375,108.053C524.979,108.449 526.004,110.739 529.224,111.305C536.563,112.596 538.123,110.112 541.979,108.798C543.244,108.366 544.67,108.417 546.022,108.986C546.022,108.986 545.106,106.632 543.71,105.718C543.05,106.452 542.544,106.802 541.622,107.156C540.393,107.63 539.27,107.568 538.251,107.324C538.292,106.511 538.439,105.153 539.021,104.386C539.718,103.456 540.739,102.685 542.148,102.529C541.014,102.31 540.167,102.154 539.189,102.425C537.585,102.867 535.816,105.613 532.71,106.172C529.671,106.719 527.439,105.678 525.206,103.651C526.938,104.276 528.063,104.412 529.894,104.217C533.123,103.868 535.144,102.337 537.15,100.133C532.603,100.733 527.168,97.821 524.732,93.067C524.123,91.882 523.937,90.759 523.937,89.071L523.937,66.662C523.937,64.412 525.306,61.975 527.681,62.308C527.681,62.308 527.375,65.799 528.431,67.6C529.743,69.829 531.493,71.107 534.099,71.058C534.152,71.721 533.974,72.851 533.443,73.67C536.349,73.725 542.265,69.975 546.781,62.295C550.408,55.774 548.185,50.615 548.469,49.566C548.794,48.366 550.097,48.446 551.28,48.055C551.311,47.492 551.278,47.159 551.135,46.615C551.036,46.237 550.956,46.025 550.777,45.675ZM504.065,117.827C506.96,114.999 507.795,111.604 506.551,107.753C505.785,105.386 504.783,104.048 502.732,102.649C503.322,102.001 503.676,101.653 504.338,101.079C504.899,100.595 505.226,100.335 505.828,99.909L506.551,101.852C507.48,104.333 508.887,105.868 508.953,108.21C509.076,112.409 506.463,115.94 504.065,117.827ZM517.038,43.08C517.038,45.109 517.079,46.875 517.124,48.593L515.005,47.811C514.749,47.101 514.484,46.452 514.202,45.86C514.294,45.301 514.4,44.881 514.598,44.254C514.893,43.317 515.119,42.799 515.592,41.942L517.018,41.862C517.031,42.256 517.038,42.664 517.038,43.08ZM496.218,45.841C496.239,46.754 496.299,47.312 496.489,48.146C496.327,48.351 496.171,48.562 496.019,48.779L494.515,46.92L493.024,46.279C493.242,45.728 493.743,44.732 494.077,44.353C493.462,44.082 492.7,42.479 492.415,41.651C493.212,41.78 493.682,41.795 494.485,41.713C495.024,41.66 495.329,41.606 495.847,41.457L494.417,36.412C495.704,36.797 496.417,37.122 497.552,37.842C498.496,38.444 499.339,38.616 499.783,39.646C499.899,39.916 499.96,40.108 499.997,40.354C498.349,41.111 497.018,42.331 496.325,43.991C496.224,44.705 496.204,45.117 496.218,45.841ZM488.89,47.27C488.452,47.555 488.169,47.749 487.811,48.014C487.911,46.829 488.14,45.993 488.679,44.785C488.679,43.483 488.993,42.081 489.485,40.742L491.53,44.223L490.663,46.206C489.957,46.596 489.567,46.83 488.89,47.27ZM491.174,53.616C490.862,53.842 490.671,53.953 490.321,54.116C489.876,54.323 489.502,54.456 489.117,54.531C488.285,53.123 487.833,51.495 487.767,49.667C488.602,50.158 489.119,50.608 489.806,51.417C490.464,52.185 490.777,52.688 491.174,53.616ZM495.933,21.608C496.121,22.199 496.256,22.703 496.366,23.207L498.355,25.135L498.976,26.085C497.431,26.629 496.009,27.426 494.736,28.397C494.366,27.835 493.749,26.918 493.673,26.583C493.6,26.249 493.131,25.416 492.695,25.02L492.674,25.008C493.719,23.687 494.797,22.554 495.933,21.608ZM492.961,18.863C494.825,17.766 496.659,17.079 498.051,17.036C496.322,18.502 494.938,19.955 493.745,21.437C493.715,21.082 493.669,20.777 493.585,20.347C493.529,20.066 493.219,19.418 492.961,18.863ZM501.082,34.533C501.158,34.065 501.342,32.492 501.523,31.562C503.119,31.482 504.742,31.67 506.295,32.165C505.994,31.769 505.613,31.367 505.173,31.006L505.195,29.456C505.323,28.927 505.383,28.626 505.484,28.091C505.568,27.636 505.616,27.339 505.669,26.945L505.869,26.976C506.348,27.049 506.818,27.144 507.265,27.249C507.58,27.967 508.151,29.208 508.47,29.583C508.735,29.892 508.888,30.059 509.175,30.339C509.175,30.339 508.515,31.523 508.404,32.055C508.175,33.147 508.295,34.171 508.724,34.983L506.622,33.487C506.439,34.082 506.25,34.675 506.312,34.983C506.558,36.185 506.676,36.894 506.584,38.117C506.539,38.706 506.482,39.096 506.362,39.586C504.297,39.253 502.183,39.457 500.394,40.175C500.295,39.529 500.302,39.043 500.398,38.312C500.504,37.458 500.883,37.041 501.004,36.191C501.109,35.548 500.983,35.17 501.082,34.533ZM501.281,26.917C501.884,26.832 502.502,26.784 503.13,26.775L504.22,27.866C504.399,28.564 504.399,29.014 504.22,29.712C504.167,29.92 504.116,30.088 504.051,30.246C503.57,29.985 503.047,29.784 502.512,29.676C502.119,29.599 501.74,29.536 501.366,29.493C501.458,29.069 501.477,28.685 501.46,28.154C501.437,27.659 501.389,27.307 501.281,26.917ZM503.916,25.284C502.947,25.266 502.01,25.347 501.105,25.515L502.584,22.965L503.354,21.986C504.061,22.548 504.43,22.92 504.998,23.627C505.532,24.297 505.837,24.764 506.169,25.444C505.449,25.352 504.7,25.299 503.916,25.284ZM500.261,29.418C497.665,29.359 495.573,30.175 493.731,31.225C495.155,29.142 497.444,27.747 500.114,27.133C500.26,27.503 500.321,27.821 500.345,28.283C500.375,28.733 500.355,29.052 500.261,29.418ZM499.927,31.732C499.712,33.116 499.579,34.018 499.366,35.512L499.109,37.359L498.161,37.263C497.614,36.911 497.313,36.702 496.796,36.314C495.715,35.499 495.08,34.94 494.238,34.043C495.885,32.867 497.857,32.073 499.927,31.732ZM492.989,27.898C493.26,28.418 493.471,28.714 493.853,29.113C491.583,31.08 489.839,33.592 488.749,36.129C488.786,32.023 489.612,29.253 491.822,26.142L492.44,26.34C492.564,26.972 492.689,27.328 492.989,27.898ZM490.983,40.315C490.486,40.285 490.142,40.211 489.757,40.039C490.584,38.052 491.755,36.271 492.785,35.258C492.931,36.043 493.054,36.62 493.293,37.523C493.58,38.599 493.786,39.198 494.224,40.219C493.567,40.092 493.177,40.066 492.505,40.091C491.907,40.116 491.582,40.352 490.983,40.315ZM497.582,42.99C497.905,42.757 498.232,42.539 498.566,42.339C498.788,42.652 498.92,42.885 499.11,43.273C499.515,44.111 499.704,44.711 499.781,45.527C498.966,45.885 498.236,46.379 497.588,46.965C497.384,46.509 497.293,46.15 497.227,45.584C497.101,44.557 497.196,43.827 497.582,42.99ZM499.036,42.072C500.682,41.188 502.491,40.758 504.646,41.072L504.822,41.099C504.369,41.871 503.988,42.4 503.335,43.171C502.85,43.747 502.554,44.059 502.002,44.568C501.417,44.037 501.081,43.743 500.477,43.235C499.912,42.764 499.546,42.467 499.036,42.072ZM506.097,41.384C507.679,41.839 509.14,42.651 510.407,43.786C510.241,44.527 510.089,45.299 510.003,45.969C509.867,47.021 509.808,47.741 509.8,48.619C508.362,46.879 506.712,45.583 504.788,45.077L506.097,41.384ZM509.742,40.687C509.193,40.389 508.631,40.161 508.054,39.98C507.864,39.321 507.761,38.827 507.658,38.049C507.551,37.268 507.519,36.818 507.529,36.027C507.982,36.253 508.226,36.403 508.635,36.701C508.947,36.927 509.114,37.066 509.391,37.328C510.029,37.057 510.453,36.984 511.141,37.039C511.678,37.082 511.994,37.168 512.475,37.407C511.704,38.004 511.304,38.403 510.707,39.174C510.273,39.736 510.031,40.11 509.742,40.687ZM511.817,31.834C511.501,31.418 511.213,31.225 510.71,31.078C510.648,30.498 510.648,30.163 510.71,29.584C510.75,29.206 510.794,28.934 510.869,28.64C512.89,29.797 514.407,31.494 515.43,33.786C515.313,34.117 515.127,34.424 514.854,34.759C514.665,34.996 514.537,35.119 514.292,35.304L512.22,33.492C512.334,32.834 512.219,32.362 511.817,31.834ZM512.668,39.014C513.383,38.41 513.802,38.087 514.564,37.549C514.424,38.931 514.317,39.705 514.066,41.07C513.83,42.341 513.658,43.119 513.347,44.267C512.454,42.811 511.478,41.81 510.435,41.107C511.224,40.275 511.748,39.789 512.668,39.014ZM515.839,24.853C516.744,27.157 516.893,29.696 516.361,31.842C513.962,28.475 511.221,26.514 507.671,25.708L509.117,20.408C510.32,21.347 510.928,22.015 511.752,23.3C512.303,24.158 513.22,26.116 513.904,27.833C514.021,27.46 514.183,27.091 514.418,26.658C514.846,25.859 515.217,25.381 515.839,24.853ZM515.117,23.35C514.996,23.537 514.868,23.709 514.693,23.936C514.442,24.255 514.289,24.433 514.002,24.724C513.68,24.508 513.512,24.361 513.264,24.064C512.691,23.374 511.609,20.951 511.175,20.253C510.924,19.852 510.746,19.526 510.594,19.187C512.625,20.122 514.119,21.616 515.117,23.35ZM512.823,17.711C511.413,16.936 510.152,16.34 508.91,15.901L510.672,13.088C511.582,14.346 512.228,15.901 512.823,17.711ZM502.608,10.777L502.754,9.423C505.453,9.59 507.37,10.206 508.805,11.223L508.97,12.599C508.97,12.599 508.259,14.411 507.724,15.528C506.912,15.299 506.088,15.134 505.22,15.025C505.024,14.523 504.8,14.017 504.501,13.702C503.821,12.986 503.344,12.64 502.452,12.214L502.608,10.777ZM505.552,18.156C506.637,18.156 507.638,18.274 508.555,18.49L508.575,19.11C508.419,20.131 508.247,20.708 507.819,21.648C507.507,22.327 507.294,22.697 506.853,23.299C506.494,22.987 503.005,20.382 502.536,20.376C502.207,21.364 500.839,24.805 500.177,25.721L499.927,25.784C499.669,24.824 499.351,24.248 498.665,23.477C498.097,22.836 497.688,22.527 496.928,22.144L497.185,21.388L497.329,20.565C499.703,18.982 502.375,18.156 505.552,18.156ZM501.204,9.396C500.986,10.531 500.48,12.25 500.248,12.791C500.385,12.934 501.041,14.088 501.219,14.833C500.157,14.852 499.191,14.904 498.279,15.01C497.264,14.251 495.248,12.757 494.327,12.076C496.24,10.55 498.557,9.508 501.204,9.396ZM493.35,12.923C494.024,13.273 494.494,13.599 495.156,14.158C495.66,14.585 495.967,14.886 496.337,15.329C494.327,15.767 492.5,16.525 490.399,17.735C490.387,17.598 490.372,17.46 490.337,17.289L490.258,16.936C491.062,15.502 492.099,14.112 493.35,12.923ZM491.101,20.088C491.148,20.322 491.207,20.56 491.299,20.849C491.445,21.292 492.07,22.436 492.464,23.132C491.676,24.246 490.962,25.385 490.262,26.568C489.66,25.991 489.245,25.602 488.572,24.978C488.326,24.749 487.534,24.188 487.107,23.852C488.223,22.461 489.63,21.167 491.101,20.088ZM485.801,25.747C485.927,25.525 486.062,25.307 486.206,25.084C486.421,25.619 486.649,26.008 487.046,26.549C487.405,27.04 488.597,27.751 489.319,28.243C488.538,29.722 487.968,31.071 487.537,32.465L484.318,33.278C483.928,30.782 484.341,28.312 485.801,25.747ZM484.539,34.376C484.869,34.24 485.16,34.162 485.585,34.083C486.184,33.975 486.607,33.943 487.115,33.997C486.771,35.425 486.525,36.958 486.299,38.76C485.494,37.269 484.888,35.815 484.539,34.376ZM489.021,59.385C488.399,59.392 488.042,59.364 487.428,59.273C487.429,59.272 485.935,57.55 485.906,55.368C487.094,56.275 487.82,56.733 489.149,57.426C490.348,58.053 491.062,58.36 492.344,58.792C491.108,59.237 490.339,59.375 489.021,59.385ZM493.447,58.476C491.908,57.667 490.675,56.664 489.757,55.473C490.185,55.356 490.537,55.239 491.044,55.05C491.761,54.788 492.157,54.619 492.843,54.282C492.739,53.223 492.552,52.608 492.048,51.671C491.72,51.065 491.25,50.879 491.016,50.231C490.867,49.807 490.822,49.542 490.827,49.087C491.428,48.995 491.8,49.024 492.38,49.196C492.886,49.348 493.128,49.55 493.577,49.827C494.128,50.166 494.457,50.404 494.897,50.789C493.767,53.287 493.323,56.143 493.447,58.476ZM497.514,63.49C496.617,62.735 495.941,61.574 495.526,60.227L498.525,59.683C497.876,60.829 497.533,62.125 497.514,63.49ZM499.626,58.191L495.188,58.754C494.882,56.837 495.062,54.731 495.802,52.936C497.372,53.097 498.352,53.376 499.843,54.082C501.128,54.687 501.869,55.167 502.855,56.051C502.72,56.099 502.594,56.15 502.473,56.199C501.337,56.707 500.384,57.385 499.626,58.191ZM501.824,65.542C500.262,64.274 499.835,62.313 500.72,60.509L502.043,60.868L503.355,61.874C502.384,62.836 501.943,64 501.824,65.542ZM504.135,61.228L503.3,59.536L501.689,59.337C503.412,57.991 506.379,58.068 507.722,59.841C506.329,59.901 504.922,60.677 504.135,61.228ZM509.803,56.938C509.386,55.518 508.755,53.917 508.531,53.474C508.174,52.773 507.78,52.391 507.282,51.931C506.656,52.265 506.238,52.474 505.698,53.015C505.338,53.371 504.457,54.113 504.219,54.564C503.933,54.002 503.743,53.701 503.367,53.198C502.599,52.176 502.053,51.655 500.989,50.949C500.668,51.238 500.521,51.478 500.412,51.897C500.33,52.209 500.322,52.41 500.38,52.73C499.588,52.668 499.129,52.541 498.418,52.185C497.749,51.849 497.32,51.539 496.898,51.058C497.258,50.604 497.676,50.197 498.156,49.853C505.534,44.52 511.668,51.561 511.49,58.332C511.001,57.773 510.427,57.312 509.803,56.938ZM511.151,50.466L510.696,49.796C510.924,49.108 511.05,48.529 511.175,47.673C511.348,46.493 511.383,45.711 511.287,44.67C512.859,46.424 514.035,48.771 514.623,51.644C514.135,51.211 513.65,50.959 512.925,50.728C512.25,50.506 511.744,50.426 511.151,50.466ZM512.065,131.704C510.839,132.366 509.753,132.216 508.499,131.823C509.682,131.557 510.351,131.251 511.323,130.528C512.719,129.491 513.388,128.569 513.951,126.923C514.148,128.88 513.828,130.749 512.065,131.704ZM514.957,58.031C514.152,56.093 513.264,54.115 512.253,52.299L514.713,52.111C515.031,53.893 515.127,55.872 514.957,58.031ZM517.215,57.677C516.795,54.615 516.283,52.081 515.694,49.982L517.162,50.086C517.22,52.406 517.266,54.757 517.215,57.677ZM544.76,18.615C547.813,21.282 549.492,25.193 548.326,28.858C546.838,27.272 545.346,26.032 543.763,25.105C543.304,24.319 543.134,23.666 543.104,22.67C543.051,20.962 543.566,19.688 544.76,18.615ZM536.384,49.656C536.88,49.505 538.507,48.978 539.05,48.793C539.329,49.546 540.075,51.959 540.118,52.911C540.698,52.599 540.722,52.584 541.378,52.537C541.757,52.51 542.446,52.582 542.821,52.648C542.595,53.132 542.548,53.728 542.302,54.208C541.87,55.063 541.49,55.547 540.757,56.168C540.509,56.379 540.327,56.504 540.075,56.624L539.983,56.235C539.212,53.25 537.254,51.839 534.458,51.241C534.558,49.885 534.517,49.048 534.288,47.659C534.073,46.324 533.852,45.522 533.372,44.354C534.298,44.144 535.292,44.048 536.358,44.091C538.259,44.167 540.29,45.027 541.891,46.29C541.981,46.85 542.085,47.247 541.856,48.019C541.585,48.91 541.423,49.571 540.897,50.498C540.518,49.275 539.932,47.402 539.632,47.392C539.194,47.371 536.962,48.196 536.122,48.33C536.196,48.736 536.278,49.154 536.384,49.656ZM522.006,22.26C522.113,23.107 522.791,23.433 522.83,24.281C522.851,24.76 522.81,25.049 522.654,25.504L518.31,24.348C518.784,22.536 519.665,20.886 521.073,19.704C522.61,18.409 524.452,17.281 526.495,16.448C526.505,17.344 526.599,17.955 526.849,18.903C527.011,19.506 527.191,19.82 527.382,20.413C527.653,21.246 527.79,21.725 528.007,22.571C526.657,22.092 525.872,21.875 524.472,21.592C523.517,21.402 522.972,21.319 522.003,21.216C521.955,21.619 521.955,21.856 522.006,22.26ZM523.619,22.621C524.537,22.495 525.121,22.571 525.973,22.933C526.702,23.239 527.14,23.542 527.605,24.09C526.275,24.574 525.043,25.211 523.91,26.009C523.463,24.432 523.258,22.787 523.619,22.621ZM525.403,29.447C525.862,29.54 526.235,29.655 526.761,29.856C527.554,30.157 527.99,30.38 528.696,30.857C528.728,30.157 528.722,29.755 528.673,29.059C528.63,28.458 528.585,28.071 528.491,27.564C529.339,27.131 530.189,26.773 531.053,26.485C531.449,26.669 531.785,26.875 532.231,27.19C532.883,27.655 533.225,27.973 533.742,28.586L534.846,25.714L535.252,25.691C535.356,26.962 535.32,27.774 535.119,29.103C534.976,30.042 534.854,30.574 534.566,31.482L530.832,28.771L530.119,32.522C529.166,32.293 528.621,32.186 527.652,32.035C526.66,31.881 526.092,31.817 525.092,31.747C525.107,32.423 525.123,32.808 525.18,33.479C525.24,34.148 525.284,34.525 525.385,35.189C524.515,35.691 523.988,35.923 523.031,36.234C522.203,36.501 521.715,36.609 520.849,36.721C520.67,37.117 521.189,37.324 521.787,37.722C522.207,37.999 522.291,38.368 522.566,38.812C522.541,39.064 522.613,39.328 522.381,39.437C521.539,39.833 521.137,40.004 520.34,40.367L518.475,41.202C518.516,40.825 518.568,40.443 518.621,40.058C519.04,37.002 522.137,31.933 525.403,29.447ZM528.953,22.312C528.885,20.959 528.783,20.197 528.488,18.876C529.398,19.418 529.887,19.773 530.691,20.467C531.718,21.361 532.32,21.995 533.025,22.985C531.584,23.089 530.238,23.311 528.973,23.654C528.986,23.219 528.978,22.844 528.953,22.312ZM536.165,29.015C536.601,29.474 536.827,29.754 537.183,30.282C537.618,30.918 538.284,32.538 538.339,32.883C538.964,32.233 539.313,31.86 539.921,31.194C540.517,30.542 540.851,30.171 541.431,29.506C542.097,29.991 543.224,31.406 543.606,32.136C544.09,33.071 545.022,36.74 545.167,37.3L544.647,36.9C543.843,36.296 543.042,35.796 542.226,35.398C542.181,34.772 542.071,34.276 541.83,33.574C541.58,32.845 541.385,32.443 540.961,31.798C540.748,32.569 540.617,32.996 540.363,33.751L540.076,34.574C537.234,33.786 534.277,34.119 531.062,35.37C528.488,36.372 526.514,37.975 525.043,39.786C524.535,39.489 524.234,39.247 523.801,38.797C523.238,38.21 522.963,37.811 522.627,37.068C523.496,36.742 524.016,36.611 524.934,36.487C525.625,36.393 526.025,36.375 526.717,36.399C526.664,35.819 526.641,35.492 526.609,34.911C526.572,34.314 526.553,33.974 526.537,33.378C527.389,33.342 527.877,33.372 528.717,33.511C529.461,33.634 529.879,33.743 530.588,33.998C530.809,33.506 531.276,30.685 531.317,30.313C531.713,30.63 534.688,33.042 535.254,33.201C535.25,32.6 535.275,32.261 535.365,31.669C535.526,30.594 535.708,29.992 536.165,29.015ZM535.842,25.674C537.578,25.653 539.416,25.909 541.41,26.479L541.984,26.654L542.76,27.344C541.904,27.873 541.445,28.231 540.713,28.926C539.963,29.648 539.58,30.107 539.004,30.968C538.266,29.882 537.867,29.255 537.201,28.124C536.636,27.166 536.295,26.552 535.842,25.674ZM519.87,43.101L521.362,42.456L520.558,41.211C521.257,40.768 521.69,40.558 522.466,40.276C523.132,40.039 523.528,39.738 524.228,39.833C524.488,39.869 524.66,39.914 524.863,40.006C524.125,40.95 523.514,41.944 523.029,42.938C522.494,44.02 522.016,45.143 521.592,46.251L519.203,44.346L519.87,43.101ZM526.617,40.992L530.648,43.428C528.32,44.64 526.23,46.574 524.529,48.954L522.834,47.454C523.801,44.951 525.092,42.767 526.617,40.992ZM527.607,39.927C529.119,38.438 530.816,37.32 532.625,36.648C533.088,36.876 533.434,37.122 533.896,37.527C534.512,38.072 534.822,38.451 535.225,39.17C535.537,38.514 535.699,38.136 535.961,37.461C536.199,36.857 536.348,36.443 536.521,35.923C536.953,35.92 537.385,35.944 537.824,35.989C538.387,37.17 539.08,38.875 539.08,38.875L540.383,42.976C539.941,42.754 539.477,42.577 538.992,42.446C536.84,41.864 534.734,41.952 532.758,42.564C532.199,41.842 530.787,41.198 530.787,41.198C530.246,40.906 528.549,40.232 527.607,39.927ZM541.771,43.829C541.576,43.685 541.375,43.548 541.172,43.419C541.152,42.468 541.135,41.559 540.92,40.607C540.515,38.806 540.108,37.706 539.27,36.239C539.705,36.343 540.135,36.469 540.574,36.628C542.635,37.367 544.345,38.776 545.533,40.508C545.304,40.888 545.068,41.19 544.701,41.585C543.785,42.582 543.01,43.156 541.771,43.829ZM544.847,30.924C544.294,29.623 544.066,28.769 543.933,27.459C545.96,28.498 547.487,29.981 548.669,31.835C548.462,32.247 548.224,32.647 547.962,33.018C547.388,33.829 546.972,34.245 546.159,34.816C546.194,34.085 545.841,33.424 545.634,32.725C545.383,31.862 545.201,31.749 544.847,30.924ZM540.678,16.164C541.828,16.602 542.908,17.197 543.881,17.914C543.047,18.685 542.463,19.165 541.471,19.902C541.031,20.232 540.777,20.412 540.318,20.721C539.389,19.535 538.976,18.74 538.543,17.299C538.32,16.565 538.215,16.075 538.15,15.401C538.994,15.591 539.838,15.844 540.678,16.164ZM539.828,21.494C540.383,22.31 540.639,22.876 540.849,23.783C539.44,23.314 537.931,23.044 536.287,22.951C536.299,22.381 536.297,22.007 536.283,21.391C536.258,20.41 536.221,19.856 536.129,18.876C536.889,19.049 537.317,19.229 537.978,19.645C538.839,20.189 539.251,20.652 539.828,21.494ZM535.138,16.502C534.513,17.143 534.273,17.607 533.849,18.397C533.505,19.037 533.341,19.418 533.116,20.107L531.761,19.106C530.714,18.334 530.085,17.947 529.073,17.128C528.525,16.689 528.177,16.397 527.722,15.99C530.569,15.035 533.735,14.66 536.968,15.175C536.271,15.487 535.765,15.862 535.138,16.502ZM528.326,9.25C531.447,9.324 533.455,10.146 535.738,12.272C533.709,12.249 532.088,12.374 530.509,12.729L528.28,12.163L526.517,9.292C527.105,9.248 527.709,9.235 528.326,9.25ZM524.838,9.523C525.324,9.881 525.85,10.545 526.131,10.828C526.797,11.49 527.223,12.041 527.207,12.979C527.201,13.324 527.154,13.612 527.055,13.875L526.182,14.267C525.779,13.708 525.369,13.352 524.699,12.928C524.218,12.625 522.218,11.455 521.405,10.982C522.404,10.25 523.559,9.786 524.838,9.523ZM518.843,14.164C519.265,13.986 519.677,13.915 520.235,13.907C520.911,13.897 522.255,13.736 522.589,13.598C523.088,13.395 523.486,13.611 523.94,13.907C524.375,14.192 524.586,14.475 524.746,14.966C522.082,16.339 520.457,17.669 518.338,20.129C518.235,18.27 517.913,16.237 518.843,14.164ZM519.34,28.772C519.317,28.286 519.295,28.012 519.25,27.527C519.172,26.656 519.107,26.166 518.963,25.3C520.059,25.582 520.68,25.732 521.785,25.964C522.463,26.11 522.889,26.194 523.496,26.31C521.576,27.748 519.924,29.664 518.475,32.091C518.147,30.947 517.943,29.679 517.897,28.379L519.34,28.772ZM518.847,54.37C518.671,52.869 518.517,51.432 518.409,50.016L520.356,49.813C519.746,51.7 519.265,53.334 518.847,54.37ZM519.919,48.257C519.385,48.796 518.984,49.091 518.363,49.384C518.262,47.953 518.215,46.54 518.236,45.108C518.924,45.336 519.34,45.587 519.898,46.108C520.293,46.476 520.492,46.724 520.758,47.193C520.484,47.641 520.292,47.881 519.919,48.257ZM522.429,48.57L524.122,49.542C522.768,51.569 521.686,53.893 520.964,56.343C521.129,53.545 521.636,50.931 522.429,48.57ZM523.135,61.321C522.633,60.379 522.156,59.787 522.264,58.725C522.33,58.082 522.463,57.358 522.666,56.579C522.844,56.757 523.016,56.891 523.273,57.058C523.682,57.326 524,57.472 524.404,57.571C523.761,58.973 523.418,60.37 523.135,61.321ZM523.426,56.082C523.207,55.976 523.071,55.894 522.903,55.756C523.358,54.287 524.042,52.699 524.966,51.225C526.817,48.276 529.075,45.842 532.097,44.736C532.366,45.779 533.341,48.356 533.341,48.356C533.3,48.819 533.268,50.23 533.282,51.07C530.303,50.869 528.157,52.659 526.011,55.048C525.645,55.459 525.323,55.902 525.044,56.36C524.48,56.446 524.008,56.361 523.426,56.082ZM533.033,53.106C532.691,53.493 532.441,53.899 532.162,54.474C531.969,54.874 531.879,55.117 531.76,55.544C531.445,55.045 531.189,54.788 530.691,54.474C530.354,54.258 530.063,54.12 529.753,54.035C530.789,53.448 531.908,53.112 533.033,53.106ZM524.736,61.821C524.978,59.645 525.951,57.602 527.32,56.042C528.035,56.237 528.578,56.521 529.281,57.034C529.795,57.409 530.121,57.704 530.455,58.124C528.131,58.531 525.82,59.979 524.736,61.821ZM534.175,68.631C531.974,68.487 530.462,67.748 529.821,65.896C529.284,64.344 529.639,61 531.585,59.775C531.601,60.227 531.698,60.594 531.849,60.916C531.652,61.486 531.554,61.978 531.478,62.692C531.335,64.027 531.415,64.834 531.8,66.119L532.56,64.491L532.63,61.957C533.337,62.657 534.206,63.269 534.573,64.562C534.889,65.7 534.752,67.143 534.175,68.631ZM534.703,58.919C534.312,58.608 533.863,58.37 533.353,58.227C533.062,58.145 532.76,58.083 532.457,58.048C532.5,56.815 532.65,56.017 533.057,54.761C533.273,54.104 533.447,53.657 533.703,53.145C533.957,53.171 534.211,53.218 534.463,53.287C535.986,53.683 537.041,54.891 537.664,56.482C536.744,56.907 536.15,57.345 535.367,58.155C535.086,58.441 534.896,58.658 534.703,58.919ZM536.26,61.158C537.014,60.779 537.473,60.32 537.924,59.52C538.066,59.276 538.169,59.06 538.247,58.846C538.595,61.549 538.054,64.663 536.735,66.867C537.035,65.015 536.928,62.869 536.26,61.158ZM537.072,70.583C538.596,68.266 539.246,66.735 539.843,64.022C540.112,62.823 540.278,61.675 540.343,60.597C540.948,61.054 541.294,61.567 541.563,62.368C541.834,63.181 541.585,63.709 541.626,64.564C541.652,65.081 541.674,65.464 541.703,65.873C540.09,67.857 538.367,69.528 537.072,70.583ZM546.298,57.284C545.851,59.505 544.657,61.799 543.204,63.889C543.016,62.994 542.642,61.58 541.931,60.279C541.464,59.423 540.856,59.001 540.36,58.724C540.339,58.304 540.298,57.895 540.241,57.495C541.313,56.651 542.173,56.272 543.587,55.988C544.708,55.764 545.437,55.745 546.489,55.927C546.453,56.371 546.389,56.823 546.298,57.284ZM546.406,50.049C545.668,48.318 544.312,46.002 542.398,44.336L546.377,41.97C547.59,44.528 547.748,47.512 546.406,50.049ZM547.684,39.882C547.705,39.124 547.789,38.418 547.961,37.483C548.198,36.193 548.905,34.57 549.482,33.273C549.863,34.025 550.203,34.826 550.506,35.669C551.819,39.281 552.07,41.712 549.832,45.5C549.466,43.205 548.809,41.435 547.684,39.882Z" style="fill:white;fill-rule:nonzero;"/>
    </g>
</svg>
