<?xml version="1.0" encoding="UTF-8" standalone="no"?><!DOCTYPE svg PUBLIC "-//W3C//DTD SVG 1.1//EN" "http://www.w3.org/Graphics/SVG/1.1/DTD/svg11.dtd"><svg width="100%" height="100%" viewBox="0 0 2474 1442" version="1.1" xmlns="http://www.w3.org/2000/svg" xmlns:xlink="http://www.w3.org/1999/xlink" xml:space="preserve" xmlns:serif="http://www.serif.com/" style="fill-rule:evenodd;clip-rule:evenodd;stroke-linejoin:round;stroke-miterlimit:2;"><rect id="Artboard1" x="-0" y="0" width="2473.26" height="1441.02" style="fill:none;"/><clipPath id="_clip1"><rect id="UT_red.svg" x="85.053" y="67.305" width="2303.15" height="590.55"/></clipPath><g clip-path="url(#_clip1)"><g id="Vordergrund"><path d="M992.624,225.551c7.896,-0.092 25.254,-1.4 39.154,12.758c13.925,14.171 14.696,31.763 14.696,40.425c-0,24.146 -19.833,42.23 -45.296,42.23c-10.504,-0 -22.129,-1.788 -25.954,-4.08c-1.3,-0.783 -1.813,-1.804 -1.813,-3.07l0,-83.659c0,-1.533 0.784,-2.541 2.05,-3.054c2.588,-0.783 9.488,-1.462 17.163,-1.55Zm736.437,2.704l32.2,0.517c24.53,0.512 30.65,6.396 31.421,14.075l0.259,2.829c0.262,3.567 0.783,4.35 2.112,4.35c1.042,0 1.825,-1.021 1.825,-3.337c0,-2.817 0.788,-20.475 0.788,-28.159c-0,-1.533 -0,-3.058 -1.309,-3.058c-1.041,-0 -3.396,0.767 -7.233,1.279c-4.079,0.771 -9.971,1.283 -18.142,1.283l-95.929,0c-3.054,0 -12.779,-0.512 -20.217,-1.283c-6.908,-0.512 -9.479,-3.071 -11.262,-3.071c-1.033,0 -2.05,3.329 -2.563,4.863c-0.512,2.046 -5.633,24.058 -5.633,26.633c0,1.529 0.513,2.304 1.279,2.304c1.025,0 1.804,-0.512 2.563,-2.562c0.766,-1.792 1.537,-3.575 4.354,-7.929c4.092,-6.15 10.237,-7.93 26.112,-8.196l37.892,-0.517l0,108.275c0,24.567 0,44.792 -1.292,55.546c-1.025,7.425 -2.304,13.058 -7.416,14.079c-2.309,0.513 -5.371,1.021 -7.688,1.021c-1.533,-0 -2.037,0.775 -2.037,1.537c-0,1.538 1.287,2.05 4.087,2.05c7.675,0 23.804,-0.783 25.088,-0.783c1.279,0 17.391,0.783 31.446,0.783c2.816,0 4.079,-0.783 4.079,-2.05c-0,-0.779 -0.504,-1.537 -2.021,-1.537c-2.317,-0 -7.925,-0.508 -11.521,-1.021c-7.667,-1.021 -9.196,-6.654 -9.962,-14.079c-1.28,-10.75 -1.28,-30.979 -1.28,-55.546l0,-108.296Zm-315.445,0l32.187,0.517c24.529,0.512 30.663,6.396 31.429,14.075l0.254,2.829c0.267,3.567 0.788,4.35 2.113,4.35c1.042,0 1.825,-1.021 1.825,-3.337c-0,-2.817 0.783,-20.475 0.783,-28.159c0,-1.533 0,-3.058 -1.308,-3.058c-1.042,-0 -3.4,0.767 -7.233,1.279c-4.08,0.771 -9.963,1.283 -18.142,1.283l-95.929,0c-3.054,0 -12.779,-0.512 -20.217,-1.283c-6.908,-0.512 -9.471,-3.071 -11.262,-3.071c-1.025,0 -2.038,3.329 -2.55,4.863c-0.513,2.046 -5.642,24.058 -5.642,26.633c-0,1.529 0.512,2.304 1.287,2.304c1.017,0 1.805,-0.512 2.555,-2.562c0.783,-1.792 1.537,-3.575 4.354,-7.929c4.091,-6.15 10.237,-7.93 26.108,-8.196l37.896,-0.517l-0,108.275c-0,24.567 -0,44.792 -1.292,55.546c-1.025,7.425 -2.304,13.058 -7.408,14.079c-2.317,0.513 -5.379,1.021 -7.696,1.021c-1.537,-0 -2.029,0.775 -2.029,1.537c-0,1.538 1.279,2.05 4.079,2.05c7.683,0 23.804,-0.783 25.088,-0.783c1.279,0 17.391,0.783 31.445,0.783c2.817,0 4.08,-0.783 4.08,-2.05c-0,-0.779 -0.505,-1.537 -2.025,-1.537c-2.313,-0 -7.921,-0.508 -11.509,-1.021c-7.666,-1.021 -9.204,-6.654 -9.971,-14.079c-1.275,-10.75 -1.275,-30.979 -1.275,-55.546l0.005,-108.296Zm-132.15,63.225c-0,-39.933 -0,-47.1 0.512,-55.291c0.5,-8.959 2.55,-13.309 9.463,-14.588c3.066,-0.517 4.604,-0.771 6.395,-0.771c1.025,0 2.05,-0.512 2.05,-1.533c0,-1.542 -1.3,-2.05 -4.1,-2.05c-7.675,-0 -23.795,0.771 -25.083,0.771c-1.292,-0 -17.421,-0.771 -25.846,-0.771c-2.821,-0 -4.1,0.512 -4.1,2.05c0,1.021 1.025,1.533 2.05,1.533c1.792,0 5.121,0.254 7.934,1.013c5.633,1.296 8.187,5.641 8.7,14.333c0.512,8.192 0.512,15.358 0.512,55.292l0,45.05c0,24.566 0,44.791 -1.292,55.546c-1.025,7.425 -2.304,13.058 -7.425,14.079c-2.3,0.512 -5.362,1.021 -7.679,1.021c-1.525,-0 -2.029,0.775 -2.029,1.537c0,1.538 1.279,2.046 4.079,2.046c7.675,-0 23.804,-0.783 25.088,-0.783c1.283,-0 17.408,0.783 31.487,0.783c2.817,-0 4.084,-0.783 4.084,-2.046c-0,-0.779 -0.505,-1.537 -2.042,-1.537c-2.317,-0 -7.925,-0.509 -11.529,-1.021c-7.684,-1.021 -9.213,-6.654 -9.984,-14.079c-1.287,-10.75 -1.287,-30.98 -1.287,-55.546l0.042,-45.038Zm-133.225,122.867c13.816,-0 27.637,-3.071 38.645,-10.75c17.659,-12.546 21.755,-31.996 21.755,-42.475c-0,-20.479 -7.171,-36.358 -37.371,-60.158l-7.171,-5.634c-24.567,-19.196 -31.225,-28.416 -31.225,-43.004c-0,-18.683 13.812,-29.692 31.487,-29.692c23.55,0 30.467,10.75 32,13.563c1.53,2.817 3.067,9.725 3.342,12.8c0.254,2.033 0.5,3.325 2.029,3.325c1.3,-0 1.813,-1.792 1.813,-5.892c-0,-17.404 1.016,-25.854 1.016,-27.129c0,-1.296 -0.512,-1.808 -2.562,-1.808c-2.042,-0 -4.092,-0.259 -8.95,-1.279c-6.404,-1.538 -13.813,-2.559 -23.804,-2.559c-32.513,0 -52.988,18.684 -52.988,46.088c0,17.408 6.146,33.262 33.275,55.546l11.517,9.462c22.012,18.171 29.425,28.408 29.425,46.071c-0,16.396 -12.029,34.058 -36.592,34.058c-17.146,0 -34.041,-7.183 -37.896,-26.121c-0.766,-3.575 -0.766,-7.17 -0.766,-9.462c-0,-2.05 -0.263,-2.829 -1.792,-2.829c-1.3,-0 -1.812,1.296 -2.05,4.091c-0.258,4.096 -1.292,14.325 -1.292,27.134c0,6.912 0.263,7.937 3.855,9.729c10.487,5.133 22.262,6.925 34.3,6.925Zm-333.067,-77.813c-0,24.575 -0,44.792 -1.292,55.546c-1.025,7.425 -2.304,13.059 -7.412,14.079c-2.317,0.513 -5.375,1.021 -7.692,1.021c-1.521,0 -2.033,0.775 -2.033,1.538c-0,1.537 1.279,2.05 4.079,2.05c3.837,-0 9.729,-0.513 14.846,-0.513c5.379,-0.262 9.729,-0.262 10.241,-0.262c3.838,-0 9.984,0.262 19.967,0.783c9.983,0.258 24.046,0.767 43.254,0.767c9.984,-0 12.034,-0 13.809,-6.654c1.295,-5.375 3.337,-22.792 3.337,-24.834c0,-1.8 0,-3.846 -1.533,-3.846c-1.296,0 -1.804,1.017 -2.317,3.846c-1.792,10.5 -4.862,15.617 -11.517,18.434c-6.654,2.816 -17.916,2.816 -24.566,2.816c-25.088,0 -28.925,-3.325 -29.696,-20.987c-0.258,-5.375 -0,-35.071 -0,-43.771l-0,-22.533c-0,-1.025 0.512,-1.792 1.792,-1.792c4.35,-0 29.691,0.512 36.604,1.279c9.983,1.025 12.275,5.375 13.3,8.958c1.021,3.33 1.021,5.888 1.021,8.446c-0,1.279 0.512,2.304 1.808,2.304c1.787,0 1.787,-2.816 1.787,-4.862c0,-1.804 0.513,-11.263 1.025,-16.392c0.771,-8.437 2.05,-12.787 2.05,-14.325c0,-1.537 -0.512,-2.05 -1.295,-2.05c-1.025,0 -2.046,1.284 -3.838,3.329c-2.304,2.563 -5.887,3.075 -12.029,3.584c-5.888,0.512 -37.375,0.512 -40.713,0.512c-1.283,0 -1.529,-0.783 -1.529,-2.558l0,-70.65c0,-1.792 0.513,-2.563 1.529,-2.563c2.83,0 30.717,0.259 35.067,0.784c13.821,1.533 16.392,4.6 18.171,8.7c1.283,3.075 1.537,7.425 1.537,9.212c0,2.05 0.513,3.325 2.05,3.325c1.021,0 1.525,-1.533 1.788,-2.816c0.512,-3.071 1.029,-14.334 1.283,-16.892c0.784,-7.179 2.046,-10.238 2.046,-12.042c0,-1.279 -0.254,-2.304 -1.025,-2.304c-1.279,0 -2.304,1.025 -3.571,1.279c-2.05,0.513 -6.158,1.025 -11.021,1.292c-5.887,0.258 -56.825,0.258 -58.604,0.258l-10.504,-0.512c-5.633,-0.259 -12.542,-0.259 -18.433,-0.259c-2.817,0 -4.092,0.513 -4.092,2.05c0,1.021 1.025,1.534 2.046,1.534c2.304,-0 6.658,0.254 8.7,0.771c8.45,1.787 10.504,5.887 11.021,14.587c0.512,8.192 0.512,15.358 0.512,55.296l0,45.05l0.042,-0.013Zm-177.296,-88.054c-3.85,-9.983 -6.912,-17.921 -6.912,-21.258c-0,-1.792 0.512,-3.842 3.329,-5.117c2.304,-1.029 6.912,-1.287 9.729,-1.287c1.787,-0 2.558,-0.509 2.558,-1.8c0,-1.284 -2.316,-1.792 -6.908,-1.792c-9.729,0 -21.258,0.771 -23.804,0.771c-3.071,-0 -17.663,-0.771 -29.95,-0.771c-4.084,0 -6.659,0.258 -6.659,1.792c0,1.025 0.513,1.8 2.046,1.8c1.542,-0 5.892,-0 9.729,1.016c8.942,2.559 12.788,5.375 18.425,19.709l62.713,156.908c4.862,12.279 6.142,15.871 9.212,15.871c2.559,-0 3.584,-4.079 10.75,-19.454c5.892,-12.546 17.409,-40.188 33.025,-77.559c13.055,-31.483 25.855,-62.2 28.667,-69.358c6.908,-17.408 10.75,-21.762 14.075,-24.062c4.863,-3.059 10.504,-3.059 12.288,-3.059c2.045,0 3.07,-0.512 3.07,-1.804c0,-1.283 -1.533,-1.792 -4.35,-1.792c-7.42,0 -18.429,0.771 -19.966,0.771c-3.071,0 -14.846,-0.771 -25.088,-0.771c-4.083,0 -5.633,0.513 -5.633,2.05c-0,1.275 1.279,1.53 2.817,1.53c2.816,-0 6.654,-0 9.725,1.016c2.562,1.296 3.329,3.85 3.329,5.888c-0,2.316 -1.025,5.891 -2.304,9.729c-5.63,18.437 -39.93,107.758 -54.775,142.075l-49.138,-131.042Zm859.7,134.129c-4.6,12.796 -9.725,22.525 -21.508,24.059c-2.029,0.258 -5.625,0.508 -7.409,0.508c-1.291,0 -2.316,0.517 -2.316,1.538c-0,1.537 1.537,2.05 4.866,2.05c12.042,-0 26.121,-0.784 28.921,-0.784c2.8,0 13.825,0.784 19.963,0.784c2.312,-0 3.841,-0.513 3.841,-2.05c0,-1.021 -0.766,-1.538 -2.554,-1.538l-2.554,0c-4.362,0 -9.733,-2.3 -9.733,-7.417c-0,-4.6 1.291,-10.75 3.587,-17.15l15.367,-45.308c0.512,-1.283 1.279,-2.037 2.542,-2.037l55.037,-0c1.292,-0 1.804,0.516 2.308,1.529l23.813,62.966c1.525,4.092 -0,6.396 -1.538,6.909c-1.025,0.258 -1.791,0.771 -1.791,1.791c-0,1.534 2.816,1.534 7.675,1.809c17.662,0.512 36.354,0.512 40.191,0.512c2.817,0 5.121,-0.512 5.121,-2.05c0,-1.291 -1.025,-1.537 -2.562,-1.537c-2.554,-0 -6.396,-0.259 -10.238,-1.529c-5.379,-1.538 -12.8,-5.638 -22.012,-28.417c-15.617,-38.904 -55.804,-144.617 -59.634,-154.346c-3.066,-7.921 -4.083,-9.212 -5.641,-9.212c-1.521,-0 -2.542,1.537 -5.625,9.983l-58.117,158.937Zm35.829,-56.57c-0.779,-0 -1.291,-0.513 -0.779,-1.809l22.525,-69.108c1.279,-3.838 2.554,-3.838 3.833,-0l24.317,69.108c0.258,1.029 0.258,1.809 -1.017,1.809l-48.879,-0Zm62.134,-85.005c6.916,0 11.262,-5.12 11.262,-11.775c0,-6.395 -4.858,-10.237 -11.004,-10.237c-7.933,-0 -11.013,6.396 -11.013,11.004c0.013,4.867 3.088,11.008 10.755,11.008Zm-65.655,0c6.909,0 11.263,-5.12 11.263,-11.775c-0,-6.395 -4.867,-10.237 -11.013,-10.237c-7.933,-0 -11.016,6.396 -11.016,11.004c0.004,4.867 3.083,11.008 10.766,11.008Zm-980.975,50.446c0,-39.933 0,-47.1 0.517,-55.291c0.513,-8.959 2.558,-13.309 9.467,-14.588c3.062,-0.517 4.6,-0.771 6.391,-0.771c1.025,0 2.046,-0.512 2.046,-1.533c0,-1.542 -1.283,-2.05 -4.083,-2.05c-7.692,-0 -23.8,0.771 -25.088,0.771c-1.279,-0 -17.408,-0.771 -25.85,-0.771c-2.816,-0 -4.083,0.512 -4.083,2.05c0,1.021 1.025,1.533 2.033,1.533c1.805,0 5.121,0.254 7.938,1.013c5.642,1.296 8.187,5.641 8.7,14.333c0.512,8.192 0.512,15.358 0.512,55.292l0,45.05c0,24.566 0,44.791 -1.275,55.546c-1.025,7.425 -2.304,13.058 -7.425,14.079c-2.304,0.512 -5.375,1.021 -7.679,1.021c-1.537,-0 -2.046,0.775 -2.046,1.537c0,1.538 1.28,2.046 4.092,2.046c7.679,-0 23.804,-0.783 25.088,-0.783c1.295,-0 17.404,0.783 31.495,0.783c2.817,-0 4.08,-0.783 4.08,-2.046c-0,-0.779 -0.513,-1.537 -2.046,-1.537c-2.304,-0 -7.921,-0.509 -11.517,-1.021c-7.679,-1.021 -9.212,-6.654 -9.983,-14.079c-1.279,-10.75 -1.279,-30.98 -1.279,-55.546l-0.005,-45.038Zm-232.654,-38.137c8.192,9.212 37.067,41.466 66.709,73.462c27.087,29.184 63.883,66.809 66.695,69.371c13.613,13.567 16.709,16.383 18.759,16.383c1.821,0 2.337,-1.295 2.337,-18.175l0.5,-149.995c0,-15.359 1.025,-20.992 9.463,-22.78c3.071,-0.77 4.862,-0.77 6.158,-0.77c1.788,-0 2.817,-0.784 2.817,-1.805c-0,-1.537 -1.792,-1.791 -4.609,-1.791c-10.495,-0 -18.979,0.771 -21.804,0.771c-2.854,-0 -15.133,-0.771 -26.646,-0.771c-3.054,-0 -5.108,0.258 -5.108,1.791c0,1.025 0.254,1.805 2.042,1.805c2.033,-0 7.908,0.254 12.521,1.283c7.908,2.046 9.708,7.679 9.966,24.312l2.825,130.034c-8.191,-8.446 -36.033,-39.671 -61.346,-66.809c-39.358,-42.237 -77.433,-83.445 -81.279,-87.8c-2.583,-2.545 -6.966,-8.191 -9.029,-8.191c-2.062,-0 -2.837,2.816 -2.837,12.8l-0.259,146.666c0,23.296 -1.279,30.717 -7.683,32.513c-3.838,1.279 -8.446,1.529 -10.504,1.529c-1.279,0 -2.034,0.517 -2.034,1.538c0,1.795 1.521,2.05 4.084,2.05c11.533,-0 22.316,-0.784 24.637,-0.784c2.334,0 12.584,0.784 27.138,0.784c3.066,-0 4.6,-0.513 4.6,-2.05c-0,-1.021 -0.771,-1.538 -2.042,-1.538c-2.3,0 -7.908,-0.258 -12.762,-1.529c-6.9,-2.05 -9.463,-8.704 -9.98,-29.692l-3.329,-122.612Zm-208.937,75.512c-0,37.367 9.729,55.288 22.271,67.321c18.158,17.133 44.012,18.158 52.729,18.158c15.104,0 34.287,-2.554 52.716,-18.941c20.48,-18.175 23.546,-48.888 23.546,-76.534l0,-27.387c0,-39.933 0,-47.1 0.513,-55.292c0.512,-8.958 2.562,-13.05 9.462,-14.587c3.071,-0.517 4.609,-0.775 6.4,-0.775c1.029,-0 2.05,-0.509 2.05,-1.529c0,-1.542 -1.283,-2.05 -4.096,-2.05c-7.679,-0 -19.704,0.77 -21.487,0.77c-1.538,0 -15.617,-0.77 -27.146,-0.77c-2.817,-0 -4.079,0.512 -4.079,2.05c-0,1.02 1.025,1.529 2.037,1.529c2.313,-0 6.663,0.258 8.709,0.775c8.437,1.787 10.496,5.887 11.008,14.587c0.513,8.192 0.513,15.359 0.513,55.292l-0,32.008c-0,26.367 -3.071,48.121 -14.846,62.709c-9.213,11.008 -24.567,18.433 -40.188,18.433c-14.587,-0 -26.108,-2.308 -38.65,-14.079c-11.008,-10.5 -19.183,-26.367 -19.183,-63.225l-0,-35.846c-0,-39.933 -0,-47.1 0.512,-55.292c0.513,-8.958 2.546,-13.562 9.463,-14.587c3.071,-0.517 4.608,-0.771 6.396,-0.771c1.025,-0 2.05,-0.513 2.05,-1.533c-0,-1.542 -1.284,-2.05 -4.096,-2.05c-7.679,-0 -23.021,0.77 -25.342,0.77c-2.308,0 -17.921,-0.77 -29.425,-0.77c-2.825,0.012 -4.104,0.525 -4.104,2.062c0,1.021 1.025,1.533 2.046,1.533c2.304,0 6.654,0.255 8.7,0.771c8.45,1.788 10.504,5.888 11.021,14.588c0.512,8.191 0.512,15.358 0.512,55.291l-0.012,37.371Zm914.95,-5.454c26.696,-7.325 44.696,-29.608 44.696,-59.879c-0,-13.913 -7.35,-25.725 -13.125,-31.238c-4.2,-3.925 -16.017,-14.962 -48.821,-14.962c-12.067,-0 -34.35,0.808 -41.3,0.808c-3.013,0 -17.4,-0.766 -28.909,-0.766c-2.812,-0 -4.091,0.512 -4.091,2.037c-0,1.025 1.025,1.533 2.046,1.533c2.304,0 6.65,0.259 8.695,0.784c8.446,1.787 10.505,5.883 11.017,14.579c0.513,8.187 0.513,15.35 0.513,55.262l-0,45.025c-0,24.567 -0,44.775 -1.292,55.513c-1.025,7.425 -2.313,13.054 -7.425,14.075c-2.304,0.512 -5.371,1.025 -7.675,1.025c-1.533,-0 -2.046,0.767 -2.046,1.529c0,1.542 1.292,2.05 4.092,2.05c7.671,0 23.796,-0.783 24.046,-0.783c1.291,-0 17.412,0.783 31.483,0.783c2.817,0 4.079,-0.783 4.079,-2.05c0,-0.779 -0.512,-1.529 -2.05,-1.529c-2.304,-0 -7.912,-0.513 -11.508,-1.025c-7.675,-1.021 -9.213,-6.65 -9.979,-14.075c-1.3,-10.738 -1.3,-30.95 -1.3,-55.513l-0,-6.141c-0,-1.279 0.512,-2.046 1.812,-2.046l24.821,0.387c1.525,0 2.875,0.609 3.379,1.659c3.904,8.5 9.283,22.854 17,38.708c10.563,21.658 12.396,31.258 23.396,37.142c6.65,3.571 13.625,4.483 27.946,4.483l12.329,0c4.6,0 6.146,-0.508 6.146,-2.05c-0,-0.779 -1.025,-1.567 -2.304,-1.529c-2.53,0.067 -6.771,-0.646 -11.621,-1.504c-4.15,-0.734 -16.259,-3.671 -23.729,-17.679c-9.35,-17.53 -20.117,-43.021 -30.321,-64.613Zm-488.413,152.763c0,-6.884 -5.108,-11.221 -11.733,-11.221c-6.383,-0 -10.213,4.837 -10.213,10.979c0,7.9 6.384,10.975 10.98,10.975c4.837,-0.017 10.966,-3.075 10.966,-10.733Zm0,51.312c0,-6.896 -5.108,-11.233 -11.733,-11.233c-6.383,-0 -10.213,4.85 -10.213,10.979c0,7.912 6.384,10.992 10.98,10.992c4.837,-0.013 10.966,-3.08 10.966,-10.738Zm-91.262,45.113c-0,37.258 9.704,55.129 22.212,67.125c18.125,17.104 43.913,18.141 52.592,18.141c15.05,0 34.208,-2.55 52.579,-18.891c20.425,-18.125 23.5,-48.763 23.5,-76.334l0,-27.312c0,-39.834 0,-46.975 0.513,-55.15c0.508,-8.938 2.541,-13.017 9.445,-14.534c3.063,-0.512 4.6,-0.783 6.38,-0.783c1.025,0 2.045,-0.508 2.045,-1.529c0,-1.533 -1.291,-2.038 -4.083,-2.038c-7.658,0 -19.658,0.775 -21.442,0.775c-1.533,0 -15.575,-0.775 -27.062,-0.775c-2.808,0 -4.083,0.505 -4.083,2.038c-0,1.021 1.02,1.529 2.041,1.529c2.3,0 6.638,0.258 8.679,0.783c8.421,1.784 10.467,5.859 10.98,14.534c0.512,8.175 0.512,15.333 0.512,55.15l0,31.908c0,26.296 -3.05,48 -14.808,62.55c-9.192,10.979 -24.509,18.379 -40.084,18.379c-14.55,0 -26.041,-2.296 -38.55,-14.041c-10.979,-10.467 -19.145,-26.296 -19.145,-63.059l-0,-35.737c-0,-39.834 -0,-46.975 0.508,-55.15c0.512,-8.938 2.542,-13.525 9.45,-14.534c3.062,-0.512 4.596,-0.783 6.379,-0.783c1.021,0 2.046,-0.508 2.046,-1.529c-0,-1.533 -1.292,-2.038 -4.083,-2.038c-7.659,0 -22.975,0.775 -25.275,0.775c-2.3,0 -17.875,-0.775 -29.363,-0.775c-2.808,0 -4.079,0.505 -4.079,2.038c-0,1.021 1.021,1.529 2.042,1.529c2.3,0 6.637,0.258 8.679,0.783c8.421,1.784 10.466,5.859 10.979,14.534c0.512,8.175 0.512,15.333 0.512,55.15l0,37.271l-0.016,-0Zm-107.467,-100.313l32.108,0.508c24.467,0.513 30.58,6.384 31.338,14.042l0.258,2.813c0.259,3.558 0.784,4.337 2.088,4.337c1.041,0 1.825,-1.021 1.825,-3.321c-0,-2.808 0.783,-20.425 0.783,-28.083c0,-1.525 0,-3.058 -1.304,-3.058c-1.042,-0 -3.383,0.779 -7.204,1.287c-4.079,0.767 -9.95,1.279 -18.104,1.279l-95.667,0c-3.05,0 -12.758,-0.512 -20.167,-1.279c-6.887,-0.508 -9.446,-3.058 -11.216,-3.058c-1.025,-0 -2.046,3.321 -2.555,4.846c-0.512,2.041 -5.629,24 -5.629,26.554c0,1.529 0.513,2.3 1.292,2.3c1.021,-0 1.787,-0.513 2.55,-2.546c0.767,-1.792 1.525,-3.567 4.342,-7.904c4.079,-6.129 10.2,-7.917 26.025,-8.175l37.787,-0.509l0,107.988c0,24.517 0,44.683 -1.279,55.4c-1.021,7.408 -2.296,13.025 -7.404,14.046c-2.292,0.508 -5.359,1.021 -7.659,1.021c-1.533,-0 -2.041,0.766 -2.041,1.529c-0,1.521 1.291,2.033 4.083,2.033c7.658,0 23.733,-0.775 25.017,-0.775c1.275,0 17.346,0.775 31.354,0.775c2.812,0 4.079,-0.775 4.079,-2.033c0,-0.779 -0.512,-1.529 -2.037,-1.529c-2.296,-0 -7.9,-0.513 -11.471,-1.021c-7.646,-1.021 -9.175,-6.638 -9.938,-14.046c-1.275,-10.717 -1.275,-30.883 -1.275,-55.4l0,-108.021l0.021,0Zm1132.83,25.021c8.171,9.187 36.958,41.358 66.538,73.267c27.004,29.104 63.712,66.637 66.52,69.183c13.567,13.533 16.65,16.354 18.709,16.354c1.808,0 2.321,-1.287 2.321,-18.142l0.512,-149.604c0,-15.316 1.017,-20.921 9.45,-22.704c3.058,-0.783 4.85,-0.783 6.142,-0.783c1.783,-0 2.8,-0.767 2.8,-1.788c-0,-1.533 -1.784,-1.791 -4.6,-1.791c-10.467,-0 -18.929,0.77 -21.763,0.77c-2.833,0 -15.096,-0.77 -26.562,-0.77c-3.059,-0 -5.096,0.258 -5.096,1.791c-0,1.021 0.254,1.788 2.021,1.788c2.041,-0 7.9,0.258 12.483,1.291c7.9,2.03 9.683,7.659 9.958,24.238l2.817,129.692c-8.162,-8.421 -35.954,-39.567 -61.196,-66.63c-39.25,-42.112 -77.208,-83.233 -81.05,-87.57c-2.571,-2.55 -6.958,-8.167 -9.008,-8.167c-2.05,-0 -2.838,2.808 -2.838,12.762l-0.258,146.271c0,23.234 -1.287,30.642 -7.658,32.421c-3.834,1.279 -8.421,1.533 -10.488,1.533c-1.271,0 -2.029,0.509 -2.029,1.521c0,1.796 1.529,2.042 4.079,2.042c11.484,-0 22.259,-0.775 24.567,-0.775c2.321,-0 12.542,0.775 27.067,0.775c3.045,-0 4.583,-0.513 4.583,-2.042c-0,-1.012 -0.758,-1.521 -2.033,-1.521c-2.296,0 -7.896,-0.258 -12.746,-1.533c-6.875,-2.037 -9.425,-8.679 -9.938,-29.608l-3.304,-122.271Zm-149.054,82.967c-0,24.516 -0,44.683 -1.279,55.4c-1.017,7.408 -2.296,13.025 -7.404,14.045c-2.296,0.509 -5.363,1.021 -7.659,1.021c-1.529,0 -2.041,0.767 -2.041,1.529c-0,1.521 1.291,2.034 4.083,2.034c3.825,-0 9.7,-0.513 14.804,-0.513c5.363,-0.258 9.708,-0.258 10.221,-0.258c3.825,-0 9.954,0.258 19.9,0.775c9.967,0.258 24.004,0.775 43.142,0.775c9.954,-0 12.004,-0 13.787,-6.654c1.292,-5.342 3.321,-22.704 3.321,-24.746c-0,-1.788 -0,-3.833 -1.517,-3.833c-1.291,-0 -1.804,1.02 -2.316,3.833c-1.784,10.467 -4.85,15.571 -11.484,18.383c-6.641,2.809 -17.871,2.809 -24.512,2.809c-25.017,-0 -28.85,-3.321 -29.613,-20.934c-0.254,-5.354 0,-34.983 0,-43.662l0,-22.479c0,-1.009 0.513,-1.788 1.796,-1.788c4.346,0 29.608,0.508 36.517,1.292c9.954,1.008 12.254,5.346 13.283,8.937c1.013,3.321 1.013,5.871 1.013,8.421c-0,1.283 0.504,2.304 1.795,2.304c1.784,0 1.784,-2.812 1.784,-4.85c-0,-1.787 0.512,-11.233 1.025,-16.341c0.766,-8.421 2.041,-12.763 2.041,-14.309c0,-1.521 -0.504,-2.033 -1.291,-2.033c-1.017,-0 -2.034,1.283 -3.825,3.321c-2.304,2.546 -5.875,3.054 -12.004,3.562c-5.867,0.513 -37.271,0.513 -40.592,0.513c-1.279,-0 -1.529,-0.771 -1.529,-2.538l-0,-70.471c-0,-1.8 0.512,-2.55 1.529,-2.55c2.825,0 30.642,0.259 34.983,0.767c13.788,1.529 16.342,4.6 18.125,8.679c1.292,3.067 1.529,7.404 1.529,9.188c0,2.046 0.513,3.325 2.05,3.325c1.017,-0 1.53,-1.521 1.784,-2.813c0.512,-3.05 1.025,-14.3 1.279,-16.85c0.779,-7.146 2.042,-10.208 2.042,-12c-0,-1.275 -0.255,-2.296 -1.025,-2.296c-1.271,0 -2.296,1.021 -3.559,1.28c-2.05,0.512 -6.141,1.016 -10.983,1.287c-5.871,0.258 -56.683,0.258 -58.458,0.258l-10.475,-0.512c-5.63,-0.258 -12.509,-0.258 -18.384,-0.258c-2.808,-0 -4.079,0.512 -4.079,2.033c0,1.021 1.017,1.529 2.033,1.529c2.305,0 6.642,0.258 8.684,0.783c8.421,1.784 10.466,5.859 10.979,14.538c0.512,8.167 0.512,15.329 0.512,55.142l0,44.925l-0.012,-0Zm-79.913,52.325c0,4.337 -1.791,7.145 -5.116,8.941c-6.642,3.829 -19.9,5.359 -29.088,5.359c-23.487,-0 -46.721,-7.671 -66.887,-27.33c-8.942,-8.683 -27.067,-34.72 -27.067,-70.72c0,-29.867 10.467,-53.1 25.263,-64.846c19.4,-15.317 38.55,-16.846 54.629,-16.846c32.933,-0 53.612,10.987 60,20.679c3.825,6.142 5.104,13.283 5.341,16.863c0.259,2.295 0.513,3.829 1.805,3.829c1.783,-0 2.295,-1.292 2.295,-5.363c0,-25.529 1.792,-32.687 1.792,-36.25c0,-1.025 -0.512,-2.041 -3.054,-2.304c-6.379,-0.258 -15.329,-1.287 -20.688,-2.546c-4.837,-1.021 -22.975,-4.341 -39.062,-4.341c-19.654,-0 -44.917,1.791 -67.904,16.083c-22.721,14.3 -42.621,43.142 -42.621,83.979c-0,31.913 14.804,59.242 30.379,72.758c28.338,24.763 64.592,27.334 83.992,27.334c14.812,-0 37.771,-2.809 54.112,-11.488c3.059,-1.804 3.313,-2.316 3.313,-13.8l-0,-28.583c-0,-10.721 -0,-18.379 0.512,-26.55c0.513,-8.942 2.554,-13.283 9.463,-14.55c3.046,-0.508 4.6,-0.783 6.379,-0.783c1.004,-0 2.029,-0.509 2.029,-1.517c0,-1.529 -1.271,-2.042 -4.079,-2.042c-7.658,0 -23.738,0.767 -25.017,0.767c-1.291,-0 -17.358,-0.767 -28.854,-0.767c-2.812,0 -4.079,0.513 -4.079,2.042c-0,1.008 1.025,1.517 2.042,1.517c2.295,-0 6.641,0.262 8.683,0.783c10.204,2.808 11.483,5.621 11.483,26.3l0.004,43.392Zm-338.27,-135.292c8.183,9.187 36.97,41.358 66.545,73.267c27.005,29.104 63.721,66.637 66.521,69.183c13.567,13.533 16.659,16.354 18.709,16.354c1.808,0 2.32,-1.287 2.32,-18.142l0.513,-149.604c-0,-15.316 1.017,-20.921 9.45,-22.704c3.058,-0.783 4.85,-0.783 6.142,-0.783c1.783,-0 2.808,-0.767 2.808,-1.788c-0,-1.533 -1.792,-1.791 -4.6,-1.791c-10.467,-0 -18.929,0.77 -21.763,0.77c-2.833,0 -15.095,-0.77 -26.562,-0.77c-3.058,-0 -5.096,0.258 -5.096,1.791c0,1.021 0.254,1.788 2.021,1.788c2.042,-0 7.9,0.258 12.492,1.291c7.9,2.03 9.683,7.659 9.958,24.238l2.808,129.692c-8.162,-8.421 -35.946,-39.567 -61.196,-66.63c-39.245,-42.112 -77.212,-83.233 -81.062,-87.57c-2.563,-2.55 -6.95,-8.167 -8.996,-8.167c-2.054,-0 -2.837,2.808 -2.837,12.762l-0.259,146.271c0,23.234 -1.291,30.642 -7.662,32.421c-3.829,1.279 -8.421,1.533 -10.479,1.533c-1.275,0 -2.03,0.509 -2.03,1.521c0,1.796 1.517,2.042 4.08,2.042c11.487,-0 22.258,-0.775 24.57,-0.775c2.313,-0 12.538,0.775 27.067,0.775c3.046,-0 4.588,-0.513 4.588,-2.042c-0,-1.012 -0.767,-1.521 -2.038,-1.521c-2.296,0 -7.9,-0.258 -12.742,-1.533c-6.883,-2.037 -9.445,-8.679 -9.941,-29.608l-3.329,-122.271Zm-77.313,38.037c0,-39.829 0,-46.975 0.517,-55.141c0.512,-8.938 2.55,-13.279 9.441,-14.538c3.067,-0.512 4.6,-0.783 6.384,-0.783c1.021,-0 2.041,-0.508 2.041,-1.529c0,-1.521 -1.279,-2.034 -4.087,-2.034c-7.658,0 -23.725,0.771 -25.017,0.771c-1.279,0 -17.362,-0.771 -25.783,-0.771c-2.808,0 -4.083,0.513 -4.083,2.034c-0,1.021 1.02,1.529 2.041,1.529c1.788,-0 5.121,0.258 7.913,1.021c5.621,1.279 8.171,5.621 8.679,14.3c0.512,8.166 0.512,15.329 0.512,55.141l0,44.93c0,24.516 0,44.683 -1.287,55.4c-1.021,7.408 -2.296,13.025 -7.392,14.045c-2.312,0.509 -5.358,1.021 -7.658,1.021c-1.533,0 -2.042,0.767 -2.042,1.529c0,1.521 1.275,2.034 4.079,2.034c7.659,-0 23.746,-0.775 25.021,-0.775c1.288,-0 17.359,0.775 31.4,0.775c2.809,-0 4.084,-0.775 4.084,-2.034c-0,-0.779 -0.513,-1.529 -2.042,-1.529c-2.3,0 -7.913,-0.512 -11.488,-1.021c-7.658,-1.02 -9.191,-6.637 -9.97,-14.045c-1.28,-10.717 -1.28,-30.884 -1.28,-55.4l0.017,-44.93Zm-170.579,44.93c-0,24.516 -0,44.683 -1.288,55.4c-1.02,7.408 -2.3,13.025 -7.391,14.045c-2.313,0.509 -5.363,1.021 -7.667,1.021c-1.521,0 -2.033,0.767 -2.033,1.529c-0,1.521 1.275,2.034 4.079,2.034c3.829,-0 9.704,-0.513 14.817,-0.513c5.354,-0.258 9.691,-0.258 10.204,-0.258c1.021,-0 8.166,0.258 15.575,0.775c7.4,0.258 15.571,0.775 18.379,0.775c43.658,-0 65.104,-28.338 65.104,-55.654c0,-29.867 -25.275,-47.992 -44.167,-53.871c11.996,-12.504 24,-25.017 24,-45.95c0,-12.758 -9.191,-38.283 -51.062,-38.283c-11.742,-0 -21.7,0.77 -27.838,0.77c-1.279,0 -17.362,-0.77 -28.85,-0.77c-2.808,-0 -4.079,0.512 -4.079,2.033c0,1.021 1.021,1.529 2.029,1.529c2.313,0 6.65,0.258 8.68,0.783c8.425,1.784 10.479,5.859 10.991,14.538c0.513,8.175 0.513,15.329 0.513,55.142l-0,44.925l0.004,-0Zm20.425,-107.734c-0,-1.516 0.779,-2.3 3.067,-2.808c4.079,-1.021 9.445,-1.279 12.241,-1.279c25.034,-0 34.467,22.725 34.467,43.916c-0,10.467 -3.829,19.659 -9.192,25.784c-5.362,6.141 -8.937,6.637 -23.233,6.637c-9.45,0 -14.046,-0.771 -15.563,-1.008c-1.291,-0.513 -1.8,-1.025 -1.8,-2.821l0.013,-68.421Zm-0,80.929c-0,-1.279 0.512,-1.791 1.533,-1.791c3.829,-0 16.592,-0 19.909,0.512c6.129,0.784 12.512,1.529 21.191,7.404c19.654,13.53 24.75,35.742 24.75,51.059c0,28.854 -22.2,36.25 -36,36.25c-4.596,-0 -15.571,-0.509 -22.466,-3.825c-7.917,-3.834 -7.917,-7.409 -8.68,-19.917c-0.258,-3.829 -0.258,-35.483 -0.258,-55.146l0,-14.546l0.021,0Zm-118.967,-424.883c0,12.254 0,22.338 -0.637,27.7c-0.509,3.704 -1.138,6.508 -3.704,7.021c-1.15,0.258 -2.68,0.512 -3.83,0.512c-0.766,0 -1.02,0.384 -1.02,0.767c-0,0.783 0.637,1.025 2.041,1.025c1.913,0 4.854,-0.254 7.392,-0.254c2.692,-0.129 4.854,-0.129 5.121,-0.129c1.912,-0 4.979,0.129 9.958,0.383c4.979,0.125 11.996,0.396 21.571,0.396c4.979,-0 6,-0 6.892,-3.333c0.637,-2.68 1.658,-11.359 1.658,-12.384c-0,-0.891 -0,-1.912 -0.779,-1.912c-0.629,-0 -0.896,0.512 -1.138,1.912c-0.896,5.234 -2.425,7.788 -5.746,9.192c-3.316,1.404 -8.941,1.404 -12.254,1.404c-12.508,0 -14.425,-1.65 -14.808,-10.467c-0.129,-2.691 -0,-17.491 -0,-21.829l-0,-11.233c-0,-0.5 0.258,-0.892 0.892,-0.892c2.17,0 14.808,0.259 18.254,0.638c4.979,0.512 6.129,2.679 6.637,4.466c0.513,1.65 0.513,2.938 0.513,4.213c-0,0.637 0.258,1.15 0.891,1.15c0.892,-0 0.892,-1.404 0.892,-2.425c0,-0.908 0.258,-5.629 0.513,-8.167c0.395,-4.225 1.02,-6.383 1.02,-7.162c0,-0.767 -0.254,-1.013 -0.625,-1.013c-0.508,0 -1.02,0.625 -1.912,1.65c-1.146,1.279 -2.933,1.534 -5.996,1.788c-2.937,0.258 -18.637,0.258 -20.296,0.258c-0.629,0 -0.766,-0.383 -0.766,-1.287l-0,-35.217c-0,-0.904 0.258,-1.292 0.766,-1.292c1.404,0 15.317,0.129 17.488,0.384c6.891,0.779 8.166,2.308 9.062,4.341c0.638,1.534 0.779,3.717 0.779,4.6c0,1.025 0.255,1.65 1.013,1.65c0.508,0 0.779,-0.766 0.904,-1.404c0.254,-1.533 0.508,-7.15 0.625,-8.421c0.383,-3.575 1.021,-5.116 1.021,-6c-0,-0.625 -0.129,-1.137 -0.513,-1.137c-0.633,-0 -1.137,0.512 -1.787,0.625c-1.025,0.258 -3.063,0.512 -5.488,0.637c-2.937,0.129 -28.337,0.129 -29.233,0.129l-5.233,-0.258c-2.809,-0.129 -6.254,-0.129 -9.192,-0.129c-1.404,-0 -2.042,0.258 -2.042,1.025c0,0.512 0.513,0.779 1.021,0.779c1.15,0 3.317,0.125 4.342,0.383c4.212,0.892 5.233,2.934 5.487,7.275c0.255,4.08 0.255,7.659 0.255,27.575l-0.009,22.467Zm-151.804,0c0,12.254 0,22.338 -0.637,27.7c-0.513,3.704 -1.15,6.508 -3.705,7.021c-1.15,0.258 -2.691,0.512 -3.829,0.512c-0.779,0 -1.021,0.384 -1.021,0.767c0,0.783 0.625,1.025 2.03,1.025c1.912,0 4.854,-0.254 7.404,-0.254c2.691,-0.129 4.854,-0.129 5.108,-0.129c1.925,-0 4.979,0.129 9.971,0.383c4.979,0.125 12,0.396 21.571,0.396c4.979,-0 6,-0 6.891,-3.333c0.625,-2.68 1.65,-11.359 1.65,-12.384c0,-0.891 0,-1.912 -0.766,-1.912c-0.638,-0 -0.896,0.512 -1.15,1.912c-0.896,5.234 -2.425,7.788 -5.742,9.192c-3.321,1.404 -8.937,1.404 -12.242,1.404c-12.508,0 -14.425,-1.65 -14.82,-10.467c-0.113,-2.691 -0,-17.491 -0,-21.829l-0,-11.233c-0,-0.5 0.258,-0.892 0.891,-0.892c2.171,0 14.821,0.259 18.267,0.638c4.967,0.512 6.129,2.679 6.637,4.466c0.509,1.65 0.509,2.938 0.509,4.213c-0,0.637 0.258,1.15 0.896,1.15c0.891,-0 0.891,-1.404 0.891,-2.425c0,-0.908 0.259,-5.629 0.513,-8.167c0.383,-4.225 1.025,-6.383 1.025,-7.162c-0,-0.767 -0.259,-1.013 -0.638,-1.013c-0.512,0 -1.021,0.625 -1.912,1.65c-1.138,1.279 -2.938,1.534 -5.992,1.788c-2.937,0.258 -18.65,0.258 -20.296,0.258c-0.637,0 -0.779,-0.383 -0.779,-1.287l0,-35.217c0,-0.904 0.258,-1.292 0.779,-1.292c1.404,0 15.317,0.129 17.488,0.384c6.879,0.779 8.166,2.308 9.062,4.341c0.625,1.534 0.767,3.717 0.767,4.6c-0,1.025 0.258,1.65 1.025,1.65c0.512,0 0.771,-0.766 0.892,-1.404c0.258,-1.533 0.512,-7.15 0.637,-8.421c0.383,-3.575 1.021,-5.116 1.021,-6c-0,-0.625 -0.125,-1.137 -0.513,-1.137c-0.637,-0 -1.15,0.512 -1.8,0.625c-1.008,0.258 -3.05,0.512 -5.475,0.637c-2.95,0.142 -28.35,0.142 -29.245,0.142l-5.242,-0.258c-2.808,-0.13 -6.254,-0.13 -9.192,-0.13c-1.404,0 -2.029,0.259 -2.029,1.025c0,0.513 0.508,0.78 1.021,0.78c1.137,-0 3.321,0.125 4.342,0.383c4.212,0.892 5.233,2.933 5.475,7.275c0.258,4.079 0.258,7.658 0.258,27.575l-0,22.454l0.004,0Zm72.717,0c-0,12.254 -0,22.338 -0.625,27.7c-0.513,3.704 -1.15,6.508 -3.717,7.021c-1.137,0.258 -2.679,0.512 -3.829,0.512c-0.767,0 -1.008,0.384 -1.008,0.767c-0,0.783 0.62,1.025 2.029,1.025c1.912,0 4.854,-0.254 7.404,-0.254c2.683,-0.129 4.85,-0.129 5.108,-0.129c0.513,-0 4.084,0.129 7.788,0.383c3.716,0.125 7.787,0.396 9.191,0.396c21.83,-0 32.555,-14.167 32.555,-27.842c-0,-14.933 -12.638,-23.996 -22.096,-26.933c6,-6.254 12.012,-12.508 12.012,-22.975c0,-6.383 -4.6,-19.15 -25.533,-19.15c-5.871,-0 -10.85,0.383 -13.925,0.383c-0.625,0 -8.679,-0.383 -14.425,-0.383c-1.404,-0 -2.029,0.258 -2.029,1.012c-0,0.513 0.5,0.78 1.008,0.78c1.15,-0 3.329,0.125 4.342,0.383c4.225,0.892 5.246,2.933 5.487,7.275c0.254,4.079 0.254,7.658 0.254,27.575l0.009,22.454Zm10.212,-53.867c0,-0.779 0.384,-1.15 1.534,-1.404c2.041,-0.512 4.725,-0.637 6.125,-0.637c12.508,-0 17.245,11.371 17.245,21.962c0,5.234 -1.912,9.817 -4.6,12.892c-2.683,3.05 -4.466,3.321 -11.616,3.321c-4.725,-0 -7.025,-0.384 -7.788,-0.513c-0.625,-0.258 -0.891,-0.512 -0.891,-1.404l-0.009,-34.217Zm0,40.467c0,-0.637 0.259,-0.896 0.779,-0.896c1.913,0 8.284,0 9.955,0.259c3.062,0.383 6.254,0.779 10.595,3.716c9.83,6.767 12.384,17.871 12.384,25.529c-0,14.425 -11.109,18.125 -17.988,18.125c-2.3,0 -7.787,-0.254 -11.233,-1.912c-3.958,-1.913 -3.958,-3.704 -4.342,-9.958c-0.129,-1.913 -0.129,-17.742 -0.129,-27.575l-0.021,-7.288Zm295.034,-9.067c-0,-19.912 -0,-23.5 0.254,-27.575c0.258,-4.466 1.291,-6.637 4.725,-7.275c1.533,-0.258 2.312,-0.383 3.204,-0.383c0.512,0 1.025,-0.258 1.025,-0.779c-0,-0.767 -0.638,-1.025 -2.042,-1.025c-3.829,-0 -11.887,0.396 -12.508,0.396c-0.638,-0 -8.679,-0.396 -14.425,-0.396c-1.404,-0 -2.042,0.258 -2.042,1.025c0,0.512 0.513,0.779 1.021,0.779c1.138,0 3.321,0.125 4.342,0.383c4.212,0.892 5.233,2.934 5.475,7.275c0.258,4.08 0.258,7.659 0.258,27.575l0,2.68c0,0.637 -0.383,0.779 -0.767,0.779l-54.12,-0c-0.384,-0 -0.78,-0.129 -0.78,-0.779l0,-2.68c0,-19.912 0,-23.5 0.259,-27.575c0.254,-4.466 1.275,-6.637 4.721,-7.275c1.533,-0.258 2.295,-0.383 3.191,-0.383c0.513,0 1.021,-0.258 1.021,-0.779c0,-0.767 -0.629,-1.025 -2.033,-1.025c-3.842,-0 -11.884,0.396 -12.517,0.396c-0.629,-0 -8.671,-0.396 -14.429,-0.396c-1.404,-0 -2.029,0.258 -2.029,1.025c-0,0.512 0.508,0.779 1.021,0.779c1.137,0 3.316,0.125 4.341,0.383c4.213,0.892 5.234,2.934 5.475,7.275c0.259,4.08 0.259,7.659 0.259,27.575l-0,22.467c-0,12.254 -0,22.338 -0.638,27.7c-0.508,3.704 -1.15,6.508 -3.704,7.021c-1.146,0.258 -2.692,0.512 -3.829,0.512c-0.779,0 -1.021,0.384 -1.021,0.767c-0,0.783 0.625,1.025 2.029,1.025c3.829,0 11.883,-0.383 12.508,-0.383c0.638,-0 8.68,0.383 15.713,0.383c1.404,0 2.042,-0.383 2.042,-1.025c-0,-0.379 -0.259,-0.767 -1.021,-0.767c-1.15,0 -3.954,-0.254 -5.742,-0.512c-3.829,-0.508 -4.6,-3.317 -4.979,-7.021c-0.638,-5.362 -0.638,-15.446 -0.638,-27.7l0,-13.4c0,-0.637 0.396,-0.767 0.78,-0.767l54.12,0c0.384,0 0.767,0.259 0.767,0.767l0,13.4c0,12.254 0,22.338 -0.637,27.7c-0.513,3.704 -1.134,6.508 -3.7,7.021c-1.15,0.258 -2.692,0.512 -3.83,0.512c-0.779,0 -1.02,0.384 -1.02,0.767c-0,0.783 0.637,1.025 2.041,1.025c3.829,0 11.871,-0.383 12.509,-0.383c0.629,-0 8.679,0.383 15.704,0.383c1.4,0 2.041,-0.383 2.041,-1.025c0,-0.379 -0.254,-0.767 -1.02,-0.767c-1.138,0 -3.959,-0.254 -5.742,-0.512c-3.829,-0.508 -4.596,-3.317 -4.979,-7.021c-0.625,-5.362 -0.625,-15.446 -0.625,-27.7l-0,-22.467l-0.029,0Zm158.816,15.892c13.329,-3.654 22.309,-14.779 22.309,-29.875c-0,-6.946 -3.663,-12.837 -6.542,-15.587c-2.1,-1.963 -7.988,-7.467 -24.363,-7.467c-6.02,-0 -17.137,0.417 -20.604,0.417c-1.491,-0 -8.683,-0.384 -14.425,-0.384c-1.404,0 -2.041,0.259 -2.041,1.013c-0,0.512 0.512,0.779 1.02,0.779c1.15,-0 3.321,0.125 4.342,0.383c4.221,0.892 5.233,2.934 5.488,7.275c0.258,4.079 0.258,7.659 0.258,27.575l-0,22.467c-0,12.254 -0,22.337 -0.625,27.7c-0.513,3.704 -1.15,6.508 -3.717,7.021c-1.137,0.258 -2.683,0.512 -3.829,0.512c-0.767,0 -1.021,0.384 -1.021,0.779c0,0.771 0.638,1.013 2.042,1.013c3.829,-0 11.879,-0.383 12,-0.383c0.637,-0 8.679,0.383 15.712,0.383c1.405,-0 2.038,-0.383 2.038,-1.013c-0,-0.391 -0.258,-0.779 -1.017,-0.779c-1.146,0 -3.958,-0.254 -5.741,-0.512c-3.842,-0.509 -4.6,-3.317 -4.98,-7.021c-0.637,-5.363 -0.637,-15.446 -0.637,-27.7l-0,-3.063c-0,-0.633 0.258,-1.016 0.892,-1.016l12.4,0.191c0.766,0 1.441,0.288 1.67,0.825c1.95,4.246 4.621,11.396 8.484,19.317c5.283,10.808 6.183,15.6 11.683,18.529c3.317,1.792 6.8,2.229 13.954,2.229l6.154,0c2.305,0 3.059,-0.254 3.059,-1.02c-0,-0.384 -0.513,-0.784 -1.146,-0.771c-1.263,0.033 -3.379,-0.321 -5.804,-0.75c-2.067,-0.367 -8.104,-1.834 -11.842,-8.825c-4.708,-8.75 -10.079,-21.471 -15.171,-32.242Zm-14.796,-48.825c3.938,-0.046 12.6,-0.7 19.542,6.371c6.946,7.062 7.333,15.85 7.333,20.171c0,12.05 -9.895,21.071 -22.595,21.071c-5.246,-0 -11.042,-0.892 -12.959,-2.03c-0.625,-0.395 -0.891,-0.904 -0.891,-1.533l-0,-41.75c-0,-0.767 0.383,-1.279 1.025,-1.533c1.275,-0.384 4.72,-0.725 8.545,-0.767Zm73.988,30.892c-0,-9.829 -0,-22.85 0.129,-27.188c0,-1.404 0.383,-2.029 1.529,-2.541c1.025,-0.513 5.746,-0.892 8.3,-0.892c15.188,-0 29.738,1.787 41.742,14.421c5.233,5.475 12.254,15.958 12.254,32.171c0,11.741 -3.579,23.995 -10.212,30.508c-7.538,7.533 -18.513,11.871 -30.38,11.871c-15.062,-0 -20.045,-2.679 -21.704,-5.104c-1.016,-1.405 -1.279,-6.513 -1.4,-9.705c-0.129,-2.425 -0.262,-14.166 -0.262,-27.7l0.004,-15.841Zm-10.717,24.508c0,12.254 0,22.338 -0.641,27.7c-0.505,3.704 -1.146,6.508 -3.705,7.021c-1.145,0.258 -2.691,0.512 -3.825,0.512c-0.779,0 -1.025,0.384 -1.025,0.767c0,0.783 0.63,1.025 2.03,1.025c1.912,0 4.85,-0.254 7.404,-0.254c2.691,-0.129 4.85,-0.129 5.108,-0.129c0.638,-0 4.975,0.383 10.604,0.779c5.479,0.383 12.242,0.767 17.75,0.767c21.696,-0 33.188,-8.938 38.671,-14.675c7.146,-7.538 13.788,-19.905 13.788,-36c-0,-15.192 -5.996,-25.784 -12.38,-32.425c-15.191,-15.7 -38.55,-14.542 -51.187,-14.542c-7.658,-0 -15.713,0.383 -17.238,0.383c-0.633,0 -8.691,-0.383 -14.433,-0.383c-1.408,-0 -2.029,0.258 -2.029,1.012c-0,0.513 0.512,0.78 1.017,0.78c1.141,-0 3.32,0.125 4.345,0.383c4.209,0.892 5.234,2.933 5.471,7.275c0.263,4.079 0.263,7.658 0.263,27.575l0.012,22.429Zm-331.412,-6.575c13.312,-3.654 22.3,-14.779 22.3,-29.875c-0,-6.946 -3.667,-12.837 -6.546,-15.587c-2.096,-1.963 -7.988,-7.467 -24.363,-7.467c-6.025,-0 -17.141,0.417 -20.604,0.417c-1.491,-0 -8.679,-0.384 -14.425,-0.384c-1.404,0 -2.029,0.259 -2.029,1.013c0,0.512 0.513,0.779 1.021,0.779c1.133,-0 3.317,0.125 4.342,0.383c4.212,0.892 5.233,2.934 5.475,7.275c0.258,4.079 0.258,7.659 0.258,27.575l-0,22.467c-0,12.254 -0,22.337 -0.638,27.7c-0.512,3.704 -1.15,6.508 -3.704,7.021c-1.15,0.258 -2.691,0.512 -3.829,0.512c-0.779,0 -1.021,0.384 -1.021,0.779c0,0.771 0.625,1.013 2.029,1.013c3.83,-0 11.884,-0.383 12.013,-0.383c0.625,-0 8.679,0.383 15.7,0.383c1.404,-0 2.042,-0.383 2.042,-1.013c-0,-0.391 -0.259,-0.779 -1.021,-0.779c-1.15,0 -3.959,-0.254 -5.746,-0.512c-3.829,-0.509 -4.6,-3.317 -4.979,-7.021c-0.638,-5.363 -0.638,-15.446 -0.638,-27.7l0,-3.063c0,-0.633 0.259,-1.016 0.904,-1.016l12.388,0.191c0.767,0 1.442,0.288 1.683,0.825c1.938,4.246 4.609,11.396 8.471,19.317c5.288,10.808 6.183,15.6 11.688,18.529c3.316,1.792 6.795,2.229 13.945,2.229l6.163,0c2.296,0 3.05,-0.254 3.05,-1.02c-0,-0.384 -0.513,-0.784 -1.138,-0.771c-1.275,0.033 -3.383,-0.321 -5.812,-0.75c-2.071,-0.367 -8.113,-1.834 -11.842,-8.825c-4.671,-8.75 -10.041,-21.471 -15.137,-32.242Zm-14.792,-48.825c3.929,-0.046 12.592,-0.7 19.533,6.371c6.946,7.062 7.334,15.85 7.334,20.171c-0,12.05 -9.896,21.071 -22.6,21.071c-5.246,-0 -11.029,-0.892 -12.942,-2.03c-0.637,-0.395 -0.904,-0.904 -0.904,-1.533l-0,-41.75c-0,-0.767 0.396,-1.279 1.021,-1.533c1.283,-0.384 4.729,-0.725 8.558,-0.767Zm187.171,50.167c-0.396,-0 -0.638,-0.259 -0.396,-0.896l11.233,-34.463c0.638,-1.912 1.275,-1.912 1.913,0l12.125,34.463c0.129,0.512 0.129,0.896 -0.513,0.896l-24.362,-0Zm-17.867,28.208c-2.312,6.383 -4.85,11.233 -10.725,12.013c-1.021,0.116 -2.808,0.254 -3.704,0.254c-0.637,-0 -1.146,0.258 -1.146,0.771c0,0.779 0.767,1.02 2.425,1.02c6,0 13.021,-0.383 14.425,-0.383c1.404,0 6.892,0.383 9.959,0.383c1.15,0 1.912,-0.254 1.912,-1.02c0,-0.505 -0.383,-0.771 -1.275,-0.771l-1.279,-0c-2.171,-0 -4.85,-1.15 -4.85,-3.7c-0,-2.3 0.625,-5.363 1.787,-8.567l7.659,-22.592c0.258,-0.625 0.637,-1.025 1.287,-1.025l27.442,0c0.629,0 0.896,0.259 1.137,0.78l11.888,31.404c0.767,2.041 -0,3.191 -0.779,3.446c-0.509,0.116 -0.892,0.383 -0.892,0.891c0,0.767 1.404,0.767 3.829,0.896c8.809,0.254 18.138,0.254 20.05,0.254c1.404,0 2.542,-0.254 2.542,-1.025c-0,-0.625 -0.508,-0.766 -1.275,-0.766c-1.279,-0 -3.196,-0.125 -5.108,-0.767c-2.692,-0.779 -6.384,-2.821 -10.992,-14.171c-7.788,-19.4 -27.825,-72.121 -29.742,-76.971c-1.516,-3.962 -2.025,-4.6 -2.796,-4.6c-0.779,0 -1.287,0.779 -2.808,4.979l-28.971,79.267Zm410.738,-28.208c-0.396,-0 -0.634,-0.259 -0.396,-0.896l11.237,-34.463c0.634,-1.916 1.28,-1.916 1.913,0l12.125,34.463c0.129,0.512 0.129,0.896 -0.513,0.896l-24.366,-0Zm-6.634,42.254c1.146,-0 1.913,-0.258 1.913,-1.025c-0,-0.5 -0.383,-0.767 -1.279,-0.767l-1.279,0c-2.171,0 -4.85,-1.15 -4.85,-3.7c-0,-2.312 0.629,-5.362 1.791,-8.566l7.659,-22.592c0.262,-0.625 0.633,-1.025 1.291,-1.025l27.438,-0c0.629,-0 0.896,0.258 1.133,0.779l11.888,31.404c0.766,2.042 -0,3.192 -0.78,3.446c-0.504,0.117 -0.895,0.383 -0.895,0.892c-0,0.766 1.408,0.766 3.833,0.891c8.804,0.259 18.125,0.259 20.037,0.259c1.421,-0 2.555,-0.259 2.555,-1.025c-0,-0.625 -0.513,-0.767 -1.271,-0.767c-1.3,0 -3.213,-0.125 -5.121,-0.767c-2.688,-0.779 -6.375,-2.82 -10.979,-14.17c-7.788,-19.4 -27.825,-72.121 -29.742,-76.975c-1.512,-3.946 -2.025,-4.584 -2.792,-4.584c-0.779,0 -1.291,0.779 -2.808,4.979l-28.971,79.259c-1.912,5.296 -3.996,9.537 -8,11.266c-3.341,-1.12 -6.654,-3.65 -10.854,-8.379c-9.596,-10.779 -29.533,-36.225 -34.271,-42.708c2.688,-3.196 25.042,-25.025 28.217,-28.088c5.746,-5.475 8.558,-8.679 13.8,-10.979c2.533,-1.133 5.233,-1.787 7.146,-1.787c1.016,-0 1.279,-0.259 1.279,-0.892c-0,-0.637 -0.513,-0.904 -1.921,-0.904c-3.192,-0 -11.612,0.392 -12.242,0.392c-3.066,-0 -7.033,-0.392 -9.591,-0.392c-0.888,-0 -1.517,0.258 -1.517,0.904c0,0.508 0.504,0.767 1.133,1.021c1.025,0.383 1.659,1.137 1.659,2.683c-0,2.171 -3.321,5.488 -6.892,9.192c-4.6,4.979 -27.692,28.467 -29.867,30.892l-0.512,-7.659c-0,-19.912 -0,-23.5 0.258,-27.575c0.259,-4.466 1.279,-6.637 4.721,-7.275c1.538,-0.258 2.304,-0.383 3.2,-0.383c0.513,-0 1.017,-0.258 1.017,-0.779c-0,-0.767 -0.634,-1.021 -2.042,-1.021c-3.825,-0 -11.217,0.392 -12.379,0.392c-0.767,-0 -8.3,-0.392 -14.046,-0.392c-1.4,-0 -2.042,0.258 -2.042,1.021c0,0.512 0.513,0.779 1.025,0.779c1.146,-0 3.321,0.125 4.338,0.383c4.229,0.892 5.233,2.938 5.492,7.275c0.254,4.079 0.254,7.659 0.254,27.575l-0,22.467c-0,12.254 -0,22.337 -0.621,27.7c-0.513,3.704 -1.146,6.508 -3.725,7.021c-1.133,0.258 -2.679,0.512 -3.825,0.512c-0.767,0 -1.017,0.384 -1.017,0.779c0,0.767 0.634,1.013 2.042,1.013c3.825,-0 11.229,-0.383 12.254,-0.383c1.017,-0 8.421,0.383 14.671,0.383c1.408,-0 2.042,-0.383 2.042,-1.013c-0,-0.391 -0.255,-0.779 -1.017,-0.779c-1.133,0 -3.2,-0.254 -4.971,-0.512c-3.833,-0.513 -4.6,-3.317 -4.975,-7.021c-0.633,-5.363 -0.633,-15.446 -0.633,-27.7l0.079,-12.413c2.867,3.98 14.671,19.717 22.483,29.6c6.788,8.596 11.871,14.684 17.317,17.68c2.321,1.275 3.517,2.17 9.442,2.17c-0,0 8.404,-0.433 12.858,-0.433c4.237,0.017 8.396,0.421 11.462,0.421Zm246.184,1.787c6.891,0 13.8,-1.529 19.279,-5.362c8.804,-6.254 10.85,-15.954 10.85,-21.188c-0,-10.212 -3.571,-18.137 -18.65,-29.995l-3.558,-2.809c-12.255,-9.571 -15.575,-14.171 -15.575,-21.446c-0,-9.304 6.891,-14.804 15.712,-14.804c11.729,0 15.188,5.359 15.938,6.763c0.779,1.404 1.529,4.85 1.658,6.383c0.129,1.021 0.258,1.65 1.025,1.65c0.633,0 0.887,-0.892 0.887,-2.937c0,-8.68 0.513,-12.892 0.513,-13.53c-0,-0.625 -0.258,-0.895 -1.279,-0.895c-1.021,-0 -2.042,-0.117 -4.467,-0.625c-3.196,-0.771 -6.887,-1.284 -11.879,-1.284c-16.213,0 -26.425,9.317 -26.425,22.992c-0,8.679 3.067,16.579 16.6,27.692l5.746,4.725c10.971,9.075 14.671,14.166 14.671,22.987c-0,8.167 -5.992,16.963 -18.255,16.963c-8.554,-0 -16.962,-3.559 -18.883,-13.021c-0.387,-1.788 -0.387,-3.559 -0.387,-4.721c-0,-1.025 -0.117,-1.404 -0.896,-1.404c-0.634,-0 -0.896,0.641 -1.025,2.041c-0.109,2.042 -0.621,7.146 -0.621,13.534c-0,3.446 0.117,3.958 1.912,4.85c5.234,2.546 11.109,3.441 17.109,3.441Zm-64.984,-61.275c0,-19.912 0,-23.5 0.259,-27.575c0.258,-4.466 1.283,-6.637 4.971,-7.275c1.537,-0.258 3.32,-0.383 4.216,-0.383c0.513,0 1.017,-0.258 1.017,-0.779c-0,-0.767 -0.633,-1.025 -2.033,-1.025c-3.834,-0 -13.138,0.396 -13.796,0.396c-0.634,-0 -8.684,-0.396 -14.421,-0.396c-1.408,-0 -2.042,0.258 -2.042,1.025c0,0.512 0.504,0.779 1.017,0.779c1.154,0 3.321,0.125 4.346,0.383c4.208,0.892 5.233,2.934 5.483,7.275c0.258,4.08 0.258,7.659 0.258,27.575l0,22.467c0,12.254 0,22.338 -0.641,27.7c-0.504,3.704 -1.134,6.508 -3.704,7.021c-1.146,0.258 -2.68,0.512 -3.825,0.512c-0.767,0 -1.025,0.384 -1.025,0.767c-0,0.783 0.641,1.025 2.041,1.025c1.913,0 4.729,-0.117 7.275,-0.254c2.542,-0 4.729,-0.129 5.234,-0.129c3.704,-0 7.666,0.129 13.02,0.383c5.363,0.125 12.005,0.396 21.192,0.396c6.763,-0 7.154,-0.513 8.042,-3.446c1.025,-3.717 1.912,-11.371 1.912,-12.767c0,-1.395 -0.108,-1.912 -0.766,-1.912c-0.767,-0 -1.017,0.637 -1.146,1.658c-0.384,2.425 -1.65,5.617 -3.321,7.659c-3.046,3.704 -8.675,3.829 -15.446,3.829c-9.954,-0 -13.275,-0.892 -15.317,-2.938c-2.295,-2.3 -2.808,-10.466 -2.808,-29.233l0,-22.738l0.008,0Zm-62.995,15.892c13.32,-3.654 22.3,-14.779 22.3,-29.875c-0,-6.946 -3.671,-12.837 -6.538,-15.587c-2.092,-1.963 -7.992,-7.467 -24.358,-7.467c-6.029,-0 -17.138,0.417 -20.604,0.417c-1.505,-0 -8.684,-0.384 -14.43,-0.384c-1.4,0 -2.041,0.259 -2.041,1.013c-0,0.512 0.512,0.779 1.025,0.779c1.146,-0 3.321,0.125 4.337,0.383c4.217,0.892 5.234,2.934 5.492,7.275c0.254,4.079 0.254,7.659 0.254,27.575l0,22.467c0,12.254 0,22.337 -0.633,27.7c-0.513,3.704 -1.142,6.508 -3.704,7.021c-1.155,0.258 -2.688,0.512 -3.834,0.512c-0.766,0 -1.025,0.384 -1.025,0.779c0,0.771 0.642,1.013 2.05,1.013c3.825,-0 11.867,-0.383 11.996,-0.383c0.633,-0 8.675,0.383 15.7,0.383c1.413,-0 2.042,-0.383 2.042,-1.013c-0,-0.391 -0.254,-0.779 -1.017,-0.779c-1.142,0 -3.962,-0.254 -5.746,-0.512c-3.833,-0.509 -4.6,-3.317 -4.975,-7.021c-0.625,-5.363 -0.625,-15.446 -0.625,-27.7l0,-3.063c0,-0.633 0.254,-1.016 0.888,-1.016l12.396,0.191c0.779,0 1.454,0.288 1.683,0.825c1.937,4.246 4.608,11.396 8.479,19.317c5.275,10.808 6.171,15.6 11.671,18.529c3.321,1.792 6.796,2.229 13.95,2.229l6.162,0c2.296,0 3.055,-0.254 3.055,-1.02c-0,-0.384 -0.513,-0.784 -1.142,-0.771c-1.271,0.033 -3.383,-0.321 -5.808,-0.75c-2.075,-0.367 -8.1,-1.834 -11.842,-8.825c-4.7,-8.75 -10.075,-21.471 -15.158,-32.242Zm-14.796,-48.825c3.937,-0.046 12.587,-0.7 19.533,6.371c6.95,7.062 7.346,15.85 7.346,20.171c-0,12.05 -9.888,21.071 -22.592,21.071c-5.262,-0 -11.041,-0.892 -12.962,-2.03c-0.634,-0.395 -0.888,-0.904 -0.888,-1.533l0,-41.75c0,-0.767 0.384,-1.279 1.017,-1.533c1.271,-0.384 4.712,-0.725 8.546,-0.767Z" style="fill:#fff;fill-rule:nonzero;"/><path d="M2379.96,257.618c6.85,-12.596 8.242,-20.517 8.242,-35.85c-0,-14.992 -3.817,-24.121 -12.458,-36.371c2.587,-4.05 4.791,-6.604 4.67,-11.396c-0.433,-17.421 -7.55,-27.037 -17.479,-37.412c-7.496,-7.821 -14.15,-10.359 -24.741,-12.588c-12.955,-18.579 -28.675,-27.171 -51.325,-27.171c-24.217,0 -47.917,12.884 -57.859,35.854c-10.687,-23.341 -28.708,-35.854 -50.546,-35.854c-22.987,0 -54.437,17.45 -60.345,46.596c-14.542,14.154 -25.18,36.375 -25.18,53.821c0,20.867 2.192,41.392 12.159,59.2c-4.004,11.646 -4.734,19.212 -3.042,31.425c1.821,13.204 5.938,26.421 13.021,31.596c2.796,2.033 20.104,0.383 26.633,-4.792c0.971,5.138 2.092,8.05 4.8,12.517c4.296,7.075 8.246,10.675 15.684,14.291c-0.017,-1.983 0.016,-3.883 0.154,-5.7c-0,0 5.612,16.509 26.579,16.234c-3.454,-7.129 -1.996,-12.517 2.45,-16.971c4.929,-4.921 21.654,-8.171 21.654,2.371l0,92.304c0,15.958 -0.667,18.229 -4.404,25.137c-5.454,10.08 -17.267,13.042 -46.413,21.267c-21.483,6.071 -43.308,19.221 -48.866,34.813c-0,-0 9.737,-7.721 18.837,-9.888c7.725,-1.846 14.842,-1.742 22.396,-0.871c-3.842,3.988 -5.992,6.213 -11.287,8.767c-8.596,4.167 -15.005,1.367 -23.7,12.304c9.133,-3.55 15.445,-1.108 15.445,-1.108c-5.554,8.312 -13.345,7.366 -20.65,11.696c-7.962,4.729 -10.85,12.6 -10.412,21.029c9.108,-11.546 15.871,-9.35 26.904,-14.15c9.542,-4.159 16.408,-8.767 21.267,-20.225c0.958,20.921 -13.696,24.462 -21.442,31.762c-12.533,11.834 -19.175,18.846 -17.8,40.463c4.721,-28.134 30.833,-26.913 47.771,-38.8c10.658,-7.504 13.092,-15.796 14.737,-29.963c14.167,37.759 -19.691,36.213 -38.8,56.867c-11.141,12.037 -12.416,36.533 5.209,41.154c-4.854,-6.9 -5.842,-13.337 -3.288,-21.383c3.159,-9.938 10.379,-15.784 20.746,-16.838c-7.308,4.971 -10.737,10.45 -12.067,19.188c-1.554,10.187 1.109,17.912 8.605,24.983c-1.896,-10.937 -1.588,-18.479 3.987,-28.192c6.858,-11.979 21.754,-16.037 35.738,-25.712c6.516,-4.508 11.983,-13.521 15.658,-26.029c0.008,10.637 -1.208,17.291 -6.604,26.466c-6.95,11.817 -23.879,15.096 -30.929,26.563c-5.905,9.612 -6.509,17.133 -5.642,28.383c2.271,-8.412 7.354,-18.237 17.367,-22.829c18.32,-8.408 29.079,-16.058 34.987,-32.633c1.129,9.221 1.721,14.912 -2.004,23.175c-5.817,12.896 -21.617,12.941 -29.842,20.575c-4,3.704 -4.954,7.008 -7.204,11.979c4.825,-1.946 8.246,-2.988 13.029,-2.938c7.617,0.088 11.717,3.563 19.65,3.563c14.067,-0 22,-13.133 20.525,-33.258c7.034,17.975 22.225,33.258 38.534,33.258c8.179,-0 18.325,-1.242 25.366,-6.1c-8.425,1.054 -17.175,-2.746 -26.3,-8.492c-19.358,-12.196 -23.616,-33.246 -25.891,-52.612c6.25,17.796 14.325,28.633 28.908,39.471c20.479,15.204 51.571,21.375 70.571,9.825c-7.379,0.779 -11.709,0.608 -19,-0.7c-11.109,-1.996 -19.459,-4.68 -26.734,-11.109c16.409,6.163 28.8,4.934 44.792,-2.158c11.967,-5.296 17.425,-12.933 20.4,-27.517c-9.937,10.279 -22.829,14.367 -32.633,16.667c-20.413,4.775 -46.096,-7.392 -57.384,-28.558c3.038,0.195 4.746,0.433 7.725,1.025c11.205,2.287 12.434,10.62 26.3,13.02c0,0 -1.483,2.705 -4.254,4.184c9.35,1.996 15.367,3.066 24.509,-0.042c13.629,-4.646 22,-9.267 30.7,-17.579c-6.18,2.383 -10.038,3.175 -16.667,3.371c-7.85,0.229 -12.517,-0.588 -19.808,-3.459c7.137,-7.825 13.158,-11.195 23.266,-13.975c6.509,-1.816 18.667,-2.937 26.9,0.955c-3.375,-8.492 -14.246,-13.88 -21.954,-13.967c-24.667,-0.275 -26.587,13.233 -42.1,12.225c-11.646,-0.758 -22.396,-10.758 -39.846,-6.488c0.425,-3.487 0.188,-5.641 -0.954,-8.958c-1.562,-4.517 -3.725,-7.621 -7.362,-9.8c10.85,1.65 15.12,11.192 28.537,13.55c30.579,5.379 37.079,-4.971 53.146,-10.446c5.271,-1.8 11.212,-1.587 16.846,0.784c-0,-0 -3.817,-9.809 -9.634,-13.617c-2.75,3.058 -4.858,4.517 -8.7,5.992c-5.12,1.975 -9.8,1.716 -14.045,0.7c0.17,-3.388 0.783,-9.046 3.208,-12.242c2.904,-3.875 7.158,-7.088 13.029,-7.738c-4.725,-0.912 -8.254,-1.562 -12.329,-0.433c-6.683,1.842 -14.054,13.283 -26.996,15.613c-12.662,2.279 -21.962,-2.059 -31.267,-10.505c7.217,2.605 11.905,3.171 19.534,2.359c13.454,-1.454 21.875,-7.834 30.233,-17.017c-18.946,2.5 -41.592,-9.633 -51.742,-29.442c-2.537,-4.937 -3.312,-9.616 -3.312,-16.65l-0,-93.37c-0,-9.375 5.704,-19.53 15.6,-18.142c-0,-0 -1.275,14.546 3.125,22.05c5.467,9.287 12.758,14.612 23.617,14.408c0.22,2.763 -0.521,7.471 -2.734,10.884c12.109,0.229 36.759,-15.396 55.575,-47.396c15.113,-27.171 5.85,-48.667 7.034,-53.038c1.354,-5 6.783,-4.666 11.712,-6.296c0.129,-2.345 -0.008,-3.733 -0.604,-6c-0.413,-1.575 -0.746,-2.458 -1.492,-3.916Zm-194.633,300.633c12.062,-11.783 15.542,-25.929 10.358,-41.975c-3.191,-9.862 -7.366,-15.437 -15.912,-21.267c2.458,-2.7 3.933,-4.15 6.691,-6.541c2.338,-2.017 3.7,-3.1 6.209,-4.875l3.012,8.096c3.871,10.337 9.734,16.733 10.009,26.491c0.512,17.496 -10.375,32.209 -20.367,40.071Zm54.054,-311.446c0,8.454 0.171,15.813 0.358,22.971l-8.829,-3.258c-1.066,-2.959 -2.171,-5.663 -3.346,-8.129c0.384,-2.33 0.825,-4.08 1.65,-6.692c1.23,-3.904 2.171,-6.063 4.142,-9.633l5.942,-0.334c0.054,1.642 0.083,3.342 0.083,5.075Zm-86.75,11.504c0.088,3.805 0.338,6.13 1.129,9.605c-0.675,0.854 -1.325,1.733 -1.958,2.637l-6.267,-7.746l-6.212,-2.671c0.908,-2.295 2.996,-6.445 4.387,-8.025c-2.562,-1.129 -5.737,-7.808 -6.925,-11.258c3.321,0.538 5.279,0.6 8.625,0.258c2.246,-0.22 3.517,-0.445 5.675,-1.066l-5.958,-21.021c5.362,1.604 8.333,2.958 13.062,5.958c3.934,2.509 7.446,3.225 9.296,7.517c0.484,1.125 0.738,1.925 0.892,2.95c-6.867,3.154 -12.413,8.237 -15.3,15.154c-0.421,2.975 -0.504,4.692 -0.446,7.708Zm-30.533,5.955c-1.825,1.187 -3.004,1.995 -4.496,3.1c0.417,-4.938 1.371,-8.421 3.617,-13.455c-0,-5.425 1.308,-11.266 3.358,-16.845l8.521,14.504l-3.613,8.262c-2.941,1.625 -4.566,2.6 -7.387,4.434Zm9.516,26.441c-1.3,0.942 -2.095,1.404 -3.554,2.084c-1.854,0.862 -3.412,1.416 -5.016,1.729c-3.467,-5.867 -5.35,-12.65 -5.625,-20.267c3.479,2.046 5.633,3.921 8.495,7.292c2.742,3.2 4.046,5.296 5.7,9.162Zm19.83,-133.366c0.783,2.462 1.345,4.562 1.804,6.662l8.287,8.033l2.588,3.959c-6.438,2.266 -12.363,5.587 -17.667,9.633c-1.542,-2.342 -4.112,-6.162 -4.429,-7.558c-0.304,-1.392 -2.258,-4.863 -4.075,-6.513l-0.088,-0.05c4.355,-5.504 8.846,-10.225 13.58,-14.166Zm-12.384,-11.438c7.767,-4.571 15.409,-7.433 21.209,-7.612c-7.205,6.108 -12.971,12.162 -17.942,18.337c-0.125,-1.479 -0.317,-2.75 -0.667,-4.542c-0.233,-1.17 -1.525,-3.87 -2.6,-6.183Zm33.838,65.292c0.316,-1.95 1.083,-8.504 1.837,-12.379c6.65,-0.334 13.413,0.45 19.884,2.512c-1.255,-1.65 -2.842,-3.325 -4.675,-4.829l0.091,-6.458c0.534,-2.205 0.784,-3.459 1.204,-5.688c0.35,-1.896 0.55,-3.133 0.771,-4.775l0.834,0.129c1.995,0.304 3.954,0.7 5.816,1.138c1.313,2.991 3.692,8.162 5.021,9.725c1.104,1.287 1.742,1.983 2.938,3.15c-0,-0 -2.75,4.933 -3.213,7.15c-0.954,4.55 -0.454,8.816 1.333,12.2l-8.758,-6.234c-0.762,2.48 -1.55,4.95 -1.292,6.234c1.025,5.008 1.517,7.962 1.134,13.058c-0.188,2.454 -0.425,4.079 -0.925,6.121c-8.604,-1.388 -17.413,-0.538 -24.867,2.454c-0.412,-2.692 -0.383,-4.717 0.017,-7.762c0.441,-3.559 2.021,-5.296 2.525,-8.838c0.437,-2.679 -0.088,-4.254 0.325,-6.908Zm0.829,-31.734c2.512,-0.354 5.087,-0.554 7.704,-0.591l4.542,4.546c0.746,2.908 0.746,4.783 -0,7.691c-0.221,0.867 -0.434,1.567 -0.704,2.225c-2.005,-1.087 -4.184,-1.925 -6.413,-2.375c-1.637,-0.321 -3.217,-0.583 -4.775,-0.762c0.383,-1.767 0.463,-3.367 0.392,-5.579c-0.096,-2.063 -0.296,-3.53 -0.746,-5.155Zm10.979,-6.804c-4.037,-0.075 -7.942,0.263 -11.712,0.963l6.162,-10.625l3.208,-4.079c2.946,2.341 4.484,3.891 6.85,6.837c2.225,2.792 3.496,4.738 4.88,7.571c-3,-0.383 -6.121,-0.604 -9.388,-0.667Zm-15.229,17.225c-10.817,-0.246 -19.533,3.154 -27.208,7.529c5.933,-8.679 15.47,-14.491 26.595,-17.05c0.609,1.542 0.863,2.867 0.963,4.792c0.125,1.875 0.042,3.204 -0.35,4.729Zm-1.392,9.642c-0.896,5.767 -1.45,9.525 -2.337,15.75l-1.071,7.696l-3.95,-0.4c-2.279,-1.467 -3.533,-2.338 -5.688,-3.954c-4.504,-3.396 -7.15,-5.725 -10.658,-9.463c6.863,-4.9 15.079,-8.208 23.704,-9.629Zm-28.908,-15.975c1.129,2.167 2.008,3.4 3.6,5.062c-9.458,8.196 -16.725,18.663 -21.267,29.234c0.154,-17.109 3.596,-28.65 12.804,-41.613l2.575,0.825c0.517,2.634 1.038,4.117 2.288,6.492Zm-8.358,51.737c-2.071,-0.125 -3.505,-0.433 -5.109,-1.15c3.446,-8.279 8.325,-15.7 12.617,-19.92c0.608,3.27 1.121,5.675 2.117,9.437c1.195,4.483 2.054,6.979 3.879,11.233c-2.738,-0.529 -4.363,-0.637 -7.163,-0.533c-2.491,0.104 -3.846,1.088 -6.341,0.933Zm27.495,11.146c1.346,-0.971 2.709,-1.879 4.1,-2.712c0.925,1.304 1.475,2.275 2.267,3.891c1.688,3.492 2.475,5.992 2.796,9.392c-3.396,1.492 -6.438,3.55 -9.138,5.992c-0.85,-1.9 -1.229,-3.396 -1.504,-5.754c-0.525,-4.28 -0.129,-7.321 1.479,-10.809Zm6.059,-3.825c6.858,-3.683 14.396,-5.475 23.375,-4.166l0.733,0.112c-1.887,3.217 -3.475,5.421 -6.196,8.633c-2.021,2.4 -3.254,3.7 -5.554,5.821c-2.437,-2.212 -3.837,-3.437 -6.354,-5.554c-2.354,-1.962 -3.879,-3.2 -6.004,-4.846Zm29.421,-2.866c6.591,1.895 12.679,5.279 17.958,10.008c-0.692,3.087 -1.325,6.304 -1.683,9.096c-0.567,4.383 -0.813,7.383 -0.846,11.041c-5.992,-7.25 -12.867,-12.65 -20.884,-14.758l5.455,-15.387Zm15.187,-2.905c-2.287,-1.241 -4.629,-2.191 -7.033,-2.945c-0.792,-2.746 -1.221,-4.805 -1.65,-8.046c-0.446,-3.254 -0.579,-5.129 -0.538,-8.425c1.888,0.941 2.904,1.566 4.609,2.808c1.3,0.942 1.995,1.521 3.15,2.613c2.658,-1.13 4.425,-1.434 7.291,-1.205c2.238,0.18 3.554,0.538 5.559,1.534c-3.213,2.487 -4.88,4.15 -7.367,7.362c-1.808,2.342 -2.817,3.9 -4.021,6.304Zm8.646,-36.887c-1.317,-1.733 -2.517,-2.538 -4.613,-3.15c-0.258,-2.417 -0.258,-3.813 0,-6.225c0.167,-1.575 0.35,-2.708 0.663,-3.933c8.421,4.82 14.742,11.891 19.004,21.441c-0.487,1.379 -1.262,2.659 -2.4,4.054c-0.787,0.988 -1.321,1.5 -2.342,2.271l-8.633,-7.55c0.475,-2.741 -0.004,-4.708 -1.679,-6.908Zm3.546,29.917c2.979,-2.517 4.725,-3.863 7.9,-6.105c-0.584,5.759 -1.029,8.984 -2.075,14.671c-0.984,5.296 -1.7,8.538 -2.996,13.321c-3.721,-6.067 -7.788,-10.237 -12.133,-13.167c3.287,-3.466 5.47,-5.491 9.304,-8.72Zm13.212,-59.005c3.771,9.6 4.392,20.18 2.175,29.121c-9.996,-14.029 -21.416,-22.2 -36.208,-25.558l6.025,-22.083c5.012,3.912 7.546,6.695 10.979,12.05c2.296,3.575 6.117,11.733 8.967,18.887c0.487,-1.554 1.162,-3.092 2.141,-4.896c1.784,-3.329 3.33,-5.321 5.921,-7.521Zm-3.008,-6.262c-0.504,0.779 -1.038,1.496 -1.767,2.442c-1.046,1.329 -1.683,2.07 -2.879,3.283c-1.342,-0.9 -2.042,-1.513 -3.075,-2.75c-2.387,-2.875 -6.896,-12.971 -8.704,-15.879c-1.046,-1.671 -1.788,-3.029 -2.421,-4.442c8.463,3.896 14.688,10.121 18.846,17.346Zm-9.558,-23.496c-5.875,-3.229 -11.13,-5.712 -16.305,-7.542l7.342,-11.72c3.792,5.241 6.483,11.72 8.963,19.262Zm-42.563,-28.892l0.608,-5.641c11.246,0.696 19.234,3.262 25.213,7.5l0.687,5.733c0,0 -2.962,7.55 -5.191,12.204c-3.384,-0.954 -6.817,-1.641 -10.434,-2.096c-0.816,-2.091 -1.75,-4.2 -2.995,-5.512c-2.834,-2.983 -4.821,-4.425 -8.538,-6.2l0.65,-5.988Zm12.267,30.746c4.521,0 8.691,0.492 12.512,1.392l0.084,2.583c-0.65,4.254 -1.367,6.659 -3.15,10.575c-1.3,2.829 -2.188,4.371 -4.025,6.879c-1.496,-1.3 -16.034,-12.154 -17.988,-12.179c-1.371,4.117 -7.071,18.454 -9.829,22.271l-1.042,0.263c-1.075,-4 -2.4,-6.4 -5.258,-9.613c-2.367,-2.671 -4.071,-3.958 -7.238,-5.554l1.071,-3.15l0.6,-3.429c9.892,-6.596 21.025,-10.038 34.263,-10.038Zm-18.117,-36.5c-0.908,4.729 -3.017,11.892 -3.983,14.146c0.571,0.596 3.304,5.404 4.046,8.508c-4.425,0.08 -8.45,0.296 -12.25,0.738c-4.23,-3.163 -12.63,-9.388 -16.467,-12.225c7.971,-6.358 17.625,-10.7 28.654,-11.167Zm-32.725,14.696c2.808,1.458 4.767,2.817 7.525,5.146c2.1,1.779 3.379,3.033 4.921,4.879c-8.375,1.825 -15.988,4.983 -24.742,10.025c-0.05,-0.571 -0.112,-1.146 -0.258,-1.858l-0.329,-1.471c3.35,-5.975 7.671,-11.767 12.883,-16.721Zm-9.371,29.854c0.196,0.975 0.442,1.967 0.825,3.171c0.609,1.846 3.213,6.613 4.854,9.513c-3.283,4.641 -6.258,9.387 -9.175,14.316c-2.508,-2.404 -4.237,-4.025 -7.041,-6.625c-1.025,-0.954 -4.325,-3.291 -6.104,-4.691c4.65,-5.796 10.512,-11.188 16.641,-15.684Zm-22.083,23.579c0.525,-0.925 1.087,-1.833 1.687,-2.762c0.896,2.229 1.846,3.85 3.5,6.104c1.496,2.046 6.463,5.008 9.471,7.058c-3.254,6.163 -5.629,11.784 -7.425,17.592l-13.412,3.388c-1.625,-10.4 0.096,-20.692 6.179,-31.38Zm-5.258,35.955c1.375,-0.567 2.587,-0.892 4.358,-1.221c2.496,-0.45 4.258,-0.584 6.375,-0.359c-1.433,5.95 -2.458,12.338 -3.4,19.846c-3.354,-6.212 -5.879,-12.271 -7.333,-18.266Zm18.675,104.204c-2.592,0.029 -4.08,-0.088 -6.638,-0.467c0.004,-0.004 -6.221,-7.179 -6.342,-16.271c4.95,3.779 7.975,5.688 13.513,8.575c4.996,2.613 7.971,3.892 13.312,5.692c-5.15,1.854 -8.354,2.429 -13.845,2.471Zm18.441,-3.788c-6.412,-3.371 -11.55,-7.55 -15.375,-12.512c1.784,-0.488 3.25,-0.975 5.363,-1.763c2.987,-1.091 4.637,-1.796 7.496,-3.2c-0.434,-4.412 -1.213,-6.975 -3.313,-10.879c-1.367,-2.525 -3.325,-3.3 -4.3,-6c-0.621,-1.767 -0.808,-2.871 -0.787,-4.767c2.504,-0.383 4.054,-0.262 6.47,0.455c2.109,0.633 3.117,1.475 4.988,2.629c2.296,1.412 3.667,2.404 5.5,4.008c-4.708,10.408 -6.558,22.308 -6.042,32.029Zm16.946,20.892c-3.737,-3.146 -6.554,-7.983 -8.283,-13.596l12.496,-2.267c-2.705,4.775 -4.134,10.175 -4.213,15.863Zm8.8,-22.079l-18.492,2.346c-1.275,-7.988 -0.525,-16.763 2.559,-24.242c6.541,0.671 10.625,1.833 16.837,4.775c5.354,2.521 8.442,4.521 12.55,8.204c-0.562,0.2 -1.087,0.413 -1.591,0.617c-4.734,2.116 -8.705,4.941 -11.863,8.3Zm9.158,30.629c-6.508,-5.283 -8.287,-13.454 -4.6,-20.971l5.513,1.496l5.467,4.192c-4.046,4.008 -5.884,8.858 -6.38,15.283Zm9.63,-17.975l-3.48,-7.05l-6.712,-0.829c7.179,-5.609 19.542,-5.288 25.137,2.1c-5.804,0.25 -11.666,3.483 -14.945,5.779Zm23.616,-17.875c-1.737,-5.917 -4.366,-12.588 -5.3,-14.433c-1.487,-2.921 -3.129,-4.513 -5.204,-6.43c-2.608,1.392 -4.35,2.263 -6.6,4.517c-1.5,1.483 -5.171,4.575 -6.162,6.454c-1.192,-2.341 -1.984,-3.596 -3.55,-5.691c-3.2,-4.259 -5.475,-6.43 -9.909,-9.371c-1.337,1.204 -1.95,2.204 -2.404,3.95c-0.342,1.3 -0.375,2.137 -0.133,3.471c-3.3,-0.259 -5.213,-0.788 -8.175,-2.271c-2.788,-1.4 -4.575,-2.692 -6.334,-4.696c1.5,-1.892 3.242,-3.588 5.242,-5.021c30.742,-22.221 56.3,7.117 55.558,35.329c-2.037,-2.329 -4.429,-4.25 -7.029,-5.808Zm5.617,-26.967l-1.896,-2.791c0.95,-2.867 1.475,-5.28 1.996,-8.846c0.721,-4.917 0.867,-8.175 0.467,-12.513c6.55,7.309 11.45,17.088 13.9,29.059c-2.034,-1.805 -4.055,-2.855 -7.075,-3.817c-2.813,-0.925 -4.921,-1.258 -7.392,-1.092Zm3.808,338.492c-5.108,2.758 -9.633,2.133 -14.858,0.496c4.929,-1.109 7.717,-2.384 11.767,-5.396c5.816,-4.321 8.604,-8.163 10.95,-15.021c0.82,8.154 -0.513,15.942 -7.859,19.921Zm12.05,-306.971c-3.354,-8.075 -7.054,-16.317 -11.266,-23.883l10.25,-0.784c1.325,7.425 1.725,15.671 1.016,24.667Zm9.409,-1.475c-1.75,-12.758 -3.884,-23.317 -6.338,-32.062l6.117,0.433c0.241,9.667 0.433,19.462 0.221,31.629Zm114.77,-162.758c12.721,11.112 19.717,27.408 14.859,42.679c-6.2,-6.608 -12.417,-11.775 -19.013,-15.638c-1.912,-3.275 -2.621,-5.995 -2.746,-10.145c-0.22,-7.117 1.925,-12.425 6.9,-16.896Zm-34.9,129.337c2.067,-0.629 8.846,-2.825 11.109,-3.596c1.162,3.138 4.271,13.192 4.45,17.159c2.416,-1.3 2.516,-1.363 5.25,-1.559c1.579,-0.112 4.45,0.188 6.012,0.463c-0.941,2.017 -1.137,4.5 -2.162,6.5c-1.8,3.562 -3.384,5.579 -6.438,8.167c-1.033,0.879 -1.791,1.4 -2.841,1.9l-0.384,-1.621c-3.212,-12.438 -11.371,-18.317 -23.021,-20.809c0.417,-5.65 0.246,-9.137 -0.708,-14.925c-0.896,-5.562 -1.817,-8.904 -3.817,-13.77c3.859,-0.875 8,-1.275 12.442,-1.096c7.921,0.316 16.383,3.9 23.054,9.162c0.375,2.334 0.809,3.988 -0.146,7.204c-1.129,3.713 -1.804,6.467 -3.995,10.33c-1.58,-5.096 -4.021,-12.9 -5.271,-12.942c-1.825,-0.088 -11.125,3.35 -14.625,3.908c0.308,1.692 0.65,3.434 1.091,5.525Zm-59.908,-114.15c0.446,3.529 3.271,4.888 3.433,8.421c0.088,1.996 -0.083,3.2 -0.733,5.096l-18.1,-4.817c1.975,-7.55 5.646,-14.425 11.513,-19.35c6.404,-5.396 14.079,-10.096 22.591,-13.566c0.042,3.733 0.434,6.279 1.475,10.229c0.675,2.512 1.425,3.821 2.221,6.291c1.129,3.471 1.7,5.467 2.604,8.992c-5.625,-1.996 -8.896,-2.9 -14.729,-4.079c-3.979,-0.792 -6.25,-1.138 -10.287,-1.567c-0.2,1.679 -0.2,2.667 0.012,4.35Zm6.721,1.504c3.825,-0.525 6.258,-0.208 9.808,1.3c3.038,1.275 4.863,2.538 6.8,4.821c-5.541,2.017 -10.675,4.671 -15.396,7.996c-1.862,-6.571 -2.716,-13.425 -1.212,-14.117Zm7.433,28.442c1.913,0.388 3.467,0.867 5.659,1.704c3.304,1.254 5.12,2.184 8.062,4.171c0.133,-2.917 0.108,-4.592 -0.096,-7.492c-0.179,-2.504 -0.366,-4.116 -0.758,-6.229c3.533,-1.804 7.075,-3.296 10.675,-4.496c1.65,0.767 3.05,1.625 4.908,2.938c2.717,1.937 4.142,3.262 6.296,5.817l4.6,-11.967l1.692,-0.096c0.433,5.296 0.283,8.679 -0.554,14.217c-0.596,3.912 -1.105,6.129 -2.305,9.912l-15.558,-11.296l-2.971,15.63c-3.971,-0.955 -6.241,-1.4 -10.279,-2.03c-4.133,-0.641 -6.5,-0.908 -10.667,-1.2c0.063,2.817 0.13,4.421 0.367,7.217c0.25,2.788 0.433,4.358 0.854,7.125c-3.625,2.092 -5.821,3.058 -9.808,4.354c-3.45,1.113 -5.483,1.563 -9.092,2.029c-0.746,1.65 1.417,2.513 3.909,4.171c1.75,1.154 2.1,2.692 3.245,4.542c-0.104,1.05 0.196,2.15 -0.77,2.604c-3.509,1.65 -5.184,2.363 -8.505,3.875l-7.77,3.479c0.17,-1.571 0.387,-3.162 0.608,-4.766c1.746,-12.734 14.65,-33.855 28.258,-44.213Zm14.792,-29.729c-0.283,-5.638 -0.708,-8.813 -1.938,-14.317c3.792,2.259 5.83,3.738 9.18,6.629c4.279,3.725 6.787,6.367 9.725,10.492c-6.005,0.433 -11.613,1.358 -16.884,2.788c0.054,-1.813 0.021,-3.375 -0.083,-5.592Zm30.05,27.929c1.817,1.913 2.758,3.079 4.242,5.279c1.812,2.65 4.587,9.4 4.816,10.838c2.604,-2.709 4.059,-4.263 6.592,-7.038c2.483,-2.716 3.875,-4.262 6.292,-7.033c2.775,2.021 7.47,7.917 9.062,10.958c2.017,3.896 5.9,19.184 6.504,21.517l-2.166,-1.667c-3.35,-2.516 -6.688,-4.6 -10.088,-6.258c-0.187,-2.608 -0.646,-4.675 -1.65,-7.6c-1.042,-3.038 -1.854,-4.713 -3.621,-7.4c-0.887,3.212 -1.433,4.992 -2.491,8.137l-1.196,3.43c-11.842,-3.284 -24.163,-1.896 -37.559,3.316c-10.725,4.175 -18.95,10.854 -25.079,18.4c-2.116,-1.237 -3.371,-2.246 -5.175,-4.121c-2.346,-2.445 -3.491,-4.108 -4.891,-7.204c3.62,-1.358 5.787,-1.904 9.612,-2.421c2.879,-0.391 4.546,-0.466 7.429,-0.366c-0.221,-2.417 -0.316,-3.779 -0.45,-6.2c-0.154,-2.488 -0.233,-3.904 -0.3,-6.388c3.55,-0.15 5.584,-0.025 9.084,0.554c3.1,0.513 4.841,0.967 7.795,2.03c0.921,-2.05 2.867,-13.805 3.038,-15.355c1.65,1.321 14.046,11.371 16.404,12.034c-0.017,-2.504 0.088,-3.917 0.463,-6.384c0.67,-4.479 1.429,-6.987 3.333,-11.058Zm-1.346,-13.921c7.233,-0.087 14.892,0.979 23.2,3.354l2.392,0.73l3.233,2.875c-3.567,2.204 -5.479,3.695 -8.529,6.591c-3.125,3.009 -4.721,4.921 -7.121,8.509c-3.075,-4.525 -4.737,-7.138 -7.512,-11.85c-2.355,-3.992 -3.775,-6.55 -5.663,-10.209Zm-66.55,72.613l6.217,-2.688l-3.35,-5.187c2.912,-1.846 4.716,-2.721 7.95,-3.896c2.775,-0.988 4.425,-2.242 7.341,-1.846c1.084,0.15 1.8,0.338 2.646,0.721c-3.075,3.933 -5.621,8.075 -7.641,12.217c-2.23,4.508 -4.221,9.187 -5.988,13.804l-9.954,-7.938l2.779,-5.187Zm28.113,-8.788l16.795,10.15c-9.7,5.05 -18.408,13.109 -25.495,23.025l-7.063,-6.25c4.029,-10.429 9.408,-19.529 15.763,-26.925Zm4.125,-4.437c6.3,-6.204 13.37,-10.863 20.908,-13.663c1.929,0.95 3.371,1.975 5.296,3.663c2.566,2.271 3.858,3.85 5.537,6.846c1.3,-2.734 1.975,-4.309 3.067,-7.121c0.992,-2.517 1.612,-4.242 2.333,-6.409c1.8,-0.012 3.6,0.088 5.429,0.275c2.346,4.921 5.234,12.025 5.234,12.025l5.429,17.088c-1.842,-0.925 -3.775,-1.663 -5.796,-2.208c-8.967,-2.425 -17.742,-2.059 -25.975,0.491c-2.329,-3.008 -8.212,-5.691 -8.212,-5.691c-2.255,-1.217 -9.325,-4.025 -13.25,-5.296Zm59.016,16.258c-0.812,-0.6 -1.65,-1.171 -2.496,-1.708c-0.083,-3.963 -0.154,-7.75 -1.05,-11.717c-1.687,-7.504 -3.383,-12.087 -6.875,-18.2c1.813,0.433 3.605,0.958 5.434,1.621c8.587,3.079 15.712,8.95 20.662,16.167c-0.954,1.583 -1.937,2.841 -3.466,4.487c-3.817,4.154 -7.046,6.546 -12.209,9.35Zm12.817,-53.771c-2.304,-5.421 -3.254,-8.979 -3.808,-14.437c8.445,4.329 14.808,10.508 19.733,18.233c-0.863,1.717 -1.854,3.383 -2.946,4.929c-2.392,3.379 -4.125,5.113 -7.512,7.492c0.145,-3.046 -1.325,-5.8 -2.188,-8.713c-1.046,-3.595 -1.804,-4.066 -3.279,-7.504Zm-17.371,-61.5c4.792,1.825 9.292,4.304 13.346,7.292c-3.475,3.212 -5.908,5.212 -10.042,8.283c-1.833,1.375 -2.891,2.125 -4.804,3.413c-3.871,-4.942 -5.592,-8.254 -7.396,-14.259c-0.929,-3.058 -1.366,-5.1 -1.637,-7.908c3.516,0.792 7.033,1.846 10.533,3.179Zm-3.542,22.209c2.313,3.4 3.38,5.758 4.255,9.537c-5.871,-1.954 -12.159,-3.079 -19.009,-3.467c0.05,-2.375 0.042,-3.933 -0.016,-6.5c-0.105,-4.087 -0.259,-6.395 -0.642,-10.479c3.167,0.721 4.95,1.471 7.704,3.204c3.588,2.267 5.304,4.196 7.708,7.705Zm-19.541,-20.8c-2.604,2.67 -3.604,4.604 -5.371,7.895c-1.433,2.667 -2.117,4.255 -3.054,7.125l-5.646,-4.17c-4.363,-3.217 -6.983,-4.83 -11.2,-8.242c-2.283,-1.829 -3.733,-3.046 -5.629,-4.742c11.862,-3.979 25.054,-5.541 38.525,-3.396c-2.904,1.3 -5.013,2.863 -7.625,5.53Zm-28.384,-30.217c13.005,0.308 21.371,3.733 30.884,12.592c-8.454,-0.096 -15.209,0.425 -21.788,1.904l-9.287,-2.359l-7.346,-11.962c2.45,-0.183 4.967,-0.238 7.537,-0.175Zm-14.533,1.137c2.025,1.492 4.217,4.259 5.388,5.438c2.775,2.758 4.55,5.054 4.483,8.962c-0.025,1.438 -0.221,2.638 -0.633,3.734l-3.638,1.633c-1.679,-2.329 -3.387,-3.812 -6.179,-5.579c-2.004,-1.263 -10.338,-6.138 -13.725,-8.108c4.162,-3.05 8.975,-4.984 14.304,-6.08Zm-24.979,19.338c1.758,-0.742 3.475,-1.038 5.8,-1.071c2.817,-0.042 8.417,-0.712 9.808,-1.287c2.079,-0.846 3.738,0.054 5.629,1.287c1.813,1.188 2.692,2.367 3.359,4.413c-11.1,5.72 -17.871,11.262 -26.7,21.512c-0.429,-7.746 -1.771,-16.217 2.104,-24.854Zm2.071,60.867c-0.096,-2.025 -0.188,-3.167 -0.375,-5.188c-0.325,-3.629 -0.596,-5.671 -1.196,-9.279c4.567,1.175 7.154,1.8 11.758,2.767c2.825,0.608 4.6,0.958 7.129,1.441c-8,5.992 -14.883,13.975 -20.92,24.088c-1.367,-4.767 -2.217,-10.05 -2.409,-15.467l6.013,1.638Zm-2.054,106.658c-0.734,-6.254 -1.375,-12.242 -1.825,-18.142l8.112,-0.846c-2.542,7.863 -4.546,14.671 -6.287,18.988Zm4.466,-25.471c-2.225,2.246 -3.896,3.475 -6.483,4.696c-0.421,-5.963 -0.617,-11.85 -0.529,-17.817c2.866,0.95 4.6,1.996 6.925,4.167c1.646,1.533 2.475,2.567 3.583,4.521c-1.142,1.866 -1.942,2.866 -3.496,4.433Zm10.459,1.304l7.054,4.05c-5.642,8.446 -10.15,18.129 -13.159,28.338c0.688,-11.659 2.8,-22.55 6.105,-32.388Zm2.941,53.129c-2.091,-3.925 -4.079,-6.391 -3.629,-10.816c0.275,-2.679 0.829,-5.696 1.675,-8.942c0.742,0.742 1.458,1.3 2.529,1.996c1.704,1.117 3.029,1.725 4.713,2.137c-2.679,5.842 -4.109,11.663 -5.288,15.625Zm1.213,-21.829c-0.913,-0.441 -1.479,-0.783 -2.179,-1.358c1.895,-6.121 4.745,-12.738 8.595,-18.879c7.713,-12.288 17.121,-22.429 29.713,-27.038c1.121,4.346 5.183,15.084 5.183,15.084c-0.171,1.929 -0.304,7.808 -0.246,11.308c-12.412,-0.838 -21.354,6.621 -30.295,16.575c-1.525,1.712 -2.867,3.558 -4.03,5.467c-2.35,0.358 -4.316,0.004 -6.741,-1.159Zm40.029,-12.4c-1.425,1.613 -2.467,3.304 -3.629,5.7c-0.804,1.667 -1.179,2.679 -1.675,4.459c-1.313,-2.08 -2.379,-3.15 -4.454,-4.459c-1.405,-0.9 -2.617,-1.475 -3.909,-1.829c4.317,-2.446 8.979,-3.846 13.667,-3.871Zm-34.571,36.313c1.008,-9.067 5.063,-17.579 10.767,-24.079c2.979,0.812 5.241,1.995 8.171,4.133c2.141,1.562 3.5,2.792 4.891,4.542c-9.683,1.695 -19.312,7.729 -23.829,15.404Zm39.329,28.375c-9.171,-0.6 -15.471,-3.679 -18.141,-11.396c-2.238,-6.467 -0.759,-20.4 7.35,-25.504c0.066,1.883 0.47,3.412 1.1,4.754c-0.821,2.375 -1.23,4.425 -1.546,7.4c-0.596,5.562 -0.263,8.925 1.341,14.279l3.167,-6.783l0.292,-10.559c2.946,2.917 6.566,5.467 8.096,10.855c1.316,4.741 0.745,10.754 -1.659,16.954Zm2.2,-40.467c-1.629,-1.296 -3.5,-2.287 -5.625,-2.883c-1.212,-0.342 -2.471,-0.6 -3.733,-0.746c0.179,-5.138 0.804,-8.463 2.5,-13.696c0.9,-2.737 1.625,-4.6 2.692,-6.733c1.058,0.108 2.116,0.304 3.166,0.591c6.346,1.65 10.742,6.684 13.338,13.313c-3.834,1.771 -6.309,3.596 -9.571,6.971c-1.171,1.191 -1.963,2.096 -2.767,3.183Zm6.488,9.329c3.141,-1.579 5.054,-3.491 6.933,-6.825c0.592,-1.016 1.021,-1.916 1.346,-2.808c1.45,11.262 -0.804,24.237 -6.3,33.421c1.25,-7.717 0.804,-16.659 -1.979,-23.788Zm3.383,39.271c6.35,-9.654 9.058,-16.033 11.546,-27.337c1.121,-4.996 1.812,-9.78 2.083,-14.271c2.521,1.904 3.963,4.041 5.084,7.379c1.129,3.387 0.091,5.587 0.262,9.15c0.108,2.154 0.2,3.75 0.321,5.454c-6.721,8.267 -13.9,15.229 -19.296,19.625Zm38.442,-55.412c-1.863,9.254 -6.838,18.812 -12.892,27.52c-0.783,-3.729 -2.342,-9.62 -5.304,-15.041c-1.946,-3.567 -4.479,-5.325 -6.546,-6.479c-0.087,-1.75 -0.258,-3.455 -0.496,-5.121c4.467,-3.517 8.05,-5.096 13.942,-6.279c4.671,-0.934 7.708,-1.013 12.092,-0.255c-0.15,1.85 -0.417,3.734 -0.796,5.655Zm0.45,-30.146c-3.075,-7.213 -8.725,-16.863 -16.7,-23.804l16.579,-9.859c5.054,10.659 5.712,23.092 0.121,33.663Zm5.325,-42.363c0.087,-3.158 0.437,-6.1 1.154,-9.996c0.987,-5.375 3.933,-12.137 6.337,-17.541c1.588,3.133 3.005,6.471 4.267,9.983c5.471,15.05 6.517,25.179 -2.808,40.963c-1.525,-9.563 -4.263,-16.938 -8.95,-23.409Z" style="fill:#fff;fill-rule:nonzero;"/></g></g><clipPath id="_clip2"><rect id="google-logo-white.svg" x="220.63" y="756.88" width="2032" height="643.688"/></clipPath><g clip-path="url(#_clip2)"><g><path d="M473.519,989.678l0,68.138l162.867,-0c-4.984,38.223 -17.728,66.201 -37.113,85.864c-23.821,23.822 -60.941,49.864 -125.754,49.864c-100.276,0 -178.657,-80.881 -178.657,-181.156c-0,-100.266 78.381,-181.148 178.657,-181.148c54.013,-0 93.617,21.329 122.707,48.752l47.92,-47.92c-40.446,-39.334 -94.736,-69.248 -170.627,-69.248c-137.387,0 -252.889,111.899 -252.889,249.286c0,137.388 115.502,249.294 252.889,249.294c74.232,-0 130.181,-24.376 173.943,-69.804c44.873,-44.873 59.006,-108.305 59.006,-159.263c-0,-15.791 -1.113,-30.471 -3.604,-42.659l-229.345,0Z" style="fill:#fff;fill-rule:nonzero;"/><path d="M910.048,1192.71c-48.745,0 -90.849,-40.165 -90.849,-97.497c-0,-57.894 42.104,-97.506 90.849,-97.506c48.753,0 90.855,39.612 90.855,97.506c0,57.332 -42.102,97.497 -90.855,97.497Zm0,-258.435c-88.913,0 -161.478,67.591 -161.478,160.938c0,92.506 72.565,160.931 161.478,160.931c88.918,0 161.493,-68.147 161.493,-160.931c0,-93.347 -72.575,-160.938 -161.493,-160.938Z" style="fill:#fff;fill-rule:nonzero;"/><path d="M1620.53,1192.71c-48.755,0 -85.874,-41.548 -85.874,-97.497c0,-56.782 37.119,-97.506 85.874,-97.506c48.189,0 85.863,41.549 85.863,98.054c0.278,56.227 -37.674,96.949 -85.863,96.949Zm81.15,-222.426l-2.491,-0c-15.784,-18.829 -46.254,-36.009 -84.755,-36.009c-80.326,0 -150.408,70.082 -150.408,160.938c-0,90.293 70.082,160.931 150.408,160.931c38.501,0 68.971,-17.18 84.755,-36.564l2.491,-0l-0,22.431c-0,61.495 -32.961,94.459 -85.866,94.459c-43.205,-0 -70.072,-31.027 -81.158,-57.34l-61.489,25.481c17.728,42.657 64.536,95.005 142.647,95.005c82.819,-0 152.901,-48.745 152.901,-167.572l-0,-289.452l-67.035,-0l-0,27.692Z" style="fill:#fff;fill-rule:nonzero;"/><path d="M1270.14,1192.71c-48.753,0 -90.848,-40.165 -90.848,-97.497c0,-57.894 42.095,-97.506 90.848,-97.506c48.753,0 90.855,39.612 90.855,97.506c0,57.332 -42.102,97.497 -90.855,97.497Zm0,-258.435c-88.913,0 -161.486,67.591 -161.486,160.938c0,92.506 72.573,160.931 161.486,160.931c88.911,0 161.486,-68.147 161.486,-160.931c-0,-93.347 -72.575,-160.938 -161.486,-160.938Z" style="fill:#fff;fill-rule:nonzero;"/><rect x="1824.11" y="769.472" width="69.526" height="486.67" style="fill:#fff;"/><path d="M2103.32,994.66c28.526,0 52.903,14.681 60.933,35.454l-145.416,60.107c0,-67.581 47.919,-95.561 84.483,-95.561Zm4.984,198.05c-36.01,0 -61.489,-16.345 -78.113,-48.752l215.222,-88.911l-7.198,-18.282c-13.299,-36.011 -54.291,-102.49 -137.664,-102.49c-82.826,0 -151.788,65.099 -151.788,160.938c-0,90.293 68.137,160.931 159.541,160.931c73.676,0 116.334,-45.151 134.062,-71.194l-54.848,-36.557c-18.273,26.591 -43.206,44.317 -79.214,44.317Z" style="fill:#fff;fill-rule:nonzero;"/></g></g></svg>